<?xml version="1.0" encoding="UTF-8" standalone="no"?>
<!DOCTYPE svg PUBLIC "-//W3C//DTD SVG 1.1//EN" "http://www.w3.org/Graphics/SVG/1.1/DTD/svg11.dtd">
<svg width="100%" height="100%" viewBox="0 0 817 170" version="1.1" xmlns="http://www.w3.org/2000/svg" xmlns:xlink="http://www.w3.org/1999/xlink" xml:space="preserve" xmlns:serif="http://www.serif.com/" style="fill-rule:evenodd;clip-rule:evenodd;stroke-linejoin:round;stroke-miterlimit:2;">
    <g transform="matrix(4.16667,0,0,4.16667,-3216.67,-4631.58)">
        <path d="M788.875,1111.58C788.819,1111.58 784.686,1111.57 780.473,1113.67C778.369,1114.72 776.241,1116.31 774.645,1118.71C773.047,1121.1 771.998,1124.29 772,1128.45L772,1135.31C772.004,1135.37 771.996,1139.5 774.096,1143.71C775.148,1145.82 776.74,1147.95 779.135,1149.54C781.529,1151.14 784.714,1152.19 788.875,1152.19L951.125,1152.19C951.181,1152.18 955.314,1152.19 959.527,1150.09C961.631,1149.04 963.759,1147.45 965.355,1145.05C966.953,1142.66 968.002,1139.47 968,1135.31L968,1128.45C967.996,1128.39 968.004,1124.26 965.904,1120.05C964.852,1117.94 963.26,1115.82 960.865,1114.22C958.471,1112.62 955.286,1111.57 951.125,1111.58L788.875,1111.58L788.875,1112.93L951.125,1112.93C955.064,1112.93 957.954,1113.9 960.116,1115.34C963.355,1117.5 964.997,1120.76 965.824,1123.52C966.237,1124.89 966.445,1126.14 966.548,1127.03C966.599,1127.48 966.625,1127.84 966.638,1128.08C966.644,1128.21 966.647,1128.3 966.649,1128.36L966.65,1128.45L966.65,1135.31C966.648,1139.25 965.672,1142.14 964.232,1144.3C962.075,1147.54 958.815,1149.18 956.057,1150.01C954.68,1150.42 953.437,1150.63 952.543,1150.74C952.096,1150.79 951.736,1150.81 951.491,1150.83C951.368,1150.83 951.274,1150.83 951.212,1150.84L788.875,1150.84C784.936,1150.84 782.046,1149.86 779.884,1148.42C776.645,1146.26 775.004,1143 774.176,1140.24C773.763,1138.87 773.555,1137.62 773.452,1136.73C773.401,1136.28 773.375,1135.92 773.362,1135.68C773.356,1135.56 773.353,1135.46 773.352,1135.4L773.35,1135.31L773.35,1128.45C773.352,1124.51 774.328,1121.62 775.768,1119.46C777.925,1116.22 781.185,1114.58 783.943,1113.75C785.32,1113.34 786.563,1113.13 787.457,1113.03C787.904,1112.98 788.264,1112.95 788.509,1112.94C788.632,1112.93 788.726,1112.93 788.788,1112.93L788.875,1112.93L788.875,1111.58Z" style="fill:white;fill-rule:nonzero;"/>
    </g>
    <g transform="matrix(4.16667,0,0,4.16667,-3216.67,-4631.58)">
        <path d="M805.363,1141.99L805.363,1139.04L796.129,1139.04L796.129,1141.99L805.363,1141.99ZM792.808,1125.16L792.808,1139.04L796.129,1139.04L796.129,1125.16L792.808,1125.16ZM796.129,1121.47L796.129,1124.41L805.363,1124.41L805.363,1121.47L796.129,1121.47ZM805.363,1134.89L805.363,1139.04L808.657,1139.04L808.657,1134.89L805.363,1134.89ZM805.363,1125.16L805.363,1129.76L808.657,1129.76L808.657,1125.16L805.363,1125.16ZM815.812,1139.04L815.812,1141.99L825.046,1141.99L825.046,1139.04L815.812,1139.04ZM812.491,1125.16L812.491,1139.04L815.812,1139.04L815.812,1125.16L812.491,1125.16ZM815.812,1121.47L815.812,1124.41L825.046,1124.41L825.046,1121.47L815.812,1121.47ZM825.046,1125.16L825.046,1139.04L828.367,1139.04L828.367,1125.16L825.046,1125.16ZM832.66,1121.47L832.66,1141.99L835.981,1141.99L835.981,1128.11L839.302,1128.11L839.302,1125.16L835.981,1125.16L835.981,1121.47L832.66,1121.47ZM839.302,1128.11L839.302,1133.99L842.623,1133.99L842.623,1128.11L839.302,1128.11ZM842.623,1125.16L842.623,1128.11L845.944,1128.11L845.944,1141.99L849.265,1141.99L849.265,1121.47L845.944,1121.47L845.944,1125.16L842.623,1125.16ZM866.517,1134.29L866.517,1131.32L857.283,1131.32L857.283,1125.16L853.962,1125.16L853.962,1141.99L857.283,1141.99L857.283,1134.29L866.517,1134.29ZM853.962,1121.47L853.962,1124.41L866.517,1124.41L866.517,1121.47L853.962,1121.47ZM866.517,1125.16L866.517,1131.32L869.838,1131.32L869.838,1125.16L866.517,1125.16ZM876.939,1139.04L876.939,1141.99L886.173,1141.99L886.173,1139.04L876.939,1139.04ZM873.618,1121.47L873.618,1139.04L876.939,1139.04L876.939,1121.47L873.618,1121.47ZM886.173,1121.47L886.173,1139.04L889.494,1139.04L889.494,1121.47L886.173,1121.47ZM898.727,1125.16L898.727,1141.99L902.048,1141.99L902.048,1125.16L898.727,1125.16ZM892.463,1121.47L892.463,1124.41L908.312,1124.41L908.312,1121.47L892.463,1121.47ZM911.471,1121.47L911.471,1124.41L927.347,1124.41L927.347,1121.47L911.471,1121.47ZM911.471,1125.16L911.471,1141.99L927.347,1141.99L927.347,1139.04L914.792,1139.04L914.792,1133.37L925.619,1133.37L925.619,1130.43L914.792,1130.43L914.792,1125.16L911.471,1125.16ZM943.871,1121.47L930.614,1121.47L930.614,1124.41L943.871,1124.41L943.871,1121.47ZM930.614,1125.16L930.614,1141.99L933.935,1141.99L933.935,1133.16L937.229,1133.16L937.229,1136.1L940.55,1136.1L940.55,1133.16L943.871,1133.16L943.871,1130.21L933.935,1130.21L933.935,1125.16L930.614,1125.16ZM940.55,1136.1L940.55,1139.04L943.871,1139.04L943.871,1136.1L940.55,1136.1ZM943.871,1139.04L943.871,1141.99L947.192,1141.99L947.192,1139.04L943.871,1139.04ZM943.871,1125.16L943.871,1130.21L947.192,1130.21L947.192,1125.16L943.871,1125.16Z" style="fill:white;fill-rule:nonzero;"/>
    </g>
</svg>
