<?xml version="1.0" encoding="UTF-8" standalone="no"?>
<!DOCTYPE svg PUBLIC "-//W3C//DTD SVG 1.1//EN" "http://www.w3.org/Graphics/SVG/1.1/DTD/svg11.dtd">
<svg width="100%" height="100%" viewBox="0 0 817 170" version="1.1" xmlns="http://www.w3.org/2000/svg" xmlns:xlink="http://www.w3.org/1999/xlink" xml:space="preserve" xmlns:serif="http://www.serif.com/" style="fill-rule:evenodd;clip-rule:evenodd;stroke-linejoin:round;stroke-miterlimit:2;">
    <g transform="matrix(4.16667,0,0,4.16667,-3216.67,-4631.58)">
        <path d="M805.363,1141.99L805.363,1139.04L796.129,1139.04L796.129,1141.99L805.363,1141.99ZM792.808,1125.16L792.808,1139.04L796.129,1139.04L796.129,1125.16L792.808,1125.16ZM796.129,1121.47L796.129,1124.41L805.363,1124.41L805.363,1121.47L796.129,1121.47ZM805.363,1134.89L805.363,1139.04L808.657,1139.04L808.657,1134.89L805.363,1134.89ZM805.363,1125.16L805.363,1129.76L808.657,1129.76L808.657,1125.16L805.363,1125.16ZM815.812,1139.04L815.812,1141.99L825.046,1141.99L825.046,1139.04L815.812,1139.04ZM812.491,1125.16L812.491,1139.04L815.812,1139.04L815.812,1125.16L812.491,1125.16ZM815.812,1121.47L815.812,1124.41L825.046,1124.41L825.046,1121.47L815.812,1121.47ZM825.046,1125.16L825.046,1139.04L828.367,1139.04L828.367,1125.16L825.046,1125.16ZM832.66,1121.47L832.66,1141.99L835.981,1141.99L835.981,1128.11L839.302,1128.11L839.302,1125.16L835.981,1125.16L835.981,1121.47L832.66,1121.47ZM839.302,1128.11L839.302,1133.99L842.623,1133.99L842.623,1128.11L839.302,1128.11ZM842.623,1125.16L842.623,1128.11L845.944,1128.11L845.944,1141.99L849.265,1141.99L849.265,1121.47L845.944,1121.47L845.944,1125.16L842.623,1125.16ZM866.517,1134.29L866.517,1131.32L857.283,1131.32L857.283,1125.16L853.962,1125.16L853.962,1141.99L857.283,1141.99L857.283,1134.29L866.517,1134.29ZM853.962,1121.47L853.962,1124.41L866.517,1124.41L866.517,1121.47L853.962,1121.47ZM866.517,1125.16L866.517,1131.32L869.838,1131.32L869.838,1125.16L866.517,1125.16ZM876.939,1139.04L876.939,1141.99L886.173,1141.99L886.173,1139.04L876.939,1139.04ZM873.618,1121.47L873.618,1139.04L876.939,1139.04L876.939,1121.47L873.618,1121.47ZM886.173,1121.47L886.173,1139.04L889.494,1139.04L889.494,1121.47L886.173,1121.47ZM898.727,1125.16L898.727,1141.99L902.048,1141.99L902.048,1125.16L898.727,1125.16ZM892.463,1121.47L892.463,1124.41L908.312,1124.41L908.312,1121.47L892.463,1121.47ZM911.471,1121.47L911.471,1124.41L927.347,1124.41L927.347,1121.47L911.471,1121.47ZM911.471,1125.16L911.471,1141.99L927.347,1141.99L927.347,1139.04L914.792,1139.04L914.792,1133.37L925.619,1133.37L925.619,1130.43L914.792,1130.43L914.792,1125.16L911.471,1125.16ZM943.871,1121.47L930.614,1121.47L930.614,1124.41L943.871,1124.41L943.871,1121.47ZM930.614,1125.16L930.614,1141.99L933.935,1141.99L933.935,1133.16L937.229,1133.16L937.229,1136.1L940.55,1136.1L940.55,1133.16L943.871,1133.16L943.871,1130.21L933.935,1130.21L933.935,1125.16L930.614,1125.16ZM940.55,1136.1L940.55,1139.04L943.871,1139.04L943.871,1136.1L940.55,1136.1ZM943.871,1139.04L943.871,1141.99L947.192,1141.99L947.192,1139.04L943.871,1139.04ZM943.871,1125.16L943.871,1130.21L947.192,1130.21L947.192,1125.16L943.871,1125.16Z" style="fill:white;fill-rule:nonzero;"/>
    </g>
</svg>
