<?xml version="1.0" encoding="UTF-8" standalone="no"?>
<!DOCTYPE svg PUBLIC "-//W3C//DTD SVG 1.1//EN" "http://www.w3.org/Graphics/SVG/1.1/DTD/svg11.dtd">
<svg width="100%" height="100%" viewBox="0 0 4917 3493" version="1.1" xmlns="http://www.w3.org/2000/svg" xmlns:xlink="http://www.w3.org/1999/xlink" xml:space="preserve" xmlns:serif="http://www.serif.com/" style="fill-rule:evenodd;clip-rule:evenodd;stroke-linejoin:round;stroke-miterlimit:2;">
    <g transform="matrix(4.16667,0,0,4.16667,-1166.87,-1041.42)">
        <path d="M317.175,268.165C317.175,268.165 300.975,268.165 300.975,284.365L300.975,1052.52C300.975,1052.52 300.975,1068.72 317.175,1068.72L1422.82,1068.72C1422.82,1068.72 1439.03,1068.72 1439.03,1052.52L1439.03,284.365C1439.03,284.365 1439.03,268.165 1422.82,268.165L317.175,268.165Z" style="fill:rgb(34,34,34);fill-rule:nonzero;"/>
    </g>
    <g transform="matrix(4.16667,0,0,4.16667,-1166.87,-1041.42)">
        <path d="M317.175,267.49C317.119,267.494 312.986,267.486 308.773,269.586C306.669,270.638 304.541,272.23 302.945,274.625C301.347,277.019 300.298,280.204 300.3,284.365L300.3,1052.52C300.304,1052.57 300.296,1056.7 302.396,1060.92C303.448,1063.02 305.04,1065.15 307.435,1066.75C309.829,1068.34 313.014,1069.39 317.175,1069.39L1422.82,1069.39C1422.88,1069.39 1427.01,1069.39 1431.23,1067.29C1433.33,1066.24 1435.46,1064.65 1437.06,1062.26C1438.65,1059.86 1439.7,1056.68 1439.7,1052.52L1439.7,284.365C1439.7,284.309 1439.7,280.176 1437.6,275.963C1436.55,273.859 1434.96,271.731 1432.56,270.135C1430.17,268.537 1426.99,267.488 1422.82,267.49L317.175,267.49L317.175,268.84L1422.82,268.84C1426.76,268.842 1429.65,269.818 1431.82,271.258C1435.05,273.415 1436.7,276.675 1437.52,279.433C1437.94,280.81 1438.14,282.053 1438.25,282.947C1438.3,283.395 1438.32,283.754 1438.34,283.999C1438.34,284.122 1438.35,284.216 1438.35,284.278L1438.35,1052.52C1438.35,1056.45 1437.37,1059.34 1435.93,1061.51C1433.78,1064.75 1430.52,1066.39 1427.76,1067.21C1426.38,1067.63 1425.14,1067.83 1424.24,1067.94C1423.8,1067.99 1423.44,1068.01 1423.19,1068.03C1423.07,1068.03 1422.97,1068.04 1422.91,1068.04L317.175,1068.04C313.236,1068.04 310.346,1067.06 308.184,1065.62C304.945,1063.47 303.303,1060.21 302.476,1057.45C302.063,1056.07 301.855,1054.83 301.752,1053.93C301.701,1053.49 301.675,1053.13 301.662,1052.88C301.656,1052.76 301.653,1052.66 301.651,1052.6L301.65,1052.52L301.65,284.365C301.652,280.426 302.628,277.536 304.068,275.374C306.225,272.135 309.485,270.494 312.243,269.666C313.62,269.253 314.863,269.046 315.757,268.942C316.204,268.891 316.564,268.865 316.809,268.853C316.932,268.846 317.026,268.843 317.088,268.842L317.175,268.84L317.175,267.49Z" style="fill:rgb(151,151,151);fill-rule:nonzero;"/>
    </g>
    <g transform="matrix(4.16667,0,0,4.16667,-1166.87,-1041.42)">
        <path d="M1241.17,289.441C1241.12,289.444 1236.98,289.436 1232.77,291.537C1230.67,292.588 1228.54,294.18 1226.94,296.576C1225.35,298.969 1224.3,302.154 1224.3,306.316L1224.3,317.777C1224.3,317.833 1224.29,321.966 1226.4,326.178C1227.45,328.283 1229.04,330.41 1231.43,332.007C1233.83,333.605 1237.01,334.654 1241.17,334.652L1391.02,334.652C1391.07,334.648 1395.21,334.656 1399.42,332.555C1401.52,331.504 1403.65,329.912 1405.25,327.517C1406.84,325.123 1407.89,321.938 1407.89,317.777L1407.89,306.316C1407.89,306.259 1407.9,302.126 1405.8,297.914C1404.74,295.81 1403.15,293.682 1400.76,292.085C1398.36,290.487 1395.18,289.439 1391.02,289.441L1241.17,289.441L1241.17,290.791L1391.02,290.791C1394.96,290.793 1397.85,291.769 1400.01,293.208C1403.25,295.365 1404.89,298.625 1405.72,301.384C1406.13,302.76 1406.34,304.004 1406.44,304.898C1406.49,305.345 1406.52,305.705 1406.53,305.95C1406.54,306.073 1406.54,306.167 1406.54,306.229L1406.54,317.777C1406.54,321.715 1405.56,324.605 1404.12,326.768C1401.97,330.007 1398.71,331.648 1395.95,332.476C1394.57,332.889 1393.33,333.096 1392.43,333.199C1391.99,333.251 1391.63,333.276 1391.38,333.289C1391.26,333.296 1391.17,333.299 1391.1,333.3L1391.02,333.302L1241.17,333.302C1237.23,333.3 1234.35,332.323 1232.18,330.884C1228.94,328.727 1227.3,325.467 1226.47,322.708C1226.06,321.332 1225.85,320.088 1225.75,319.194C1225.7,318.747 1225.67,318.388 1225.66,318.142C1225.65,318.02 1225.65,317.926 1225.65,317.863L1225.65,306.316C1225.65,302.377 1226.63,299.487 1228.07,297.324C1230.22,294.086 1233.48,292.444 1236.24,291.616C1237.62,291.203 1238.86,290.996 1239.76,290.893C1240.2,290.841 1240.56,290.816 1240.81,290.803C1240.93,290.797 1241.02,290.794 1241.09,290.792L1241.17,290.791L1241.17,289.441Z" style="fill:rgb(151,151,151);fill-rule:nonzero;"/>
    </g>
    <g transform="matrix(4.16667,0,0,4.16667,-1166.87,-1041.42)">
        <path d="M347.82,289.441C347.763,289.444 343.63,289.436 339.418,291.537C337.314,292.588 335.186,294.18 333.589,296.576C331.991,298.969 330.943,302.154 330.945,306.316L330.945,317.777C330.948,317.833 330.94,321.966 333.041,326.178C334.092,328.283 335.684,330.41 338.08,332.007C340.473,333.605 343.658,334.654 347.82,334.652L398.61,334.652C398.667,334.648 402.799,334.656 407.012,332.555C409.116,331.504 411.244,329.912 412.841,327.517C414.438,325.123 415.487,321.938 415.485,317.777L415.485,306.316C415.482,306.259 415.489,302.126 413.389,297.914C412.337,295.81 410.745,293.682 408.35,292.085C405.956,290.487 402.771,289.439 398.61,289.441L347.82,289.441L347.82,290.791L398.61,290.791C402.549,290.793 405.439,291.769 407.601,293.208C410.84,295.365 412.482,298.625 413.309,301.384C413.722,302.76 413.93,304.004 414.033,304.898C414.084,305.345 414.11,305.705 414.123,305.95C414.129,306.073 414.132,306.167 414.134,306.229L414.135,306.316L414.135,317.777C414.133,321.715 413.157,324.605 411.717,326.768C409.56,330.007 406.3,331.648 403.542,332.476C402.166,332.889 400.922,333.096 400.028,333.199C399.581,333.251 399.221,333.276 398.976,333.289C398.853,333.296 398.759,333.299 398.697,333.3L398.61,333.302L347.82,333.302C343.881,333.3 340.991,332.323 338.828,330.884C335.59,328.727 333.948,325.467 333.12,322.708C332.707,321.332 332.5,320.088 332.397,319.194C332.345,318.747 332.32,318.388 332.307,318.142C332.301,318.02 332.298,317.926 332.296,317.863L332.295,317.777L332.295,306.316C332.297,302.377 333.273,299.487 334.713,297.324C336.87,294.086 340.129,292.444 342.888,291.616C344.264,291.203 345.508,290.996 346.402,290.893C346.849,290.841 347.209,290.816 347.454,290.803C347.577,290.797 347.671,290.794 347.733,290.792L347.82,290.791L347.82,289.441Z" style="fill:rgb(151,151,151);fill-rule:nonzero;"/>
    </g>
    <g transform="matrix(4.16667,0,0,4.16667,-1166.87,-1041.42)">
        <path d="M441.561,289.441C441.504,289.444 437.372,289.436 433.159,291.537C431.055,292.588 428.927,294.18 427.33,296.576C425.732,298.969 424.684,302.154 424.686,306.316L424.686,317.777C424.689,317.833 424.681,321.966 426.782,326.178C427.834,328.283 429.426,330.41 431.821,332.007C434.214,333.605 437.4,334.654 441.561,334.652L492.351,334.652C492.408,334.648 496.54,334.656 500.753,332.555C502.857,331.504 504.985,329.912 506.582,327.517C508.18,325.123 509.228,321.938 509.226,317.777L509.226,306.316C509.223,306.259 509.231,302.126 507.13,297.914C506.079,295.81 504.487,293.682 502.091,292.085C499.698,290.487 496.513,289.439 492.351,289.441L441.561,289.441L441.561,290.791L492.351,290.791C496.29,290.793 499.18,291.769 501.343,293.208C504.581,295.365 506.223,298.625 507.05,301.384C507.464,302.76 507.671,304.004 507.774,304.898C507.826,305.345 507.851,305.705 507.864,305.95C507.87,306.073 507.873,306.167 507.875,306.229L507.876,306.316L507.876,317.777C507.874,321.715 506.898,324.605 505.458,326.768C503.301,330.007 500.042,331.648 497.283,332.476C495.907,332.889 494.663,333.096 493.769,333.199C493.322,333.251 492.962,333.276 492.717,333.289C492.594,333.296 492.5,333.299 492.438,333.3L492.351,333.302L441.561,333.302C437.622,333.3 434.732,332.323 432.57,330.884C429.331,328.727 427.689,325.467 426.862,322.708C426.449,321.332 426.241,320.088 426.138,319.194C426.087,318.747 426.061,318.388 426.048,318.142C426.042,318.02 426.039,317.926 426.037,317.863L426.036,317.777L426.036,306.316C426.038,302.377 427.014,299.487 428.454,297.324C430.611,294.086 433.87,292.444 436.629,291.616C438.005,291.203 439.249,290.996 440.143,290.893C440.59,290.841 440.95,290.816 441.195,290.803C441.318,290.797 441.412,290.794 441.474,290.792L441.561,290.791L441.561,289.441Z" style="fill:rgb(151,151,151);fill-rule:nonzero;"/>
    </g>
</svg>
