<?xml version="1.0" encoding="UTF-8" standalone="no"?>
<!DOCTYPE svg PUBLIC "-//W3C//DTD SVG 1.1//EN" "http://www.w3.org/Graphics/SVG/1.1/DTD/svg11.dtd">
<svg width="100%" height="100%" viewBox="0 0 71 80" version="1.1" xmlns="http://www.w3.org/2000/svg" xmlns:xlink="http://www.w3.org/1999/xlink" xml:space="preserve" xmlns:serif="http://www.serif.com/" style="fill-rule:evenodd;clip-rule:evenodd;stroke-linejoin:round;stroke-miterlimit:2;">
    <g transform="matrix(4.16667,0,0,4.16667,-1519.8,-525.248)">
        <g transform="matrix(0.25863,0,0,0.266161,351.849,126.907)">
            <rect x="49.889" y="0" width="21.111" height="21.111" style="fill:white;"/>
        </g>
        <g transform="matrix(0.25863,0,0,0.266161,351.849,132.878)">
            <rect x="49.889" y="0" width="21.111" height="21.111" style="fill:white;"/>
        </g>
        <g transform="matrix(0.25863,0,0,0.266161,351.849,138.793)">
            <rect x="49.889" y="0" width="21.111" height="21.111" style="fill:white;"/>
        </g>
        <g transform="matrix(0.25863,0,0,0.266161,357.639,126.907)">
            <rect x="49.889" y="0" width="21.111" height="21.111" style="fill:white;"/>
        </g>
        <g transform="matrix(0.25863,0,0,0.266161,357.639,132.878)">
            <rect x="49.889" y="0" width="21.111" height="21.111" style="fill:white;"/>
        </g>
        <g transform="matrix(0.25863,0,0,0.266161,357.639,138.793)">
            <rect x="49.889" y="0" width="21.111" height="21.111" style="fill:white;"/>
        </g>
        <g transform="matrix(0.25863,0,0,0.266161,363.429,126.907)">
            <rect x="49.889" y="0" width="21.111" height="21.111" style="fill:white;"/>
        </g>
        <g transform="matrix(0.25863,0,0,0.266161,363.429,132.878)">
            <rect x="49.889" y="0" width="21.111" height="21.111" style="fill:white;"/>
        </g>
        <g transform="matrix(0.25863,0,0,0.266161,363.429,138.793)">
            <rect x="49.889" y="0" width="21.111" height="21.111" style="fill:white;"/>
        </g>
    </g>
</svg>
