<?xml version="1.0" encoding="UTF-8" standalone="no"?>
<!DOCTYPE svg PUBLIC "-//W3C//DTD SVG 1.1//EN" "http://www.w3.org/Graphics/SVG/1.1/DTD/svg11.dtd">
<svg width="100%" height="100%" viewBox="0 0 867 170" version="1.1" xmlns="http://www.w3.org/2000/svg" xmlns:xlink="http://www.w3.org/1999/xlink" xml:space="preserve" xmlns:serif="http://www.serif.com/" style="fill-rule:evenodd;clip-rule:evenodd;stroke-linejoin:round;stroke-miterlimit:2;">
    <g transform="matrix(4.16667,0,0,4.16667,-3191.67,-4630.83)">
        <path d="M790.72,1131.56C790.752,1132.19 791.022,1132.81 791.447,1133.36C792.751,1135.07 794.816,1136.49 796.434,1138.03C797.602,1139.14 798.402,1140.66 795.164,1138.68C795.164,1138.68 787.325,1133.7 785.371,1131.79C783.254,1129.72 780.388,1126.91 799.903,1128.81L799.903,1121.89C799.903,1121.89 781.231,1118.81 783.435,1133.11C786.231,1146.2 797.411,1141.76 797.756,1139.58C798.092,1137.46 797.371,1134.88 797.73,1132.93L797.815,1132.56C798.169,1131.27 799.106,1130.32 801.347,1130.07L801.353,1129.97C793.816,1129.53 790.612,1129.1 790.72,1131.56ZM820.004,1128.55L819.871,1128.55C819.551,1130.71 816.422,1136.2 809.535,1131.77C810.022,1131.63 810.781,1131.84 811.835,1131.92C819.456,1132.47 819.017,1126.84 819.017,1126.84C818.858,1122.75 813.287,1121.4 802.072,1122.18L802.048,1128.89C802.048,1128.89 814.462,1127.11 814.295,1129.56L814.292,1129.57C814.157,1131.88 812.317,1131.77 811.059,1131.38C809.314,1130.83 807.4,1129.19 805.87,1129.27C803.39,1129.1 801.808,1131.68 802.072,1141.79L809.796,1141.79C808.89,1135.39 808.614,1132.97 809.086,1132.13C812.972,1142.52 816.733,1141.86 816.733,1141.86C819.524,1142.03 820.337,1136.02 820.004,1128.55ZM831.367,1121.9C825.852,1121.9 821.383,1126.37 821.383,1131.89C821.383,1137.4 825.852,1141.87 831.367,1141.87C836.881,1141.87 841.353,1137.4 841.353,1131.89C841.353,1126.37 836.881,1121.9 831.367,1121.9ZM837.058,1139.35C835.765,1140.22 832.386,1137.46 829.51,1133.18C826.633,1128.9 825.348,1124.72 826.641,1123.86C827.935,1122.99 831.315,1125.75 834.189,1130.03C837.066,1134.31 838.351,1138.48 837.058,1139.35ZM852.241,1121.9C846.727,1121.9 842.258,1126.37 842.258,1131.89C842.258,1137.4 846.727,1141.87 852.241,1141.87C857.755,1141.87 862.227,1137.4 862.227,1131.89C862.227,1126.37 857.755,1121.9 852.241,1121.9ZM857.932,1139.35C856.639,1140.22 853.261,1137.46 850.384,1133.18C847.507,1128.9 846.223,1124.72 847.516,1123.86C848.809,1122.99 852.19,1125.75 855.064,1130.03C857.941,1134.31 859.225,1138.48 857.932,1139.35ZM871.742,1121.93C871.956,1127.02 877.06,1131.52 878.838,1133.58C880.138,1135.09 880.219,1138.05 878.156,1137.95C878.156,1137.95 871.383,1137.79 869.938,1121.88L861.998,1121.88C861.998,1121.88 863.698,1141.6 874.675,1141.6C878.776,1141.6 880.126,1138.84 880.306,1135.68C880.599,1130.5 877.716,1123.5 883.412,1122.19L883.463,1121.99L871.741,1121.93L871.742,1121.93ZM896.814,1122.06C896.086,1122.09 895.378,1122.37 894.742,1122.8C892.783,1124.12 891.157,1126.21 889.392,1127.85C888.122,1129.03 886.373,1129.84 888.646,1126.56C889.006,1126.05 889.22,1125.42 889.22,1124.74C889.22,1123.01 887.829,1121.6 886.113,1121.6C884.397,1121.6 883.006,1123.01 883.006,1124.74C883.006,1125.13 883.079,1125.5 883.207,1125.85C883.776,1127.88 885.501,1128.89 887.614,1129.19C890.045,1129.53 893.003,1128.8 895.237,1129.16C894.123,1131.82 890.129,1129.25 887.436,1129.64C885.559,1129.91 883.244,1131.71 884.034,1135.24C884.7,1137.91 887.538,1142.37 895.644,1141.97L898.28,1141.84L898.28,1135.06L895.587,1135.27C895.587,1135.27 886.344,1136.18 886.056,1131.94C885.81,1129.59 887.792,1129.75 888.69,1130.62C889.926,1131.8 891.044,1133.3 892.433,1134.27C892.882,1134.58 893.393,1134.79 893.924,1134.83C895.733,1134.98 895.756,1133.25 895.664,1129.25C897.143,1129.6 898.236,1130.55 898.52,1132.82L898.641,1132.83C899.138,1125.2 899.638,1121.95 896.814,1122.06ZM915.017,1130.35C913.914,1129.53 912.406,1129.09 910.657,1129.88C907.618,1131.26 904.693,1130.54 911.042,1129.57C911.042,1129.57 916.361,1128.42 914.602,1124.43C912.843,1120.44 900.416,1122.06 900.416,1122.06L900.617,1128.82C912.499,1126.52 912.15,1127.68 912.204,1128.08C912.204,1128.08 912.383,1129.11 910.748,1129.23L900.558,1129.58C900.002,1139.89 910.867,1130.45 910.867,1130.45C911.978,1129.35 914.39,1129.4 914.088,1131.8L914.091,1131.8C913.727,1136.73 900.628,1135.02 900.628,1135.02L900.628,1141.92C911.962,1142.71 915.752,1137.9 916.563,1135.18C917.167,1132.93 916.306,1131.32 915.017,1130.35ZM927.725,1121.9C922.211,1121.9 917.742,1126.37 917.742,1131.89C917.742,1137.4 922.211,1141.87 927.725,1141.87C933.24,1141.87 937.711,1137.4 937.711,1131.89C937.711,1126.37 933.24,1121.9 927.725,1121.9ZM933.416,1139.35C932.123,1140.22 928.745,1137.46 925.868,1133.18C922.991,1128.9 921.707,1124.72 923,1123.86C924.293,1122.99 927.674,1125.75 930.548,1130.03C933.425,1134.31 934.709,1138.48 933.416,1139.35ZM957.244,1141.82C957.244,1141.82 957.008,1128.3 946.469,1132.02C953.355,1127.6 956.485,1133.09 956.804,1135.25L956.938,1135.25C957.271,1127.78 956.458,1121.77 953.667,1121.94C953.667,1121.94 949.715,1121.76 945.829,1132.15C938.969,1133.02 947.99,1128.06 946.729,1122.01L939.006,1122.01C938.558,1127.5 938.263,1132.2 941.606,1133.4C942.785,1133.82 944.856,1133.26 946.552,1132.72C947.551,1136.47 938.719,1134.02 938.719,1134.02L938.398,1141.82C949.648,1143.12 947.2,1133.26 947.016,1132.57C947.391,1132.45 947.741,1132.34 948.046,1132.24C949.304,1131.85 949.646,1139.05 947.4,1141.82L957.244,1141.82Z" style="fill:white;fill-rule:nonzero;"/>
    </g>
</svg>
