<?xml version="1.0" encoding="UTF-8" standalone="no"?>
<!DOCTYPE svg PUBLIC "-//W3C//DTD SVG 1.1//EN" "http://www.w3.org/Graphics/SVG/1.1/DTD/svg11.dtd">
<svg width="100%" height="100%" viewBox="0 0 4917 3493" version="1.1" xmlns="http://www.w3.org/2000/svg" xmlns:xlink="http://www.w3.org/1999/xlink" xml:space="preserve" xmlns:serif="http://www.serif.com/" style="fill-rule:evenodd;clip-rule:evenodd;stroke-linejoin:round;stroke-miterlimit:2;">
    <g transform="matrix(4.16667,0,0,4.16667,-1166.87,-1040.69)">
        <path d="M317.175,267.991C317.175,267.991 300.975,267.991 300.975,284.191L300.975,1052.34C300.975,1052.34 300.975,1068.54 317.175,1068.54L1422.82,1068.54C1422.82,1068.54 1439.03,1068.54 1439.03,1052.34L1439.03,284.191C1439.03,284.191 1439.03,267.991 1422.82,267.991L317.175,267.991Z" style="fill:rgb(34,35,37);fill-rule:nonzero;"/>
    </g>
    <g transform="matrix(4.16667,0,0,4.16667,-1166.87,-1040.69)">
        <path d="M317.175,267.316C317.119,267.319 312.986,267.311 308.773,269.412C306.669,270.463 304.541,272.055 302.945,274.451C301.347,276.844 300.298,280.029 300.3,284.191L300.3,1052.34C300.304,1052.4 300.296,1056.53 302.396,1060.74C303.448,1062.85 305.04,1064.97 307.435,1066.57C309.829,1068.17 313.014,1069.22 317.175,1069.22L1422.82,1069.22C1422.88,1069.21 1427.01,1069.22 1431.23,1067.12C1433.33,1066.07 1435.46,1064.48 1437.06,1062.08C1438.65,1059.69 1439.7,1056.5 1439.7,1052.34L1439.7,284.191C1439.7,284.134 1439.7,280.001 1437.6,275.789C1436.55,273.685 1434.96,271.557 1432.56,269.96C1430.17,268.362 1426.99,267.314 1422.82,267.316L317.175,267.316L317.175,268.666L1422.82,268.666C1426.76,268.668 1429.65,269.644 1431.82,271.083C1435.05,273.24 1436.7,276.5 1437.52,279.259C1437.94,280.635 1438.14,281.879 1438.25,282.773C1438.3,283.22 1438.32,283.58 1438.34,283.825C1438.34,283.948 1438.35,284.042 1438.35,284.104L1438.35,1052.34C1438.35,1056.28 1437.37,1059.17 1435.93,1061.33C1433.78,1064.57 1430.52,1066.21 1427.76,1067.04C1426.38,1067.45 1425.14,1067.66 1424.24,1067.76C1423.8,1067.81 1423.44,1067.84 1423.19,1067.85C1423.07,1067.86 1422.97,1067.86 1422.91,1067.86L1422.82,1067.87L317.175,1067.87C313.236,1067.86 310.346,1066.89 308.184,1065.45C304.945,1063.29 303.303,1060.03 302.476,1057.27C302.063,1055.9 301.855,1054.65 301.752,1053.76C301.701,1053.31 301.675,1052.95 301.662,1052.71C301.656,1052.58 301.653,1052.49 301.651,1052.43L301.65,1052.34L301.65,284.191C301.652,280.252 302.628,277.362 304.068,275.199C306.225,271.961 309.485,270.319 312.243,269.491C313.62,269.078 314.863,268.871 315.757,268.768C316.204,268.716 316.564,268.691 316.809,268.678C316.932,268.672 317.026,268.669 317.088,268.667L317.175,268.666L317.175,267.316Z" style="fill:rgb(151,151,151);fill-rule:nonzero;"/>
    </g>
    <g transform="matrix(4.16667,0,0,4.16667,-1166.87,-1040.69)">
        <path d="M459.64,644.844C459.583,644.848 455.451,644.84 451.238,646.94C449.134,647.992 447.006,649.584 445.409,651.979C443.811,654.373 442.763,657.558 442.765,661.719L442.765,701.472C442.768,701.529 442.76,705.661 444.861,709.874C445.912,711.978 447.504,714.106 449.9,715.703C452.293,717.301 455.478,718.349 459.64,718.347L600.856,718.347C600.912,718.344 605.045,718.352 609.258,716.251C611.362,715.2 613.49,713.608 615.086,711.212C616.684,708.819 617.733,705.634 617.731,701.472L617.731,661.719C617.727,661.663 617.735,657.53 615.634,653.317C614.583,651.213 612.991,649.085 610.596,647.489C608.202,645.891 605.017,644.842 600.856,644.844L459.64,644.844L459.64,646.194L600.856,646.194C604.794,646.196 607.684,647.172 609.847,648.612C613.086,650.769 614.727,654.029 615.555,656.787C615.968,658.164 616.175,659.407 616.278,660.301C616.33,660.748 616.355,661.108 616.368,661.353C616.375,661.476 616.378,661.57 616.379,661.632L616.381,661.719L616.381,701.472C616.379,705.411 615.402,708.301 613.963,710.464C611.806,713.702 608.546,715.344 605.787,716.172C604.411,716.585 603.167,716.792 602.273,716.895C601.826,716.947 601.466,716.972 601.221,716.985C601.099,716.991 601.005,716.994 600.943,716.996L600.856,716.997L459.64,716.997C455.701,716.995 452.811,716.019 450.648,714.58C447.41,712.423 445.768,709.163 444.94,706.404C444.527,705.028 444.32,703.784 444.217,702.89C444.165,702.443 444.14,702.083 444.127,701.838C444.121,701.715 444.118,701.621 444.116,701.559L444.115,701.472L444.115,661.719C444.117,657.78 445.093,654.89 446.533,652.728C448.69,649.489 451.949,647.848 454.708,647.02C456.084,646.607 457.328,646.399 458.222,646.296C458.669,646.245 459.029,646.219 459.274,646.206C459.397,646.2 459.491,646.197 459.553,646.195L459.64,646.194L459.64,644.844Z" style="fill:rgb(151,151,151);fill-rule:nonzero;"/>
    </g>
    <g transform="matrix(4.16667,0,0,4.16667,-1166.87,-1040.69)">
        <path d="M459.64,750.321C459.583,750.325 455.451,750.317 451.238,752.417C449.134,753.469 447.006,755.061 445.409,757.456C443.811,759.85 442.763,763.035 442.765,767.196L442.765,806.95C442.768,807.006 442.76,811.139 444.861,815.351C445.912,817.456 447.504,819.583 449.9,821.18C452.293,822.778 455.478,823.827 459.64,823.825L600.856,823.825C600.912,823.821 605.045,823.829 609.258,821.728C611.362,820.677 613.49,819.085 615.086,816.69C616.684,814.296 617.733,811.111 617.731,806.95L617.731,767.196C617.727,767.14 617.735,763.007 615.634,758.794C614.583,756.69 612.991,754.562 610.596,752.966C608.202,751.368 605.017,750.319 600.856,750.321L459.64,750.321L459.64,751.671L600.856,751.671C604.794,751.673 607.684,752.65 609.847,754.089C613.086,756.246 614.727,759.506 615.555,762.264C615.968,763.641 616.175,764.884 616.278,765.779C616.33,766.226 616.355,766.585 616.368,766.831C616.375,766.953 616.378,767.047 616.379,767.109L616.381,767.196L616.381,806.95C616.379,810.888 615.402,813.778 613.963,815.941C611.806,819.18 608.546,820.821 605.787,821.649C604.411,822.062 603.167,822.269 602.273,822.372C601.826,822.424 601.466,822.449 601.221,822.462C601.099,822.469 601.005,822.472 600.943,822.473L600.856,822.475L459.64,822.475C455.701,822.473 452.811,821.496 450.648,820.057C447.41,817.9 445.768,814.64 444.94,811.881C444.527,810.505 444.32,809.261 444.217,808.367C444.165,807.92 444.14,807.56 444.127,807.315C444.121,807.193 444.118,807.099 444.116,807.036L444.115,806.95L444.115,767.196C444.117,763.257 445.093,760.368 446.533,758.205C448.69,754.966 451.949,753.325 454.708,752.497C456.084,752.084 457.328,751.877 458.222,751.774C458.669,751.722 459.029,751.696 459.274,751.684C459.397,751.677 459.491,751.674 459.553,751.673L459.64,751.671L459.64,750.321Z" style="fill:rgb(151,151,151);fill-rule:nonzero;"/>
    </g>
    <g transform="matrix(4.16667,0,0,4.16667,-1166.87,-1040.69)">
        <path d="M459.64,851.124C459.583,851.128 455.451,851.12 451.238,853.22C449.134,854.272 447.006,855.864 445.409,858.259C443.811,860.653 442.763,863.838 442.765,867.999L442.765,907.752C442.768,907.809 442.76,911.942 444.861,916.154C445.912,918.258 447.504,920.386 449.9,921.983C452.293,923.581 455.478,924.629 459.64,924.627L600.856,924.627C600.912,924.624 605.045,924.632 609.258,922.531C611.362,921.48 613.49,919.888 615.086,917.492C616.684,915.099 617.733,911.914 617.731,907.752L617.731,867.999C617.727,867.943 617.735,863.81 615.634,859.597C614.583,857.493 612.991,855.365 610.596,853.769C608.202,852.171 605.017,851.122 600.856,851.124L459.64,851.124L459.64,852.474L600.856,852.474C604.794,852.476 607.684,853.452 609.847,854.892C613.086,857.049 614.727,860.309 615.555,863.067C615.968,864.444 616.175,865.687 616.278,866.581C616.33,867.029 616.355,867.388 616.368,867.633C616.375,867.756 616.378,867.85 616.379,867.912L616.381,867.999L616.381,907.752C616.379,911.691 615.402,914.581 613.963,916.744C611.806,919.982 608.546,921.624 605.787,922.452C604.411,922.865 603.167,923.072 602.273,923.175C601.826,923.227 601.466,923.252 601.221,923.265C601.099,923.271 601.005,923.274 600.943,923.276L600.856,923.277L459.64,923.277C455.701,923.276 452.811,922.299 450.648,920.86C447.41,918.703 445.768,915.443 444.94,912.684C444.527,911.308 444.32,910.064 444.217,909.17C444.165,908.723 444.14,908.363 444.127,908.118C444.121,907.995 444.118,907.901 444.116,907.839L444.115,907.752L444.115,867.999C444.117,864.06 445.093,861.17 446.533,859.008C448.69,855.769 451.949,854.128 454.708,853.3C456.084,852.887 457.328,852.68 458.222,852.576C458.669,852.525 459.029,852.499 459.274,852.487C459.397,852.48 459.491,852.477 459.553,852.476L459.64,852.474L459.64,851.124Z" style="fill:rgb(151,151,151);fill-rule:nonzero;"/>
    </g>
    <g transform="matrix(4.16667,0,0,4.16667,-1166.87,-1040.69)">
        <path d="M459.64,954.928C459.583,954.931 455.451,954.923 451.238,957.024C449.134,958.075 447.006,959.667 445.409,962.063C443.811,964.456 442.763,967.641 442.765,971.803L442.765,1011.56C442.768,1011.61 442.76,1015.75 444.861,1019.96C445.912,1022.06 447.504,1024.19 449.9,1025.79C452.293,1027.38 455.478,1028.43 459.64,1028.43L600.856,1028.43C600.912,1028.43 605.045,1028.44 609.258,1026.33C611.362,1025.28 613.49,1023.69 615.086,1021.3C616.684,1018.9 617.733,1015.72 617.731,1011.56L617.731,971.803C617.727,971.746 617.735,967.613 615.634,963.401C614.583,961.297 612.991,959.169 610.596,957.572C608.202,955.974 605.017,954.926 600.856,954.928L459.64,954.928L459.64,956.278L600.856,956.278C604.794,956.28 607.684,957.256 609.847,958.695C613.086,960.852 614.727,964.112 615.555,966.871C615.968,968.247 616.175,969.491 616.278,970.385C616.33,970.832 616.355,971.192 616.368,971.437C616.375,971.56 616.378,971.654 616.379,971.716L616.381,971.803L616.381,1011.56C616.379,1015.49 615.402,1018.38 613.963,1020.55C611.806,1023.79 608.546,1025.43 605.787,1026.26C604.411,1026.67 603.167,1026.88 602.273,1026.98C601.826,1027.03 601.466,1027.06 601.221,1027.07C601.099,1027.07 601.005,1027.08 600.943,1027.08L459.64,1027.08C455.701,1027.08 452.811,1026.1 450.648,1024.66C447.41,1022.51 445.768,1019.25 444.94,1016.49C444.527,1015.11 444.32,1013.87 444.217,1012.97C444.165,1012.53 444.14,1012.17 444.127,1011.92C444.121,1011.8 444.118,1011.7 444.116,1011.64L444.115,1011.56L444.115,971.803C444.117,967.864 445.093,964.974 446.533,962.811C448.69,959.573 451.949,957.931 454.708,957.103C456.084,956.69 457.328,956.483 458.222,956.38C458.669,956.328 459.029,956.303 459.274,956.29C459.397,956.284 459.491,956.281 459.553,956.279L459.64,956.278L459.64,954.928Z" style="fill:rgb(151,151,151);fill-rule:nonzero;"/>
    </g>
    <g transform="matrix(4.16667,0,0,4.16667,-1166.87,-1040.69)">
        <path d="M492.954,631.461C492.954,631.461 476.754,631.461 476.754,647.661L476.754,1031.07C476.754,1031.07 476.754,1047.27 492.954,1047.27L1149,1047.27C1149,1047.27 1165.2,1047.27 1165.2,1031.07L1165.2,647.661C1165.2,647.661 1165.2,631.461 1149,631.461L492.954,631.461Z" style="fill:rgb(75,75,76);fill-rule:nonzero;"/>
    </g>
    <g transform="matrix(4.16667,0,0,4.16667,-1166.87,-1040.69)">
        <path d="M355.787,438.042C355.73,438.045 351.598,438.037 347.385,440.138C345.281,441.189 343.153,442.781 341.556,445.177C339.958,447.57 338.91,450.755 338.912,454.917L338.912,496.078C338.915,496.134 338.907,500.267 341.008,504.48C342.059,506.584 343.651,508.712 346.047,510.308C348.44,511.906 351.625,512.955 355.787,512.953L813.728,512.953C813.785,512.949 817.917,512.957 822.13,510.856C824.234,509.805 826.362,508.213 827.959,505.818C829.557,503.424 830.605,500.239 830.603,496.078L830.603,454.917C830.6,454.86 830.608,450.728 828.507,446.515C827.456,444.411 825.864,442.283 823.468,440.686C821.075,439.088 817.89,438.04 813.728,438.042L355.787,438.042L355.787,439.392L813.728,439.392C817.667,439.394 820.557,440.37 822.72,441.81C825.958,443.967 827.6,447.226 828.427,449.985C828.841,451.361 829.048,452.605 829.151,453.499C829.203,453.946 829.228,454.306 829.241,454.551C829.247,454.674 829.25,454.768 829.252,454.83L829.253,454.917L829.253,496.078C829.251,500.017 828.275,502.906 826.835,505.069C824.678,508.308 821.419,509.949 818.66,510.777C817.284,511.19 816.04,511.397 815.146,511.5C814.699,511.552 814.339,511.578 814.094,511.59C813.971,511.597 813.877,511.6 813.815,511.601L813.728,511.603L355.787,511.603C351.848,511.601 348.958,510.624 346.796,509.185C343.557,507.028 341.915,503.768 341.088,501.01C340.674,499.633 340.467,498.39 340.364,497.495C340.312,497.048 340.287,496.689 340.274,496.443C340.268,496.321 340.265,496.227 340.263,496.165L340.262,496.078L340.262,454.917C340.264,450.978 341.24,448.088 342.68,445.925C344.837,442.687 348.096,441.045 350.855,440.218C352.231,439.805 353.475,439.597 354.369,439.494C354.816,439.442 355.176,439.417 355.421,439.404C355.544,439.398 355.638,439.395 355.7,439.393L355.787,439.392L355.787,438.042Z" style="fill:rgb(151,151,151);fill-rule:nonzero;"/>
    </g>
    <g transform="matrix(4.16667,0,0,4.16667,-1166.87,-1040.69)">
        <path d="M355.787,524.121C355.73,524.125 351.598,524.117 347.385,526.217C345.281,527.269 343.153,528.861 341.556,531.256C339.958,533.65 338.91,536.835 338.912,540.996L338.912,582.157C338.915,582.214 338.907,586.346 341.008,590.559C342.059,592.663 343.651,594.791 346.047,596.388C348.44,597.985 351.625,599.034 355.787,599.032L813.728,599.032C813.785,599.029 817.917,599.036 822.13,596.936C824.234,595.884 826.362,594.292 827.959,591.897C829.557,589.504 830.605,586.318 830.603,582.157L830.603,540.996C830.6,540.94 830.608,536.807 828.507,532.594C827.456,530.49 825.864,528.362 823.468,526.766C821.075,525.168 817.89,524.119 813.728,524.121L355.787,524.121L355.787,525.471L813.728,525.471C817.667,525.473 820.557,526.449 822.72,527.889C825.958,530.046 827.6,533.306 828.427,536.064C828.841,537.441 829.048,538.684 829.151,539.578C829.203,540.026 829.228,540.385 829.241,540.631C829.247,540.753 829.25,540.847 829.252,540.909L829.253,540.996L829.253,582.157C829.251,586.096 828.275,588.986 826.835,591.148C824.678,594.387 821.419,596.029 818.66,596.856C817.284,597.269 816.04,597.477 815.146,597.58C814.699,597.631 814.339,597.657 814.094,597.67C813.971,597.676 813.877,597.679 813.815,597.681L813.728,597.682L355.787,597.682C351.848,597.68 348.958,596.704 346.796,595.264C343.557,593.107 341.915,589.848 341.088,587.089C340.674,585.713 340.467,584.469 340.364,583.575C340.312,583.128 340.287,582.768 340.274,582.523C340.268,582.4 340.265,582.306 340.263,582.244L340.262,582.157L340.262,540.996C340.264,537.057 341.24,534.167 342.68,532.005C344.837,528.766 348.096,527.125 350.855,526.297C352.231,525.884 353.475,525.677 354.369,525.573C354.816,525.522 355.176,525.496 355.421,525.484C355.544,525.477 355.638,525.474 355.7,525.473L355.787,525.471L355.787,524.121Z" style="fill:rgb(151,151,151);fill-rule:nonzero;"/>
    </g>
    <g transform="matrix(4.16667,0,0,4.16667,-1166.87,-1040.69)">
        <path d="M880.785,289.266C880.729,289.27 876.596,289.262 872.383,291.362C870.279,292.414 868.151,294.006 866.555,296.401C864.957,298.795 863.908,301.98 863.91,306.141L863.91,445.714C863.914,445.771 863.906,449.903 866.006,454.116C867.058,456.22 868.65,458.348 871.045,459.945C873.439,461.543 876.624,462.591 880.785,462.589L1192.68,462.589C1192.73,462.586 1196.87,462.594 1201.08,460.493C1203.18,459.441 1205.31,457.849 1206.91,455.454C1208.51,453.061 1209.56,449.875 1209.55,445.714L1209.55,306.141C1209.55,306.085 1209.56,301.952 1207.46,297.739C1206.41,295.635 1204.81,293.507 1202.42,291.911C1200.03,290.313 1196.84,289.264 1192.68,289.266L880.785,289.266L880.785,290.616L1192.68,290.616C1196.62,290.618 1199.51,291.594 1201.67,293.034C1204.91,295.191 1206.55,298.451 1207.38,301.209C1207.79,302.586 1208,303.829 1208.1,304.723C1208.15,305.17 1208.18,305.53 1208.19,305.775C1208.2,305.898 1208.2,305.992 1208.2,306.054L1208.2,445.714C1208.2,449.653 1207.23,452.543 1205.79,454.705C1203.63,457.944 1200.37,459.586 1197.61,460.413C1196.23,460.826 1194.99,461.034 1194.1,461.137C1193.65,461.188 1193.29,461.214 1193.04,461.227C1192.92,461.233 1192.83,461.236 1192.77,461.238L1192.68,461.239L880.785,461.239C876.846,461.237 873.956,460.261 871.794,458.821C868.555,456.664 866.913,453.405 866.086,450.646C865.673,449.27 865.465,448.026 865.362,447.132C865.311,446.685 865.285,446.325 865.272,446.08C865.266,445.957 865.263,445.863 865.261,445.801L865.26,445.714L865.26,306.141C865.262,302.202 866.238,299.312 867.678,297.15C869.835,293.911 873.095,292.27 875.853,291.442C877.229,291.029 878.473,290.821 879.367,290.718C879.814,290.667 880.174,290.641 880.419,290.629C880.542,290.622 880.636,290.619 880.698,290.618L880.785,290.616L880.785,289.266Z" style="fill:rgb(151,151,151);fill-rule:nonzero;"/>
    </g>
    <g transform="matrix(4.16667,0,0,4.16667,-1166.87,-1040.69)">
        <path d="M340.742,289.266C340.685,289.27 336.552,289.262 332.34,291.362C330.235,292.414 328.108,294.006 326.511,296.401C324.913,298.795 323.865,301.98 323.867,306.141L323.867,599.014C323.87,599.07 323.862,603.203 325.963,607.416C327.014,609.52 328.606,611.648 331.001,613.244C333.395,614.842 336.58,615.891 340.742,615.889L830.175,615.889C830.231,615.885 834.364,615.893 838.577,613.793C840.681,612.741 842.809,611.149 844.405,608.754C846.003,606.36 847.052,603.175 847.05,599.014L847.05,306.141C847.046,306.085 847.054,301.952 844.954,297.739C843.902,295.635 842.31,293.507 839.915,291.911C837.521,290.313 834.336,289.264 830.175,289.266L340.742,289.266L340.742,290.616L830.175,290.616C834.114,290.618 837.004,291.594 839.166,293.034C842.405,295.191 844.047,298.451 844.874,301.209C845.287,302.586 845.495,303.829 845.598,304.723C845.649,305.17 845.675,305.53 845.688,305.775C845.694,305.898 845.697,305.992 845.698,306.054L845.7,306.141L845.7,599.014C845.698,602.953 844.722,605.843 843.282,608.005C841.125,611.244 837.865,612.885 835.107,613.713C833.73,614.126 832.487,614.334 831.593,614.437C831.146,614.488 830.786,614.514 830.541,614.527C830.418,614.533 830.324,614.536 830.262,614.538L830.175,614.539L340.742,614.539C336.803,614.537 333.913,613.561 331.75,612.121C328.512,609.964 326.87,606.704 326.042,603.946C325.629,602.569 325.422,601.326 325.319,600.432C325.267,599.985 325.242,599.625 325.229,599.38C325.223,599.257 325.22,599.163 325.218,599.101L325.217,599.014L325.217,306.141C325.219,302.202 326.195,299.312 327.634,297.15C329.791,293.911 333.051,292.27 335.81,291.442C337.186,291.029 338.43,290.821 339.324,290.718C339.771,290.667 340.131,290.641 340.376,290.629C340.499,290.622 340.593,290.619 340.655,290.618L340.742,290.616L340.742,289.266Z" style="fill:rgb(151,151,151);fill-rule:nonzero;"/>
    </g>
    <g transform="matrix(4.16667,0,0,4.16667,-1166.87,-1040.69)">
        <path d="M880.785,475.497C880.729,475.501 876.596,475.493 872.383,477.593C870.279,478.645 868.151,480.237 866.555,482.632C864.957,485.026 863.908,488.211 863.91,492.372L863.91,599.014C863.914,599.07 863.906,603.203 866.006,607.416C867.058,609.52 868.65,611.648 871.045,613.244C873.439,614.842 876.624,615.891 880.785,615.889L1052.23,615.889C1052.29,615.885 1056.42,615.893 1060.64,613.793C1062.74,612.741 1064.87,611.149 1066.47,608.754C1068.06,606.36 1069.11,603.175 1069.11,599.014L1069.11,492.372C1069.11,492.316 1069.11,488.183 1067.01,483.97C1065.96,481.866 1064.37,479.738 1061.97,478.142C1059.58,476.544 1056.4,475.495 1052.23,475.497L880.785,475.497L880.785,476.847L1052.23,476.847C1056.17,476.849 1059.06,477.826 1061.23,479.265C1064.46,481.422 1066.11,484.682 1066.93,487.44C1067.35,488.817 1067.55,490.06 1067.66,490.955C1067.71,491.402 1067.73,491.761 1067.75,492.007C1067.75,492.129 1067.76,492.223 1067.76,492.285L1067.76,599.014C1067.76,602.953 1066.78,605.843 1065.34,608.005C1063.19,611.244 1059.93,612.886 1057.17,613.713C1055.79,614.126 1054.55,614.334 1053.65,614.437C1053.21,614.488 1052.85,614.514 1052.6,614.527C1052.48,614.533 1052.38,614.536 1052.32,614.538L1052.23,614.539L880.785,614.539C876.846,614.537 873.956,613.561 871.794,612.121C868.555,609.964 866.913,606.704 866.086,603.946C865.673,602.57 865.465,601.326 865.362,600.432C865.311,599.985 865.285,599.625 865.272,599.38C865.266,599.257 865.263,599.163 865.261,599.101L865.26,599.014L865.26,492.372C865.262,488.433 866.238,485.544 867.678,483.381C869.835,480.142 873.095,478.501 875.853,477.673C877.229,477.26 878.473,477.053 879.367,476.95C879.814,476.898 880.174,476.872 880.419,476.86C880.542,476.853 880.636,476.85 880.698,476.849L880.785,476.847L880.785,475.497Z" style="fill:rgb(151,151,151);fill-rule:nonzero;"/>
    </g>
    <g transform="matrix(4.16667,0,0,4.16667,-1166.87,-1040.69)">
        <path d="M892.91,487.57C892.853,487.574 888.721,487.566 884.508,489.666C882.404,490.718 880.276,492.31 878.679,494.705C877.081,497.099 876.033,500.284 876.035,504.445L876.035,510.927C876.038,510.983 876.03,515.116 878.131,519.328C879.182,521.433 880.774,523.56 883.17,525.157C885.563,526.755 888.749,527.804 892.91,527.802L1039.33,527.802C1039.39,527.798 1043.52,527.806 1047.74,525.705C1049.84,524.654 1051.97,523.062 1053.56,520.667C1055.16,518.273 1056.21,515.088 1056.21,510.927L1056.21,504.445C1056.2,504.389 1056.21,500.256 1054.11,496.043C1053.06,493.939 1051.47,491.811 1049.07,490.215C1046.68,488.617 1043.49,487.568 1039.33,487.57L892.91,487.57L892.91,488.92L1039.33,488.92C1043.27,488.922 1046.16,489.898 1048.32,491.338C1051.56,493.495 1053.2,496.755 1054.03,499.513C1054.45,500.89 1054.65,502.133 1054.76,503.028C1054.81,503.475 1054.83,503.834 1054.85,504.08C1054.85,504.202 1054.86,504.296 1054.86,504.358L1054.86,510.927C1054.86,514.865 1053.88,517.755 1052.44,519.918C1050.28,523.157 1047.02,524.798 1044.27,525.626C1042.89,526.039 1041.65,526.246 1040.75,526.349C1040.3,526.401 1039.94,526.426 1039.7,526.439C1039.58,526.445 1039.48,526.449 1039.42,526.45L1039.33,526.452L892.91,526.452C888.971,526.45 886.081,525.473 883.919,524.034C880.68,521.877 879.038,518.617 878.211,515.858C877.797,514.482 877.59,513.238 877.487,512.344C877.435,511.897 877.41,511.537 877.397,511.292C877.391,511.17 877.388,511.076 877.386,511.013L877.385,510.927L877.385,504.445C877.387,500.506 878.363,497.616 879.803,495.454C881.96,492.215 885.219,490.574 887.978,489.746C889.354,489.333 890.598,489.126 891.492,489.023C891.939,488.971 892.299,488.945 892.544,488.933C892.667,488.926 892.761,488.923 892.823,488.922L892.91,488.92L892.91,487.57Z" style="fill:rgb(151,151,151);fill-rule:nonzero;"/>
    </g>
    <g transform="matrix(4.16667,0,0,4.16667,-1166.87,-1040.69)">
        <path d="M1113.47,487.57C1113.41,487.574 1109.28,487.566 1105.07,489.666C1102.96,490.718 1100.84,492.31 1099.24,494.705C1097.64,497.099 1096.59,500.284 1096.59,504.445L1096.59,510.927C1096.6,510.983 1096.59,515.116 1098.69,519.328C1099.74,521.433 1101.33,523.56 1103.73,525.157C1106.12,526.755 1109.31,527.804 1113.47,527.802L1212.88,527.802C1212.94,527.798 1217.07,527.806 1221.28,525.705C1223.39,524.654 1225.52,523.062 1227.11,520.667C1228.71,518.273 1229.76,515.088 1229.76,510.927L1229.76,504.445C1229.75,504.389 1229.76,500.256 1227.66,496.043C1226.61,493.939 1225.02,491.811 1222.62,490.215C1220.23,488.617 1217.04,487.568 1212.88,487.57L1113.47,487.57L1113.47,488.92L1212.88,488.92C1216.82,488.922 1219.71,489.898 1221.87,491.338C1225.11,493.495 1226.75,496.755 1227.58,499.513C1227.99,500.89 1228.2,502.133 1228.3,503.028C1228.36,503.475 1228.38,503.834 1228.39,504.08C1228.4,504.202 1228.4,504.296 1228.41,504.358L1228.41,510.927C1228.41,514.865 1227.43,517.755 1225.99,519.918C1223.83,523.157 1220.57,524.798 1217.81,525.626C1216.44,526.039 1215.19,526.246 1214.3,526.349C1213.85,526.401 1213.49,526.426 1213.25,526.439C1213.13,526.445 1213.03,526.449 1212.97,526.45L1212.88,526.452L1113.47,526.452C1109.53,526.45 1106.64,525.473 1104.48,524.034C1101.24,521.877 1099.6,518.617 1098.77,515.858C1098.36,514.482 1098.15,513.238 1098.05,512.344C1097.99,511.897 1097.97,511.537 1097.96,511.292C1097.95,511.17 1097.95,511.076 1097.95,511.013L1097.94,510.927L1097.94,504.445C1097.95,500.506 1098.92,497.616 1100.36,495.454C1102.52,492.215 1105.78,490.574 1108.54,489.746C1109.91,489.333 1111.16,489.126 1112.05,489.023C1112.5,488.971 1112.86,488.945 1113.1,488.933C1113.23,488.926 1113.32,488.923 1113.38,488.922L1113.47,488.92L1113.47,487.57Z" style="fill:rgb(151,151,151);fill-rule:nonzero;"/>
    </g>
    <g transform="matrix(4.16667,0,0,4.16667,-1166.87,-1040.69)">
        <path d="M1257.47,358.328C1257.42,358.332 1253.28,358.324 1249.07,360.425C1246.97,361.476 1244.84,363.068 1243.24,365.463C1241.64,367.857 1240.59,371.042 1240.6,375.203L1240.6,381.685C1240.6,381.741 1240.59,385.874 1242.69,390.087C1243.74,392.191 1245.34,394.319 1247.73,395.915C1250.13,397.513 1253.31,398.562 1257.47,398.56L1378.13,398.56C1378.19,398.556 1382.32,398.564 1386.53,396.464C1388.64,395.412 1390.76,393.82 1392.36,391.425C1393.96,389.031 1395.01,385.846 1395.01,381.685L1395.01,375.203C1395,375.147 1395.01,371.014 1392.91,366.801C1391.86,364.697 1390.27,362.57 1387.87,360.973C1385.48,359.375 1382.29,358.326 1378.13,358.328L1257.47,358.328L1257.47,359.678L1378.13,359.678C1382.07,359.68 1384.96,360.657 1387.12,362.096C1390.36,364.253 1392,367.513 1392.83,370.272C1393.24,371.648 1393.45,372.892 1393.55,373.786C1393.6,374.233 1393.63,374.592 1393.64,374.838C1393.65,374.96 1393.65,375.054 1393.65,375.117L1393.66,375.203L1393.66,381.685C1393.65,385.624 1392.68,388.513 1391.24,390.676C1389.08,393.915 1385.82,395.556 1383.06,396.384C1381.69,396.797 1380.44,397.004 1379.55,397.107C1379.1,397.159 1378.74,397.185 1378.5,397.197C1378.37,397.204 1378.28,397.207 1378.22,397.208L1378.13,397.21L1257.47,397.21C1253.53,397.208 1250.64,396.231 1248.48,394.792C1245.24,392.635 1243.6,389.375 1242.77,386.617C1242.36,385.24 1242.15,383.997 1242.05,383.102C1242,382.655 1241.97,382.296 1241.96,382.05C1241.95,381.928 1241.95,381.834 1241.95,381.772L1241.95,375.203C1241.95,371.265 1242.93,368.375 1244.36,366.212C1246.52,362.973 1249.78,361.332 1252.54,360.504C1253.92,360.091 1255.16,359.884 1256.05,359.781C1256.5,359.729 1256.86,359.703 1257.11,359.691C1257.23,359.684 1257.32,359.681 1257.38,359.68L1257.47,359.678L1257.47,358.328Z" style="fill:rgb(151,151,151);fill-rule:nonzero;"/>
    </g>
    <g transform="matrix(4.16667,0,0,4.16667,-1166.87,-1040.69)">
        <path d="M892.91,302.454C892.853,302.458 888.721,302.45 884.508,304.55C882.404,305.602 880.276,307.194 878.679,309.589C877.081,311.983 876.033,315.168 876.035,319.329L876.035,325.811C876.038,325.867 876.03,330 878.131,334.212C879.182,336.317 880.774,338.444 883.17,340.041C885.563,341.639 888.748,342.687 892.91,342.686L1047.75,342.686C1047.8,342.682 1051.94,342.69 1056.15,340.589C1058.25,339.538 1060.38,337.946 1061.98,335.551C1063.57,333.157 1064.62,329.972 1064.62,325.811L1064.62,319.329C1064.62,319.273 1064.63,315.14 1062.53,310.927C1061.47,308.823 1059.88,306.695 1057.49,305.099C1055.09,303.501 1051.91,302.452 1047.75,302.454L892.91,302.454L892.91,303.804L1047.75,303.804C1051.69,303.806 1054.58,304.782 1056.74,306.222C1059.98,308.379 1061.62,311.639 1062.45,314.397C1062.86,315.774 1063.07,317.017 1063.17,317.911C1063.22,318.359 1063.25,318.718 1063.26,318.964C1063.27,319.086 1063.27,319.18 1063.27,319.242L1063.27,325.811C1063.27,329.749 1062.29,332.639 1060.85,334.802C1058.7,338.041 1055.44,339.682 1052.68,340.51C1051.3,340.923 1050.06,341.13 1049.16,341.233C1048.72,341.285 1048.36,341.31 1048.11,341.323C1047.99,341.329 1047.9,341.333 1047.83,341.334L1047.75,341.336L892.91,341.336C888.971,341.334 886.081,340.357 883.918,338.918C880.68,336.761 879.038,333.501 878.211,330.742C877.797,329.366 877.59,328.122 877.487,327.228C877.435,326.781 877.41,326.421 877.397,326.176C877.391,326.053 877.388,325.959 877.386,325.897L877.385,325.811L877.385,319.329C877.387,315.39 878.363,312.5 879.803,310.338C881.96,307.099 885.219,305.458 887.978,304.63C889.354,304.217 890.598,304.009 891.492,303.906C891.939,303.855 892.299,303.829 892.544,303.817C892.667,303.81 892.761,303.807 892.823,303.806L892.91,303.804L892.91,302.454Z" style="fill:rgb(151,151,151);fill-rule:nonzero;"/>
    </g>
    <g transform="matrix(4.16667,0,0,4.16667,-1166.87,-1040.69)">
        <path d="M1241.17,289.266C1241.12,289.27 1236.98,289.262 1232.77,291.362C1230.67,292.414 1228.54,294.006 1226.94,296.401C1225.35,298.795 1224.3,301.98 1224.3,306.141L1224.3,317.602C1224.3,317.658 1224.29,321.791 1226.4,326.004C1227.45,328.108 1229.04,330.236 1231.43,331.833C1233.83,333.43 1237.01,334.479 1241.17,334.477L1391.02,334.477C1391.07,334.473 1395.21,334.481 1399.42,332.381C1401.52,331.329 1403.65,329.737 1405.25,327.342C1406.84,324.948 1407.89,321.763 1407.89,317.602L1407.89,306.141C1407.89,306.085 1407.9,301.952 1405.8,297.739C1404.74,295.635 1403.15,293.507 1400.76,291.911C1398.36,290.313 1395.18,289.264 1391.02,289.266L1241.17,289.266L1241.17,290.616L1391.02,290.616C1394.96,290.618 1397.85,291.594 1400.01,293.034C1403.25,295.191 1404.89,298.451 1405.72,301.209C1406.13,302.586 1406.34,303.829 1406.44,304.723C1406.49,305.171 1406.52,305.53 1406.53,305.775C1406.54,305.898 1406.54,305.992 1406.54,306.054L1406.54,317.602C1406.54,321.541 1405.56,324.431 1404.12,326.593C1401.97,329.832 1398.71,331.474 1395.95,332.301C1394.57,332.714 1393.33,332.922 1392.43,333.025C1391.99,333.076 1391.63,333.102 1391.38,333.115C1391.26,333.121 1391.17,333.124 1391.1,333.126L1391.02,333.127L1241.17,333.127C1237.23,333.125 1234.35,332.149 1232.18,330.709C1228.94,328.552 1227.3,325.292 1226.47,322.534C1226.06,321.158 1225.85,319.914 1225.75,319.02C1225.7,318.573 1225.67,318.213 1225.66,317.968C1225.65,317.845 1225.65,317.751 1225.65,317.689L1225.65,306.141C1225.65,302.202 1226.63,299.312 1228.07,297.15C1230.22,293.911 1233.48,292.27 1236.24,291.442C1237.62,291.029 1238.86,290.822 1239.76,290.718C1240.2,290.667 1240.56,290.641 1240.81,290.629C1240.93,290.622 1241.02,290.619 1241.09,290.618L1241.17,290.616L1241.17,289.266Z" style="fill:rgb(151,151,151);fill-rule:nonzero;"/>
    </g>
    <g transform="matrix(4.16667,0,0,4.16667,-1166.87,-1040.69)">
        <path d="M1226.61,452.512L1226.61,362.661C1226.61,358.722 1227.58,355.832 1229.02,353.67C1231.18,350.431 1234.44,348.79 1237.2,347.962C1238.57,347.549 1239.82,347.342 1240.71,347.238C1241.16,347.187 1241.52,347.161 1241.76,347.149C1241.89,347.142 1241.98,347.139 1242.04,347.138L1242.13,347.136L1391.02,347.136C1394.96,347.138 1397.85,348.114 1400.01,349.554C1403.25,351.711 1404.89,354.971 1405.72,357.729C1406.13,359.106 1406.34,360.349 1406.44,361.243C1406.49,361.691 1406.52,362.05 1406.53,362.296C1406.54,362.418 1406.54,362.512 1406.54,362.574L1406.54,599.014C1406.54,602.953 1405.56,605.843 1404.12,608.005C1401.97,611.244 1398.71,612.886 1395.95,613.713C1394.57,614.126 1393.33,614.334 1392.43,614.437C1391.99,614.488 1391.63,614.514 1391.38,614.527C1391.26,614.533 1391.17,614.536 1391.1,614.538L1391.02,614.539L1100.56,614.539C1096.62,614.537 1093.73,613.561 1091.57,612.121C1088.33,609.964 1086.69,606.704 1085.86,603.946C1085.45,602.57 1085.24,601.326 1085.14,600.432C1085.09,599.985 1085.06,599.625 1085.05,599.38C1085.04,599.257 1085.04,599.163 1085.04,599.101L1085.04,492.372C1085.04,488.434 1086.02,485.544 1087.46,483.381C1089.61,480.142 1092.87,478.501 1095.63,477.673C1097.01,477.26 1098.25,477.053 1099.14,476.95C1099.59,476.898 1099.95,476.872 1100.2,476.86C1100.32,476.853 1100.41,476.85 1100.48,476.849L1100.56,476.847L1198.18,476.847L1209.38,476.171L1209.34,475.497L1209.34,476.172C1209.39,476.169 1213.53,476.177 1217.74,474.076C1219.84,473.025 1221.97,471.433 1223.57,469.037C1225.17,466.644 1226.21,463.459 1226.21,459.297L1225.54,459.297L1226.21,459.336L1226.6,452.551L1225.26,452.473L1224.86,459.278L1224.86,459.297C1224.86,463.236 1223.88,466.126 1222.44,468.289C1220.29,471.527 1217.03,473.169 1214.27,473.996C1212.89,474.41 1211.65,474.617 1210.75,474.72C1210.31,474.772 1209.95,474.797 1209.7,474.81C1209.58,474.816 1209.49,474.819 1209.42,474.821L1209.34,474.822L1209.32,474.822L1198.14,475.497L1100.56,475.497C1100.51,475.501 1096.37,475.493 1092.16,477.594C1090.06,478.645 1087.93,480.237 1086.33,482.632C1084.73,485.026 1083.69,488.211 1083.69,492.372L1083.69,599.014C1083.69,599.07 1083.68,603.203 1085.78,607.416C1086.84,609.52 1088.43,611.648 1090.82,613.245C1093.22,614.842 1096.4,615.891 1100.56,615.889L1391.02,615.889C1391.07,615.885 1395.21,615.893 1399.42,613.793C1401.52,612.741 1403.65,611.149 1405.25,608.754C1406.84,606.36 1407.89,603.175 1407.89,599.014L1407.89,362.661C1407.89,362.605 1407.9,358.472 1405.8,354.259C1404.74,352.155 1403.15,350.027 1400.76,348.431C1398.36,346.833 1395.18,345.784 1391.02,345.786L1242.13,345.786C1242.07,345.79 1237.94,345.782 1233.73,347.882C1231.62,348.934 1229.5,350.526 1227.9,352.921C1226.3,355.315 1225.25,358.5 1225.26,362.661L1225.26,452.512L1226.61,452.512Z" style="fill:rgb(151,151,151);fill-rule:nonzero;"/>
    </g>
    <g transform="matrix(4.16667,0,0,4.16667,-1166.87,-1040.69)">
        <path d="M453.187,312.502L453.187,408.025L454.537,408.025L454.537,312.502" style="fill:rgb(151,151,151);fill-rule:nonzero;"/>
    </g>
    <g transform="matrix(4.16667,0,0,4.16667,-1166.87,-1040.69)">
        <path d="M591.225,312.502L591.225,408.025L592.575,408.025L592.575,312.502" style="fill:rgb(151,151,151);fill-rule:nonzero;"/>
    </g>
    <g transform="matrix(4.16667,0,0,4.16667,-1166.87,-1040.69)">
        <path d="M720.08,312.502L720.08,408.025L721.43,408.025L721.43,312.502" style="fill:rgb(151,151,151);fill-rule:nonzero;"/>
    </g>
</svg>
