<?xml version="1.0" encoding="UTF-8" standalone="no"?>
<!DOCTYPE svg PUBLIC "-//W3C//DTD SVG 1.1//EN" "http://www.w3.org/Graphics/SVG/1.1/DTD/svg11.dtd">
<svg width="100%" height="100%" viewBox="0 0 172 172" version="1.1" xmlns="http://www.w3.org/2000/svg" xmlns:xlink="http://www.w3.org/1999/xlink" xml:space="preserve" xmlns:serif="http://www.serif.com/" style="fill-rule:evenodd;clip-rule:evenodd;stroke-linejoin:round;stroke-miterlimit:2;">
    <g transform="matrix(1,0,0,1,0,-7.09371)">
        <g transform="matrix(4.16667,0,0,4.16667,-552.921,-2709.92)">
            <rect x="153.036" y="652.323" width="0.506" height="2.362" style="fill:rgb(151,151,151);fill-rule:nonzero;"/>
        </g>
        <g transform="matrix(4.16667,0,0,4.16667,-552.921,-2709.92)">
            <path d="M146.686,653.408L147.416,655.655L147.898,655.499L147.168,653.252L146.686,653.408Z" style="fill:rgb(151,151,151);fill-rule:nonzero;"/>
        </g>
        <g transform="matrix(4.16667,0,0,4.16667,-552.921,-2709.92)">
            <path d="M159.906,653.408L159.175,655.655L158.694,655.499L159.424,653.252L159.906,653.408Z" style="fill:rgb(151,151,151);fill-rule:nonzero;"/>
        </g>
        <g transform="matrix(4.16667,0,0,4.16667,-552.921,-2709.92)">
            <path d="M140.983,656.403L142.372,658.315L142.781,658.017L141.393,656.106L140.983,656.403Z" style="fill:rgb(151,151,151);fill-rule:nonzero;"/>
        </g>
        <g transform="matrix(4.16667,0,0,4.16667,-552.921,-2709.92)">
            <path d="M140.983,689.42L142.372,687.509L142.781,687.806L141.393,689.718L140.983,689.42Z" style="fill:rgb(151,151,151);fill-rule:nonzero;"/>
        </g>
        <g transform="matrix(4.16667,0,0,4.16667,-552.921,-2709.92)">
            <path d="M165.609,656.403L164.22,658.315L163.81,658.017L165.199,656.106L165.609,656.403Z" style="fill:rgb(151,151,151);fill-rule:nonzero;"/>
        </g>
        <g transform="matrix(4.16667,0,0,4.16667,-552.921,-2709.92)">
            <path d="M165.609,689.42L164.22,687.509L163.81,687.806L165.199,689.718L165.609,689.42Z" style="fill:rgb(151,151,151);fill-rule:nonzero;"/>
        </g>
        <g transform="matrix(4.16667,0,0,4.16667,-552.921,-2709.92)">
            <path d="M136.485,661.014L138.396,662.402L138.693,661.993L136.782,660.604L136.485,661.014Z" style="fill:rgb(151,151,151);fill-rule:nonzero;"/>
        </g>
        <g transform="matrix(4.16667,0,0,4.16667,-552.921,-2709.92)">
            <path d="M136.485,684.809L138.396,683.421L138.693,683.83L136.782,685.219L136.485,684.809Z" style="fill:rgb(151,151,151);fill-rule:nonzero;"/>
        </g>
        <g transform="matrix(4.16667,0,0,4.16667,-552.921,-2709.92)">
            <path d="M170.107,661.014L168.196,662.402L167.898,661.993L169.81,660.604L170.107,661.014Z" style="fill:rgb(151,151,151);fill-rule:nonzero;"/>
        </g>
        <g transform="matrix(4.16667,0,0,4.16667,-552.921,-2709.92)">
            <path d="M170.107,684.809L168.196,683.421L167.898,683.83L169.81,685.219L170.107,684.809Z" style="fill:rgb(151,151,151);fill-rule:nonzero;"/>
        </g>
        <g transform="matrix(4.16667,0,0,4.16667,-552.921,-2709.92)">
            <path d="M133.631,666.789L135.878,667.519L136.034,667.037L133.787,666.307L133.631,666.789Z" style="fill:rgb(151,151,151);fill-rule:nonzero;"/>
        </g>
        <g transform="matrix(4.16667,0,0,4.16667,-552.921,-2709.92)">
            <path d="M133.631,679.034L135.878,678.304L136.034,678.786L133.787,679.516L133.631,679.034Z" style="fill:rgb(151,151,151);fill-rule:nonzero;"/>
        </g>
        <g transform="matrix(4.16667,0,0,4.16667,-552.921,-2709.92)">
            <path d="M172.961,666.789L170.714,667.519L170.558,667.037L172.805,666.307L172.961,666.789Z" style="fill:rgb(151,151,151);fill-rule:nonzero;"/>
        </g>
        <g transform="matrix(4.16667,0,0,4.16667,-552.921,-2709.92)">
            <path d="M172.961,679.034L170.714,678.304L170.558,678.786L172.805,679.516L172.961,679.034Z" style="fill:rgb(151,151,151);fill-rule:nonzero;"/>
        </g>
        <g transform="matrix(4.16667,0,0,4.16667,-552.921,-2709.92)">
            <rect x="132.701" y="672.657" width="2.363" height="0.506" style="fill:rgb(151,151,151);fill-rule:nonzero;"/>
        </g>
        <g transform="matrix(4.16667,0,0,4.16667,-552.921,-2709.92)">
            <rect x="171.528" y="672.657" width="2.362" height="0.506" style="fill:rgb(151,151,151);fill-rule:nonzero;"/>
        </g>
    </g>
</svg>
