<?xml version="1.0" encoding="UTF-8" standalone="no"?>
<!DOCTYPE svg PUBLIC "-//W3C//DTD SVG 1.1//EN" "http://www.w3.org/Graphics/SVG/1.1/DTD/svg11.dtd">
<svg width="100%" height="100%" viewBox="0 0 350 350" version="1.1" xmlns="http://www.w3.org/2000/svg" xmlns:xlink="http://www.w3.org/1999/xlink" xml:space="preserve" xmlns:serif="http://www.serif.com/" style="fill-rule:evenodd;clip-rule:evenodd;stroke-linejoin:round;stroke-miterlimit:2;">
    <g transform="matrix(0.981182,0,0,0.981182,6.60874,6)">
        <g transform="matrix(4.16667,0,0,4.16667,-1464.43,-443.408)">
            <rect x="392.13" y="106.418" width="1.013" height="4.725" style="fill:rgb(151,151,151);fill-rule:nonzero;"/>
        </g>
        <g transform="matrix(4.16667,0,0,4.16667,-1464.43,-443.408)">
            <path d="M379.431,108.59L380.891,113.084L381.854,112.771L380.394,108.277L379.431,108.59Z" style="fill:rgb(151,151,151);fill-rule:nonzero;"/>
        </g>
        <g transform="matrix(4.16667,0,0,4.16667,-1464.43,-443.408)">
            <path d="M405.87,108.59L404.41,113.084L403.447,112.771L404.907,108.277L405.87,108.59Z" style="fill:rgb(151,151,151);fill-rule:nonzero;"/>
        </g>
        <g transform="matrix(4.16667,0,0,4.16667,-1464.43,-443.408)">
            <path d="M368.025,114.58L370.802,118.402L371.621,117.807L368.844,113.985L368.025,114.58Z" style="fill:rgb(151,151,151);fill-rule:nonzero;"/>
        </g>
        <g transform="matrix(4.16667,0,0,4.16667,-1464.43,-443.408)">
            <path d="M368.025,180.613L370.802,176.791L371.621,177.386L368.844,181.208L368.025,180.613Z" style="fill:rgb(151,151,151);fill-rule:nonzero;"/>
        </g>
        <g transform="matrix(4.16667,0,0,4.16667,-1464.43,-443.408)">
            <path d="M417.276,114.58L414.499,118.402L413.68,117.807L416.457,113.985L417.276,114.58Z" style="fill:rgb(151,151,151);fill-rule:nonzero;"/>
        </g>
        <g transform="matrix(4.16667,0,0,4.16667,-1464.43,-443.408)">
            <path d="M417.276,180.613L414.499,176.791L413.68,177.386L416.457,181.208L417.276,180.613Z" style="fill:rgb(151,151,151);fill-rule:nonzero;"/>
        </g>
        <g transform="matrix(4.16667,0,0,4.16667,-1464.43,-443.408)">
            <path d="M359.028,123.801L362.85,126.578L363.446,125.759L359.623,122.982L359.028,123.801Z" style="fill:rgb(151,151,151);fill-rule:nonzero;"/>
        </g>
        <g transform="matrix(4.16667,0,0,4.16667,-1464.43,-443.408)">
            <path d="M359.028,171.392L362.85,168.615L363.446,169.434L359.623,172.211L359.028,171.392Z" style="fill:rgb(151,151,151);fill-rule:nonzero;"/>
        </g>
        <g transform="matrix(4.16667,0,0,4.16667,-1464.43,-443.408)">
            <path d="M426.273,123.801L422.451,126.578L421.856,125.759L425.678,122.982L426.273,123.801Z" style="fill:rgb(151,151,151);fill-rule:nonzero;"/>
        </g>
        <g transform="matrix(4.16667,0,0,4.16667,-1464.43,-443.408)">
            <path d="M426.273,171.392L422.451,168.615L421.856,169.434L425.678,172.211L426.273,171.392Z" style="fill:rgb(151,151,151);fill-rule:nonzero;"/>
        </g>
        <g transform="matrix(4.16667,0,0,4.16667,-1464.43,-443.408)">
            <path d="M353.32,135.351L357.814,136.811L358.127,135.848L353.633,134.388L353.32,135.351Z" style="fill:rgb(151,151,151);fill-rule:nonzero;"/>
        </g>
        <g transform="matrix(4.16667,0,0,4.16667,-1464.43,-443.408)">
            <path d="M353.32,159.842L357.814,158.382L358.127,159.345L353.633,160.805L353.32,159.842Z" style="fill:rgb(151,151,151);fill-rule:nonzero;"/>
        </g>
        <g transform="matrix(4.16667,0,0,4.16667,-1464.43,-443.408)">
            <path d="M431.981,135.351L427.487,136.811L427.174,135.848L431.668,134.388L431.981,135.351Z" style="fill:rgb(151,151,151);fill-rule:nonzero;"/>
        </g>
        <g transform="matrix(4.16667,0,0,4.16667,-1464.43,-443.408)">
            <path d="M431.981,159.842L427.487,158.382L427.174,159.345L431.668,160.805L431.981,159.842Z" style="fill:rgb(151,151,151);fill-rule:nonzero;"/>
        </g>
        <g transform="matrix(4.16667,0,0,4.16667,-1464.43,-443.408)">
            <rect x="351.462" y="147.087" width="4.725" height="1.013" style="fill:rgb(151,151,151);fill-rule:nonzero;"/>
        </g>
        <g transform="matrix(4.16667,0,0,4.16667,-1464.43,-443.408)">
            <rect x="429.115" y="147.087" width="4.725" height="1.013" style="fill:rgb(151,151,151);fill-rule:nonzero;"/>
        </g>
    </g>
</svg>
