<?xml version="1.0" encoding="UTF-8" standalone="no"?>
<!DOCTYPE svg PUBLIC "-//W3C//DTD SVG 1.1//EN" "http://www.w3.org/Graphics/SVG/1.1/DTD/svg11.dtd">
<svg width="100%" height="100%" viewBox="0 0 789 433" version="1.1" xmlns="http://www.w3.org/2000/svg" xmlns:xlink="http://www.w3.org/1999/xlink" xml:space="preserve" xmlns:serif="http://www.serif.com/" style="fill-rule:evenodd;clip-rule:evenodd;stroke-linejoin:round;stroke-miterlimit:2;">
    <g transform="matrix(8.33333,0,0,8.33333,-711.692,-283.333)">
        <path d="M147.671,71.532C146.018,71.532 142.129,71.142 139.747,68.128C137.608,65.455 137.316,63.51 137.316,59.815L137.316,43.675L145.386,43.675L145.386,58.6C145.386,60.447 145.386,63.996 149.713,63.996C152.047,63.996 154.332,62.781 154.332,58.503L154.332,43.675L162.402,43.675L162.402,70.657L154.769,70.657L154.769,67.788L154.672,67.788C153.019,71.24 149.713,71.532 147.671,71.532ZM176.597,70.657L168.527,70.657L168.527,49.801L165.513,49.801L165.513,43.675L168.527,43.675L168.527,42.265C168.527,34.681 174.895,34 178.833,34L180,34L180,40.077L179.076,40.077C178.396,40.077 176.597,40.32 176.597,42.605L176.597,43.675L180,43.675L180,49.801L176.597,49.801L176.597,70.657ZM128.272,70.657L120.203,70.657L120.203,43.675L127.787,43.675L127.787,46.543L127.884,46.543C128.565,45.23 129.975,42.751 134.642,42.751L134.642,50.87C130.899,50.967 128.272,51.745 128.272,55.829L128.272,70.657Z" style="fill:rgb(255,249,249);fill-rule:nonzero;"/>
    </g>
    <g transform="matrix(8.33333,0,0,8.33333,-711.692,-283.333)">
        <path d="M114.58,51.97C113.851,50.102 112.744,48.423 111.356,47.038C111.173,46.855 110.986,46.677 110.793,46.504C111.657,45.202 113.308,43.635 117.018,43.635L117.018,51.754C116.137,51.777 115.318,51.837 114.58,51.97Z" style="fill:rgb(255,249,249);fill-rule:nonzero;"/>
    </g>
    <g transform="matrix(8.33333,0,0,8.33333,-711.692,-283.333)">
        <path d="M87.84,51.97C87.102,51.837 86.284,51.777 85.403,51.754L85.403,43.635C89.112,43.635 90.764,45.202 91.627,46.503C91.435,46.677 91.247,46.855 91.064,47.038C89.676,48.423 88.569,50.102 87.84,51.97Z" style="fill:rgb(255,249,249);fill-rule:nonzero;"/>
    </g>
    <g transform="matrix(8.33333,0,0,8.33333,-711.692,-283.333)">
        <path d="M101.218,71.531L101.21,71.531L101.21,64.491C103.239,64.488 105.044,63.678 106.377,62.35C107.705,61.017 108.516,59.212 108.517,57.184C108.516,55.154 107.705,53.35 106.377,52.017C105.044,50.689 103.239,49.878 101.21,49.876C99.181,49.878 97.376,50.689 96.043,52.017C94.715,53.35 93.905,55.154 93.903,57.184C93.905,59.212 94.715,61.017 96.043,62.35C97.376,63.678 99.181,64.488 101.21,64.491L101.21,71.531L101.203,71.531C97.254,71.531 93.648,69.918 91.064,67.329C88.473,64.744 86.86,61.134 86.862,57.184C86.861,55.349 87.208,53.588 87.84,51.97C88.569,50.102 89.676,48.423 91.064,47.038C91.247,46.855 91.435,46.677 91.627,46.503C94.16,44.228 97.533,42.836 101.203,42.836L101.218,42.836C104.887,42.836 108.261,44.229 110.793,46.504C110.986,46.677 111.173,46.855 111.356,47.038C112.744,48.423 113.851,50.102 114.58,51.97C115.212,53.589 115.559,55.349 115.559,57.184C115.56,61.134 113.947,64.744 111.356,67.329C108.772,69.918 105.166,71.531 101.218,71.531Z" style="fill:rgb(255,249,249);fill-rule:nonzero;"/>
    </g>
    <g transform="matrix(8.33333,0,0,8.33333,-711.692,-283.333)">
        <path d="M101.216,85.879L101.21,85.879L101.21,78.839C103.239,78.836 105.044,78.026 106.377,76.698C107.705,75.365 108.516,73.56 108.517,71.531L115.559,71.531C115.56,75.482 113.947,79.091 111.356,81.677C108.772,84.267 105.165,85.879 101.216,85.879Z" style="fill:rgb(255,249,249);fill-rule:nonzero;"/>
    </g>
    <g transform="matrix(8.33333,0,0,8.33333,-711.692,-283.333)">
        <path d="M98.409,59.94C97.522,59.94 96.803,58.839 96.803,57.48C96.803,56.121 97.522,55.019 98.409,55.019C99.296,55.019 100.016,56.121 100.016,57.48C100.016,58.839 99.296,59.94 98.409,59.94Z" style="fill:rgb(255,249,249);fill-rule:nonzero;"/>
    </g>
    <g transform="matrix(8.33333,0,0,8.33333,-711.692,-283.333)">
        <path d="M104.011,59.94C103.124,59.94 102.405,58.839 102.405,57.48C102.405,56.121 103.124,55.019 104.011,55.019C104.899,55.019 105.617,56.121 105.617,57.48C105.617,58.839 104.899,59.94 104.011,59.94Z" style="fill:rgb(255,249,249);fill-rule:nonzero;"/>
    </g>
</svg>
