<?xml version="1.0" encoding="UTF-8" standalone="no"?>
<!DOCTYPE svg PUBLIC "-//W3C//DTD SVG 1.1//EN" "http://www.w3.org/Graphics/SVG/1.1/DTD/svg11.dtd">
<svg width="100%" height="100%" viewBox="0 0 883 105" version="1.1" xmlns="http://www.w3.org/2000/svg" xmlns:xlink="http://www.w3.org/1999/xlink" xml:space="preserve" xmlns:serif="http://www.serif.com/" style="fill-rule:evenodd;clip-rule:evenodd;stroke-linejoin:round;stroke-miterlimit:2;">
    <g transform="matrix(4.16667,0,0,4.16667,5.40833,93.1583)">
        <path d="M0,-21.642C0.146,-21.473 0.135,-21.418 0.189,-21.191C0.118,-21.171 0.011,-21.096 -0.04,-21.026L-1.042,-22.103C-0.67,-22.139 -0.229,-21.922 0,-21.642M0.62,-20.915C0.745,-20.79 0.745,-20.586 0.619,-20.462C0.494,-20.338 0.291,-20.338 0.166,-20.464C0.042,-20.587 0.042,-20.792 0.168,-20.915C0.293,-21.042 0.495,-21.04 0.62,-20.915M0.771,-22.087C0.81,-21.987 0.83,-21.749 0.976,-21.587C0.779,-21.419 0.737,-21.329 0.672,-21.165C0.605,-21.205 0.536,-21.226 0.468,-21.231L0.771,-22.087ZM5.073,-22.131L4.252,-21.875C2.954,-21.41 2.486,-20.441 1.51,-20.496C1.301,-20.517 1.126,-20.559 0.954,-20.657C0.961,-20.72 0.94,-20.794 0.922,-20.856C1.752,-21.349 3.538,-21.912 5.073,-22.131M1.377,-19.713L0.733,-20.248C1.179,-20.257 1.382,-20.259 1.382,-20.259C1.303,-19.922 1.377,-19.713 1.377,-19.713M-0.521,-17.047C-1.078,-15.606 -0.98,-15.559 -1.139,-14.959C-0.978,-16.975 -0.374,-18.639 0.208,-20.163C0.208,-20.163 0.343,-20.123 0.411,-20.135C0.532,-19.996 0.559,-19.796 0.559,-19.796C0.859,-18.813 -0.082,-18.182 -0.521,-17.047M-1.022,-20.33C-0.885,-20.387 -0.163,-20.627 -0.163,-20.627L-0.108,-20.457C-0.362,-20.307 -0.489,-20.107 -0.493,-20.075C-0.543,-20.079 -0.827,-20.29 -1.022,-20.33M-0.841,-21.046C-0.906,-20.763 -1.142,-20.49 -1.298,-20.257C-1.097,-20.16 -0.841,-20.025 -0.667,-19.873C-1.052,-19.293 -1.188,-19.002 -1.252,-18.303L-1.199,-14.687C-0.833,-15.776 -0.411,-16.975 0.192,-17.862C0.364,-18.114 0.397,-18.179 0.494,-18.327C0.613,-18.512 0.869,-18.886 0.859,-19.526C1.077,-19.57 1.339,-19.515 1.592,-19.495C1.56,-19.768 1.525,-19.822 1.597,-20.269C2.643,-20.31 2.843,-20.949 3.97,-21.532C4.486,-21.8 4.704,-21.91 5.385,-22.163C3.269,-22.155 2.334,-22.501 1.154,-21.707C1.017,-21.891 0.945,-22.143 0.854,-22.357C0.687,-22.226 0.328,-21.989 0.057,-21.919C-0.256,-22.227 -0.718,-22.398 -1.253,-22.35C-1.329,-21.918 -1.179,-21.338 -0.841,-21.046M0,-0.019C0.146,-0.188 0.135,-0.242 0.189,-0.469C0.118,-0.49 0.011,-0.566 -0.04,-0.635L-1.042,0.443C-0.67,0.477 -0.229,0.262 0,-0.019M0.62,-0.746C0.745,-0.871 0.745,-1.075 0.619,-1.199C0.494,-1.323 0.291,-1.322 0.166,-1.198C0.042,-1.073 0.042,-0.87 0.168,-0.746C0.293,-0.619 0.495,-0.62 0.62,-0.746M0.771,0.426C0.81,0.326 0.83,0.087 0.976,-0.075C0.779,-0.241 0.737,-0.332 0.672,-0.496C0.605,-0.457 0.536,-0.436 0.468,-0.43L0.771,0.426ZM5.073,0.47L4.252,0.214C2.954,-0.251 2.486,-1.22 1.51,-1.165C1.301,-1.143 1.126,-1.102 0.954,-1.005C0.961,-0.942 0.94,-0.868 0.922,-0.805C1.752,-0.312 3.538,0.251 5.073,0.47M1.377,-1.947L0.733,-1.413C1.179,-1.403 1.382,-1.402 1.382,-1.402C1.303,-1.739 1.377,-1.947 1.377,-1.947M-0.521,-4.613C-1.078,-6.055 -0.98,-6.102 -1.139,-6.702C-0.978,-4.685 -0.374,-3.022 0.208,-1.498C0.208,-1.498 0.343,-1.54 0.411,-1.526C0.532,-1.665 0.559,-1.865 0.559,-1.865C0.859,-2.848 -0.082,-3.479 -0.521,-4.613M-1.022,-1.331C-0.885,-1.273 -0.163,-1.032 -0.163,-1.032L-0.108,-1.203C-0.362,-1.354 -0.489,-1.554 -0.493,-1.586C-0.543,-1.582 -0.827,-1.371 -1.022,-1.331M-0.841,-0.614C-0.906,-0.898 -1.142,-1.17 -1.298,-1.403C-1.097,-1.502 -0.841,-1.637 -0.667,-1.788C-1.052,-2.369 -1.188,-2.658 -1.252,-3.357L-1.199,-6.975C-0.833,-5.886 -0.411,-4.685 0.192,-3.799C0.364,-3.547 0.397,-3.482 0.494,-3.332C0.613,-3.15 0.869,-2.774 0.859,-2.135C1.077,-2.091 1.339,-2.148 1.592,-2.165C1.56,-1.892 1.525,-1.839 1.597,-1.391C2.643,-1.352 2.843,-0.712 3.97,-0.128C4.486,0.139 4.704,0.248 5.385,0.5C3.269,0.495 2.334,0.84 1.154,0.046C1.017,0.23 0.945,0.482 0.854,0.697C0.687,0.565 0.328,0.329 0.057,0.257C-0.256,0.566 -0.718,0.737 -1.253,0.689C-1.329,0.257 -1.179,-0.323 -0.841,-0.614M17.372,-21.623C17.228,-21.454 17.238,-21.4 17.184,-21.171C17.255,-21.151 17.363,-21.076 17.413,-21.006L18.415,-22.084C18.043,-22.119 17.603,-21.904 17.372,-21.623M16.752,-20.896C16.628,-20.771 16.628,-20.568 16.754,-20.443C16.878,-20.318 17.081,-20.319 17.206,-20.445C17.331,-20.57 17.331,-20.772 17.206,-20.898C17.079,-21.021 16.877,-21.021 16.752,-20.896M16.603,-22.068C16.564,-21.967 16.544,-21.729 16.396,-21.568C16.593,-21.4 16.635,-21.309 16.7,-21.146C16.768,-21.185 16.836,-21.206 16.906,-21.213L16.603,-22.068ZM12.3,-22.111L13.121,-21.856C14.42,-21.39 14.886,-20.421 15.863,-20.476C16.071,-20.498 16.246,-20.54 16.419,-20.635C16.412,-20.701 16.434,-20.774 16.451,-20.836C15.621,-21.332 13.835,-21.893 12.3,-22.111M15.997,-19.694L16.639,-20.229C16.194,-20.237 15.991,-20.24 15.991,-20.24C16.069,-19.903 15.997,-19.694 15.997,-19.694M17.894,-17.029C18.451,-15.587 18.353,-15.538 18.512,-14.94C18.35,-16.955 17.747,-18.619 17.164,-20.144C17.164,-20.144 17.03,-20.104 16.961,-20.116C16.841,-19.976 16.813,-19.778 16.813,-19.778C16.513,-18.793 17.454,-18.163 17.894,-17.029M18.396,-20.312C18.258,-20.368 17.535,-20.609 17.535,-20.609L17.482,-20.439C17.734,-20.288 17.862,-20.088 17.865,-20.054C17.916,-20.059 18.2,-20.271 18.396,-20.312M18.213,-21.028C18.279,-20.744 18.515,-20.47 18.67,-20.237C18.471,-20.139 18.213,-20.004 18.039,-19.854C18.424,-19.273 18.561,-18.982 18.624,-18.285L18.572,-14.668C18.206,-15.755 17.783,-16.955 17.18,-17.842C17.009,-18.094 16.975,-18.161 16.878,-18.309C16.76,-18.491 16.504,-18.866 16.513,-19.506C16.295,-19.55 16.033,-19.495 15.781,-19.475C15.813,-19.75 15.847,-19.801 15.776,-20.25C14.73,-20.29 14.53,-20.929 13.403,-21.513C12.887,-21.781 12.668,-21.889 11.986,-22.143C14.104,-22.134 15.038,-22.482 16.219,-21.688C16.356,-21.871 16.428,-22.123 16.518,-22.337C16.686,-22.207 17.045,-21.969 17.316,-21.899C17.629,-22.207 18.09,-22.379 18.626,-22.329C18.702,-21.899 18.551,-21.319 18.213,-21.028M17.372,0C17.228,-0.168 17.238,-0.223 17.184,-0.45C17.255,-0.471 17.363,-0.546 17.413,-0.617L18.415,0.462C18.043,0.496 17.603,0.281 17.372,0M16.752,-0.727C16.628,-0.852 16.628,-1.055 16.754,-1.18C16.878,-1.304 17.081,-1.303 17.206,-1.179C17.331,-1.052 17.331,-0.85 17.206,-0.725C17.079,-0.601 16.877,-0.602 16.752,-0.727M16.603,0.447C16.564,0.344 16.544,0.107 16.396,-0.055C16.593,-0.221 16.635,-0.313 16.7,-0.475C16.768,-0.438 16.836,-0.417 16.906,-0.411L16.603,0.447ZM12.3,0.49L13.121,0.234C14.42,-0.233 14.886,-1.202 15.863,-1.146C16.071,-1.124 16.246,-1.084 16.419,-0.986C16.412,-0.922 16.434,-0.848 16.451,-0.786C15.621,-0.292 13.835,0.271 12.3,0.49M15.997,-1.928L16.639,-1.393C16.194,-1.385 15.991,-1.381 15.991,-1.381C16.069,-1.719 15.997,-1.928 15.997,-1.928M17.894,-4.592C18.451,-6.036 18.353,-6.082 18.512,-6.682C18.35,-4.665 17.747,-3.004 17.164,-1.478C17.164,-1.478 17.03,-1.52 16.961,-1.506C16.841,-1.646 16.813,-1.845 16.813,-1.845C16.513,-2.829 17.454,-3.46 17.894,-4.592M18.396,-1.31C18.258,-1.253 17.535,-1.013 17.535,-1.013L17.482,-1.184C17.734,-1.334 17.862,-1.534 17.865,-1.567C17.916,-1.563 18.2,-1.352 18.396,-1.31M18.213,-0.594C18.279,-0.879 18.515,-1.152 18.67,-1.383C18.471,-1.482 18.213,-1.619 18.039,-1.767C18.424,-2.348 18.561,-2.639 18.624,-3.337L18.572,-6.954C18.206,-5.868 17.783,-4.665 17.18,-3.78C17.009,-3.528 16.975,-3.462 16.878,-3.313C16.76,-3.131 16.504,-2.756 16.513,-2.116C16.295,-2.071 16.033,-2.128 15.781,-2.147C15.813,-1.873 15.847,-1.82 15.776,-1.371C14.73,-1.332 14.53,-0.693 13.403,-0.109C12.887,0.159 12.668,0.267 11.986,0.52C14.104,0.513 15.038,0.859 16.219,0.066C16.356,0.25 16.428,0.501 16.518,0.716C16.686,0.585 17.045,0.348 17.316,0.277C17.629,0.585 18.09,0.755 18.626,0.708C18.702,0.277 18.551,-0.302 18.213,-0.594M15.513,-4.733C16.589,-6.431 17.228,-8.544 17.228,-10.834C17.228,-13.124 16.589,-15.236 15.513,-16.934L15.513,-17.704C16.851,-15.855 17.658,-13.457 17.658,-10.834C17.658,-8.211 16.851,-5.813 15.513,-3.963L15.513,-4.733ZM11.656,-0.84L11.656,-1.316C12.287,-1.593 12.882,-1.957 13.432,-2.394L13.432,-1.847C12.877,-1.438 12.283,-1.099 11.656,-0.84M8.686,-0.246C8.388,-0.246 8.093,-0.264 7.801,-0.297L7.801,-0.739C8.093,-0.702 8.388,-0.684 8.686,-0.684C8.986,-0.684 9.283,-0.704 9.576,-0.739L9.576,-0.297C9.283,-0.264 8.986,-0.246 8.686,-0.246M3.945,-1.843L3.945,-2.39C4.495,-1.953 5.091,-1.59 5.722,-1.313L5.722,-0.838C5.095,-1.097 4.5,-1.436 3.945,-1.843M-0.287,-10.834C-0.287,-13.46 0.523,-15.862 1.866,-17.714L1.866,-16.943C0.785,-15.243 0.146,-13.128 0.146,-10.834C0.146,-8.54 0.785,-6.423 1.866,-4.724L1.866,-3.954C0.523,-5.805 -0.287,-8.209 -0.287,-10.834M5.722,-20.829L5.722,-20.354C5.091,-20.079 4.495,-19.714 3.945,-19.277L3.945,-19.824C4.5,-20.232 5.095,-20.571 5.722,-20.829M8.686,-21.421C8.986,-21.421 9.283,-21.404 9.576,-21.371L9.576,-20.929C9.283,-20.964 8.986,-20.983 8.686,-20.983C8.388,-20.983 8.093,-20.964 7.801,-20.929L7.801,-21.371C8.093,-21.404 8.388,-21.421 8.686,-21.421M13.432,-19.819L13.432,-19.273C12.882,-19.71 12.287,-20.075 11.656,-20.352L11.656,-20.827C12.283,-20.568 12.877,-20.228 13.432,-19.819M15.513,-16.281C16.385,-14.723 16.894,-12.85 16.894,-10.834C16.894,-8.819 16.385,-6.946 15.513,-5.387L15.513,-16.281ZM11.656,-19.978C12.29,-19.684 12.886,-19.299 13.432,-18.835L13.432,-2.832C12.886,-2.369 12.29,-1.983 11.656,-1.689L11.656,-19.978ZM7.801,-20.584C8.092,-20.621 8.388,-20.642 8.686,-20.642C8.986,-20.642 9.283,-20.621 9.576,-20.584L9.576,-1.084C9.283,-1.046 8.986,-1.026 8.686,-1.026C8.388,-1.026 8.092,-1.045 7.801,-1.084L7.801,-20.584ZM3.945,-18.84C4.492,-19.304 5.087,-19.688 5.722,-19.982L5.722,-1.686C5.087,-1.979 4.492,-2.364 3.945,-2.826L3.945,-18.84ZM1.866,-5.375C0.989,-6.935 0.478,-8.813 0.478,-10.834C0.478,-12.853 0.989,-14.731 1.866,-16.292L1.866,-5.375ZM8.686,-22.24C3.282,-22.24 -1.097,-17.133 -1.097,-10.834C-1.097,-4.534 3.282,0.573 8.686,0.573C14.089,0.573 18.469,-4.534 18.469,-10.834C18.469,-17.133 14.089,-22.24 8.686,-22.24" style="fill:rgb(150,150,151);fill-rule:nonzero;"/>
    </g>
    <g transform="matrix(4.16667,0,0,4.16667,139.015,9.59334)">
        <path d="M0,8.563L-0.588,8.563L-0.696,7.004L-0.72,7.004C-1.296,8.227 -2.447,8.743 -3.682,8.743C-6.381,8.743 -7.724,6.62 -7.724,4.281C-7.724,1.943 -6.381,-0.18 -3.682,-0.18C-1.883,-0.18 -0.42,0.791 -0.108,2.662L-0.924,2.662C-1.032,1.679 -2.051,0.516 -3.682,0.516C-5.949,0.516 -6.908,2.41 -6.908,4.281C-6.908,6.152 -5.949,8.047 -3.682,8.047C-1.787,8.047 -0.684,6.716 -0.72,4.905L-3.634,4.905L-3.634,4.209L0,4.209L0,8.563Z" style="fill:rgb(150,150,151);fill-rule:nonzero;"/>
    </g>
    <g transform="matrix(4.16667,0,0,4.16667,146.831,31.5275)">
        <path d="M0,0.408C0.012,1.512 0.587,2.843 2.039,2.843C3.142,2.843 3.742,2.195 3.981,1.26L4.737,1.26C4.414,2.663 3.598,3.478 2.039,3.478C0.072,3.478 -0.756,1.968 -0.756,0.204C-0.756,-1.427 0.072,-3.07 2.039,-3.07C4.03,-3.07 4.821,-1.331 4.761,0.408L0,0.408ZM4.005,-0.227C3.97,-1.367 3.262,-2.434 2.039,-2.434C0.803,-2.434 0.12,-1.355 0,-0.227L4.005,-0.227Z" style="fill:rgb(150,150,151);fill-rule:nonzero;"/>
    </g>
    <g transform="matrix(4.16667,0,0,4.16667,170.881,44.5242)">
        <path d="M0,-6.009L0.756,-6.009L0.756,-4.942L0.78,-4.942C1.056,-5.685 1.883,-6.189 2.759,-6.189C4.498,-6.189 5.025,-5.278 5.025,-3.803L5.025,0.18L4.27,0.18L4.27,-3.682C4.27,-4.75 3.922,-5.553 2.699,-5.553C1.5,-5.553 0.78,-4.642 0.756,-3.43L0.756,0.18L0,0.18L0,-6.009Z" style="fill:rgb(150,150,151);fill-rule:nonzero;"/>
    </g>
    <g transform="matrix(4.16667,0,0,4.16667,199.63,31.5275)">
        <path d="M0,0.408C0.012,1.512 0.587,2.843 2.039,2.843C3.142,2.843 3.742,2.195 3.982,1.26L4.737,1.26C4.414,2.663 3.598,3.478 2.039,3.478C0.072,3.478 -0.756,1.968 -0.756,0.204C-0.756,-1.427 0.072,-3.07 2.039,-3.07C4.03,-3.07 4.821,-1.331 4.761,0.408L0,0.408ZM4.005,-0.227C3.97,-1.367 3.262,-2.434 2.039,-2.434C0.803,-2.434 0.12,-1.355 0,-0.227L4.005,-0.227Z" style="fill:rgb(150,150,151);fill-rule:nonzero;"/>
    </g>
    <g transform="matrix(4.16667,0,0,4.16667,223.731,44.7242)">
        <path d="M0,-6.057L0.695,-6.057L0.695,-4.606L0.72,-4.606C1.104,-5.601 1.943,-6.189 3.058,-6.141L3.058,-5.386C1.691,-5.457 0.755,-4.45 0.755,-3.167L0.755,0.132L0,0.132L0,-6.057Z" style="fill:rgb(150,150,151);fill-rule:nonzero;"/>
    </g>
    <g transform="matrix(4.16667,0,0,4.16667,239.179,37.3746)">
        <path d="M0,-2.398C0.072,-3.849 1.092,-4.473 2.507,-4.473C3.598,-4.473 4.786,-4.137 4.786,-2.482L4.786,0.804C4.786,1.092 4.93,1.26 5.229,1.26C5.313,1.26 5.409,1.236 5.469,1.212L5.469,1.848C5.301,1.883 5.181,1.896 4.977,1.896C4.21,1.896 4.09,1.464 4.09,0.816L4.066,0.816C3.538,1.62 2.999,2.075 1.811,2.075C0.672,2.075 -0.264,1.512 -0.264,0.265C-0.264,-1.475 1.427,-1.535 3.059,-1.727C3.682,-1.798 4.03,-1.882 4.03,-2.566C4.03,-3.585 3.298,-3.837 2.411,-3.837C1.476,-3.837 0.78,-3.406 0.756,-2.398L0,-2.398ZM4.03,-1.487L4.006,-1.487C3.91,-1.307 3.574,-1.247 3.37,-1.211C2.087,-0.983 0.492,-0.995 0.492,0.216C0.492,0.972 1.164,1.44 1.871,1.44C3.022,1.44 4.042,0.708 4.03,-0.503L4.03,-1.487Z" style="fill:rgb(150,150,151);fill-rule:nonzero;"/>
    </g>
    <g transform="matrix(4.16667,0,0,4.16667,-3721.8,-170.334)">
        <rect x="956.947" y="43.182" width="0.756" height="8.564" style="fill:rgb(150,150,151);"/>
    </g>
    <g transform="matrix(4.16667,0,0,4.16667,-3721.8,-170.334)">
        <path d="M959.167,43.182L959.923,43.182L959.923,44.393L959.167,44.393L959.167,43.182ZM959.167,45.557L959.923,45.557L959.923,51.746L959.167,51.746L959.167,45.557Z" style="fill:rgb(150,150,151);fill-rule:nonzero;"/>
    </g>
    <g transform="matrix(4.16667,0,0,4.16667,288.925,37.8242)">
        <path d="M0,-4.401L1.259,-4.401L1.259,-3.765L0,-3.765L0,0.408C0,0.9 0.072,1.188 0.612,1.224C0.828,1.224 1.043,1.212 1.259,1.188L1.259,1.835C1.031,1.835 0.815,1.859 0.588,1.859C-0.42,1.859 -0.768,1.524 -0.755,0.468L-0.755,-3.765L-1.835,-3.765L-1.835,-4.401L-0.755,-4.401L-0.755,-6.26L0,-6.26L0,-4.401Z" style="fill:rgb(150,150,151);fill-rule:nonzero;"/>
    </g>
    <g transform="matrix(4.16667,0,0,4.16667,298.425,37.3746)">
        <path d="M0,-2.398C0.072,-3.849 1.092,-4.473 2.507,-4.473C3.598,-4.473 4.786,-4.137 4.786,-2.482L4.786,0.804C4.786,1.092 4.93,1.26 5.23,1.26C5.314,1.26 5.409,1.236 5.469,1.212L5.469,1.848C5.301,1.883 5.181,1.896 4.978,1.896C4.21,1.896 4.09,1.464 4.09,0.816L4.066,0.816C3.538,1.62 2.999,2.075 1.811,2.075C0.672,2.075 -0.264,1.512 -0.264,0.265C-0.264,-1.475 1.427,-1.535 3.059,-1.727C3.682,-1.798 4.03,-1.882 4.03,-2.566C4.03,-3.585 3.298,-3.837 2.411,-3.837C1.476,-3.837 0.78,-3.406 0.756,-2.398L0,-2.398ZM4.03,-1.487L4.006,-1.487C3.91,-1.307 3.574,-1.247 3.37,-1.211C2.087,-0.983 0.492,-0.995 0.492,0.216C0.492,0.972 1.164,1.44 1.871,1.44C3.023,1.44 4.042,0.708 4.03,-0.503L4.03,-1.487Z" style="fill:rgb(150,150,151);fill-rule:nonzero;"/>
    </g>
    <g transform="matrix(4.16667,0,0,4.16667,329.674,37.8242)">
        <path d="M0,-4.401L1.259,-4.401L1.259,-3.765L0,-3.765L0,0.408C0,0.9 0.072,1.188 0.612,1.224C0.828,1.224 1.043,1.212 1.259,1.188L1.259,1.835C1.031,1.835 0.815,1.859 0.588,1.859C-0.42,1.859 -0.768,1.524 -0.755,0.468L-0.755,-3.765L-1.835,-3.765L-1.835,-4.401L-0.755,-4.401L-0.755,-6.26L0,-6.26L0,-4.401Z" style="fill:rgb(150,150,151);fill-rule:nonzero;"/>
    </g>
    <g transform="matrix(4.16667,0,0,4.16667,376.062,10.3392)">
        <path d="M0,8.384L-0.695,8.384L-0.695,7.209L-0.72,7.209C-1.043,8.012 -2.027,8.564 -2.926,8.564C-4.809,8.564 -5.709,7.041 -5.709,5.29C-5.709,3.539 -4.809,2.015 -2.926,2.015C-2.003,2.015 -1.104,2.483 -0.779,3.371L-0.755,3.371L-0.755,-0.18L0,-0.18L0,8.384ZM-2.926,7.928C-1.319,7.928 -0.755,6.573 -0.755,5.29C-0.755,4.006 -1.319,2.651 -2.926,2.651C-4.366,2.651 -4.953,4.006 -4.953,5.29C-4.953,6.573 -4.366,7.928 -2.926,7.928" style="fill:rgb(150,150,151);fill-rule:nonzero;"/>
    </g>
    <g transform="matrix(4.16667,0,0,4.16667,383.924,31.5275)">
        <path d="M0,0.408C0.012,1.512 0.587,2.843 2.039,2.843C3.142,2.843 3.742,2.195 3.981,1.26L4.737,1.26C4.414,2.663 3.598,3.478 2.039,3.478C0.072,3.478 -0.756,1.968 -0.756,0.204C-0.756,-1.427 0.072,-3.07 2.039,-3.07C4.03,-3.07 4.821,-1.331 4.761,0.408L0,0.408ZM4.005,-0.227C3.97,-1.367 3.262,-2.434 2.039,-2.434C0.803,-2.434 0.12,-1.355 0,-0.227L4.005,-0.227Z" style="fill:rgb(150,150,151);fill-rule:nonzero;"/>
    </g>
    <g transform="matrix(4.16667,0,0,4.16667,448.609,34.4738)">
        <path d="M0,-3.381C-0.288,-4.7 -1.379,-5.456 -2.626,-5.456C-4.893,-5.456 -5.853,-3.561 -5.853,-1.69C-5.853,0.181 -4.893,2.076 -2.626,2.076C-1.043,2.076 -0.036,0.852 0.12,-0.67L0.936,-0.67C0.708,1.428 -0.624,2.771 -2.626,2.771C-5.325,2.771 -6.668,0.649 -6.668,-1.69C-6.668,-4.029 -5.325,-6.152 -2.626,-6.152C-1.007,-6.152 0.6,-5.18 0.815,-3.381L0,-3.381Z" style="fill:rgb(150,150,151);fill-rule:nonzero;"/>
    </g>
    <g transform="matrix(4.16667,0,0,4.16667,456.822,37.3746)">
        <path d="M0,-2.398C0.072,-3.849 1.092,-4.473 2.507,-4.473C3.598,-4.473 4.786,-4.137 4.786,-2.482L4.786,0.804C4.786,1.092 4.93,1.26 5.229,1.26C5.313,1.26 5.409,1.236 5.469,1.212L5.469,1.848C5.301,1.883 5.181,1.896 4.978,1.896C4.21,1.896 4.09,1.464 4.09,0.816L4.066,0.816C3.538,1.62 2.999,2.075 1.811,2.075C0.672,2.075 -0.264,1.512 -0.264,0.265C-0.264,-1.475 1.427,-1.535 3.059,-1.727C3.682,-1.798 4.03,-1.882 4.03,-2.566C4.03,-3.585 3.298,-3.837 2.411,-3.837C1.476,-3.837 0.78,-3.406 0.756,-2.398L0,-2.398ZM4.03,-1.487L4.006,-1.487C3.91,-1.307 3.574,-1.247 3.37,-1.211C2.087,-0.983 0.492,-0.995 0.492,0.216C0.492,0.972 1.164,1.44 1.871,1.44C3.022,1.44 4.042,0.708 4.03,-0.503L4.03,-1.487Z" style="fill:rgb(150,150,151);fill-rule:nonzero;"/>
    </g>
    <g transform="matrix(4.16667,0,0,4.16667,488.07,37.8242)">
        <path d="M0,-4.401L1.259,-4.401L1.259,-3.765L0,-3.765L0,0.408C0,0.9 0.072,1.188 0.612,1.224C0.828,1.224 1.044,1.212 1.259,1.188L1.259,1.835C1.031,1.835 0.815,1.859 0.588,1.859C-0.42,1.859 -0.768,1.524 -0.755,0.468L-0.755,-3.765L-1.835,-3.765L-1.835,-4.401L-0.755,-4.401L-0.755,-6.26L0,-6.26L0,-4.401Z" style="fill:rgb(150,150,151);fill-rule:nonzero;"/>
    </g>
    <g transform="matrix(4.16667,0,0,4.16667,497.571,37.3746)">
        <path d="M0,-2.398C0.072,-3.849 1.092,-4.473 2.507,-4.473C3.598,-4.473 4.786,-4.137 4.786,-2.482L4.786,0.804C4.786,1.092 4.93,1.26 5.229,1.26C5.313,1.26 5.409,1.236 5.469,1.212L5.469,1.848C5.301,1.883 5.181,1.896 4.978,1.896C4.21,1.896 4.09,1.464 4.09,0.816L4.066,0.816C3.538,1.62 2.999,2.075 1.811,2.075C0.672,2.075 -0.264,1.512 -0.264,0.265C-0.264,-1.475 1.427,-1.535 3.059,-1.727C3.682,-1.798 4.03,-1.882 4.03,-2.566C4.03,-3.585 3.298,-3.837 2.411,-3.837C1.476,-3.837 0.78,-3.406 0.756,-2.398L0,-2.398ZM4.03,-1.487L4.006,-1.487C3.91,-1.307 3.574,-1.247 3.37,-1.211C2.087,-0.983 0.492,-0.995 0.492,0.216C0.492,0.972 1.164,1.44 1.871,1.44C3.022,1.44 4.042,0.708 4.03,-0.503L4.03,-1.487Z" style="fill:rgb(150,150,151);fill-rule:nonzero;"/>
    </g>
    <g transform="matrix(4.16667,0,0,4.16667,-3721.8,-170.334)">
        <rect x="1018.96" y="43.182" width="0.756" height="8.564" style="fill:rgb(150,150,151);"/>
    </g>
    <g transform="matrix(4.16667,0,0,4.16667,553.962,20.235)">
        <path d="M0,6.009L-0.696,6.009L-0.696,4.894L-0.72,4.894C-1.115,5.721 -1.931,6.189 -2.854,6.189C-4.414,6.189 -5.025,5.277 -5.025,3.838L-5.025,-0.18L-4.27,-0.18L-4.27,3.85C-4.234,4.965 -3.814,5.553 -2.615,5.553C-1.319,5.553 -0.756,4.33 -0.756,3.07L-0.756,-0.18L0,-0.18L0,6.009Z" style="fill:rgb(150,150,151);fill-rule:nonzero;"/>
    </g>
    <g transform="matrix(4.16667,0,0,4.16667,559.872,44.5242)">
        <path d="M0,-6.009L0.756,-6.009L0.756,-4.942L0.78,-4.942C1.056,-5.685 1.883,-6.189 2.759,-6.189C4.498,-6.189 5.025,-5.278 5.025,-3.803L5.025,0.18L4.27,0.18L4.27,-3.682C4.27,-4.75 3.922,-5.553 2.699,-5.553C1.499,-5.553 0.78,-4.642 0.756,-3.43L0.756,0.18L0,0.18L0,-6.009Z" style="fill:rgb(150,150,151);fill-rule:nonzero;"/>
    </g>
    <g transform="matrix(4.16667,0,0,4.16667,583.873,54.8158)">
        <path d="M0,-8.479L0.804,-8.479L2.842,-3.202L4.75,-8.479L5.505,-8.479L2.818,-1.343C2.387,-0.3 2.135,0 1.187,0C0.888,-0.012 0.731,-0.012 0.612,-0.06L0.612,-0.695C0.792,-0.66 0.959,-0.635 1.127,-0.635C1.799,-0.635 1.955,-1.031 2.207,-1.607L2.471,-2.315L0,-8.479Z" style="fill:rgb(150,150,151);fill-rule:nonzero;"/>
    </g>
    <g transform="matrix(4.16667,0,0,4.16667,609.622,37.3746)">
        <path d="M0,-2.398C0.072,-3.849 1.092,-4.473 2.507,-4.473C3.598,-4.473 4.786,-4.137 4.786,-2.482L4.786,0.804C4.786,1.092 4.93,1.26 5.229,1.26C5.313,1.26 5.409,1.236 5.469,1.212L5.469,1.848C5.301,1.883 5.181,1.896 4.978,1.896C4.21,1.896 4.09,1.464 4.09,0.816L4.066,0.816C3.538,1.62 2.999,2.075 1.811,2.075C0.672,2.075 -0.264,1.512 -0.264,0.265C-0.264,-1.475 1.427,-1.535 3.059,-1.727C3.682,-1.798 4.03,-1.882 4.03,-2.566C4.03,-3.585 3.298,-3.837 2.411,-3.837C1.476,-3.837 0.78,-3.406 0.756,-2.398L0,-2.398ZM4.03,-1.487L4.006,-1.487C3.91,-1.307 3.574,-1.247 3.37,-1.211C2.087,-0.983 0.492,-0.995 0.492,0.216C0.492,0.972 1.164,1.44 1.871,1.44C3.022,1.44 4.042,0.708 4.03,-0.503L4.03,-1.487Z" style="fill:rgb(150,150,151);fill-rule:nonzero;"/>
    </g>
    <g transform="matrix(4.16667,0,0,4.16667,108.381,95.2742)">
        <path d="M0,-8.564L3.694,-8.564C5.913,-8.564 7.58,-7.172 7.58,-4.33C7.58,-1.848 6.309,0 3.694,0L0,0L0,-8.564ZM1.883,-1.583L3.562,-1.583C4.653,-1.583 5.697,-2.255 5.697,-4.15C5.697,-5.877 5.097,-6.981 3.226,-6.981L1.883,-6.981L1.883,-1.583Z" style="fill:rgb(150,150,151);fill-rule:nonzero;"/>
    </g>
    <g transform="matrix(4.16667,0,0,4.16667,150.527,80.6279)">
        <path d="M0,0.828C0.048,1.908 0.576,2.399 1.523,2.399C2.207,2.399 2.759,1.979 2.867,1.596L4.366,1.596C3.886,3.059 2.867,3.682 1.463,3.682C-0.492,3.682 -1.703,2.339 -1.703,0.42C-1.703,-1.439 -0.419,-2.854 1.463,-2.854C3.574,-2.854 4.594,-1.079 4.474,0.828L0,0.828ZM2.77,-0.251C2.615,-1.115 2.243,-1.57 1.416,-1.57C0.336,-1.57 0.024,-0.731 0,-0.251L2.77,-0.251Z" style="fill:rgb(150,150,151);fill-rule:nonzero;"/>
    </g>
    <g transform="matrix(4.16667,0,0,4.16667,173.379,103.665)">
        <path d="M0,-8.215L1.619,-8.215L1.619,-7.423L1.643,-7.423C2.051,-8.083 2.723,-8.383 3.49,-8.383C5.433,-8.383 6.309,-6.812 6.309,-5.048C6.309,-3.394 5.397,-1.846 3.586,-1.846C2.843,-1.846 2.135,-2.17 1.727,-2.782L1.703,-2.782L1.703,0.168L0,0.168L0,-8.215ZM4.605,-5.097C4.605,-6.08 4.21,-7.099 3.119,-7.099C2.003,-7.099 1.643,-6.104 1.643,-5.097C1.643,-4.089 2.027,-3.13 3.13,-3.13C4.246,-3.13 4.605,-4.089 4.605,-5.097" style="fill:rgb(150,150,151);fill-rule:nonzero;"/>
    </g>
    <g transform="matrix(4.16667,0,0,4.16667,203.63,87.3246)">
        <path d="M0,-2.386C0.096,-3.981 1.523,-4.461 2.915,-4.461C4.15,-4.461 5.637,-4.185 5.637,-2.698L5.637,0.528C5.637,1.092 5.697,1.656 5.853,1.908L4.126,1.908C4.066,1.716 4.018,1.511 4.006,1.308C3.466,1.871 2.674,2.075 1.919,2.075C0.744,2.075 -0.192,1.487 -0.192,0.216C-0.192,-1.187 0.863,-1.523 1.919,-1.667C2.962,-1.823 3.934,-1.786 3.934,-2.482C3.934,-3.214 3.43,-3.321 2.831,-3.321C2.183,-3.321 1.763,-3.058 1.703,-2.386L0,-2.386ZM3.934,-1.127C3.646,-0.875 3.046,-0.863 2.519,-0.767C1.991,-0.659 1.511,-0.479 1.511,0.144C1.511,0.78 2.003,0.936 2.555,0.936C3.886,0.936 3.934,-0.119 3.934,-0.491L3.934,-1.127Z" style="fill:rgb(150,150,151);fill-rule:nonzero;"/>
    </g>
    <g transform="matrix(4.16667,0,0,4.16667,232.628,94.5733)">
        <path d="M0,-6.033L1.619,-6.033L1.619,-4.882L1.643,-4.882C1.955,-5.661 2.794,-6.201 3.622,-6.201C3.742,-6.201 3.886,-6.177 3.994,-6.141L3.994,-4.558C3.838,-4.594 3.586,-4.617 3.382,-4.617C2.135,-4.617 1.703,-3.718 1.703,-2.627L1.703,0.168L0,0.168L0,-6.033Z" style="fill:rgb(150,150,151);fill-rule:nonzero;"/>
    </g>
    <g transform="matrix(4.16667,0,0,4.16667,261.074,87.8233)">
        <path d="M0,-4.413L1.247,-4.413L1.247,-3.273L0,-3.273L0,-0.203C0,0.373 0.143,0.516 0.719,0.516C0.899,0.516 1.067,0.505 1.247,0.468L1.247,1.8C0.959,1.848 0.587,1.859 0.252,1.859C-0.792,1.859 -1.703,1.62 -1.703,0.384L-1.703,-3.273L-2.735,-3.273L-2.735,-4.413L-1.703,-4.413L-1.703,-6.272L0,-6.272L0,-4.413Z" style="fill:rgb(150,150,151);fill-rule:nonzero;"/>
    </g>
    <g transform="matrix(4.16667,0,0,4.16667,269.38,87.3246)">
        <path d="M0,-2.386C0.096,-3.981 1.523,-4.461 2.914,-4.461C4.15,-4.461 5.637,-4.185 5.637,-2.698L5.637,0.528C5.637,1.092 5.697,1.656 5.853,1.908L4.125,1.908C4.066,1.716 4.018,1.511 4.006,1.308C3.466,1.871 2.674,2.075 1.919,2.075C0.744,2.075 -0.192,1.487 -0.192,0.216C-0.192,-1.187 0.864,-1.523 1.919,-1.667C2.962,-1.823 3.934,-1.786 3.934,-2.482C3.934,-3.214 3.43,-3.321 2.831,-3.321C2.183,-3.321 1.763,-3.058 1.703,-2.386L0,-2.386ZM3.934,-1.127C3.646,-0.875 3.046,-0.863 2.518,-0.767C1.991,-0.659 1.511,-0.479 1.511,0.144C1.511,0.78 2.003,0.936 2.555,0.936C3.886,0.936 3.934,-0.119 3.934,-0.491L3.934,-1.127Z" style="fill:rgb(150,150,151);fill-rule:nonzero;"/>
    </g>
    <g transform="matrix(4.16667,0,0,4.16667,298.578,94.5733)">
        <path d="M0,-6.033L1.607,-6.033L1.607,-5.193L1.631,-5.193C2.075,-5.829 2.722,-6.201 3.526,-6.201C4.306,-6.201 5.001,-5.913 5.337,-5.169C5.697,-5.709 6.344,-6.201 7.208,-6.201C8.527,-6.201 9.475,-5.589 9.475,-3.982L9.475,0.168L7.772,0.168L7.772,-3.346C7.772,-4.174 7.7,-4.858 6.728,-4.858C5.769,-4.858 5.589,-4.066 5.589,-3.286L5.589,0.168L3.886,0.168L3.886,-3.31C3.886,-4.03 3.934,-4.858 2.854,-4.858C2.519,-4.858 1.703,-4.642 1.703,-3.43L1.703,0.168L0,0.168L0,-6.033Z" style="fill:rgb(150,150,151);fill-rule:nonzero;"/>
    </g>
    <g transform="matrix(4.16667,0,0,4.16667,349.525,80.6279)">
        <path d="M0,0.828C0.048,1.908 0.576,2.399 1.523,2.399C2.207,2.399 2.759,1.979 2.867,1.596L4.366,1.596C3.886,3.059 2.867,3.682 1.463,3.682C-0.492,3.682 -1.703,2.339 -1.703,0.42C-1.703,-1.439 -0.42,-2.854 1.463,-2.854C3.574,-2.854 4.594,-1.079 4.474,0.828L0,0.828ZM2.771,-0.251C2.615,-1.115 2.243,-1.57 1.415,-1.57C0.336,-1.57 0.024,-0.731 0,-0.251L2.771,-0.251Z" style="fill:rgb(150,150,151);fill-rule:nonzero;"/>
    </g>
    <g transform="matrix(4.16667,0,0,4.16667,372.376,94.5733)">
        <path d="M0,-6.033L1.619,-6.033L1.619,-5.169L1.655,-5.169C2.087,-5.865 2.831,-6.201 3.55,-6.201C5.361,-6.201 5.817,-5.181 5.817,-3.646L5.817,0.168L4.114,0.168L4.114,-3.334C4.114,-4.354 3.814,-4.858 3.022,-4.858C2.099,-4.858 1.703,-4.342 1.703,-3.082L1.703,0.168L0,0.168L0,-6.033Z" style="fill:rgb(150,150,151);fill-rule:nonzero;"/>
    </g>
    <g transform="matrix(4.16667,0,0,4.16667,411.021,87.8233)">
        <path d="M0,-4.413L1.247,-4.413L1.247,-3.273L0,-3.273L0,-0.203C0,0.373 0.144,0.516 0.719,0.516C0.899,0.516 1.067,0.505 1.247,0.468L1.247,1.8C0.959,1.848 0.587,1.859 0.251,1.859C-0.792,1.859 -1.703,1.62 -1.703,0.384L-1.703,-3.273L-2.735,-3.273L-2.735,-4.413L-1.703,-4.413L-1.703,-6.272L0,-6.272L0,-4.413Z" style="fill:rgb(150,150,151);fill-rule:nonzero;"/>
    </g>
    <g transform="matrix(4.16667,0,0,4.16667,451.966,63.5871)">
        <path d="M0,6.813L-0.024,6.813C-0.42,7.484 -1.115,7.772 -1.907,7.772C-3.778,7.772 -4.689,6.165 -4.689,4.45C-4.689,2.783 -3.766,1.236 -1.943,1.236C-1.211,1.236 -0.492,1.548 -0.108,2.16L-0.084,2.16L-0.084,-0.959L1.619,-0.959L1.619,7.605L0,7.605L0,6.813ZM-1.487,2.519C-2.603,2.519 -2.986,3.478 -2.986,4.498C-2.986,5.47 -2.542,6.489 -1.487,6.489C-0.36,6.489 -0.024,5.506 -0.024,4.486C-0.024,3.478 -0.384,2.519 -1.487,2.519" style="fill:rgb(150,150,151);fill-rule:nonzero;"/>
    </g>
    <g transform="matrix(4.16667,0,0,4.16667,464.775,75.6325)">
        <path d="M0,-3.85L1.703,-3.85L1.703,-2.015C1.739,-0.948 0.996,-0.132 0,0L0,-0.791C0.612,-0.996 0.792,-1.415 0.792,-2.003L0,-2.003L0,-3.85Z" style="fill:rgb(150,150,151);fill-rule:nonzero;"/>
    </g>
    <g transform="matrix(4.16667,0,0,4.16667,478.726,95.2742)">
        <path d="M0,-8.564L6.404,-8.564L6.404,-6.981L1.883,-6.981L1.883,-5.146L6.033,-5.146L6.033,-3.683L1.883,-3.683L1.883,-1.583L6.5,-1.583L6.5,0L0,0L0,-8.564Z" style="fill:rgb(150,150,151);fill-rule:nonzero;"/>
    </g>
    <g transform="matrix(4.16667,0,0,4.16667,510.576,94.5733)">
        <path d="M0,-6.033L1.607,-6.033L1.607,-5.193L1.631,-5.193C2.075,-5.829 2.722,-6.201 3.526,-6.201C4.306,-6.201 5.001,-5.913 5.337,-5.169C5.697,-5.709 6.344,-6.201 7.208,-6.201C8.527,-6.201 9.475,-5.589 9.475,-3.982L9.475,0.168L7.771,0.168L7.771,-3.346C7.771,-4.174 7.7,-4.858 6.728,-4.858C5.769,-4.858 5.589,-4.066 5.589,-3.286L5.589,0.168L3.886,0.168L3.886,-3.31C3.886,-4.03 3.934,-4.858 2.855,-4.858C2.519,-4.858 1.703,-4.642 1.703,-3.43L1.703,0.168L0,0.168L0,-6.033Z" style="fill:rgb(150,150,151);fill-rule:nonzero;"/>
    </g>
    <g transform="matrix(4.16667,0,0,4.16667,555.675,103.665)">
        <path d="M0,-8.215L1.619,-8.215L1.619,-7.423L1.643,-7.423C2.051,-8.083 2.723,-8.383 3.49,-8.383C5.433,-8.383 6.309,-6.812 6.309,-5.048C6.309,-3.394 5.397,-1.846 3.586,-1.846C2.843,-1.846 2.135,-2.17 1.727,-2.782L1.703,-2.782L1.703,0.168L0,0.168L0,-8.215ZM4.605,-5.097C4.605,-6.08 4.21,-7.099 3.119,-7.099C2.003,-7.099 1.643,-6.104 1.643,-5.097C1.643,-4.089 2.027,-3.13 3.13,-3.13C4.246,-3.13 4.605,-4.089 4.605,-5.097" style="fill:rgb(150,150,151);fill-rule:nonzero;"/>
    </g>
    <g transform="matrix(4.16667,0,0,4.16667,586.225,94.5733)">
        <path d="M0,-6.033L1.619,-6.033L1.619,-4.882L1.643,-4.882C1.955,-5.661 2.794,-6.201 3.622,-6.201C3.742,-6.201 3.886,-6.177 3.994,-6.141L3.994,-4.558C3.838,-4.594 3.586,-4.617 3.382,-4.617C2.135,-4.617 1.703,-3.718 1.703,-2.627L1.703,0.168L0,0.168L0,-6.033Z" style="fill:rgb(150,150,151);fill-rule:nonzero;"/>
    </g>
    <g transform="matrix(4.16667,0,0,4.16667,610.622,80.6279)">
        <path d="M0,0.828C0.048,1.908 0.576,2.399 1.523,2.399C2.207,2.399 2.759,1.979 2.867,1.596L4.366,1.596C3.886,3.059 2.867,3.682 1.463,3.682C-0.492,3.682 -1.703,2.339 -1.703,0.42C-1.703,-1.439 -0.419,-2.854 1.463,-2.854C3.574,-2.854 4.594,-1.079 4.474,0.828L0,0.828ZM2.771,-0.251C2.615,-1.115 2.243,-1.57 1.416,-1.57C0.336,-1.57 0.024,-0.731 0,-0.251L2.771,-0.251Z" style="fill:rgb(150,150,151);fill-rule:nonzero;"/>
    </g>
    <g transform="matrix(4.16667,0,0,4.16667,638.971,77.8321)">
        <path d="M0,2.171C0.012,2.914 0.636,3.214 1.308,3.214C1.799,3.214 2.423,3.022 2.423,2.422C2.423,1.907 1.715,1.727 0.492,1.463C-0.492,1.247 -1.475,0.899 -1.475,-0.192C-1.475,-1.775 -0.108,-2.183 1.224,-2.183C2.579,-2.183 3.826,-1.727 3.958,-0.204L2.339,-0.204C2.291,-0.864 1.787,-1.043 1.175,-1.043C0.792,-1.043 0.228,-0.972 0.228,-0.468C0.228,0.144 1.187,0.228 2.159,0.456C3.154,0.684 4.126,1.044 4.126,2.195C4.126,3.826 2.71,4.354 1.295,4.354C-0.144,4.354 -1.547,3.814 -1.619,2.171L0,2.171Z" style="fill:rgb(150,150,151);fill-rule:nonzero;"/>
    </g>
    <g transform="matrix(4.16667,0,0,4.16667,660.025,87.3246)">
        <path d="M0,-2.386C0.096,-3.981 1.523,-4.461 2.915,-4.461C4.15,-4.461 5.637,-4.185 5.637,-2.698L5.637,0.528C5.637,1.092 5.697,1.656 5.853,1.908L4.125,1.908C4.066,1.716 4.018,1.511 4.006,1.308C3.466,1.871 2.674,2.075 1.919,2.075C0.744,2.075 -0.192,1.487 -0.192,0.216C-0.192,-1.187 0.864,-1.523 1.919,-1.667C2.962,-1.823 3.934,-1.786 3.934,-2.482C3.934,-3.214 3.43,-3.321 2.831,-3.321C2.183,-3.321 1.763,-3.058 1.703,-2.386L0,-2.386ZM3.934,-1.127C3.646,-0.875 3.046,-0.863 2.519,-0.767C1.991,-0.659 1.511,-0.479 1.511,0.144C1.511,0.78 2.003,0.936 2.555,0.936C3.886,0.936 3.934,-0.119 3.934,-0.491L3.934,-1.127Z" style="fill:rgb(150,150,151);fill-rule:nonzero;"/>
    </g>
    <g transform="matrix(4.16667,0,0,4.16667,-3721.8,-70.3337)">
        <path d="M1063.68,32.585L1061.98,32.585L1061.98,31.182L1063.68,31.182L1063.68,32.585ZM1061.98,33.545L1063.68,33.545L1063.68,39.746L1061.98,39.746L1061.98,33.545Z" style="fill:rgb(150,150,151);fill-rule:nonzero;"/>
    </g>
    <g transform="matrix(4.16667,0,0,4.16667,738.367,88.6763)">
        <path d="M0,-5.397L-2.567,-5.397L-2.567,-6.98L4.449,-6.98L4.449,-5.397L1.883,-5.397L1.883,1.583L0,1.583L0,-5.397Z" style="fill:rgb(150,150,151);fill-rule:nonzero;"/>
    </g>
    <g transform="matrix(4.16667,0,0,4.16667,755.671,94.5733)">
        <path d="M0,-6.033L1.619,-6.033L1.619,-4.882L1.643,-4.882C1.955,-5.661 2.794,-6.201 3.622,-6.201C3.742,-6.201 3.886,-6.177 3.994,-6.141L3.994,-4.558C3.838,-4.594 3.586,-4.617 3.382,-4.617C2.135,-4.617 1.703,-3.718 1.703,-2.627L1.703,0.168L0,0.168L0,-6.033Z" style="fill:rgb(150,150,151);fill-rule:nonzero;"/>
    </g>
    <g transform="matrix(4.16667,0,0,4.16667,780.068,80.6279)">
        <path d="M0,0.828C0.048,1.908 0.576,2.399 1.523,2.399C2.207,2.399 2.759,1.979 2.867,1.596L4.366,1.596C3.886,3.059 2.867,3.682 1.463,3.682C-0.492,3.682 -1.703,2.339 -1.703,0.42C-1.703,-1.439 -0.419,-2.854 1.463,-2.854C3.574,-2.854 4.594,-1.079 4.474,0.828L0,0.828ZM2.771,-0.251C2.615,-1.115 2.243,-1.57 1.416,-1.57C0.336,-1.57 0.024,-0.731 0,-0.251L2.771,-0.251Z" style="fill:rgb(150,150,151);fill-rule:nonzero;"/>
    </g>
    <g transform="matrix(4.16667,0,0,4.16667,802.92,95.97)">
        <path d="M0,-8.731L1.703,-8.731L1.703,-5.612L1.727,-5.612C2.147,-6.248 2.915,-6.536 3.682,-6.536C4.917,-6.536 6.249,-5.541 6.249,-3.274C6.249,-0.995 4.917,0 3.682,0C2.771,0 2.015,-0.275 1.643,-0.959L1.619,-0.959L1.619,-0.167L0,-0.167L0,-8.731ZM3.094,-5.252C2.087,-5.252 1.643,-4.305 1.643,-3.262C1.643,-2.231 2.087,-1.283 3.094,-1.283C4.102,-1.283 4.546,-2.231 4.546,-3.262C4.546,-4.305 4.102,-5.252 3.094,-5.252" style="fill:rgb(150,150,151);fill-rule:nonzero;"/>
    </g>
    <g transform="matrix(4.16667,0,0,4.16667,833.171,87.3246)">
        <path d="M0,-2.386C0.096,-3.981 1.523,-4.461 2.915,-4.461C4.15,-4.461 5.637,-4.185 5.637,-2.698L5.637,0.528C5.637,1.092 5.697,1.656 5.853,1.908L4.126,1.908C4.066,1.716 4.018,1.511 4.006,1.308C3.466,1.871 2.674,2.075 1.919,2.075C0.744,2.075 -0.192,1.487 -0.192,0.216C-0.192,-1.187 0.863,-1.523 1.919,-1.667C2.962,-1.823 3.934,-1.786 3.934,-2.482C3.934,-3.214 3.43,-3.321 2.831,-3.321C2.183,-3.321 1.763,-3.058 1.703,-2.386L0,-2.386ZM3.934,-1.127C3.646,-0.875 3.046,-0.863 2.519,-0.767C1.991,-0.659 1.511,-0.479 1.511,0.144C1.511,0.78 2.003,0.936 2.555,0.936C3.886,0.936 3.934,-0.119 3.934,-0.491L3.934,-1.127Z" style="fill:rgb(150,150,151);fill-rule:nonzero;"/>
    </g>
    <g transform="matrix(4.16667,0,0,4.16667,-3721.8,-70.3337)">
        <rect x="1100.2" y="31.182" width="1.703" height="8.564" style="fill:rgb(150,150,151);"/>
    </g>
    <g transform="matrix(4.16667,0,0,4.16667,-3721.8,-70.3337)">
        <rect x="1103.3" y="31.182" width="1.703" height="8.564" style="fill:rgb(150,150,151);"/>
    </g>
</svg>
