<svg xmlns="http://www.w3.org/2000/svg" viewBox="0 0 32 32" id="metronome">
  <path d="M30.66 26.378 18.856 2.771a3.171 3.171 0 0 0-2.812-1.762C16.029 1.008 16.016 1 16 1s-.029.008-.044.009a3.171 3.171 0 0 0-2.812 1.762L8.3 12.466l-5.51-7.08a1 1 0 0 0-1.58 1.228l6.1 7.835-5.97 11.929A3.194 3.194 0 0 0 4.2 31h23.6a3.194 3.194 0 0 0 2.856-4.622ZM26.735 23H17V3.567a1.144 1.144 0 0 1 .067.1ZM14.933 3.666a1.144 1.144 0 0 1 .067-.1v17.519l-5.343-6.869ZM13.955 23h-8.69l3.4-6.8Zm14.864 5.434A1.169 1.169 0 0 1 27.8 29H4.2a1.193 1.193 0 0 1-1.067-1.727L4.265 25h23.47l1.136 2.273a1.171 1.171 0 0 1-.052 1.161Z"></path>
</svg>
