<?xml version="1.0" encoding="UTF-8" standalone="no"?>
<!DOCTYPE svg PUBLIC "-//W3C//DTD SVG 1.1//EN" "http://www.w3.org/Graphics/SVG/1.1/DTD/svg11.dtd">
<svg width="100%" height="100%" viewBox="0 0 4917 3493" version="1.1" xmlns="http://www.w3.org/2000/svg" xmlns:xlink="http://www.w3.org/1999/xlink" xml:space="preserve" xmlns:serif="http://www.serif.com/" style="fill-rule:evenodd;clip-rule:evenodd;stroke-linejoin:round;stroke-miterlimit:2;">
    <g transform="matrix(4.16667,0,0,4.16667,-1166.87,-1041.42)">
        <path d="M317.175,268.165C317.175,268.165 300.975,268.165 300.975,284.365L300.975,1052.52C300.975,1052.52 300.975,1068.72 317.175,1068.72L1422.82,1068.72C1422.82,1068.72 1439.03,1068.72 1439.03,1052.52L1439.03,284.365C1439.03,284.365 1439.03,268.165 1422.82,268.165L317.175,268.165Z" style="fill:rgb(34,35,37);fill-rule:nonzero;"/>
    </g>
    <g transform="matrix(4.16667,0,0,4.16667,-1166.87,-1041.42)">
        <path d="M1241.17,289.441C1241.12,289.444 1236.98,289.436 1232.77,291.537C1230.67,292.588 1228.54,294.18 1226.94,296.576C1225.35,298.969 1224.3,302.154 1224.3,306.316L1224.3,317.777C1224.3,317.833 1224.29,321.966 1226.4,326.178C1227.45,328.283 1229.04,330.41 1231.43,332.007C1233.83,333.605 1237.01,334.654 1241.17,334.652L1391.02,334.652C1391.07,334.648 1395.21,334.656 1399.42,332.555C1401.52,331.504 1403.65,329.912 1405.25,327.517C1406.84,325.123 1407.89,321.938 1407.89,317.777L1407.89,306.316C1407.89,306.259 1407.9,302.126 1405.8,297.914C1404.74,295.81 1403.15,293.682 1400.76,292.085C1398.36,290.487 1395.18,289.439 1391.02,289.441L1241.17,289.441L1241.17,290.791L1391.02,290.791C1394.96,290.793 1397.85,291.769 1400.01,293.208C1403.25,295.365 1404.89,298.625 1405.72,301.384C1406.13,302.76 1406.34,304.004 1406.44,304.898C1406.49,305.345 1406.52,305.705 1406.53,305.95C1406.54,306.073 1406.54,306.167 1406.54,306.229L1406.54,317.777C1406.54,321.715 1405.56,324.605 1404.12,326.768C1401.97,330.007 1398.71,331.648 1395.95,332.476C1394.57,332.889 1393.33,333.096 1392.43,333.199C1391.99,333.251 1391.63,333.276 1391.38,333.289C1391.26,333.296 1391.17,333.299 1391.1,333.3L1391.02,333.302L1241.17,333.302C1237.23,333.3 1234.35,332.323 1232.18,330.884C1228.94,328.727 1227.3,325.467 1226.47,322.708C1226.06,321.332 1225.85,320.088 1225.75,319.194C1225.7,318.747 1225.67,318.388 1225.66,318.142C1225.65,318.02 1225.65,317.926 1225.65,317.863L1225.65,306.316C1225.65,302.377 1226.63,299.487 1228.07,297.324C1230.22,294.086 1233.48,292.444 1236.24,291.616C1237.62,291.203 1238.86,290.996 1239.76,290.893C1240.2,290.841 1240.56,290.816 1240.81,290.803C1240.93,290.797 1241.02,290.794 1241.09,290.792L1241.17,290.791L1241.17,289.441Z" style="fill:rgb(151,151,151);fill-rule:nonzero;"/>
    </g>
</svg>
