<?xml version="1.0" encoding="UTF-8" standalone="no"?>
<!DOCTYPE svg PUBLIC "-//W3C//DTD SVG 1.1//EN" "http://www.w3.org/Graphics/SVG/1.1/DTD/svg11.dtd">
<svg width="100%" height="100%" viewBox="0 0 717 170" version="1.1" xmlns="http://www.w3.org/2000/svg" xmlns:xlink="http://www.w3.org/1999/xlink" xml:space="preserve" xmlns:serif="http://www.serif.com/" style="fill-rule:evenodd;clip-rule:evenodd;stroke-linejoin:round;stroke-miterlimit:2;">
    <g transform="matrix(4.16667,0,0,4.16667,-3266.67,-4631.58)">
        <path d="M800.875,1111.58C800.819,1111.58 796.686,1111.57 792.473,1113.67C790.369,1114.72 788.241,1116.31 786.645,1118.71C785.047,1121.1 783.998,1124.29 784,1128.45L784,1135.31C784.004,1135.37 783.996,1139.5 786.096,1143.71C787.148,1145.82 788.74,1147.95 791.135,1149.54C793.529,1151.14 796.714,1152.19 800.875,1152.19L939.125,1152.19C939.181,1152.18 943.314,1152.19 947.527,1150.09C949.631,1149.04 951.759,1147.45 953.355,1145.05C954.953,1142.66 956.002,1139.47 956,1135.31L956,1128.45C955.996,1128.39 956.004,1124.26 953.904,1120.05C952.852,1117.94 951.26,1115.82 948.865,1114.22C946.471,1112.62 943.286,1111.57 939.125,1111.58L800.875,1111.58L800.875,1112.93L939.125,1112.93C943.064,1112.93 945.954,1113.9 948.116,1115.34C951.355,1117.5 952.997,1120.76 953.824,1123.52C954.237,1124.89 954.445,1126.14 954.548,1127.03C954.599,1127.48 954.625,1127.84 954.638,1128.08C954.644,1128.21 954.647,1128.3 954.649,1128.36L954.65,1128.45L954.65,1135.31C954.648,1139.25 953.672,1142.14 952.232,1144.3C950.075,1147.54 946.815,1149.18 944.057,1150.01C942.68,1150.42 941.437,1150.63 940.543,1150.74C940.096,1150.79 939.736,1150.81 939.491,1150.83C939.368,1150.83 939.274,1150.83 939.212,1150.84L800.875,1150.84C796.936,1150.84 794.046,1149.86 791.884,1148.42C788.645,1146.26 787.004,1143 786.176,1140.24C785.763,1138.87 785.555,1137.62 785.452,1136.73C785.401,1136.28 785.375,1135.92 785.362,1135.68C785.356,1135.56 785.353,1135.46 785.352,1135.4L785.35,1135.31L785.35,1128.45C785.352,1124.51 786.328,1121.62 787.768,1119.46C789.925,1116.22 793.185,1114.58 795.943,1113.75C797.32,1113.34 798.563,1113.13 799.457,1113.03C799.904,1112.98 800.264,1112.95 800.509,1112.94C800.632,1112.93 800.726,1112.93 800.788,1112.93L800.875,1112.93L800.875,1111.58Z" style="fill:white;fill-rule:nonzero;"/>
    </g>
    <g transform="matrix(4.16667,0,0,4.16667,-3266.67,-4631.58)">
        <path d="M826.475,1134.83C826.783,1136.88 826.363,1137.77 825.467,1137.77C824.935,1137.77 824.375,1137.44 823.955,1136.4L819.419,1125.4C818.215,1122.49 816.367,1121.37 814.155,1121.37C810.907,1121.37 809.031,1123.55 809.031,1129.85L809.031,1135.76C809.031,1139.82 809.479,1143.51 813.147,1143.51C816.171,1143.51 816.759,1140.66 815.583,1137.77L811.719,1128.28C811.467,1127.67 811.103,1126.41 811.103,1125.62C811.103,1124.03 812.027,1122.85 813.595,1122.85C814.883,1122.85 816.031,1123.58 815.807,1125.01L815.555,1126.6C815.191,1128.93 815.779,1131.45 816.619,1133.13L819.867,1139.57C821.379,1142.59 822.415,1143.51 823.703,1143.51C825.579,1143.51 826.475,1141.81 827.315,1139.01L831.739,1124.39C832.495,1121.9 835.463,1122.71 834.819,1125.03L831.655,1136.21C831.347,1137.3 830.731,1139.06 830.731,1140.27C830.731,1141.69 831.459,1143.51 833.811,1143.51C835.379,1143.51 837.227,1142.53 837.199,1139.34L837.143,1130.02C837.115,1123.24 835.687,1121.39 832.159,1121.39C827.735,1121.39 824.991,1124.64 825.747,1129.85L826.475,1134.83ZM843.219,1128.03C843.219,1128.53 843.443,1128.93 844.143,1128.93L845.346,1128.93C846.242,1128.93 846.747,1129.15 846.747,1129.79C846.747,1129.93 846.719,1130.1 846.662,1130.3L844.395,1138.59C843.639,1141.39 845.122,1143.51 848.315,1143.51C850.471,1143.51 852.711,1142.56 852.515,1140.69C852.346,1139.06 850.974,1138.89 849.799,1139.4L846.438,1140.85C845.906,1141.08 845.431,1140.6 845.431,1140.04C845.431,1139.76 845.57,1139.54 846.018,1139.03L851.367,1132.93C853.214,1130.8 852.263,1128.42 849.435,1128.76L847.531,1128.98C847.279,1129.01 846.802,1129.01 846.802,1128.53C846.802,1128.25 846.971,1128 847.335,1127.89L850.415,1126.83C851.759,1126.35 852.711,1125.62 852.711,1124.05C852.711,1122.37 851.339,1121.39 849.911,1121.39C849.099,1121.39 848.286,1121.7 847.698,1122.37L844.535,1126.01C843.835,1126.83 843.219,1127.58 843.219,1128.03ZM872.422,1131.59C872.394,1132.29 871.582,1132.43 871.302,1132.01L866.094,1124.03C864.974,1122.32 864.134,1121.45 862.37,1121.45C857.862,1121.45 857.358,1127.81 858.422,1130.38C858.73,1131.14 859.486,1131.33 859.906,1131.17C860.746,1130.77 861.054,1130.13 860.634,1128.84L859.458,1125.37C859.15,1124.33 860.046,1123.83 860.774,1124.87L865.03,1130.91C866.094,1132.43 865.842,1133.1 864.638,1134.16L860.13,1138.05C857.806,1140.04 858.198,1143.46 861.53,1143.46C863.602,1143.46 864.526,1142.25 864.89,1140.29L866.01,1134.41C866.15,1133.71 866.878,1133.57 867.13,1133.99L869.622,1138.14C872.31,1142.62 873.962,1143.57 876.202,1143.57C877.434,1143.57 879.254,1142.84 879.254,1140.71C879.254,1138.95 878.274,1137.61 875.894,1137.58L871.47,1137.55C870.49,1137.55 870.294,1137.02 870.266,1136.51C870.266,1136.09 870.434,1135.7 870.966,1135.11L877.098,1128.14C878.834,1126.15 878.918,1125.09 878.918,1123.89C878.918,1122.63 877.826,1121.48 875.95,1121.48C874.018,1121.48 872.786,1122.37 872.674,1125.15L872.422,1131.59ZM889.11,1140.18C887.486,1140.32 886.758,1139.57 886.758,1138.78C886.758,1137.97 887.402,1137.41 889.11,1137.19L899.134,1135.95C901.262,1135.7 901.99,1134.41 901.99,1133.07C901.99,1132.03 901.598,1130.72 899.134,1129.93L888.214,1126.46C886.898,1126.04 886.674,1125.48 886.674,1124.78C886.674,1124.17 887.43,1123.02 888.802,1123.49L900.254,1127.5C902.662,1128.34 903.922,1127.67 904.006,1125.99C904.09,1124.39 903.306,1123.49 901.822,1122.79C900.198,1122.04 895.998,1121.39 892.246,1121.42C888.522,1121.42 885.162,1122.26 885.162,1125.06C885.162,1126.1 885.862,1127.11 887.122,1128L895.466,1133.8C896.586,1134.58 896.026,1135.62 894.738,1135.09L889.138,1132.79C886.394,1131.67 884.014,1133.01 884.014,1135.56C884.014,1140.66 890.118,1143.54 897.286,1143.54C902.298,1143.54 904.006,1142.39 904.006,1140.63C904.006,1139.73 903.53,1138.89 901.43,1139.09L889.11,1140.18ZM931.221,1139.99C931.221,1138.25 929.821,1137.1 927.973,1137.07L922.457,1137.02C921.393,1137.02 920.945,1136.79 920.945,1136.15C920.945,1135.48 921.477,1135.14 922.149,1134.92L926.741,1133.29C930.689,1131.89 931.389,1130.19 931.389,1128.28C931.389,1125.76 929.737,1121.39 922.821,1121.39C914.309,1121.39 910.305,1128.65 910.305,1138.17C910.305,1142.17 912.237,1143.51 913.973,1143.51C917.165,1143.51 917.501,1141.05 916.409,1138.47L913.553,1131.75C913.329,1131.22 913.189,1130.66 913.189,1130.13C913.189,1128.14 914.757,1126.43 917.641,1126.43L926.405,1126.43C928.449,1126.43 929.513,1127.5 929.513,1128.87C929.513,1130.33 928.533,1131.67 925.537,1131.28L917.025,1130.19C915.989,1130.05 915.429,1130.24 915.401,1130.97C915.401,1131.36 915.681,1131.95 916.297,1132.73L923.213,1141.11C924.753,1142.98 926.237,1143.51 927.357,1143.51C930.269,1143.51 931.221,1141.75 931.221,1139.99Z" style="fill:white;fill-rule:nonzero;"/>
    </g>
</svg>
