<?xml version="1.0" encoding="UTF-8" standalone="no"?>
<!DOCTYPE svg PUBLIC "-//W3C//DTD SVG 1.1//EN" "http://www.w3.org/Graphics/SVG/1.1/DTD/svg11.dtd">
<svg width="100%" height="100%" viewBox="0 0 584 170" version="1.1" xmlns="http://www.w3.org/2000/svg" xmlns:xlink="http://www.w3.org/1999/xlink" xml:space="preserve" xmlns:serif="http://www.serif.com/" style="fill-rule:evenodd;clip-rule:evenodd;stroke-linejoin:round;stroke-miterlimit:2;">
    <g transform="matrix(4.16667,0,0,4.16667,-3333.33,-4622.83)">
        <path d="M816.875,1109.48C816.819,1109.48 812.686,1109.47 808.473,1111.57C806.369,1112.62 804.241,1114.22 802.645,1116.61C801.047,1119 799.998,1122.19 800,1126.35L800,1133.21C800.004,1133.27 799.996,1137.4 802.096,1141.62C803.148,1143.72 804.74,1145.85 807.135,1147.44C809.529,1149.04 812.714,1150.09 816.875,1150.09L923.125,1150.09C923.181,1150.08 927.314,1150.09 931.527,1147.99C933.631,1146.94 935.759,1145.35 937.355,1142.95C938.953,1140.56 940.002,1137.37 940,1133.21L940,1126.35C939.996,1126.29 940.004,1122.16 937.904,1117.95C936.852,1115.85 935.26,1113.72 932.865,1112.12C930.471,1110.52 927.286,1109.47 923.125,1109.48L816.875,1109.48L816.875,1110.83L923.125,1110.83C927.064,1110.83 929.954,1111.8 932.116,1113.24C935.355,1115.4 936.997,1118.66 937.824,1121.42C938.237,1122.8 938.445,1124.04 938.548,1124.93C938.599,1125.38 938.625,1125.74 938.638,1125.99C938.644,1126.11 938.647,1126.2 938.649,1126.26L938.65,1126.35L938.65,1133.21C938.648,1137.15 937.672,1140.04 936.232,1142.2C934.075,1145.44 930.815,1147.09 928.057,1147.91C926.68,1148.33 925.437,1148.53 924.543,1148.64C924.096,1148.69 923.736,1148.71 923.491,1148.73C923.368,1148.73 923.274,1148.74 923.212,1148.74L816.875,1148.74C812.936,1148.74 810.046,1147.76 807.884,1146.32C804.645,1144.16 803.004,1140.9 802.176,1138.15C801.763,1136.77 801.555,1135.53 801.452,1134.63C801.401,1134.18 801.375,1133.82 801.362,1133.58C801.356,1133.46 801.353,1133.36 801.352,1133.3L801.35,1133.21L801.35,1126.35C801.352,1122.41 802.328,1119.52 803.768,1117.36C805.925,1114.12 809.185,1112.48 811.943,1111.65C813.32,1111.24 814.563,1111.03 815.457,1110.93C815.904,1110.88 816.264,1110.85 816.509,1110.84C816.632,1110.83 816.726,1110.83 816.788,1110.83L816.875,1110.83L816.875,1109.48Z" style="fill:white;fill-rule:nonzero;"/>
    </g>
    <g transform="matrix(4.16667,0,0,4.16667,-3333.33,-4622.83)">
        <path d="M817.351,1138.77L822.361,1138.77L822.361,1130.91L832.051,1130.82C835.411,1130.82 838.351,1128.33 838.351,1124.37C838.351,1120.05 834.781,1118.34 830.82,1118.34L817.351,1118.34L817.351,1138.77ZM830.491,1122.39C831.991,1122.39 833.431,1123.2 833.431,1125.06C833.431,1126.8 832.021,1127.88 830.431,1127.88L822.361,1127.88L822.361,1122.39L830.491,1122.39ZM846.661,1118.43L841.141,1118.43L841.141,1138.77L846.661,1138.77L846.661,1118.43ZM855.09,1138.77L856.62,1134.9L865.44,1134.96L866.97,1138.77L873.27,1138.77L865.02,1118.46L857.1,1118.46L848.85,1138.77L855.09,1138.77ZM861.06,1122.63L864.51,1131.87L857.49,1131.87L861.06,1122.63ZM875.67,1138.77L881.13,1138.77L881.13,1125.93L890.13,1138.77L894.9,1138.77L894.9,1118.28L889.44,1118.28L889.44,1130.85L881.1,1118.28L875.61,1118.28L875.67,1138.77ZM910.98,1139.19C918.24,1139.19 924.06,1134.48 924.06,1128.42C924.06,1122.33 918.21,1117.68 911.01,1117.68C903.72,1117.68 897.9,1122.48 897.9,1128.48C897.9,1134.48 903.75,1139.19 910.98,1139.19ZM903.54,1128.6C903.54,1124.19 906.93,1121.61 911.25,1121.64C915.33,1121.67 918.45,1124.07 918.45,1128.36C918.45,1132.95 914.88,1135.29 910.92,1135.29C907.05,1135.29 903.54,1133.04 903.54,1128.6Z" style="fill:white;fill-rule:nonzero;"/>
    </g>
</svg>
