<?xml version="1.0" encoding="UTF-8" standalone="no"?>
<!DOCTYPE svg PUBLIC "-//W3C//DTD SVG 1.1//EN" "http://www.w3.org/Graphics/SVG/1.1/DTD/svg11.dtd">
<svg width="100%" height="100%" viewBox="0 0 584 170" version="1.1" xmlns="http://www.w3.org/2000/svg" xmlns:xlink="http://www.w3.org/1999/xlink" xml:space="preserve" xmlns:serif="http://www.serif.com/" style="fill-rule:evenodd;clip-rule:evenodd;stroke-linejoin:round;stroke-miterlimit:2;">
    <g transform="matrix(4.16667,0,0,4.16667,-3333.33,-4622.83)">
        <path d="M817.351,1138.77L822.361,1138.77L822.361,1130.91L832.051,1130.82C835.411,1130.82 838.351,1128.33 838.351,1124.37C838.351,1120.05 834.781,1118.34 830.82,1118.34L817.351,1118.34L817.351,1138.77ZM830.491,1122.39C831.991,1122.39 833.431,1123.2 833.431,1125.06C833.431,1126.8 832.021,1127.88 830.431,1127.88L822.361,1127.88L822.361,1122.39L830.491,1122.39ZM846.661,1118.43L841.141,1118.43L841.141,1138.77L846.661,1138.77L846.661,1118.43ZM855.09,1138.77L856.62,1134.9L865.44,1134.96L866.97,1138.77L873.27,1138.77L865.02,1118.46L857.1,1118.46L848.85,1138.77L855.09,1138.77ZM861.06,1122.63L864.51,1131.87L857.49,1131.87L861.06,1122.63ZM875.67,1138.77L881.13,1138.77L881.13,1125.93L890.13,1138.77L894.9,1138.77L894.9,1118.28L889.44,1118.28L889.44,1130.85L881.1,1118.28L875.61,1118.28L875.67,1138.77ZM910.98,1139.19C918.24,1139.19 924.06,1134.48 924.06,1128.42C924.06,1122.33 918.21,1117.68 911.01,1117.68C903.72,1117.68 897.9,1122.48 897.9,1128.48C897.9,1134.48 903.75,1139.19 910.98,1139.19ZM903.54,1128.6C903.54,1124.19 906.93,1121.61 911.25,1121.64C915.33,1121.67 918.45,1124.07 918.45,1128.36C918.45,1132.95 914.88,1135.29 910.92,1135.29C907.05,1135.29 903.54,1133.04 903.54,1128.6Z" style="fill:white;fill-rule:nonzero;"/>
    </g>
</svg>
