<?xml version="1.0" encoding="UTF-8" standalone="no"?>
<!DOCTYPE svg PUBLIC "-//W3C//DTD SVG 1.1//EN" "http://www.w3.org/Graphics/SVG/1.1/DTD/svg11.dtd">
<svg width="100%" height="100%" viewBox="0 0 4917 3493" version="1.1" xmlns="http://www.w3.org/2000/svg" xmlns:xlink="http://www.w3.org/1999/xlink" xml:space="preserve" xmlns:serif="http://www.serif.com/" style="fill-rule:evenodd;clip-rule:evenodd;stroke-linejoin:round;stroke-miterlimit:2;">
    <g transform="matrix(4.16667,0,0,4.16667,-1166.87,-1032.67)">
        <path d="M317.175,266.066C317.175,266.066 300.975,266.066 300.975,282.266L300.975,1050.42C300.975,1050.42 300.975,1066.62 317.175,1066.62L1422.82,1066.62C1422.82,1066.62 1439.03,1066.62 1439.03,1050.42L1439.03,282.266C1439.03,282.266 1439.03,266.066 1422.82,266.066L317.175,266.066Z" style="fill:rgb(34,35,37);fill-rule:nonzero;"/>
    </g>
    <g transform="matrix(4.16667,0,0,4.16667,-1166.87,-1032.67)">
        <path d="M706.003,287.342C705.946,287.345 701.814,287.337 697.601,289.438C695.497,290.489 693.369,292.081 691.772,294.477C690.174,296.87 689.126,300.055 689.128,304.217L689.128,443.79C689.131,443.846 689.123,447.979 691.224,452.192C692.276,454.296 693.868,456.424 696.263,458.02C698.656,459.618 701.842,460.667 706.003,460.665L1017.9,460.665C1017.95,460.661 1022.09,460.669 1026.3,458.569C1028.4,457.517 1030.53,455.925 1032.13,453.53C1033.72,451.136 1034.77,447.951 1034.77,443.79L1034.77,304.217C1034.77,304.16 1034.78,300.027 1032.68,295.815C1031.62,293.711 1030.03,291.583 1027.64,289.986C1025.24,288.388 1022.06,287.34 1017.9,287.342L706.003,287.342L706.003,288.692L1017.9,288.692C1021.84,288.694 1024.73,289.67 1026.89,291.109C1030.13,293.266 1031.77,296.526 1032.6,299.285C1033.01,300.661 1033.22,301.905 1033.32,302.799C1033.37,303.246 1033.4,303.606 1033.41,303.851C1033.42,303.974 1033.42,304.068 1033.42,304.13L1033.42,443.79C1033.42,447.729 1032.44,450.618 1031,452.781C1028.85,456.02 1025.59,457.661 1022.83,458.489C1021.45,458.902 1020.21,459.109 1019.31,459.212C1018.87,459.264 1018.51,459.29 1018.26,459.302C1018.14,459.309 1018.05,459.312 1017.98,459.313L1017.9,459.315L706.003,459.315C702.064,459.313 699.174,458.336 697.012,456.897C693.773,454.74 692.131,451.48 691.304,448.722C690.891,447.345 690.683,446.102 690.58,445.207C690.529,444.76 690.503,444.401 690.49,444.155C690.484,444.033 690.481,443.939 690.479,443.877L690.478,443.79L690.478,304.217C690.48,300.278 691.456,297.388 692.896,295.225C695.053,291.987 698.313,290.345 701.071,289.517C702.447,289.104 703.691,288.897 704.585,288.794C705.032,288.742 705.392,288.717 705.637,288.704C705.76,288.698 705.854,288.695 705.916,288.693L706.003,288.692L706.003,287.342Z" style="fill:rgb(150,150,152);fill-rule:nonzero;"/>
    </g>
    <g transform="matrix(4.16667,0,0,4.16667,-1166.87,-1032.67)">
        <path d="M339.358,287.342C339.302,287.345 335.169,287.337 330.957,289.438C328.852,290.489 326.725,292.081 325.128,294.477C323.53,296.87 322.481,300.055 322.483,304.217L322.483,443.79C322.487,443.846 322.479,447.979 324.58,452.192C325.631,454.296 327.223,456.424 329.618,458.02C332.012,459.618 335.197,460.667 339.358,460.665L651.252,460.665C651.309,460.661 655.441,460.669 659.654,458.569C661.758,457.517 663.886,455.925 665.483,453.53C667.081,451.136 668.129,447.951 668.127,443.79L668.127,304.217C668.124,304.16 668.132,300.027 666.031,295.815C664.979,293.711 663.388,291.583 660.992,289.986C658.599,288.388 655.413,287.34 651.252,287.342L339.358,287.342L339.358,288.692L651.252,288.692C655.191,288.694 658.081,289.67 660.243,291.109C663.482,293.266 665.124,296.526 665.951,299.285C666.364,300.661 666.572,301.905 666.675,302.799C666.727,303.246 666.752,303.606 666.765,303.851C666.771,303.974 666.774,304.068 666.776,304.13L666.777,304.217L666.777,443.79C666.775,447.729 665.799,450.618 664.359,452.781C662.202,456.02 658.943,457.661 656.184,458.489C654.808,458.902 653.564,459.109 652.67,459.212C652.223,459.264 651.863,459.29 651.618,459.302C651.495,459.309 651.401,459.312 651.339,459.313L651.252,459.315L339.358,459.315C335.42,459.313 332.53,458.336 330.367,456.897C327.128,454.74 325.487,451.48 324.659,448.722C324.246,447.345 324.039,446.102 323.936,445.207C323.884,444.76 323.859,444.401 323.846,444.155C323.839,444.033 323.836,443.939 323.835,443.877L323.833,443.79L323.833,304.217C323.835,300.278 324.812,297.388 326.251,295.225C328.408,291.987 331.668,290.345 334.427,289.517C335.803,289.104 337.047,288.897 337.941,288.794C338.388,288.742 338.747,288.717 338.993,288.704C339.115,288.698 339.209,288.695 339.272,288.693L339.358,288.692L339.358,287.342Z" style="fill:rgb(150,150,152);fill-rule:nonzero;"/>
    </g>
    <g transform="matrix(4.16667,0,0,4.16667,-1166.87,-1032.67)">
        <path d="M1241.17,494.401C1241.12,494.404 1236.98,494.396 1232.77,496.497C1230.67,497.548 1228.54,499.14 1226.94,501.536C1225.35,503.929 1224.3,507.114 1224.3,511.276L1224.3,1028.47C1224.3,1028.52 1224.29,1032.65 1226.4,1036.87C1227.45,1038.97 1229.04,1041.1 1231.43,1042.7C1233.83,1044.29 1237.01,1045.34 1241.17,1045.34L1391.02,1045.34C1391.07,1045.34 1395.21,1045.34 1399.42,1043.24C1401.52,1042.19 1403.65,1040.6 1405.25,1038.21C1406.84,1035.81 1407.89,1032.63 1407.89,1028.47L1407.89,511.276C1407.89,511.219 1407.9,507.087 1405.8,502.874C1404.74,500.77 1403.15,498.642 1400.76,497.045C1398.36,495.447 1395.18,494.399 1391.02,494.401L1241.17,494.401L1241.17,495.751L1391.02,495.751C1394.96,495.753 1397.85,496.729 1400.01,498.169C1403.25,500.326 1404.89,503.585 1405.72,506.344C1406.13,507.72 1406.34,508.964 1406.44,509.858C1406.49,510.305 1406.52,510.665 1406.53,510.91C1406.54,511.033 1406.54,511.127 1406.54,511.189L1406.54,1028.47C1406.54,1032.4 1405.56,1035.29 1404.12,1037.46C1401.97,1040.7 1398.71,1042.34 1395.95,1043.16C1394.57,1043.58 1393.33,1043.79 1392.43,1043.89C1391.99,1043.94 1391.63,1043.97 1391.38,1043.98C1391.26,1043.98 1391.17,1043.99 1391.1,1043.99L1241.17,1043.99C1237.23,1043.99 1234.35,1043.01 1232.18,1041.57C1228.94,1039.42 1227.3,1036.16 1226.47,1033.4C1226.06,1032.02 1225.85,1030.78 1225.75,1029.88C1225.7,1029.44 1225.67,1029.08 1225.66,1028.83C1225.66,1028.71 1225.65,1028.61 1225.65,1028.55L1225.65,511.276C1225.65,507.337 1226.63,504.447 1228.07,502.284C1230.22,499.046 1233.48,497.404 1236.24,496.577C1237.62,496.163 1238.86,495.956 1239.76,495.853C1240.2,495.801 1240.56,495.776 1240.81,495.763C1240.93,495.757 1241.02,495.754 1241.09,495.752L1241.17,495.751L1241.17,494.401Z" style="fill:rgb(150,150,152);fill-rule:nonzero;"/>
    </g>
    <g transform="matrix(4.16667,0,0,4.16667,-1166.87,-1032.67)">
        <path d="M353.029,299.027C352.973,299.031 348.84,299.023 344.627,301.123C342.523,302.175 340.395,303.767 338.799,306.162C337.201,308.556 336.152,311.741 336.154,315.902L336.154,322.384C336.158,322.44 336.15,326.573 338.25,330.785C339.302,332.89 340.894,335.017 343.289,336.614C345.683,338.212 348.868,339.26 353.029,339.259L499.453,339.259C499.509,339.255 503.642,339.263 507.854,337.162C509.959,336.111 512.086,334.519 513.682,332.124C515.281,329.73 516.33,326.545 516.328,322.384L516.328,315.902C516.323,315.846 516.331,311.713 514.231,307.5C513.18,305.396 511.588,303.268 509.193,301.672C506.799,300.074 503.614,299.025 499.453,299.027L353.029,299.027L353.029,300.377L499.453,300.377C503.391,300.379 506.281,301.355 508.444,302.795C511.683,304.952 513.323,308.212 514.151,310.97C514.565,312.347 514.771,313.59 514.875,314.484C514.927,314.932 514.952,315.291 514.965,315.536C514.971,315.659 514.974,315.753 514.976,315.815L514.978,315.902L514.978,322.384C514.976,326.322 513.999,329.212 512.56,331.375C510.403,334.614 507.143,336.255 504.384,337.083C503.008,337.496 501.764,337.703 500.87,337.806C500.423,337.858 500.063,337.883 499.818,337.896C499.696,337.902 499.602,337.906 499.539,337.907L499.453,337.909L353.029,337.909C349.09,337.907 346.2,336.93 344.038,335.491C340.799,333.334 339.157,330.074 338.33,327.315C337.917,325.939 337.709,324.695 337.606,323.801C337.555,323.354 337.529,322.994 337.516,322.749C337.51,322.626 337.507,322.532 337.505,322.47L337.504,322.384L337.504,315.902C337.506,311.963 338.482,309.073 339.922,306.911C342.079,303.672 345.339,302.031 348.097,301.203C349.474,300.79 350.717,300.582 351.611,300.479C352.058,300.428 352.418,300.402 352.663,300.39C352.786,300.383 352.88,300.38 352.942,300.379L353.029,300.377L353.029,299.027Z" style="fill:rgb(150,150,152);fill-rule:nonzero;"/>
    </g>
    <g transform="matrix(4.16667,0,0,4.16667,-1166.87,-1032.67)">
        <path d="M1086.7,299.027C1086.64,299.031 1082.51,299.023 1078.3,301.123C1076.19,302.175 1074.06,303.767 1072.47,306.162C1070.87,308.556 1069.82,311.741 1069.82,315.902L1069.82,322.384C1069.83,322.44 1069.82,326.573 1071.92,330.785C1072.97,332.89 1074.56,335.017 1076.96,336.614C1079.35,338.212 1082.54,339.26 1086.7,339.259L1167.81,339.259C1167.87,339.255 1172,339.263 1176.21,337.162C1178.32,336.111 1180.44,334.519 1182.04,332.124C1183.64,329.73 1184.69,326.545 1184.69,322.384L1184.69,315.902C1184.68,315.846 1184.69,311.713 1182.59,307.5C1181.54,305.396 1179.95,303.268 1177.55,301.672C1175.16,300.074 1171.97,299.025 1167.81,299.027L1086.7,299.027L1086.7,300.377L1167.81,300.377C1171.75,300.379 1174.64,301.355 1176.8,302.795C1180.04,304.952 1181.68,308.212 1182.51,310.97C1182.92,312.347 1183.13,313.59 1183.23,314.484C1183.28,314.932 1183.31,315.291 1183.32,315.536C1183.33,315.659 1183.33,315.753 1183.33,315.815L1183.34,315.902L1183.34,322.384C1183.33,326.322 1182.36,329.212 1180.92,331.375C1178.76,334.614 1175.5,336.255 1172.74,337.083C1171.37,337.496 1170.12,337.703 1169.23,337.806C1168.78,337.858 1168.42,337.883 1168.18,337.896C1168.05,337.902 1167.96,337.906 1167.9,337.907L1167.81,337.909L1086.7,337.909C1082.76,337.907 1079.87,336.93 1077.71,335.491C1074.47,333.334 1072.83,330.074 1072,327.315C1071.59,325.939 1071.38,324.695 1071.27,323.801C1071.22,323.354 1071.2,322.994 1071.18,322.749C1071.18,322.626 1071.18,322.532 1071.17,322.47L1071.17,315.902C1071.17,311.963 1072.15,309.073 1073.59,306.911C1075.75,303.672 1079.01,302.031 1081.77,301.203C1083.14,300.79 1084.39,300.582 1085.28,300.479C1085.73,300.428 1086.09,300.402 1086.33,300.39C1086.45,300.383 1086.55,300.38 1086.61,300.379L1086.7,300.377L1086.7,299.027Z" style="fill:rgb(150,150,152);fill-rule:nonzero;"/>
    </g>
    <g transform="matrix(4.16667,0,0,4.16667,-1166.87,-1032.67)">
        <path d="M718.127,300.53C718.071,300.533 713.938,300.525 709.726,302.626C707.621,303.677 705.494,305.269 703.897,307.665C702.299,310.058 701.25,313.243 701.252,317.405L701.252,323.886C701.256,323.942 701.248,328.075 703.349,332.288C704.4,334.392 705.992,336.52 708.387,338.116C710.781,339.714 713.966,340.763 718.127,340.761L872.964,340.761C873.021,340.757 877.153,340.765 881.366,338.665C883.47,337.613 885.598,336.021 887.195,333.626C888.792,331.232 889.841,328.047 889.839,323.886L889.839,317.405C889.836,317.348 889.844,313.216 887.743,309.003C886.691,306.899 885.099,304.771 882.704,303.174C880.311,301.576 877.125,300.528 872.964,300.53L718.127,300.53L718.127,301.88L872.964,301.88C876.903,301.882 879.793,302.858 881.955,304.298C885.194,306.454 886.836,309.714 887.663,312.473C888.076,313.849 888.284,315.093 888.387,315.987C888.438,316.434 888.464,316.794 888.477,317.039C888.483,317.162 888.486,317.256 888.488,317.318L888.489,317.405L888.489,323.886C888.487,327.825 887.511,330.715 886.071,332.877C883.914,336.116 880.655,337.758 877.896,338.585C876.52,338.998 875.276,339.206 874.382,339.309C873.935,339.36 873.575,339.386 873.33,339.399C873.207,339.405 873.113,339.408 873.051,339.41L872.964,339.411L718.127,339.411C714.189,339.409 711.299,338.433 709.136,336.993C705.897,334.836 704.256,331.576 703.428,328.818C703.015,327.441 702.808,326.198 702.705,325.304C702.653,324.857 702.628,324.497 702.615,324.252C702.609,324.129 702.605,324.035 702.604,323.973L702.602,323.886L702.602,317.405C702.604,313.466 703.581,310.576 705.02,308.413C707.177,305.175 710.437,303.533 713.196,302.705C714.572,302.292 715.816,302.085 716.71,301.982C717.157,301.93 717.517,301.905 717.762,301.892C717.885,301.886 717.979,301.883 718.041,301.881L718.127,301.88L718.127,300.53Z" style="fill:rgb(150,150,152);fill-rule:nonzero;"/>
    </g>
    <g transform="matrix(4.16667,0,0,4.16667,-1166.87,-1032.67)">
        <path d="M1241.17,287.342C1241.12,287.345 1236.98,287.337 1232.77,289.438C1230.67,290.489 1228.54,292.081 1226.94,294.477C1225.35,296.87 1224.3,300.055 1224.3,304.217L1224.3,315.678C1224.3,315.734 1224.29,319.867 1226.4,324.08C1227.45,326.184 1229.04,328.311 1231.43,329.908C1233.83,331.506 1237.01,332.555 1241.17,332.553L1391.02,332.553C1391.07,332.549 1395.21,332.557 1399.42,330.456C1401.52,329.405 1403.65,327.813 1405.25,325.418C1406.84,323.024 1407.89,319.839 1407.89,315.678L1407.89,304.217C1407.89,304.16 1407.9,300.027 1405.8,295.815C1404.74,293.711 1403.15,291.583 1400.76,289.986C1398.36,288.388 1395.18,287.34 1391.02,287.342L1241.17,287.342L1241.17,288.692L1391.02,288.692C1394.96,288.694 1397.85,289.67 1400.01,291.109C1403.25,293.266 1404.89,296.526 1405.72,299.285C1406.13,300.661 1406.34,301.905 1406.44,302.799C1406.49,303.246 1406.52,303.606 1406.53,303.851C1406.54,303.974 1406.54,304.068 1406.54,304.13L1406.54,315.678C1406.54,319.616 1405.56,322.506 1404.12,324.669C1401.97,327.908 1398.71,329.549 1395.95,330.377C1394.57,330.79 1393.33,330.997 1392.43,331.1C1391.99,331.152 1391.63,331.178 1391.38,331.19C1391.26,331.197 1391.17,331.2 1391.1,331.201L1391.02,331.203L1241.17,331.203C1237.23,331.201 1234.35,330.224 1232.18,328.785C1228.94,326.628 1227.3,323.368 1226.47,320.609C1226.06,319.233 1225.85,317.99 1225.75,317.095C1225.7,316.648 1225.67,316.289 1225.66,316.043C1225.65,315.921 1225.65,315.827 1225.65,315.765L1225.65,304.217C1225.65,300.278 1226.63,297.388 1228.07,295.225C1230.22,291.987 1233.48,290.345 1236.24,289.517C1237.62,289.104 1238.86,288.897 1239.76,288.794C1240.2,288.742 1240.56,288.717 1240.81,288.704C1240.93,288.698 1241.02,288.695 1241.09,288.693L1241.17,288.692L1241.17,287.342Z" style="fill:rgb(150,150,152);fill-rule:nonzero;"/>
    </g>
    <g transform="matrix(4.16667,0,0,4.16667,-1166.87,-1032.67)">
        <path d="M1205.18,304.6C1205.17,300.661 1204.2,297.771 1202.76,295.609C1200.6,292.37 1197.34,290.728 1194.58,289.901C1193.21,289.488 1191.96,289.28 1191.07,289.177C1190.62,289.126 1190.26,289.1 1190.02,289.087C1189.89,289.081 1189.8,289.078 1189.74,289.076L1189.65,289.075L1074.37,289.075C1070.43,289.077 1067.54,290.053 1065.38,291.493C1062.14,293.65 1060.5,296.909 1059.67,299.668C1059.26,301.044 1059.05,302.288 1058.95,303.182C1058.9,303.629 1058.87,303.989 1058.86,304.234C1058.85,304.357 1058.85,304.451 1058.85,304.513L1058.85,445.629C1058.85,449.568 1059.83,452.458 1061.27,454.621C1063.42,457.859 1066.68,459.501 1069.44,460.328C1070.82,460.742 1072.06,460.949 1072.96,461.052C1073.4,461.104 1073.76,461.129 1074.01,461.142C1074.13,461.148 1074.22,461.151 1074.29,461.153L1074.37,461.154L1391.02,461.154C1394.96,461.152 1397.85,460.176 1400.01,458.736C1403.25,456.579 1404.89,453.32 1405.72,450.561C1406.13,449.185 1406.34,447.941 1406.44,447.047C1406.49,446.6 1406.52,446.24 1406.53,445.995C1406.54,445.872 1406.54,445.778 1406.54,445.716L1406.54,365.592C1406.54,361.653 1405.56,358.763 1404.12,356.601C1401.97,353.362 1398.71,351.721 1395.95,350.893C1394.57,350.48 1393.33,350.272 1392.43,350.169C1391.99,350.118 1391.63,350.092 1391.38,350.08C1391.26,350.073 1391.17,350.07 1391.1,350.069L1391.02,350.067L1391.01,350.067L1222.44,349.392C1222.39,349.388 1218.25,349.396 1214.04,347.296C1211.94,346.244 1209.81,344.652 1208.21,342.257C1206.62,339.863 1205.57,336.678 1205.57,332.517L1206.24,332.517L1205.57,332.527L1205.18,304.609L1206.53,304.59L1206.92,332.513L1206.92,332.517C1206.92,336.456 1207.9,339.346 1209.34,341.508C1211.49,344.747 1214.75,346.389 1217.51,347.216C1218.89,347.629 1220.13,347.837 1221.03,347.94C1221.47,347.991 1221.83,348.017 1222.08,348.03C1222.2,348.036 1222.29,348.039 1222.36,348.041L1222.44,348.042L1222.45,348.042L1391.02,348.717C1391.07,348.721 1395.21,348.713 1399.42,350.813C1401.52,351.865 1403.65,353.457 1405.25,355.852C1406.85,358.246 1407.89,361.431 1407.89,365.592L1407.89,445.629C1407.89,445.686 1407.9,449.818 1405.8,454.031C1404.74,456.135 1403.15,458.263 1400.76,459.86C1398.36,461.458 1395.18,462.506 1391.02,462.504L1074.37,462.504C1074.32,462.501 1070.18,462.509 1065.97,460.408C1063.87,459.357 1061.74,457.765 1060.14,455.369C1058.54,452.976 1057.5,449.791 1057.5,445.629L1057.5,304.6C1057.5,304.543 1057.49,300.411 1059.59,296.198C1060.65,294.094 1062.24,291.966 1064.63,290.369C1067.03,288.771 1070.21,287.723 1074.37,287.725L1189.65,287.725C1189.71,287.728 1193.84,287.72 1198.05,289.821C1200.16,290.873 1202.28,292.465 1203.88,294.86C1205.48,297.253 1206.53,300.439 1206.53,304.6L1205.18,304.6Z" style="fill:rgb(150,150,152);fill-rule:nonzero;"/>
    </g>
</svg>
