<?xml version="1.0" encoding="UTF-8" standalone="no"?>
<!DOCTYPE svg PUBLIC "-//W3C//DTD SVG 1.1//EN" "http://www.w3.org/Graphics/SVG/1.1/DTD/svg11.dtd">
<svg width="100%" height="100%" viewBox="0 0 4917 3493" version="1.1" xmlns="http://www.w3.org/2000/svg" xmlns:xlink="http://www.w3.org/1999/xlink" xml:space="preserve" xmlns:serif="http://www.serif.com/" style="fill-rule:evenodd;clip-rule:evenodd;stroke-linejoin:round;stroke-miterlimit:2;">
    <g transform="matrix(4.16667,0,0,4.16667,-1166.87,-1041.05)">
        <path d="M317.175,268.078C317.175,268.078 300.975,268.078 300.975,284.278L300.975,1052.43C300.975,1052.43 300.975,1068.63 317.175,1068.63L1422.82,1068.63C1422.82,1068.63 1439.03,1068.63 1439.03,1052.43L1439.03,284.278C1439.03,284.278 1439.03,268.078 1422.82,268.078L317.175,268.078Z" style="fill:rgb(34,34,34);fill-rule:nonzero;"/>
    </g>
    <g transform="matrix(4.16667,0,0,4.16667,-1166.87,-1041.05)">
        <path d="M317.175,267.403C317.119,267.406 312.986,267.398 308.773,269.499C306.669,270.551 304.541,272.143 302.945,274.538C301.347,276.932 300.298,280.117 300.3,284.278L300.3,1052.43C300.304,1052.48 300.296,1056.62 302.396,1060.83C303.448,1062.93 305.04,1065.06 307.435,1066.66C309.829,1068.26 313.014,1069.3 317.175,1069.3L1422.82,1069.3C1422.88,1069.3 1427.01,1069.31 1431.23,1067.21C1433.33,1066.16 1435.46,1064.56 1437.06,1062.17C1438.65,1059.77 1439.7,1056.59 1439.7,1052.43L1439.7,284.278C1439.7,284.221 1439.7,280.089 1437.6,275.876C1436.55,273.772 1434.96,271.644 1432.56,270.047C1430.17,268.449 1426.99,267.401 1422.82,267.403L317.175,267.403L317.175,268.753L1422.82,268.753C1426.76,268.755 1429.65,269.731 1431.82,271.171C1435.05,273.328 1436.7,276.587 1437.52,279.346C1437.94,280.722 1438.14,281.966 1438.25,282.86C1438.3,283.307 1438.32,283.667 1438.34,283.912C1438.34,284.035 1438.35,284.129 1438.35,284.191L1438.35,1052.43C1438.35,1056.37 1437.37,1059.26 1435.93,1061.42C1433.78,1064.66 1430.52,1066.3 1427.76,1067.13C1426.38,1067.54 1425.14,1067.75 1424.24,1067.85C1423.8,1067.9 1423.44,1067.93 1423.19,1067.94C1423.07,1067.95 1422.97,1067.95 1422.91,1067.95L317.175,1067.95C313.236,1067.95 310.346,1066.97 308.184,1065.53C304.945,1063.38 303.303,1060.12 302.476,1057.36C302.063,1055.98 301.855,1054.74 301.752,1053.85C301.701,1053.4 301.675,1053.04 301.662,1052.79C301.656,1052.67 301.653,1052.58 301.651,1052.51L301.65,1052.43L301.65,284.278C301.652,280.339 302.628,277.449 304.068,275.287C306.225,272.048 309.485,270.406 312.243,269.579C313.62,269.166 314.863,268.958 315.757,268.855C316.204,268.804 316.564,268.778 316.809,268.765C316.932,268.759 317.026,268.756 317.088,268.754L317.175,268.753L317.175,267.403Z" style="fill:rgb(151,151,151);fill-rule:nonzero;"/>
    </g>
    <g transform="matrix(4.16667,0,0,4.16667,-1166.87,-1041.05)">
        <path d="M791.787,545.443C791.731,545.446 787.598,545.439 783.385,547.539C781.281,548.591 779.154,550.183 777.557,552.578C775.959,554.972 774.91,558.157 774.912,562.318L774.912,574.724C774.916,574.781 774.908,578.913 777.009,583.126C778.06,585.23 779.652,587.358 782.047,588.955C784.441,590.553 787.626,591.601 791.787,591.599L812.551,591.599C812.608,591.596 816.74,591.604 820.953,589.503C823.057,588.452 825.185,586.86 826.782,584.464C828.379,582.071 829.428,578.885 829.426,574.724L829.426,562.318C829.423,562.262 829.43,558.129 827.33,553.916C826.278,551.812 824.686,549.684 822.291,548.087C819.898,546.49 816.712,545.441 812.551,545.443L791.787,545.443L791.787,546.793L812.551,546.793C816.49,546.795 819.38,547.771 821.542,549.211C824.781,551.368 826.423,554.628 827.25,557.386C827.663,558.762 827.871,560.006 827.974,560.9C828.025,561.347 828.051,561.707 828.064,561.952C828.07,562.075 828.073,562.169 828.075,562.231L828.076,562.318L828.076,574.724C828.074,578.663 827.098,581.553 825.658,583.716C823.501,586.954 820.242,588.596 817.483,589.423C816.107,589.836 814.863,590.044 813.969,590.147C813.522,590.199 813.162,590.224 812.917,590.237C812.794,590.243 812.7,590.246 812.638,590.248L812.551,590.249L791.787,590.249C787.849,590.247 784.959,589.271 782.796,587.831C779.557,585.674 777.916,582.415 777.088,579.656C776.675,578.28 776.468,577.036 776.365,576.142C776.313,575.695 776.288,575.335 776.275,575.09C776.268,574.967 776.265,574.873 776.264,574.811L776.262,574.724L776.262,562.318C776.264,558.379 777.241,555.489 778.68,553.327C780.837,550.088 784.097,548.446 786.856,547.619C788.232,547.206 789.476,546.998 790.37,546.895C790.817,546.844 791.177,546.818 791.422,546.805C791.544,546.799 791.638,546.796 791.701,546.794L791.787,546.793L791.787,545.443Z" style="fill:rgb(151,151,151);fill-rule:nonzero;"/>
    </g>
    <g transform="matrix(4.16667,0,0,4.16667,-1166.87,-1041.05)">
        <path d="M339.51,540.447C339.454,540.451 335.321,540.443 331.109,542.544C329.004,543.595 326.877,545.187 325.28,547.582C323.682,549.976 322.633,553.161 322.635,557.322L322.635,598.483C322.639,598.54 322.631,602.672 324.732,606.885C325.783,608.989 327.375,611.117 329.77,612.714C332.164,614.312 335.349,615.36 339.51,615.358L723.554,615.358C723.61,615.355 727.743,615.363 731.956,613.262C734.06,612.211 736.188,610.619 737.784,608.223C739.382,605.83 740.431,602.645 740.429,598.483L740.429,557.322C740.425,557.266 740.433,553.133 738.332,548.92C737.281,546.816 735.689,544.688 733.294,543.092C730.9,541.494 727.715,540.445 723.554,540.447L339.51,540.447L339.51,541.797L723.554,541.797C727.492,541.799 730.382,542.776 732.545,544.215C735.784,546.372 737.425,549.632 738.253,552.391C738.666,553.767 738.873,555.01 738.976,555.905C739.028,556.352 739.054,556.711 739.066,556.957C739.073,557.079 739.076,557.173 739.077,557.235L739.079,557.322L739.079,598.483C739.077,602.422 738.1,605.312 736.661,607.475C734.504,610.713 731.244,612.355 728.486,613.182C727.109,613.596 725.866,613.803 724.971,613.906C724.524,613.958 724.165,613.983 723.919,613.996C723.797,614.002 723.703,614.005 723.641,614.007L723.554,614.008L339.51,614.008C335.572,614.006 332.682,613.03 330.519,611.59C327.28,609.433 325.639,606.174 324.811,603.415C324.398,602.039 324.191,600.795 324.088,599.901C324.036,599.454 324.01,599.094 323.998,598.849C323.991,598.726 323.988,598.632 323.987,598.57L323.985,598.483L323.985,557.322C323.987,553.384 324.964,550.494 326.403,548.331C328.56,545.092 331.82,543.451 334.579,542.623C335.955,542.21 337.199,542.003 338.093,541.9C338.54,541.848 338.9,541.822 339.145,541.81C339.267,541.803 339.361,541.8 339.424,541.799L339.51,541.797L339.51,540.447Z" style="fill:rgb(151,151,151);fill-rule:nonzero;"/>
    </g>
    <g transform="matrix(4.16667,0,0,4.16667,-1166.87,-1041.05)">
        <path d="M880.785,289.353C880.729,289.357 876.596,289.349 872.383,291.45C870.279,292.501 868.151,294.093 866.555,296.488C864.957,298.882 863.908,302.067 863.91,306.228L863.91,445.802C863.914,445.858 863.906,449.991 866.006,454.203C867.058,456.308 868.65,458.435 871.045,460.032C873.439,461.63 876.624,462.678 880.785,462.677L1192.68,462.677C1192.73,462.673 1196.87,462.681 1201.08,460.58C1203.18,459.529 1205.31,457.937 1206.91,455.542C1208.51,453.148 1209.56,449.963 1209.55,445.802L1209.55,306.228C1209.55,306.172 1209.56,302.039 1207.46,297.826C1206.41,295.722 1204.81,293.594 1202.42,291.998C1200.03,290.4 1196.84,289.351 1192.68,289.353L880.785,289.353L880.785,290.703L1192.68,290.703C1196.62,290.705 1199.51,291.682 1201.67,293.121C1204.91,295.278 1206.55,298.538 1207.38,301.297C1207.79,302.673 1208,303.917 1208.1,304.811C1208.15,305.258 1208.18,305.617 1208.19,305.863C1208.2,305.985 1208.2,306.079 1208.2,306.141L1208.2,445.802C1208.2,449.74 1207.23,452.63 1205.79,454.793C1203.63,458.032 1200.37,459.673 1197.61,460.501C1196.23,460.914 1194.99,461.121 1194.1,461.224C1193.65,461.276 1193.29,461.301 1193.04,461.314C1192.92,461.32 1192.83,461.324 1192.77,461.325L1192.68,461.327L880.785,461.327C876.846,461.325 873.956,460.348 871.794,458.909C868.555,456.752 866.913,453.492 866.086,450.733C865.673,449.357 865.465,448.113 865.362,447.219C865.311,446.772 865.285,446.412 865.272,446.167C865.266,446.044 865.263,445.95 865.261,445.888L865.26,445.802L865.26,306.228C865.262,302.29 866.238,299.4 867.678,297.237C869.835,293.998 873.095,292.357 875.853,291.529C877.229,291.116 878.473,290.909 879.367,290.806C879.814,290.754 880.174,290.728 880.419,290.716C880.542,290.709 880.636,290.706 880.698,290.705L880.785,290.703L880.785,289.353Z" style="fill:rgb(151,151,151);fill-rule:nonzero;"/>
    </g>
    <g transform="matrix(4.16667,0,0,4.16667,-1166.87,-1041.05)">
        <path d="M880.785,475.584C880.729,475.588 876.596,475.58 872.383,477.681C870.279,478.732 868.151,480.324 866.555,482.719C864.957,485.113 863.908,488.298 863.91,492.459L863.91,599.101C863.914,599.158 863.906,603.29 866.006,607.503C867.058,609.607 868.65,611.735 871.045,613.332C873.439,614.93 876.624,615.978 880.785,615.976L1052.23,615.976C1052.29,615.973 1056.42,615.981 1060.64,613.88C1062.74,612.829 1064.87,611.237 1066.47,608.841C1068.06,606.448 1069.11,603.263 1069.11,599.101L1069.11,492.459C1069.11,492.403 1069.11,488.27 1067.01,484.058C1065.96,481.953 1064.37,479.826 1061.97,478.229C1059.58,476.631 1056.4,475.583 1052.23,475.584L880.785,475.584L880.785,476.935L1052.23,476.934C1056.17,476.936 1059.06,477.913 1061.23,479.352C1064.46,481.509 1066.11,484.769 1066.93,487.528C1067.35,488.904 1067.55,490.148 1067.66,491.042C1067.71,491.489 1067.73,491.849 1067.75,492.094C1067.75,492.216 1067.76,492.311 1067.76,492.373L1067.76,599.101C1067.76,603.04 1066.78,605.93 1065.34,608.093C1063.19,611.331 1059.93,612.973 1057.17,613.8C1055.79,614.214 1054.55,614.421 1053.65,614.524C1053.21,614.576 1052.85,614.601 1052.6,614.614C1052.48,614.62 1052.38,614.623 1052.32,614.625L1052.23,614.626L880.785,614.626C876.846,614.624 873.956,613.648 871.794,612.208C868.555,610.051 866.913,606.792 866.086,604.033C865.673,602.657 865.465,601.413 865.362,600.519C865.311,600.072 865.285,599.712 865.272,599.467C865.266,599.344 865.263,599.25 865.261,599.188L865.26,599.101L865.26,492.459C865.262,488.521 866.238,485.631 867.678,483.468C869.835,480.229 873.095,478.588 875.853,477.76C877.229,477.347 878.473,477.14 879.367,477.037C879.814,476.985 880.174,476.96 880.419,476.947C880.542,476.941 880.636,476.937 880.698,476.936L880.785,476.934L880.785,475.584Z" style="fill:rgb(151,151,151);fill-rule:nonzero;"/>
    </g>
    <g transform="matrix(4.16667,0,0,4.16667,-1166.87,-1041.05)">
        <path d="M892.91,487.657C892.853,487.661 888.721,487.653 884.508,489.754C882.404,490.805 880.276,492.397 878.679,494.792C877.081,497.186 876.033,500.371 876.035,504.532L876.035,511.014C876.038,511.07 876.03,515.203 878.131,519.416C879.182,521.52 880.774,523.648 883.17,525.244C885.563,526.842 888.749,527.891 892.91,527.889L1039.33,527.889C1039.39,527.885 1043.52,527.893 1047.74,525.793C1049.84,524.741 1051.97,523.149 1053.56,520.754C1055.16,518.36 1056.21,515.175 1056.21,511.014L1056.21,504.532C1056.2,504.476 1056.21,500.343 1054.11,496.131C1053.06,494.026 1051.47,491.899 1049.07,490.302C1046.68,488.704 1043.49,487.655 1039.33,487.657L892.91,487.657L892.91,489.007L1039.33,489.007C1043.27,489.009 1046.16,489.986 1048.32,491.425C1051.56,493.582 1053.2,496.842 1054.03,499.601C1054.45,500.977 1054.65,502.221 1054.76,503.115C1054.81,503.562 1054.83,503.922 1054.85,504.167C1054.85,504.289 1054.86,504.383 1054.86,504.446L1054.86,511.014C1054.86,514.953 1053.88,517.843 1052.44,520.005C1050.28,523.244 1047.02,524.885 1044.27,525.713C1042.89,526.126 1041.65,526.333 1040.75,526.437C1040.3,526.488 1039.94,526.514 1039.7,526.526C1039.58,526.533 1039.48,526.536 1039.42,526.537L1039.33,526.539L892.91,526.539C888.971,526.537 886.081,525.561 883.919,524.121C880.68,521.964 879.038,518.704 878.211,515.946C877.797,514.569 877.59,513.326 877.487,512.432C877.435,511.984 877.41,511.625 877.397,511.379C877.391,511.257 877.388,511.163 877.386,511.101L877.385,511.014L877.385,504.532C877.387,500.594 878.363,497.704 879.803,495.541C881.96,492.302 885.219,490.661 887.978,489.833C889.354,489.42 890.598,489.213 891.492,489.11C891.939,489.058 892.299,489.033 892.544,489.02C892.667,489.013 892.761,489.01 892.823,489.009L892.91,489.007L892.91,487.657Z" style="fill:rgb(151,151,151);fill-rule:nonzero;"/>
    </g>
    <g transform="matrix(4.16667,0,0,4.16667,-1166.87,-1041.05)">
        <path d="M1113.47,487.657C1113.41,487.661 1109.28,487.653 1105.07,489.754C1102.96,490.805 1100.84,492.397 1099.24,494.792C1097.64,497.186 1096.59,500.371 1096.59,504.532L1096.59,511.014C1096.6,511.07 1096.59,515.203 1098.69,519.416C1099.74,521.52 1101.33,523.648 1103.73,525.244C1106.12,526.842 1109.31,527.891 1113.47,527.889L1212.88,527.889C1212.94,527.885 1217.07,527.893 1221.28,525.793C1223.39,524.741 1225.52,523.149 1227.11,520.754C1228.71,518.36 1229.76,515.175 1229.76,511.014L1229.76,504.532C1229.75,504.476 1229.76,500.343 1227.66,496.131C1226.61,494.026 1225.02,491.899 1222.62,490.302C1220.23,488.704 1217.04,487.655 1212.88,487.657L1113.47,487.657L1113.47,489.007L1212.88,489.007C1216.82,489.009 1219.71,489.986 1221.87,491.425C1225.11,493.582 1226.75,496.842 1227.58,499.601C1227.99,500.977 1228.2,502.221 1228.3,503.115C1228.36,503.562 1228.38,503.922 1228.39,504.167C1228.4,504.289 1228.4,504.383 1228.41,504.446L1228.41,511.014C1228.41,514.953 1227.43,517.843 1225.99,520.005C1223.83,523.244 1220.57,524.885 1217.81,525.713C1216.44,526.126 1215.19,526.333 1214.3,526.437C1213.85,526.488 1213.49,526.514 1213.25,526.526C1213.13,526.533 1213.03,526.536 1212.97,526.537L1212.88,526.539L1113.47,526.539C1109.53,526.537 1106.64,525.561 1104.48,524.121C1101.24,521.964 1099.6,518.704 1098.77,515.946C1098.36,514.569 1098.15,513.326 1098.05,512.432C1097.99,511.984 1097.97,511.625 1097.96,511.379C1097.95,511.257 1097.95,511.163 1097.95,511.101L1097.94,511.014L1097.94,504.532C1097.95,500.594 1098.92,497.704 1100.36,495.541C1102.52,492.302 1105.78,490.661 1108.54,489.833C1109.91,489.42 1111.16,489.213 1112.05,489.11C1112.5,489.058 1112.86,489.033 1113.1,489.02C1113.23,489.013 1113.32,489.01 1113.38,489.009L1113.47,489.007L1113.47,487.657Z" style="fill:rgb(151,151,151);fill-rule:nonzero;"/>
    </g>
    <g transform="matrix(4.16667,0,0,4.16667,-1166.87,-1041.05)">
        <path d="M1257.47,358.416C1257.42,358.419 1253.28,358.411 1249.07,360.512C1246.97,361.563 1244.84,363.155 1243.24,365.551C1241.64,367.944 1240.59,371.129 1240.6,375.291L1240.6,381.772C1240.6,381.828 1240.59,385.961 1242.69,390.174C1243.74,392.278 1245.34,394.406 1247.73,396.002C1250.13,397.6 1253.31,398.649 1257.47,398.647L1378.13,398.647C1378.19,398.643 1382.32,398.651 1386.53,396.551C1388.64,395.499 1390.76,393.907 1392.36,391.512C1393.96,389.118 1395.01,385.933 1395.01,381.772L1395.01,375.291C1395,375.234 1395.01,371.101 1392.91,366.889C1391.86,364.785 1390.27,362.657 1387.87,361.06C1385.48,359.462 1382.29,358.414 1378.13,358.416L1257.47,358.416L1257.47,359.766L1378.13,359.766C1382.07,359.768 1384.96,360.744 1387.12,362.183C1390.36,364.34 1392,367.6 1392.83,370.359C1393.24,371.735 1393.45,372.979 1393.55,373.873C1393.6,374.32 1393.63,374.68 1393.64,374.925C1393.65,375.048 1393.65,375.142 1393.65,375.204L1393.66,375.291L1393.66,381.772C1393.65,385.711 1392.68,388.601 1391.24,390.763C1389.08,394.002 1385.82,395.643 1383.06,396.471C1381.69,396.884 1380.44,397.092 1379.55,397.195C1379.1,397.246 1378.74,397.272 1378.5,397.285C1378.37,397.291 1378.28,397.294 1378.22,397.296L1378.13,397.297L1257.47,397.297C1253.53,397.295 1250.64,396.319 1248.48,394.879C1245.24,392.722 1243.6,389.462 1242.77,386.704C1242.36,385.327 1242.15,384.084 1242.05,383.19C1242,382.743 1241.97,382.383 1241.96,382.138C1241.95,382.015 1241.95,381.921 1241.95,381.859L1241.95,375.291C1241.95,371.352 1242.93,368.462 1244.36,366.299C1246.52,363.061 1249.78,361.419 1252.54,360.591C1253.92,360.178 1255.16,359.971 1256.05,359.868C1256.5,359.816 1256.86,359.791 1257.11,359.778C1257.23,359.772 1257.32,359.769 1257.38,359.767L1257.47,359.766L1257.47,358.416Z" style="fill:rgb(151,151,151);fill-rule:nonzero;"/>
    </g>
    <g transform="matrix(4.16667,0,0,4.16667,-1166.87,-1041.05)">
        <path d="M892.91,302.541C892.853,302.545 888.721,302.537 884.508,304.638C882.404,305.689 880.276,307.281 878.679,309.676C877.081,312.07 876.033,315.255 876.035,319.416L876.035,325.898C876.038,325.954 876.03,330.087 878.131,334.3C879.182,336.404 880.774,338.532 883.17,340.128C885.563,341.726 888.748,342.775 892.91,342.773L1047.75,342.773C1047.8,342.769 1051.94,342.777 1056.15,340.677C1058.25,339.625 1060.38,338.033 1061.98,335.638C1063.57,333.244 1064.62,330.059 1064.62,325.898L1064.62,319.416C1064.62,319.36 1064.63,315.227 1062.53,311.014C1061.47,308.91 1059.88,306.783 1057.49,305.186C1055.09,303.588 1051.91,302.539 1047.75,302.541L892.91,302.541L892.91,303.891L1047.75,303.891C1051.69,303.893 1054.58,304.87 1056.74,306.309C1059.98,308.466 1061.62,311.726 1062.45,314.485C1062.86,315.861 1063.07,317.105 1063.17,317.999C1063.22,318.446 1063.25,318.805 1063.26,319.051C1063.27,319.173 1063.27,319.267 1063.27,319.329L1063.27,325.898C1063.27,329.837 1062.29,332.726 1060.85,334.889C1058.7,338.128 1055.44,339.769 1052.68,340.597C1051.3,341.01 1050.06,341.217 1049.16,341.32C1048.72,341.372 1048.36,341.398 1048.11,341.41C1047.99,341.417 1047.9,341.42 1047.83,341.421L1047.75,341.423L892.91,341.423C888.971,341.421 886.081,340.444 883.918,339.005C880.68,336.848 879.038,333.588 878.211,330.83C877.797,329.453 877.59,328.21 877.487,327.315C877.435,326.868 877.41,326.509 877.397,326.263C877.391,326.141 877.388,326.047 877.386,325.985L877.385,325.898L877.385,319.416C877.387,315.478 878.363,312.588 879.803,310.425C881.96,307.186 885.219,305.545 887.978,304.717C889.354,304.304 890.598,304.097 891.492,303.994C891.939,303.942 892.299,303.917 892.544,303.904C892.667,303.897 892.761,303.894 892.823,303.893L892.91,303.891L892.91,302.541Z" style="fill:rgb(151,151,151);fill-rule:nonzero;"/>
    </g>
    <g transform="matrix(4.16667,0,0,4.16667,-1166.87,-1041.05)">
        <path d="M1241.17,289.353C1241.12,289.357 1236.98,289.349 1232.77,291.45C1230.67,292.501 1228.54,294.093 1226.94,296.488C1225.35,298.882 1224.3,302.067 1224.3,306.228L1224.3,317.689C1224.3,317.746 1224.29,321.878 1226.4,326.091C1227.45,328.195 1229.04,330.323 1231.43,331.92C1233.83,333.518 1237.01,334.566 1241.17,334.564L1391.02,334.564C1391.07,334.561 1395.21,334.569 1399.42,332.468C1401.52,331.417 1403.65,329.825 1405.25,327.429C1406.84,325.036 1407.89,321.851 1407.89,317.689L1407.89,306.228C1407.89,306.172 1407.9,302.039 1405.8,297.826C1404.74,295.722 1403.15,293.594 1400.76,291.998C1398.36,290.4 1395.18,289.351 1391.02,289.353L1241.17,289.353L1241.17,290.703L1391.02,290.703C1394.96,290.705 1397.85,291.682 1400.01,293.121C1403.25,295.278 1404.89,298.538 1405.72,301.296C1406.13,302.673 1406.34,303.916 1406.44,304.811C1406.49,305.258 1406.52,305.617 1406.53,305.863C1406.54,305.985 1406.54,306.079 1406.54,306.141L1406.54,317.689C1406.54,321.628 1405.56,324.518 1404.12,326.681C1401.97,329.919 1398.71,331.561 1395.95,332.389C1394.57,332.802 1393.33,333.009 1392.43,333.112C1391.99,333.164 1391.63,333.189 1391.38,333.202C1391.26,333.208 1391.17,333.211 1391.1,333.213L1391.02,333.214L1241.17,333.214C1237.23,333.212 1234.35,332.236 1232.18,330.796C1228.94,328.639 1227.3,325.38 1226.47,322.621C1226.06,321.245 1225.85,320.001 1225.75,319.107C1225.7,318.66 1225.67,318.3 1225.66,318.055C1225.65,317.932 1225.65,317.838 1225.65,317.776L1225.65,306.228C1225.65,302.289 1226.63,299.4 1228.07,297.237C1230.22,293.998 1233.48,292.357 1236.24,291.529C1237.62,291.116 1238.86,290.909 1239.76,290.806C1240.2,290.754 1240.56,290.728 1240.81,290.716C1240.93,290.709 1241.02,290.706 1241.09,290.705L1241.17,290.703L1241.17,289.353Z" style="fill:rgb(151,151,151);fill-rule:nonzero;"/>
    </g>
    <g transform="matrix(4.16667,0,0,4.16667,-1166.87,-1041.05)">
        <path d="M1226.61,452.599L1226.61,362.748C1226.61,358.81 1227.58,355.92 1229.02,353.757C1231.18,350.518 1234.44,348.877 1237.2,348.049C1238.57,347.636 1239.82,347.429 1240.71,347.326C1241.16,347.274 1241.52,347.249 1241.76,347.236C1241.89,347.229 1241.98,347.226 1242.04,347.225L1242.13,347.223L1391.02,347.223C1394.96,347.225 1397.85,348.202 1400.01,349.641C1403.25,351.798 1404.89,355.058 1405.72,357.817C1406.13,359.193 1406.34,360.437 1406.44,361.331C1406.49,361.778 1406.52,362.138 1406.53,362.383C1406.54,362.505 1406.54,362.599 1406.54,362.661L1406.54,599.101C1406.54,603.04 1405.56,605.93 1404.12,608.093C1401.97,611.331 1398.71,612.973 1395.95,613.801C1394.57,614.214 1393.33,614.421 1392.43,614.524C1391.99,614.576 1391.63,614.601 1391.38,614.614C1391.26,614.62 1391.17,614.623 1391.1,614.625L1391.02,614.626L1100.56,614.626C1096.62,614.624 1093.73,613.648 1091.57,612.208C1088.33,610.052 1086.69,606.792 1085.86,604.033C1085.45,602.657 1085.24,601.413 1085.14,600.519C1085.09,600.072 1085.06,599.712 1085.05,599.467C1085.04,599.344 1085.04,599.25 1085.04,599.188L1085.04,492.46C1085.04,488.521 1086.02,485.631 1087.46,483.468C1089.61,480.23 1092.87,478.588 1095.63,477.76C1097.01,477.347 1098.25,477.14 1099.14,477.037C1099.59,476.985 1099.95,476.96 1100.2,476.947C1100.32,476.941 1100.41,476.938 1100.48,476.936L1100.56,476.935L1198.18,476.935L1209.38,476.258L1209.34,475.585L1209.34,476.26C1209.39,476.256 1213.53,476.264 1217.74,474.163C1219.84,473.112 1221.97,471.52 1223.57,469.125C1225.17,466.731 1226.21,463.546 1226.21,459.385L1225.54,459.385L1226.21,459.424L1226.6,452.638L1225.26,452.56L1224.86,459.365L1224.86,459.385C1224.86,463.323 1223.88,466.213 1222.44,468.376C1220.29,471.615 1217.03,473.256 1214.27,474.084C1212.89,474.497 1211.65,474.704 1210.75,474.807C1210.31,474.859 1209.95,474.884 1209.7,474.897C1209.58,474.903 1209.49,474.907 1209.42,474.908L1209.34,474.91L1209.32,474.91L1198.14,475.585L1100.56,475.585C1100.51,475.588 1096.37,475.58 1092.16,477.681C1090.06,478.732 1087.93,480.324 1086.33,482.72C1084.73,485.113 1083.69,488.298 1083.69,492.46L1083.69,599.101C1083.69,599.158 1083.68,603.29 1085.78,607.503C1086.84,609.607 1088.43,611.735 1090.82,613.332C1093.22,614.93 1096.4,615.978 1100.56,615.976L1391.02,615.976C1391.07,615.973 1395.21,615.981 1399.42,613.88C1401.52,612.829 1403.65,611.237 1405.25,608.841C1406.84,606.448 1407.89,603.263 1407.89,599.101L1407.89,362.748C1407.89,362.692 1407.9,358.559 1405.8,354.346C1404.74,352.242 1403.15,350.115 1400.76,348.518C1398.36,346.92 1395.18,345.871 1391.02,345.873L1242.13,345.873C1242.07,345.877 1237.94,345.869 1233.73,347.97C1231.62,349.021 1229.5,350.613 1227.9,353.008C1226.3,355.402 1225.25,358.587 1225.26,362.748L1225.26,452.599L1226.61,452.599Z" style="fill:rgb(151,151,151);fill-rule:nonzero;"/>
    </g>
    <g transform="matrix(4.16667,0,0,4.16667,-1166.87,-1041.05)">
        <path d="M339.951,289.553C339.895,289.556 335.762,289.548 331.549,291.649C329.445,292.7 327.317,294.292 325.72,296.688C324.123,299.081 323.074,302.266 323.076,306.428L323.076,503.375C323.079,503.431 323.072,507.564 325.172,511.777C326.224,513.881 327.816,516.009 330.211,517.605C332.605,519.203 335.79,520.252 339.951,520.25L566.127,520.25C566.183,520.246 570.316,520.254 574.529,518.154C576.633,517.102 578.761,515.51 580.357,513.115C581.955,510.721 583.004,507.536 583.002,503.375L583.002,306.428C582.998,306.371 583.006,302.238 580.906,298.026C579.854,295.922 578.262,293.794 575.867,292.197C573.473,290.599 570.288,289.551 566.127,289.553L339.951,289.553L339.951,290.903L566.127,290.903C570.066,290.905 572.956,291.881 575.118,293.32C578.357,295.477 579.999,298.737 580.826,301.496C581.239,302.872 581.447,304.116 581.55,305.01C581.601,305.457 581.627,305.817 581.64,306.062C581.646,306.185 581.649,306.279 581.651,306.341L581.652,306.428L581.652,503.375C581.65,507.314 580.674,510.204 579.234,512.366C577.077,515.605 573.817,517.246 571.059,518.074C569.682,518.487 568.439,518.695 567.545,518.798C567.098,518.849 566.738,518.875 566.493,518.888C566.37,518.894 566.276,518.897 566.214,518.898L566.127,518.9L339.951,518.9C336.012,518.898 333.122,517.922 330.96,516.482C327.721,514.325 326.079,511.065 325.252,508.307C324.839,506.93 324.631,505.687 324.528,504.793C324.477,504.345 324.451,503.986 324.438,503.741C324.432,503.618 324.429,503.524 324.427,503.462L324.426,503.375L324.426,306.428C324.428,302.489 325.404,299.599 326.844,297.436C329.001,294.198 332.26,292.556 335.019,291.728C336.395,291.315 337.639,291.108 338.533,291.005C338.98,290.953 339.34,290.928 339.585,290.915C339.708,290.909 339.802,290.906 339.864,290.904L339.951,290.903L339.951,289.553Z" style="fill:rgb(150,150,152);fill-rule:nonzero;"/>
    </g>
    <g transform="matrix(4.16667,0,0,4.16667,-1166.87,-1041.05)">
        <path d="M339.951,427.94C339.895,427.944 335.762,427.936 331.549,430.037C329.445,431.088 327.317,432.68 325.72,435.075C324.123,437.469 323.074,440.654 323.076,444.815L323.076,503.375C323.079,503.431 323.072,507.564 325.172,511.777C326.224,513.881 327.816,516.009 330.211,517.605C332.605,519.203 335.79,520.252 339.951,520.25L566.127,520.25C566.183,520.246 570.316,520.254 574.529,518.154C576.633,517.102 578.761,515.51 580.357,513.115C581.955,510.721 583.004,507.536 583.002,503.375L583.002,444.815C582.998,444.759 583.006,440.626 580.906,436.413C579.854,434.309 578.262,432.182 575.867,430.585C573.473,428.987 570.288,427.938 566.127,427.94L339.951,427.94L339.951,429.29L566.127,429.29C570.066,429.292 572.956,430.269 575.118,431.708C578.357,433.865 579.999,437.125 580.826,439.884C581.239,441.26 581.447,442.504 581.55,443.398C581.601,443.845 581.627,444.204 581.64,444.45C581.646,444.572 581.649,444.666 581.651,444.729L581.652,444.815L581.652,503.375C581.65,507.314 580.674,510.204 579.234,512.366C577.077,515.605 573.817,517.246 571.059,518.074C569.682,518.487 568.439,518.695 567.545,518.798C567.098,518.849 566.738,518.875 566.493,518.888C566.37,518.894 566.276,518.897 566.214,518.898L566.127,518.9L339.951,518.9C336.012,518.898 333.122,517.922 330.96,516.482C327.721,514.325 326.079,511.065 325.252,508.307C324.839,506.93 324.631,505.687 324.528,504.793C324.477,504.345 324.451,503.986 324.438,503.74C324.432,503.618 324.429,503.524 324.427,503.462L324.426,503.375L324.426,444.815C324.428,440.877 325.404,437.987 326.844,435.824C329.001,432.585 332.26,430.944 335.019,430.116C336.395,429.703 337.639,429.496 338.533,429.393C338.98,429.341 339.34,429.315 339.585,429.303C339.708,429.296 339.802,429.293 339.864,429.292L339.951,429.29L339.951,427.94Z" style="fill:rgb(150,150,152);fill-rule:nonzero;"/>
    </g>
    <g transform="matrix(4.16667,0,0,4.16667,-1166.87,-1041.05)">
        <path d="M768.779,289.353C768.722,289.357 764.59,289.349 760.377,291.45C758.273,292.501 756.145,294.093 754.548,296.488C752.951,298.882 751.902,302.067 751.904,306.228L751.904,599.101C751.907,599.158 751.9,603.29 754,607.503C755.052,609.607 756.644,611.735 759.039,613.332C761.432,614.93 764.618,615.978 768.779,615.976L835.56,615.976C835.616,615.973 839.749,615.981 843.962,613.88C846.066,612.829 848.194,611.237 849.79,608.841C851.388,606.448 852.437,603.263 852.435,599.101L852.435,306.228C852.431,306.172 852.439,302.039 850.339,297.826C849.287,295.722 847.695,293.594 845.3,291.998C842.906,290.4 839.721,289.351 835.56,289.353L768.779,289.353L768.779,290.703L835.56,290.703C839.499,290.705 842.388,291.682 844.551,293.121C847.79,295.278 849.431,298.538 850.259,301.297C850.672,302.673 850.879,303.917 850.982,304.811C851.034,305.258 851.06,305.617 851.072,305.863C851.079,305.985 851.082,306.079 851.083,306.141L851.085,306.228L851.085,599.101C851.083,603.04 850.106,605.93 848.667,608.093C846.51,611.331 843.25,612.973 840.492,613.8C839.115,614.214 837.872,614.421 836.977,614.524C836.53,614.576 836.171,614.601 835.925,614.614C835.803,614.62 835.709,614.623 835.647,614.625L835.56,614.626L768.779,614.626C764.84,614.624 761.95,613.648 759.788,612.208C756.549,610.051 754.907,606.792 754.08,604.033C753.667,602.657 753.459,601.413 753.356,600.519C753.305,600.072 753.279,599.712 753.266,599.467C753.26,599.344 753.257,599.25 753.255,599.188L753.254,599.101L753.254,306.228C753.256,302.29 754.232,299.4 755.672,297.237C757.829,293.998 761.089,292.357 763.847,291.529C765.223,291.116 766.467,290.909 767.361,290.806C767.808,290.754 768.168,290.728 768.413,290.716C768.536,290.709 768.63,290.706 768.692,290.705L768.779,290.703L768.779,289.353Z" style="fill:rgb(150,150,152);fill-rule:nonzero;"/>
    </g>
    <g transform="matrix(4.16667,0,0,4.16667,-1166.87,-1041.05)">
        <path d="M340.904,635.556C340.848,635.559 336.715,635.552 332.502,637.652C330.398,638.704 328.27,640.296 326.674,642.691C325.076,645.085 324.027,648.27 324.029,652.431L324.029,1012.73C324.033,1012.79 324.025,1016.92 326.125,1021.13C327.177,1023.23 328.769,1025.36 331.164,1026.96C333.558,1028.56 336.743,1029.61 340.904,1029.6L407.685,1029.6C407.741,1029.6 411.874,1029.61 416.087,1027.51C418.191,1026.46 420.319,1024.86 421.916,1022.47C423.513,1020.08 424.562,1016.89 424.56,1012.73L424.56,652.431C424.557,652.375 424.565,648.242 422.464,644.029C421.412,641.925 419.82,639.797 417.425,638.2C415.031,636.603 411.846,635.554 407.685,635.556L340.904,635.556L340.904,636.906L407.685,636.906C411.624,636.908 414.514,637.884 416.676,639.324C419.915,641.481 421.557,644.74 422.384,647.499C422.797,648.875 423.005,650.119 423.108,651.013C423.159,651.46 423.185,651.82 423.198,652.065C423.204,652.188 423.207,652.282 423.209,652.344L423.21,652.431L423.21,1012.73C423.208,1016.67 422.232,1019.56 420.792,1021.72C418.635,1024.96 415.375,1026.6 412.617,1027.43C411.241,1027.84 409.997,1028.05 409.103,1028.15C408.656,1028.2 408.296,1028.23 408.051,1028.24C407.928,1028.25 407.834,1028.25 407.772,1028.25L340.904,1028.25C336.965,1028.25 334.076,1027.28 331.913,1025.84C328.674,1023.68 327.033,1020.42 326.205,1017.66C325.792,1016.28 325.585,1015.04 325.482,1014.15C325.43,1013.7 325.404,1013.34 325.392,1013.09C325.385,1012.97 325.382,1012.88 325.381,1012.82L325.379,1012.73L325.379,652.431C325.381,648.492 326.358,645.602 327.797,643.44C329.954,640.201 333.214,638.559 335.972,637.732C337.349,637.319 338.592,637.111 339.487,637.008C339.934,636.957 340.293,636.931 340.539,636.918C340.661,636.912 340.755,636.909 340.817,636.907L340.904,636.906L340.904,635.556Z" style="fill:rgb(150,150,152);fill-rule:nonzero;"/>
    </g>
    <g transform="matrix(4.16667,0,0,4.16667,-1166.87,-1041.05)">
        <path d="M462.052,635.556C461.996,635.559 457.863,635.552 453.65,637.652C451.546,638.704 449.418,640.296 447.822,642.691C446.224,645.085 445.175,648.27 445.177,652.431L445.177,1012.73C445.181,1012.79 445.173,1016.92 447.274,1021.13C448.325,1023.23 449.917,1025.36 452.312,1026.96C454.706,1028.56 457.891,1029.61 462.052,1029.6L723.554,1029.6C723.61,1029.6 727.743,1029.61 731.956,1027.51C734.06,1026.46 736.188,1024.86 737.784,1022.47C739.382,1020.08 740.431,1016.89 740.429,1012.73L740.429,652.431C740.425,652.375 740.433,648.242 738.332,644.029C737.281,641.925 735.689,639.797 733.294,638.2C730.9,636.603 727.715,635.554 723.554,635.556L462.052,635.556L462.052,636.906L723.554,636.906C727.492,636.908 730.382,637.884 732.545,639.324C735.784,641.481 737.425,644.74 738.253,647.499C738.666,648.875 738.873,650.119 738.976,651.013C739.028,651.46 739.054,651.82 739.066,652.065C739.073,652.188 739.076,652.282 739.077,652.344L739.079,652.431L739.079,1012.73C739.077,1016.67 738.1,1019.56 736.661,1021.72C734.504,1024.96 731.244,1026.6 728.486,1027.43C727.109,1027.84 725.866,1028.05 724.971,1028.15C724.524,1028.2 724.165,1028.23 723.919,1028.24C723.797,1028.25 723.703,1028.25 723.641,1028.25L462.052,1028.25C458.113,1028.25 455.224,1027.28 453.061,1025.84C449.822,1023.68 448.181,1020.42 447.353,1017.66C446.94,1016.28 446.733,1015.04 446.63,1014.15C446.578,1013.7 446.552,1013.34 446.54,1013.09C446.533,1012.97 446.53,1012.88 446.529,1012.82L446.527,1012.73L446.527,652.431C446.529,648.492 447.506,645.602 448.945,643.44C451.102,640.201 454.362,638.559 457.12,637.732C458.497,637.319 459.74,637.111 460.635,637.008C461.082,636.957 461.441,636.931 461.687,636.918C461.809,636.912 461.903,636.909 461.965,636.907L462.052,636.906L462.052,635.556Z" style="fill:rgb(150,150,152);fill-rule:nonzero;"/>
    </g>
    <g transform="matrix(4.16667,0,0,4.16667,-1166.87,-1041.05)">
        <path d="M612.123,289.353C612.067,289.357 607.934,289.349 603.721,291.45C601.617,292.501 599.489,294.093 597.893,296.488C596.295,298.882 595.246,302.067 595.248,306.228L595.248,503.375C595.252,503.431 595.244,507.564 597.344,511.777C598.396,513.881 599.988,516.009 602.383,517.605C604.777,519.203 607.962,520.252 612.123,520.25L723.554,520.25C723.61,520.246 727.743,520.254 731.956,518.154C734.06,517.102 736.188,515.51 737.784,513.115C739.382,510.721 740.431,507.536 740.429,503.375L740.429,306.228C740.425,306.172 740.433,302.039 738.332,297.826C737.281,295.722 735.689,293.594 733.294,291.998C730.9,290.4 727.715,289.351 723.554,289.353L612.123,289.353L612.123,290.703L723.554,290.703C727.492,290.705 730.382,291.682 732.545,293.121C735.784,295.278 737.425,298.538 738.253,301.297C738.666,302.673 738.873,303.917 738.976,304.811C739.028,305.258 739.054,305.617 739.066,305.863C739.073,305.985 739.076,306.079 739.077,306.141L739.079,306.228L739.079,503.375C739.077,507.314 738.1,510.204 736.661,512.366C734.504,515.605 731.244,517.246 728.486,518.074C727.109,518.487 725.866,518.694 724.971,518.798C724.524,518.849 724.165,518.875 723.919,518.887C723.797,518.894 723.703,518.897 723.641,518.898L723.554,518.9L612.123,518.9C608.184,518.898 605.294,517.922 603.132,516.482C599.893,514.325 598.251,511.065 597.424,508.307C597.011,506.93 596.803,505.687 596.7,504.793C596.649,504.345 596.623,503.986 596.61,503.74C596.604,503.618 596.601,503.524 596.599,503.462L596.598,503.375L596.598,306.228C596.6,302.29 597.576,299.4 599.016,297.237C601.173,293.998 604.433,292.357 607.191,291.529C608.567,291.116 609.811,290.909 610.705,290.806C611.152,290.754 611.512,290.728 611.757,290.716C611.88,290.709 611.974,290.706 612.036,290.705L612.123,290.703L612.123,289.353Z" style="fill:rgb(150,150,152);fill-rule:nonzero;"/>
    </g>
    <g transform="matrix(4.16667,0,0,4.16667,-1166.87,-1041.05)">
        <path d="M386.707,294.082C386.707,294.455 387.009,294.757 387.382,294.757C387.755,294.757 388.057,294.455 388.057,294.082C388.057,293.709 387.755,293.407 387.382,293.407C387.009,293.407 386.707,293.709 386.707,294.082ZM386.707,298.135C386.707,298.508 387.009,298.81 387.382,298.81C387.755,298.81 388.057,298.508 388.057,298.135C388.057,297.763 387.755,297.46 387.382,297.46C387.009,297.46 386.707,297.763 386.707,298.135ZM386.707,302.189C386.707,302.562 387.009,302.864 387.382,302.864C387.755,302.864 388.057,302.562 388.057,302.189C388.057,301.816 387.755,301.514 387.382,301.514C387.009,301.514 386.707,301.816 386.707,302.189ZM386.707,306.242C386.707,306.615 387.009,306.917 387.382,306.917C387.755,306.917 388.057,306.615 388.057,306.242C388.057,305.87 387.755,305.567 387.382,305.567C387.009,305.567 386.707,305.87 386.707,306.242ZM386.707,310.296C386.707,310.669 387.009,310.971 387.382,310.971C387.755,310.971 388.057,310.669 388.057,310.296C388.057,309.923 387.755,309.621 387.382,309.621C387.009,309.621 386.707,309.923 386.707,310.296ZM386.707,314.349C386.707,314.722 387.009,315.024 387.382,315.024C387.755,315.024 388.057,314.722 388.057,314.349C388.057,313.977 387.755,313.674 387.382,313.674C387.009,313.674 386.707,313.977 386.707,314.349ZM386.707,318.403C386.707,318.776 387.009,319.078 387.382,319.078C387.755,319.078 388.057,318.776 388.057,318.403C388.057,318.03 387.755,317.728 387.382,317.728C387.009,317.728 386.707,318.03 386.707,318.403ZM386.707,322.456C386.707,322.829 387.009,323.131 387.382,323.131C387.755,323.131 388.057,322.829 388.057,322.456C388.057,322.084 387.755,321.781 387.382,321.781C387.009,321.781 386.707,322.084 386.707,322.456ZM386.707,326.51C386.707,326.883 387.009,327.185 387.382,327.185C387.755,327.185 388.057,326.883 388.057,326.51C388.057,326.137 387.755,325.835 387.382,325.835C387.009,325.835 386.707,326.137 386.707,326.51ZM386.707,330.563C386.707,330.936 387.009,331.238 387.382,331.238C387.755,331.238 388.057,330.936 388.057,330.563C388.057,330.191 387.755,329.888 387.382,329.888C387.009,329.888 386.707,330.191 386.707,330.563ZM386.707,334.617C386.707,334.99 387.009,335.292 387.382,335.292C387.755,335.292 388.057,334.99 388.057,334.617C388.057,334.244 387.755,333.942 387.382,333.942C387.009,333.942 386.707,334.244 386.707,334.617ZM386.707,338.67C386.707,339.043 387.009,339.345 387.382,339.345C387.755,339.345 388.057,339.043 388.057,338.67C388.057,338.298 387.755,337.995 387.382,337.995C387.009,337.995 386.707,338.298 386.707,338.67ZM386.707,342.724C386.707,343.097 387.009,343.399 387.382,343.399C387.755,343.399 388.057,343.097 388.057,342.724C388.057,342.351 387.755,342.049 387.382,342.049C387.009,342.049 386.707,342.351 386.707,342.724ZM386.707,346.777C386.707,347.15 387.009,347.452 387.382,347.452C387.755,347.452 388.057,347.15 388.057,346.777C388.057,346.405 387.755,346.102 387.382,346.102C387.009,346.102 386.707,346.405 386.707,346.777ZM386.707,350.831C386.707,351.204 387.009,351.506 387.382,351.506C387.755,351.506 388.057,351.204 388.057,350.831C388.057,350.458 387.755,350.156 387.382,350.156C387.009,350.156 386.707,350.458 386.707,350.831ZM386.707,354.885C386.707,355.257 387.009,355.56 387.382,355.56C387.755,355.56 388.057,355.257 388.057,354.885C388.057,354.512 387.755,354.21 387.382,354.21C387.009,354.21 386.707,354.512 386.707,354.885ZM386.707,358.938C386.707,359.311 387.009,359.613 387.382,359.613C387.755,359.613 388.057,359.311 388.057,358.938C388.057,358.565 387.755,358.263 387.382,358.263C387.009,358.263 386.707,358.565 386.707,358.938ZM386.707,362.992C386.707,363.364 387.009,363.667 387.382,363.667C387.755,363.667 388.057,363.364 388.057,362.992C388.057,362.619 387.755,362.317 387.382,362.317C387.009,362.317 386.707,362.619 386.707,362.992ZM386.707,367.045C386.707,367.418 387.009,367.72 387.382,367.72C387.755,367.72 388.057,367.418 388.057,367.045C388.057,366.672 387.755,366.37 387.382,366.37C387.009,366.37 386.707,366.672 386.707,367.045ZM386.707,371.099C386.707,371.471 387.009,371.774 387.382,371.774C387.755,371.774 388.057,371.471 388.057,371.099C388.057,370.726 387.755,370.424 387.382,370.424C387.009,370.424 386.707,370.726 386.707,371.099ZM386.707,375.152C386.707,375.525 387.009,375.827 387.382,375.827C387.755,375.827 388.057,375.525 388.057,375.152C388.057,374.779 387.755,374.477 387.382,374.477C387.009,374.477 386.707,374.779 386.707,375.152ZM386.707,379.206C386.707,379.578 387.009,379.881 387.382,379.881C387.755,379.881 388.057,379.578 388.057,379.206C388.057,378.833 387.755,378.531 387.382,378.531C387.009,378.531 386.707,378.833 386.707,379.206ZM386.707,383.259C386.707,383.632 387.009,383.934 387.382,383.934C387.755,383.934 388.057,383.632 388.057,383.259C388.057,382.886 387.755,382.584 387.382,382.584C387.009,382.584 386.707,382.886 386.707,383.259ZM386.707,387.313C386.707,387.685 387.009,387.988 387.382,387.988C387.755,387.988 388.057,387.685 388.057,387.313C388.057,386.94 387.755,386.638 387.382,386.638C387.009,386.638 386.707,386.94 386.707,387.313ZM386.707,391.366C386.707,391.739 387.009,392.041 387.382,392.041C387.755,392.041 388.057,391.739 388.057,391.366C388.057,390.993 387.755,390.691 387.382,390.691C387.009,390.691 386.707,390.993 386.707,391.366ZM386.707,395.42C386.707,395.792 387.009,396.095 387.382,396.095C387.755,396.095 388.057,395.792 388.057,395.42C388.057,395.047 387.755,394.745 387.382,394.745C387.009,394.745 386.707,395.047 386.707,395.42ZM386.707,399.473C386.707,399.846 387.009,400.148 387.382,400.148C387.755,400.148 388.057,399.846 388.057,399.473C388.057,399.1 387.755,398.798 387.382,398.798C387.009,398.798 386.707,399.1 386.707,399.473ZM386.707,403.527C386.707,403.899 387.009,404.202 387.382,404.202C387.755,404.202 388.057,403.899 388.057,403.527C388.057,403.154 387.755,402.852 387.382,402.852C387.009,402.852 386.707,403.154 386.707,403.527ZM386.707,407.58C386.707,407.953 387.009,408.255 387.382,408.255C387.755,408.255 388.057,407.953 388.057,407.58C388.057,407.207 387.755,406.905 387.382,406.905C387.009,406.905 386.707,407.207 386.707,407.58ZM386.707,411.634C386.707,412.006 387.009,412.309 387.382,412.309C387.755,412.309 388.057,412.006 388.057,411.634C388.057,411.261 387.755,410.959 387.382,410.959C387.009,410.959 386.707,411.261 386.707,411.634ZM386.707,415.687C386.707,416.06 387.009,416.362 387.382,416.362C387.755,416.362 388.057,416.06 388.057,415.687C388.057,415.314 387.755,415.012 387.382,415.012C387.009,415.012 386.707,415.314 386.707,415.687ZM386.707,419.741C386.707,420.114 387.009,420.416 387.382,420.416C387.755,420.416 388.057,420.114 388.057,419.741C388.057,419.368 387.755,419.066 387.382,419.066C387.009,419.066 386.707,419.368 386.707,419.741Z" style="fill:rgb(150,150,152);fill-rule:nonzero;"/>
    </g>
    <g transform="matrix(4.16667,0,0,4.16667,-1166.87,-1041.05)">
        <path d="M387.382,290.703C387.56,290.703 387.734,290.631 387.859,290.506C387.985,290.38 388.057,290.206 388.057,290.028C388.057,289.851 387.985,289.677 387.859,289.551C387.734,289.425 387.56,289.353 387.382,289.353C387.204,289.353 387.03,289.425 386.905,289.551C386.779,289.677 386.707,289.851 386.707,290.028C386.707,290.206 386.779,290.38 386.905,290.506C387.03,290.631 387.204,290.703 387.382,290.703ZM387.382,424.469C387.56,424.469 387.734,424.397 387.859,424.272C387.985,424.146 388.057,423.972 388.057,423.794C388.057,423.616 387.985,423.443 387.859,423.317C387.734,423.191 387.56,423.119 387.382,423.119C387.204,423.119 387.03,423.191 386.905,423.317C386.779,423.443 386.707,423.616 386.707,423.794C386.707,423.972 386.779,424.146 386.905,424.272C387.03,424.397 387.204,424.469 387.382,424.469Z" style="fill:rgb(150,150,152);fill-rule:nonzero;"/>
    </g>
    <g transform="matrix(4.16667,0,0,4.16667,-1166.87,-1041.05)">
        <path d="M327.358,395.786C327.73,395.786 328.033,395.484 328.033,395.111C328.033,394.738 327.73,394.436 327.358,394.436C326.985,394.436 326.683,394.738 326.683,395.111C326.683,395.484 326.985,395.786 327.358,395.786ZM331.405,395.786C331.777,395.786 332.08,395.484 332.08,395.111C332.08,394.738 331.777,394.436 331.405,394.436C331.032,394.436 330.73,394.738 330.73,395.111C330.73,395.484 331.032,395.786 331.405,395.786ZM335.452,395.786C335.825,395.786 336.127,395.484 336.127,395.111C336.127,394.738 335.825,394.436 335.452,394.436C335.079,394.436 334.777,394.738 334.777,395.111C334.777,395.484 335.079,395.786 335.452,395.786ZM339.499,395.786C339.872,395.786 340.174,395.484 340.174,395.111C340.174,394.738 339.872,394.436 339.499,394.436C339.126,394.436 338.824,394.738 338.824,395.111C338.824,395.484 339.126,395.786 339.499,395.786ZM343.546,395.786C343.919,395.786 344.221,395.484 344.221,395.111C344.221,394.738 343.919,394.436 343.546,394.436C343.173,394.436 342.871,394.738 342.871,395.111C342.871,395.484 343.173,395.786 343.546,395.786ZM347.593,395.786C347.966,395.786 348.268,395.484 348.268,395.111C348.268,394.738 347.966,394.436 347.593,394.436C347.22,394.436 346.918,394.738 346.918,395.111C346.918,395.484 347.22,395.786 347.593,395.786ZM351.64,395.786C352.013,395.786 352.315,395.484 352.315,395.111C352.315,394.738 352.013,394.436 351.64,394.436C351.268,394.436 350.965,394.738 350.965,395.111C350.965,395.484 351.268,395.786 351.64,395.786ZM355.687,395.786C356.06,395.786 356.362,395.484 356.362,395.111C356.362,394.738 356.06,394.436 355.687,394.436C355.315,394.436 355.012,394.738 355.012,395.111C355.012,395.484 355.315,395.786 355.687,395.786ZM359.735,395.786C360.107,395.786 360.41,395.484 360.41,395.111C360.41,394.738 360.107,394.436 359.735,394.436C359.362,394.436 359.06,394.738 359.06,395.111C359.06,395.484 359.362,395.786 359.735,395.786ZM363.782,395.786C364.155,395.786 364.457,395.484 364.457,395.111C364.457,394.738 364.155,394.436 363.782,394.436C363.409,394.436 363.107,394.738 363.107,395.111C363.107,395.484 363.409,395.786 363.782,395.786ZM367.829,395.786C368.202,395.786 368.504,395.484 368.504,395.111C368.504,394.738 368.202,394.436 367.829,394.436C367.456,394.436 367.154,394.738 367.154,395.111C367.154,395.484 367.456,395.786 367.829,395.786ZM371.876,395.786C372.249,395.786 372.551,395.484 372.551,395.111C372.551,394.738 372.249,394.436 371.876,394.436C371.503,394.436 371.201,394.738 371.201,395.111C371.201,395.484 371.503,395.786 371.876,395.786ZM375.923,395.786C376.296,395.786 376.598,395.484 376.598,395.111C376.598,394.738 376.296,394.436 375.923,394.436C375.55,394.436 375.248,394.738 375.248,395.111C375.248,395.484 375.55,395.786 375.923,395.786ZM379.97,395.786C380.343,395.786 380.645,395.484 380.645,395.111C380.645,394.738 380.343,394.436 379.97,394.436C379.597,394.436 379.295,394.738 379.295,395.111C379.295,395.484 379.597,395.786 379.97,395.786ZM384.017,395.786C384.39,395.786 384.692,395.484 384.692,395.111C384.692,394.738 384.39,394.436 384.017,394.436C383.645,394.436 383.342,394.738 383.342,395.111C383.342,395.484 383.645,395.786 384.017,395.786ZM388.065,395.786C388.437,395.786 388.74,395.484 388.74,395.111C388.74,394.738 388.437,394.436 388.065,394.436C387.692,394.436 387.389,394.738 387.389,395.111C387.389,395.484 387.692,395.786 388.065,395.786ZM392.112,395.786C392.484,395.786 392.787,395.484 392.787,395.111C392.787,394.738 392.484,394.436 392.112,394.436C391.739,394.436 391.437,394.738 391.437,395.111C391.437,395.484 391.739,395.786 392.112,395.786ZM396.159,395.786C396.532,395.786 396.834,395.484 396.834,395.111C396.834,394.738 396.532,394.436 396.159,394.436C395.786,394.436 395.484,394.738 395.484,395.111C395.484,395.484 395.786,395.786 396.159,395.786ZM400.206,395.786C400.579,395.786 400.881,395.484 400.881,395.111C400.881,394.738 400.579,394.436 400.206,394.436C399.833,394.436 399.531,394.738 399.531,395.111C399.531,395.484 399.833,395.786 400.206,395.786ZM404.253,395.786C404.626,395.786 404.928,395.484 404.928,395.111C404.928,394.738 404.626,394.436 404.253,394.436C403.88,394.436 403.578,394.738 403.578,395.111C403.578,395.484 403.88,395.786 404.253,395.786ZM408.3,395.786C408.673,395.786 408.975,395.484 408.975,395.111C408.975,394.738 408.673,394.436 408.3,394.436C407.927,394.436 407.625,394.738 407.625,395.111C407.625,395.484 407.927,395.786 408.3,395.786ZM412.347,395.786C412.72,395.786 413.022,395.484 413.022,395.111C413.022,394.738 412.72,394.436 412.347,394.436C411.974,394.436 411.672,394.738 411.672,395.111C411.672,395.484 411.974,395.786 412.347,395.786ZM416.394,395.786C416.767,395.786 417.069,395.484 417.069,395.111C417.069,394.738 416.767,394.436 416.394,394.436C416.022,394.436 415.719,394.738 415.719,395.111C415.719,395.484 416.022,395.786 416.394,395.786ZM420.442,395.786C420.814,395.786 421.117,395.484 421.117,395.111C421.117,394.738 420.814,394.436 420.442,394.436C420.069,394.436 419.767,394.738 419.767,395.111C419.767,395.484 420.069,395.786 420.442,395.786ZM424.489,395.786C424.861,395.786 425.164,395.484 425.164,395.111C425.164,394.738 424.861,394.436 424.489,394.436C424.116,394.436 423.814,394.738 423.814,395.111C423.814,395.484 424.116,395.786 424.489,395.786ZM428.536,395.786C428.909,395.786 429.211,395.484 429.211,395.111C429.211,394.738 428.909,394.436 428.536,394.436C428.163,394.436 427.861,394.738 427.861,395.111C427.861,395.484 428.163,395.786 428.536,395.786ZM432.583,395.786C432.956,395.786 433.258,395.484 433.258,395.111C433.258,394.738 432.956,394.436 432.583,394.436C432.21,394.436 431.908,394.738 431.908,395.111C431.908,395.484 432.21,395.786 432.583,395.786ZM436.63,395.786C437.003,395.786 437.305,395.484 437.305,395.111C437.305,394.738 437.003,394.436 436.63,394.436C436.257,394.436 435.955,394.738 435.955,395.111C435.955,395.484 436.257,395.786 436.63,395.786ZM440.677,395.786C441.05,395.786 441.352,395.484 441.352,395.111C441.352,394.738 441.05,394.436 440.677,394.436C440.304,394.436 440.002,394.738 440.002,395.111C440.002,395.484 440.304,395.786 440.677,395.786ZM444.724,395.786C445.097,395.786 445.399,395.484 445.399,395.111C445.399,394.738 445.097,394.436 444.724,394.436C444.352,394.436 444.049,394.738 444.049,395.111C444.049,395.484 444.352,395.786 444.724,395.786ZM448.771,395.786C449.144,395.786 449.446,395.484 449.446,395.111C449.446,394.738 449.144,394.436 448.771,394.436C448.399,394.436 448.096,394.738 448.096,395.111C448.096,395.484 448.399,395.786 448.771,395.786ZM452.819,395.786C453.191,395.786 453.494,395.484 453.494,395.111C453.494,394.738 453.191,394.436 452.819,394.436C452.446,394.436 452.144,394.738 452.144,395.111C452.144,395.484 452.446,395.786 452.819,395.786ZM456.866,395.786C457.238,395.786 457.541,395.484 457.541,395.111C457.541,394.738 457.238,394.436 456.866,394.436C456.493,394.436 456.191,394.738 456.191,395.111C456.191,395.484 456.493,395.786 456.866,395.786ZM460.913,395.786C461.286,395.786 461.588,395.484 461.588,395.111C461.588,394.738 461.286,394.436 460.913,394.436C460.54,394.436 460.238,394.738 460.238,395.111C460.238,395.484 460.54,395.786 460.913,395.786ZM464.96,395.786C465.333,395.786 465.635,395.484 465.635,395.111C465.635,394.738 465.333,394.436 464.96,394.436C464.587,394.436 464.285,394.738 464.285,395.111C464.285,395.484 464.587,395.786 464.96,395.786ZM469.007,395.786C469.38,395.786 469.682,395.484 469.682,395.111C469.682,394.738 469.38,394.436 469.007,394.436C468.634,394.436 468.332,394.738 468.332,395.111C468.332,395.484 468.634,395.786 469.007,395.786ZM473.054,395.786C473.427,395.786 473.729,395.484 473.729,395.111C473.729,394.738 473.427,394.436 473.054,394.436C472.681,394.436 472.379,394.738 472.379,395.111C472.379,395.484 472.681,395.786 473.054,395.786ZM477.101,395.786C477.474,395.786 477.776,395.484 477.776,395.111C477.776,394.738 477.474,394.436 477.101,394.436C476.729,394.436 476.426,394.738 476.426,395.111C476.426,395.484 476.729,395.786 477.101,395.786ZM481.148,395.786C481.521,395.786 481.823,395.484 481.823,395.111C481.823,394.738 481.521,394.436 481.148,394.436C480.776,394.436 480.473,394.738 480.473,395.111C480.473,395.484 480.776,395.786 481.148,395.786ZM485.196,395.786C485.568,395.786 485.871,395.484 485.871,395.111C485.871,394.738 485.568,394.436 485.196,394.436C484.823,394.436 484.521,394.738 484.521,395.111C484.521,395.484 484.823,395.786 485.196,395.786ZM489.243,395.786C489.616,395.786 489.918,395.484 489.918,395.111C489.918,394.738 489.616,394.436 489.243,394.436C488.87,394.436 488.568,394.738 488.568,395.111C488.568,395.484 488.87,395.786 489.243,395.786ZM493.29,395.786C493.663,395.786 493.965,395.484 493.965,395.111C493.965,394.738 493.663,394.436 493.29,394.436C492.917,394.436 492.615,394.738 492.615,395.111C492.615,395.484 492.917,395.786 493.29,395.786ZM497.337,395.786C497.71,395.786 498.012,395.484 498.012,395.111C498.012,394.738 497.71,394.436 497.337,394.436C496.964,394.436 496.662,394.738 496.662,395.111C496.662,395.484 496.964,395.786 497.337,395.786ZM501.384,395.786C501.757,395.786 502.059,395.484 502.059,395.111C502.059,394.738 501.757,394.436 501.384,394.436C501.011,394.436 500.709,394.738 500.709,395.111C500.709,395.484 501.011,395.786 501.384,395.786ZM505.431,395.786C505.804,395.786 506.106,395.484 506.106,395.111C506.106,394.738 505.804,394.436 505.431,394.436C505.058,394.436 504.756,394.738 504.756,395.111C504.756,395.484 505.058,395.786 505.431,395.786ZM509.478,395.786C509.851,395.786 510.153,395.484 510.153,395.111C510.153,394.738 509.851,394.436 509.478,394.436C509.106,394.436 508.803,394.738 508.803,395.111C508.803,395.484 509.106,395.786 509.478,395.786ZM513.526,395.786C513.898,395.786 514.201,395.484 514.201,395.111C514.201,394.738 513.898,394.436 513.526,394.436C513.153,394.436 512.849,394.738 512.849,395.111C512.849,395.484 513.153,395.786 513.526,395.786ZM517.573,395.786C517.945,395.786 518.248,395.484 518.248,395.111C518.248,394.738 517.945,394.436 517.573,394.436C517.2,394.436 516.898,394.738 516.898,395.111C516.898,395.484 517.2,395.786 517.573,395.786ZM521.62,395.786C521.992,395.786 522.294,395.484 522.294,395.111C522.294,394.738 521.992,394.436 521.62,394.436C521.247,394.436 520.945,394.738 520.945,395.111C520.945,395.484 521.247,395.786 521.62,395.786ZM525.667,395.786C526.04,395.786 526.342,395.484 526.342,395.111C526.342,394.738 526.04,394.436 525.667,394.436C525.294,394.436 524.992,394.738 524.992,395.111C524.992,395.484 525.294,395.786 525.667,395.786ZM529.714,395.786C530.087,395.786 530.389,395.484 530.389,395.111C530.389,394.738 530.087,394.436 529.714,394.436C529.341,394.436 529.039,394.738 529.039,395.111C529.039,395.484 529.341,395.786 529.714,395.786ZM533.761,395.786C534.134,395.786 534.436,395.484 534.436,395.111C534.436,394.738 534.134,394.436 533.761,394.436C533.388,394.436 533.086,394.738 533.086,395.111C533.086,395.484 533.388,395.786 533.761,395.786ZM537.808,395.786C538.181,395.786 538.483,395.484 538.483,395.111C538.483,394.738 538.181,394.436 537.808,394.436C537.435,394.436 537.133,394.738 537.133,395.111C537.133,395.484 537.435,395.786 537.808,395.786ZM541.855,395.786C542.228,395.786 542.53,395.484 542.53,395.111C542.53,394.738 542.228,394.436 541.855,394.436C541.483,394.436 541.18,394.738 541.18,395.111C541.18,395.484 541.483,395.786 541.855,395.786ZM545.903,395.786C546.275,395.786 546.578,395.484 546.578,395.111C546.578,394.738 546.275,394.436 545.903,394.436C545.53,394.436 545.228,394.738 545.228,395.111C545.228,395.484 545.53,395.786 545.903,395.786ZM549.95,395.786C550.322,395.786 550.625,395.484 550.625,395.111C550.625,394.738 550.322,394.436 549.95,394.436C549.577,394.436 549.275,394.738 549.275,395.111C549.275,395.484 549.577,395.786 549.95,395.786ZM553.997,395.786C554.37,395.786 554.672,395.484 554.672,395.111C554.672,394.738 554.37,394.436 553.997,394.436C553.624,394.436 553.322,394.738 553.322,395.111C553.322,395.484 553.624,395.786 553.997,395.786ZM558.044,395.786C558.417,395.786 558.719,395.484 558.719,395.111C558.719,394.738 558.417,394.436 558.044,394.436C557.671,394.436 557.369,394.738 557.369,395.111C557.369,395.484 557.671,395.786 558.044,395.786ZM562.091,395.786C562.464,395.786 562.766,395.484 562.766,395.111C562.766,394.738 562.464,394.436 562.091,394.436C561.718,394.436 561.416,394.738 561.416,395.111C561.416,395.484 561.718,395.786 562.091,395.786ZM566.138,395.786C566.511,395.786 566.813,395.484 566.813,395.111C566.813,394.738 566.511,394.436 566.138,394.436C565.765,394.436 565.463,394.738 565.463,395.111C565.463,395.484 565.765,395.786 566.138,395.786ZM570.185,395.786C570.558,395.786 570.86,395.484 570.86,395.111C570.86,394.738 570.558,394.436 570.185,394.436C569.813,394.436 569.51,394.738 569.51,395.111C569.51,395.484 569.813,395.786 570.185,395.786ZM574.232,395.786C574.605,395.786 574.907,395.484 574.907,395.111C574.907,394.738 574.605,394.436 574.232,394.436C573.86,394.436 573.557,394.738 573.557,395.111C573.557,395.484 573.86,395.786 574.232,395.786ZM578.28,395.786C578.652,395.786 578.955,395.484 578.955,395.111C578.955,394.738 578.652,394.436 578.28,394.436C577.907,394.436 577.605,394.738 577.605,395.111C577.605,395.484 577.907,395.786 578.28,395.786Z" style="fill:rgb(150,150,152);fill-rule:nonzero;"/>
    </g>
    <g transform="matrix(4.16667,0,0,4.16667,-1166.87,-1041.05)">
        <path d="M323.985,395.111C323.985,394.933 323.913,394.759 323.788,394.634C323.662,394.508 323.488,394.436 323.31,394.436C323.133,394.436 322.959,394.508 322.833,394.634C322.707,394.759 322.635,394.933 322.635,395.111C322.635,395.289 322.707,395.463 322.833,395.588C322.959,395.714 323.133,395.786 323.31,395.786C323.488,395.786 323.662,395.714 323.788,395.588C323.913,395.463 323.985,395.289 323.985,395.111ZM583.002,395.111C583.002,394.933 582.93,394.759 582.804,394.634C582.679,394.508 582.505,394.436 582.327,394.436C582.149,394.436 581.975,394.508 581.85,394.634C581.724,394.759 581.652,394.933 581.652,395.111C581.652,395.289 581.724,395.463 581.85,395.588C581.975,395.714 582.149,395.786 582.327,395.786C582.505,395.786 582.679,395.714 582.804,395.588C582.93,395.463 583.002,395.289 583.002,395.111Z" style="fill:rgb(150,150,152);fill-rule:nonzero;"/>
    </g>
    <g transform="matrix(4.16667,0,0,4.16667,-1166.87,-1041.05)">
        <path d="M449.774,294.082C449.774,294.455 450.076,294.757 450.449,294.757C450.822,294.757 451.124,294.455 451.124,294.082C451.124,293.709 450.822,293.407 450.449,293.407C450.076,293.407 449.774,293.709 449.774,294.082ZM449.774,298.135C449.774,298.508 450.076,298.81 450.449,298.81C450.822,298.81 451.124,298.508 451.124,298.135C451.124,297.763 450.822,297.46 450.449,297.46C450.076,297.46 449.774,297.763 449.774,298.135ZM449.774,302.189C449.774,302.562 450.076,302.864 450.449,302.864C450.822,302.864 451.124,302.562 451.124,302.189C451.124,301.816 450.822,301.514 450.449,301.514C450.076,301.514 449.774,301.816 449.774,302.189ZM449.774,306.242C449.774,306.615 450.076,306.917 450.449,306.917C450.822,306.917 451.124,306.615 451.124,306.242C451.124,305.87 450.822,305.567 450.449,305.567C450.076,305.567 449.774,305.87 449.774,306.242ZM449.774,310.296C449.774,310.669 450.076,310.971 450.449,310.971C450.822,310.971 451.124,310.669 451.124,310.296C451.124,309.923 450.822,309.621 450.449,309.621C450.076,309.621 449.774,309.923 449.774,310.296ZM449.774,314.349C449.774,314.722 450.076,315.024 450.449,315.024C450.822,315.024 451.124,314.722 451.124,314.349C451.124,313.977 450.822,313.674 450.449,313.674C450.076,313.674 449.774,313.977 449.774,314.349ZM449.774,318.403C449.774,318.776 450.076,319.078 450.449,319.078C450.822,319.078 451.124,318.776 451.124,318.403C451.124,318.03 450.822,317.728 450.449,317.728C450.076,317.728 449.774,318.03 449.774,318.403ZM449.774,322.456C449.774,322.829 450.076,323.131 450.449,323.131C450.822,323.131 451.124,322.829 451.124,322.456C451.124,322.084 450.822,321.781 450.449,321.781C450.076,321.781 449.774,322.084 449.774,322.456ZM449.774,326.51C449.774,326.883 450.076,327.185 450.449,327.185C450.822,327.185 451.124,326.883 451.124,326.51C451.124,326.137 450.822,325.835 450.449,325.835C450.076,325.835 449.774,326.137 449.774,326.51ZM449.774,330.563C449.774,330.936 450.076,331.238 450.449,331.238C450.822,331.238 451.124,330.936 451.124,330.563C451.124,330.191 450.822,329.888 450.449,329.888C450.076,329.888 449.774,330.191 449.774,330.563ZM449.774,334.617C449.774,334.99 450.076,335.292 450.449,335.292C450.822,335.292 451.124,334.99 451.124,334.617C451.124,334.244 450.822,333.942 450.449,333.942C450.076,333.942 449.774,334.244 449.774,334.617ZM449.774,338.67C449.774,339.043 450.076,339.345 450.449,339.345C450.822,339.345 451.124,339.043 451.124,338.67C451.124,338.298 450.822,337.995 450.449,337.995C450.076,337.995 449.774,338.298 449.774,338.67ZM449.774,342.724C449.774,343.097 450.076,343.399 450.449,343.399C450.822,343.399 451.124,343.097 451.124,342.724C451.124,342.351 450.822,342.049 450.449,342.049C450.076,342.049 449.774,342.351 449.774,342.724ZM449.774,346.777C449.774,347.15 450.076,347.452 450.449,347.452C450.822,347.452 451.124,347.15 451.124,346.777C451.124,346.405 450.822,346.102 450.449,346.102C450.076,346.102 449.774,346.405 449.774,346.777ZM449.774,350.831C449.774,351.204 450.076,351.506 450.449,351.506C450.822,351.506 451.124,351.204 451.124,350.831C451.124,350.458 450.822,350.156 450.449,350.156C450.076,350.156 449.774,350.458 449.774,350.831ZM449.774,354.885C449.774,355.257 450.076,355.56 450.449,355.56C450.822,355.56 451.124,355.257 451.124,354.885C451.124,354.512 450.822,354.21 450.449,354.21C450.076,354.21 449.774,354.512 449.774,354.885ZM449.774,358.938C449.774,359.311 450.076,359.613 450.449,359.613C450.822,359.613 451.124,359.311 451.124,358.938C451.124,358.565 450.822,358.263 450.449,358.263C450.076,358.263 449.774,358.565 449.774,358.938ZM449.774,362.992C449.774,363.364 450.076,363.667 450.449,363.667C450.822,363.667 451.124,363.364 451.124,362.992C451.124,362.619 450.822,362.317 450.449,362.317C450.076,362.317 449.774,362.619 449.774,362.992ZM449.774,367.045C449.774,367.418 450.076,367.72 450.449,367.72C450.822,367.72 451.124,367.418 451.124,367.045C451.124,366.672 450.822,366.37 450.449,366.37C450.076,366.37 449.774,366.672 449.774,367.045ZM449.774,371.099C449.774,371.471 450.076,371.774 450.449,371.774C450.822,371.774 451.124,371.471 451.124,371.099C451.124,370.726 450.822,370.424 450.449,370.424C450.076,370.424 449.774,370.726 449.774,371.099ZM449.774,375.152C449.774,375.525 450.076,375.827 450.449,375.827C450.822,375.827 451.124,375.525 451.124,375.152C451.124,374.779 450.822,374.477 450.449,374.477C450.076,374.477 449.774,374.779 449.774,375.152ZM449.774,379.206C449.774,379.578 450.076,379.881 450.449,379.881C450.822,379.881 451.124,379.578 451.124,379.206C451.124,378.833 450.822,378.531 450.449,378.531C450.076,378.531 449.774,378.833 449.774,379.206ZM449.774,383.259C449.774,383.632 450.076,383.934 450.449,383.934C450.822,383.934 451.124,383.632 451.124,383.259C451.124,382.886 450.822,382.584 450.449,382.584C450.076,382.584 449.774,382.886 449.774,383.259ZM449.774,387.313C449.774,387.685 450.076,387.988 450.449,387.988C450.822,387.988 451.124,387.685 451.124,387.313C451.124,386.94 450.822,386.638 450.449,386.638C450.076,386.638 449.774,386.94 449.774,387.313ZM449.774,391.366C449.774,391.739 450.076,392.041 450.449,392.041C450.822,392.041 451.124,391.739 451.124,391.366C451.124,390.993 450.822,390.691 450.449,390.691C450.076,390.691 449.774,390.993 449.774,391.366ZM449.774,395.42C449.774,395.792 450.076,396.095 450.449,396.095C450.822,396.095 451.124,395.792 451.124,395.42C451.124,395.047 450.822,394.745 450.449,394.745C450.076,394.745 449.774,395.047 449.774,395.42ZM449.774,399.473C449.774,399.846 450.076,400.148 450.449,400.148C450.822,400.148 451.124,399.846 451.124,399.473C451.124,399.1 450.822,398.798 450.449,398.798C450.076,398.798 449.774,399.1 449.774,399.473ZM449.774,403.527C449.774,403.899 450.076,404.202 450.449,404.202C450.822,404.202 451.124,403.899 451.124,403.527C451.124,403.154 450.822,402.852 450.449,402.852C450.076,402.852 449.774,403.154 449.774,403.527ZM449.774,407.58C449.774,407.953 450.076,408.255 450.449,408.255C450.822,408.255 451.124,407.953 451.124,407.58C451.124,407.207 450.822,406.905 450.449,406.905C450.076,406.905 449.774,407.207 449.774,407.58ZM449.774,411.634C449.774,412.006 450.076,412.309 450.449,412.309C450.822,412.309 451.124,412.006 451.124,411.634C451.124,411.261 450.822,410.959 450.449,410.959C450.076,410.959 449.774,411.261 449.774,411.634ZM449.774,415.687C449.774,416.06 450.076,416.362 450.449,416.362C450.822,416.362 451.124,416.06 451.124,415.687C451.124,415.314 450.822,415.012 450.449,415.012C450.076,415.012 449.774,415.314 449.774,415.687ZM449.774,419.741C449.774,420.114 450.076,420.416 450.449,420.416C450.822,420.416 451.124,420.114 451.124,419.741C451.124,419.368 450.822,419.066 450.449,419.066C450.076,419.066 449.774,419.368 449.774,419.741Z" style="fill:rgb(150,150,152);fill-rule:nonzero;"/>
    </g>
    <g transform="matrix(4.16667,0,0,4.16667,-1166.87,-1041.05)">
        <path d="M450.449,290.703C450.627,290.703 450.801,290.631 450.927,290.506C451.052,290.38 451.124,290.206 451.124,290.028C451.124,289.851 451.052,289.677 450.927,289.551C450.801,289.425 450.627,289.353 450.449,289.353C450.272,289.353 450.098,289.425 449.972,289.551C449.846,289.677 449.774,289.851 449.774,290.028C449.774,290.206 449.846,290.38 449.972,290.506C450.098,290.631 450.272,290.703 450.449,290.703ZM450.449,424.469C450.627,424.469 450.801,424.397 450.927,424.272C451.052,424.146 451.124,423.972 451.124,423.794C451.124,423.616 451.052,423.443 450.927,423.317C450.801,423.191 450.627,423.119 450.449,423.119C450.272,423.119 450.098,423.191 449.972,423.317C449.846,423.443 449.774,423.616 449.774,423.794C449.774,423.972 449.846,424.146 449.972,424.272C450.098,424.397 450.272,424.469 450.449,424.469Z" style="fill:rgb(150,150,152);fill-rule:nonzero;"/>
    </g>
    <g transform="matrix(4.16667,0,0,4.16667,-1166.87,-1041.05)">
        <path d="M327.358,360.758C327.73,360.758 328.033,360.456 328.033,360.083C328.033,359.711 327.73,359.408 327.358,359.408C326.985,359.408 326.683,359.711 326.683,360.083C326.683,360.456 326.985,360.758 327.358,360.758ZM331.405,360.758C331.777,360.758 332.08,360.456 332.08,360.083C332.08,359.711 331.777,359.408 331.405,359.408C331.032,359.408 330.73,359.711 330.73,360.083C330.73,360.456 331.032,360.758 331.405,360.758ZM335.452,360.758C335.825,360.758 336.127,360.456 336.127,360.083C336.127,359.711 335.825,359.408 335.452,359.408C335.079,359.408 334.777,359.711 334.777,360.083C334.777,360.456 335.079,360.758 335.452,360.758ZM339.499,360.758C339.872,360.758 340.174,360.456 340.174,360.083C340.174,359.711 339.872,359.408 339.499,359.408C339.126,359.408 338.824,359.711 338.824,360.083C338.824,360.456 339.126,360.758 339.499,360.758ZM343.546,360.758C343.919,360.758 344.221,360.456 344.221,360.083C344.221,359.711 343.919,359.408 343.546,359.408C343.173,359.408 342.871,359.711 342.871,360.083C342.871,360.456 343.173,360.758 343.546,360.758ZM347.593,360.758C347.966,360.758 348.268,360.456 348.268,360.083C348.268,359.711 347.966,359.408 347.593,359.408C347.22,359.408 346.918,359.711 346.918,360.083C346.918,360.456 347.22,360.758 347.593,360.758ZM351.64,360.758C352.013,360.758 352.315,360.456 352.315,360.083C352.315,359.711 352.013,359.408 351.64,359.408C351.268,359.408 350.965,359.711 350.965,360.083C350.965,360.456 351.268,360.758 351.64,360.758ZM355.687,360.758C356.06,360.758 356.362,360.456 356.362,360.083C356.362,359.711 356.06,359.408 355.687,359.408C355.315,359.408 355.012,359.711 355.012,360.083C355.012,360.456 355.315,360.758 355.687,360.758ZM359.735,360.758C360.107,360.758 360.41,360.456 360.41,360.083C360.41,359.711 360.107,359.408 359.735,359.408C359.362,359.408 359.06,359.711 359.06,360.083C359.06,360.456 359.362,360.758 359.735,360.758ZM363.782,360.758C364.155,360.758 364.457,360.456 364.457,360.083C364.457,359.711 364.155,359.408 363.782,359.408C363.409,359.408 363.107,359.711 363.107,360.083C363.107,360.456 363.409,360.758 363.782,360.758ZM367.829,360.758C368.202,360.758 368.504,360.456 368.504,360.083C368.504,359.711 368.202,359.408 367.829,359.408C367.456,359.408 367.154,359.711 367.154,360.083C367.154,360.456 367.456,360.758 367.829,360.758ZM371.876,360.758C372.249,360.758 372.551,360.456 372.551,360.083C372.551,359.711 372.249,359.408 371.876,359.408C371.503,359.408 371.201,359.711 371.201,360.083C371.201,360.456 371.503,360.758 371.876,360.758ZM375.923,360.758C376.296,360.758 376.598,360.456 376.598,360.083C376.598,359.711 376.296,359.408 375.923,359.408C375.55,359.408 375.248,359.711 375.248,360.083C375.248,360.456 375.55,360.758 375.923,360.758ZM379.97,360.758C380.343,360.758 380.645,360.456 380.645,360.083C380.645,359.711 380.343,359.408 379.97,359.408C379.597,359.408 379.295,359.711 379.295,360.083C379.295,360.456 379.597,360.758 379.97,360.758ZM384.017,360.758C384.39,360.758 384.692,360.456 384.692,360.083C384.692,359.711 384.39,359.408 384.017,359.408C383.645,359.408 383.342,359.711 383.342,360.083C383.342,360.456 383.645,360.758 384.017,360.758ZM388.065,360.758C388.437,360.758 388.74,360.456 388.74,360.083C388.74,359.711 388.437,359.408 388.065,359.408C387.692,359.408 387.389,359.711 387.389,360.083C387.389,360.456 387.692,360.758 388.065,360.758ZM392.112,360.758C392.484,360.758 392.787,360.456 392.787,360.083C392.787,359.711 392.484,359.408 392.112,359.408C391.739,359.408 391.437,359.711 391.437,360.083C391.437,360.456 391.739,360.758 392.112,360.758ZM396.159,360.758C396.532,360.758 396.834,360.456 396.834,360.083C396.834,359.711 396.532,359.408 396.159,359.408C395.786,359.408 395.484,359.711 395.484,360.083C395.484,360.456 395.786,360.758 396.159,360.758ZM400.206,360.758C400.579,360.758 400.881,360.456 400.881,360.083C400.881,359.711 400.579,359.408 400.206,359.408C399.833,359.408 399.531,359.711 399.531,360.083C399.531,360.456 399.833,360.758 400.206,360.758ZM404.253,360.758C404.626,360.758 404.928,360.456 404.928,360.083C404.928,359.711 404.626,359.408 404.253,359.408C403.88,359.408 403.578,359.711 403.578,360.083C403.578,360.456 403.88,360.758 404.253,360.758ZM408.3,360.758C408.673,360.758 408.975,360.456 408.975,360.083C408.975,359.711 408.673,359.408 408.3,359.408C407.927,359.408 407.625,359.711 407.625,360.083C407.625,360.456 407.927,360.758 408.3,360.758ZM412.347,360.758C412.72,360.758 413.022,360.456 413.022,360.083C413.022,359.711 412.72,359.408 412.347,359.408C411.974,359.408 411.672,359.711 411.672,360.083C411.672,360.456 411.974,360.758 412.347,360.758ZM416.394,360.758C416.767,360.758 417.069,360.456 417.069,360.083C417.069,359.711 416.767,359.408 416.394,359.408C416.022,359.408 415.719,359.711 415.719,360.083C415.719,360.456 416.022,360.758 416.394,360.758ZM420.442,360.758C420.814,360.758 421.117,360.456 421.117,360.083C421.117,359.711 420.814,359.408 420.442,359.408C420.069,359.408 419.767,359.711 419.767,360.083C419.767,360.456 420.069,360.758 420.442,360.758ZM424.489,360.758C424.861,360.758 425.164,360.456 425.164,360.083C425.164,359.711 424.861,359.408 424.489,359.408C424.116,359.408 423.814,359.711 423.814,360.083C423.814,360.456 424.116,360.758 424.489,360.758ZM428.536,360.758C428.909,360.758 429.211,360.456 429.211,360.083C429.211,359.711 428.909,359.408 428.536,359.408C428.163,359.408 427.861,359.711 427.861,360.083C427.861,360.456 428.163,360.758 428.536,360.758ZM432.583,360.758C432.956,360.758 433.258,360.456 433.258,360.083C433.258,359.711 432.956,359.408 432.583,359.408C432.21,359.408 431.908,359.711 431.908,360.083C431.908,360.456 432.21,360.758 432.583,360.758ZM436.63,360.758C437.003,360.758 437.305,360.456 437.305,360.083C437.305,359.711 437.003,359.408 436.63,359.408C436.257,359.408 435.955,359.711 435.955,360.083C435.955,360.456 436.257,360.758 436.63,360.758ZM440.677,360.758C441.05,360.758 441.352,360.456 441.352,360.083C441.352,359.711 441.05,359.408 440.677,359.408C440.304,359.408 440.002,359.711 440.002,360.083C440.002,360.456 440.304,360.758 440.677,360.758ZM444.724,360.758C445.097,360.758 445.399,360.456 445.399,360.083C445.399,359.711 445.097,359.408 444.724,359.408C444.352,359.408 444.049,359.711 444.049,360.083C444.049,360.456 444.352,360.758 444.724,360.758ZM448.771,360.758C449.144,360.758 449.446,360.456 449.446,360.083C449.446,359.711 449.144,359.408 448.771,359.408C448.399,359.408 448.096,359.711 448.096,360.083C448.096,360.456 448.399,360.758 448.771,360.758ZM452.819,360.758C453.191,360.758 453.494,360.456 453.494,360.083C453.494,359.711 453.191,359.408 452.819,359.408C452.446,359.408 452.144,359.711 452.144,360.083C452.144,360.456 452.446,360.758 452.819,360.758ZM456.866,360.758C457.238,360.758 457.541,360.456 457.541,360.083C457.541,359.711 457.238,359.408 456.866,359.408C456.493,359.408 456.191,359.711 456.191,360.083C456.191,360.456 456.493,360.758 456.866,360.758ZM460.913,360.758C461.286,360.758 461.588,360.456 461.588,360.083C461.588,359.711 461.286,359.408 460.913,359.408C460.54,359.408 460.238,359.711 460.238,360.083C460.238,360.456 460.54,360.758 460.913,360.758ZM464.96,360.758C465.333,360.758 465.635,360.456 465.635,360.083C465.635,359.711 465.333,359.408 464.96,359.408C464.587,359.408 464.285,359.711 464.285,360.083C464.285,360.456 464.587,360.758 464.96,360.758ZM469.007,360.758C469.38,360.758 469.682,360.456 469.682,360.083C469.682,359.711 469.38,359.408 469.007,359.408C468.634,359.408 468.332,359.711 468.332,360.083C468.332,360.456 468.634,360.758 469.007,360.758ZM473.054,360.758C473.427,360.758 473.729,360.456 473.729,360.083C473.729,359.711 473.427,359.408 473.054,359.408C472.681,359.408 472.379,359.711 472.379,360.083C472.379,360.456 472.681,360.758 473.054,360.758ZM477.101,360.758C477.474,360.758 477.776,360.456 477.776,360.083C477.776,359.711 477.474,359.408 477.101,359.408C476.729,359.408 476.426,359.711 476.426,360.083C476.426,360.456 476.729,360.758 477.101,360.758ZM481.148,360.758C481.521,360.758 481.823,360.456 481.823,360.083C481.823,359.711 481.521,359.408 481.148,359.408C480.776,359.408 480.473,359.711 480.473,360.083C480.473,360.456 480.776,360.758 481.148,360.758ZM485.196,360.758C485.568,360.758 485.871,360.456 485.871,360.083C485.871,359.711 485.568,359.408 485.196,359.408C484.823,359.408 484.521,359.711 484.521,360.083C484.521,360.456 484.823,360.758 485.196,360.758ZM489.243,360.758C489.616,360.758 489.918,360.456 489.918,360.083C489.918,359.711 489.616,359.408 489.243,359.408C488.87,359.408 488.568,359.711 488.568,360.083C488.568,360.456 488.87,360.758 489.243,360.758ZM493.29,360.758C493.663,360.758 493.965,360.456 493.965,360.083C493.965,359.711 493.663,359.408 493.29,359.408C492.917,359.408 492.615,359.711 492.615,360.083C492.615,360.456 492.917,360.758 493.29,360.758ZM497.337,360.758C497.71,360.758 498.012,360.456 498.012,360.083C498.012,359.711 497.71,359.408 497.337,359.408C496.964,359.408 496.662,359.711 496.662,360.083C496.662,360.456 496.964,360.758 497.337,360.758ZM501.384,360.758C501.757,360.758 502.059,360.456 502.059,360.083C502.059,359.711 501.757,359.408 501.384,359.408C501.011,359.408 500.709,359.711 500.709,360.083C500.709,360.456 501.011,360.758 501.384,360.758ZM505.431,360.758C505.804,360.758 506.106,360.456 506.106,360.083C506.106,359.711 505.804,359.408 505.431,359.408C505.058,359.408 504.756,359.711 504.756,360.083C504.756,360.456 505.058,360.758 505.431,360.758ZM509.478,360.758C509.851,360.758 510.153,360.456 510.153,360.083C510.153,359.711 509.851,359.408 509.478,359.408C509.106,359.408 508.803,359.711 508.803,360.083C508.803,360.456 509.106,360.758 509.478,360.758ZM513.526,360.758C513.898,360.758 514.201,360.456 514.201,360.083C514.201,359.711 513.898,359.408 513.526,359.408C513.153,359.408 512.849,359.711 512.849,360.083C512.849,360.456 513.153,360.758 513.526,360.758ZM517.573,360.758C517.945,360.758 518.248,360.456 518.248,360.083C518.248,359.711 517.945,359.408 517.573,359.408C517.2,359.408 516.898,359.711 516.898,360.083C516.898,360.456 517.2,360.758 517.573,360.758ZM521.62,360.758C521.992,360.758 522.294,360.456 522.294,360.083C522.294,359.711 521.992,359.408 521.62,359.408C521.247,359.408 520.945,359.711 520.945,360.083C520.945,360.456 521.247,360.758 521.62,360.758ZM525.667,360.758C526.04,360.758 526.342,360.456 526.342,360.083C526.342,359.711 526.04,359.408 525.667,359.408C525.294,359.408 524.992,359.711 524.992,360.083C524.992,360.456 525.294,360.758 525.667,360.758ZM529.714,360.758C530.087,360.758 530.389,360.456 530.389,360.083C530.389,359.711 530.087,359.408 529.714,359.408C529.341,359.408 529.039,359.711 529.039,360.083C529.039,360.456 529.341,360.758 529.714,360.758ZM533.761,360.758C534.134,360.758 534.436,360.456 534.436,360.083C534.436,359.711 534.134,359.408 533.761,359.408C533.388,359.408 533.086,359.711 533.086,360.083C533.086,360.456 533.388,360.758 533.761,360.758ZM537.808,360.758C538.181,360.758 538.483,360.456 538.483,360.083C538.483,359.711 538.181,359.408 537.808,359.408C537.435,359.408 537.133,359.711 537.133,360.083C537.133,360.456 537.435,360.758 537.808,360.758ZM541.855,360.758C542.228,360.758 542.53,360.456 542.53,360.083C542.53,359.711 542.228,359.408 541.855,359.408C541.483,359.408 541.18,359.711 541.18,360.083C541.18,360.456 541.483,360.758 541.855,360.758ZM545.903,360.758C546.275,360.758 546.578,360.456 546.578,360.083C546.578,359.711 546.275,359.408 545.903,359.408C545.53,359.408 545.228,359.711 545.228,360.083C545.228,360.456 545.53,360.758 545.903,360.758ZM549.95,360.758C550.322,360.758 550.625,360.456 550.625,360.083C550.625,359.711 550.322,359.408 549.95,359.408C549.577,359.408 549.275,359.711 549.275,360.083C549.275,360.456 549.577,360.758 549.95,360.758ZM553.997,360.758C554.37,360.758 554.672,360.456 554.672,360.083C554.672,359.711 554.37,359.408 553.997,359.408C553.624,359.408 553.322,359.711 553.322,360.083C553.322,360.456 553.624,360.758 553.997,360.758ZM558.044,360.758C558.417,360.758 558.719,360.456 558.719,360.083C558.719,359.711 558.417,359.408 558.044,359.408C557.671,359.408 557.369,359.711 557.369,360.083C557.369,360.456 557.671,360.758 558.044,360.758ZM562.091,360.758C562.464,360.758 562.766,360.456 562.766,360.083C562.766,359.711 562.464,359.408 562.091,359.408C561.718,359.408 561.416,359.711 561.416,360.083C561.416,360.456 561.718,360.758 562.091,360.758ZM566.138,360.758C566.511,360.758 566.813,360.456 566.813,360.083C566.813,359.711 566.511,359.408 566.138,359.408C565.765,359.408 565.463,359.711 565.463,360.083C565.463,360.456 565.765,360.758 566.138,360.758ZM570.185,360.758C570.558,360.758 570.86,360.456 570.86,360.083C570.86,359.711 570.558,359.408 570.185,359.408C569.813,359.408 569.51,359.711 569.51,360.083C569.51,360.456 569.813,360.758 570.185,360.758ZM574.232,360.758C574.605,360.758 574.907,360.456 574.907,360.083C574.907,359.711 574.605,359.408 574.232,359.408C573.86,359.408 573.557,359.711 573.557,360.083C573.557,360.456 573.86,360.758 574.232,360.758ZM578.28,360.758C578.652,360.758 578.955,360.456 578.955,360.083C578.955,359.711 578.652,359.408 578.28,359.408C577.907,359.408 577.605,359.711 577.605,360.083C577.605,360.456 577.907,360.758 578.28,360.758Z" style="fill:rgb(150,150,152);fill-rule:nonzero;"/>
    </g>
    <g transform="matrix(4.16667,0,0,4.16667,-1166.87,-1041.05)">
        <path d="M323.985,360.083C323.985,359.906 323.913,359.732 323.788,359.606C323.662,359.48 323.488,359.408 323.31,359.408C323.133,359.408 322.959,359.48 322.833,359.606C322.707,359.732 322.635,359.906 322.635,360.083C322.635,360.261 322.707,360.435 322.833,360.561C322.959,360.686 323.133,360.758 323.31,360.758C323.488,360.758 323.662,360.686 323.788,360.561C323.913,360.435 323.985,360.261 323.985,360.083ZM583.002,360.083C583.002,359.906 582.93,359.732 582.804,359.606C582.679,359.48 582.505,359.408 582.327,359.408C582.149,359.408 581.975,359.48 581.85,359.606C581.724,359.732 581.652,359.906 581.652,360.083C581.652,360.261 581.724,360.435 581.85,360.561C581.975,360.686 582.149,360.758 582.327,360.758C582.505,360.758 582.679,360.686 582.804,360.561C582.93,360.435 583.002,360.261 583.002,360.083Z" style="fill:rgb(150,150,152);fill-rule:nonzero;"/>
    </g>
    <g transform="matrix(4.16667,0,0,4.16667,-1166.87,-1041.05)">
        <path d="M512.841,294.082C512.841,294.455 513.143,294.757 513.516,294.757C513.888,294.757 514.19,294.455 514.19,294.082C514.19,293.709 513.888,293.407 513.516,293.407C513.143,293.407 512.841,293.709 512.841,294.082ZM512.841,298.135C512.841,298.508 513.143,298.81 513.516,298.81C513.888,298.81 514.19,298.508 514.19,298.135C514.19,297.763 513.888,297.46 513.516,297.46C513.143,297.46 512.841,297.763 512.841,298.135ZM512.841,302.189C512.841,302.562 513.143,302.864 513.516,302.864C513.888,302.864 514.19,302.562 514.19,302.189C514.19,301.816 513.888,301.514 513.516,301.514C513.143,301.514 512.841,301.816 512.841,302.189ZM512.841,306.242C512.841,306.615 513.143,306.917 513.516,306.917C513.888,306.917 514.19,306.615 514.19,306.242C514.19,305.87 513.888,305.567 513.516,305.567C513.143,305.567 512.841,305.87 512.841,306.242ZM512.841,310.296C512.841,310.669 513.143,310.971 513.516,310.971C513.888,310.971 514.19,310.669 514.19,310.296C514.19,309.923 513.888,309.621 513.516,309.621C513.143,309.621 512.841,309.923 512.841,310.296ZM512.841,314.349C512.841,314.722 513.143,315.024 513.516,315.024C513.888,315.024 514.19,314.722 514.19,314.349C514.19,313.977 513.888,313.674 513.516,313.674C513.143,313.674 512.841,313.977 512.841,314.349ZM512.841,318.403C512.841,318.776 513.143,319.078 513.516,319.078C513.888,319.078 514.19,318.776 514.19,318.403C514.19,318.03 513.888,317.728 513.516,317.728C513.143,317.728 512.841,318.03 512.841,318.403ZM512.841,322.456C512.841,322.829 513.143,323.131 513.516,323.131C513.888,323.131 514.19,322.829 514.19,322.456C514.19,322.084 513.888,321.781 513.516,321.781C513.143,321.781 512.841,322.084 512.841,322.456ZM512.841,326.51C512.841,326.883 513.143,327.185 513.516,327.185C513.888,327.185 514.19,326.883 514.19,326.51C514.19,326.137 513.888,325.835 513.516,325.835C513.143,325.835 512.841,326.137 512.841,326.51ZM512.841,330.563C512.841,330.936 513.143,331.238 513.516,331.238C513.888,331.238 514.19,330.936 514.19,330.563C514.19,330.191 513.888,329.888 513.516,329.888C513.143,329.888 512.841,330.191 512.841,330.563ZM512.841,334.617C512.841,334.99 513.143,335.292 513.516,335.292C513.888,335.292 514.19,334.99 514.19,334.617C514.19,334.244 513.888,333.942 513.516,333.942C513.143,333.942 512.841,334.244 512.841,334.617ZM512.841,338.67C512.841,339.043 513.143,339.345 513.516,339.345C513.888,339.345 514.19,339.043 514.19,338.67C514.19,338.298 513.888,337.995 513.516,337.995C513.143,337.995 512.841,338.298 512.841,338.67ZM512.841,342.724C512.841,343.097 513.143,343.399 513.516,343.399C513.888,343.399 514.19,343.097 514.19,342.724C514.19,342.351 513.888,342.049 513.516,342.049C513.143,342.049 512.841,342.351 512.841,342.724ZM512.841,346.777C512.841,347.15 513.143,347.452 513.516,347.452C513.888,347.452 514.19,347.15 514.19,346.777C514.19,346.405 513.888,346.102 513.516,346.102C513.143,346.102 512.841,346.405 512.841,346.777ZM512.841,350.831C512.841,351.204 513.143,351.506 513.516,351.506C513.888,351.506 514.19,351.204 514.19,350.831C514.19,350.458 513.888,350.156 513.516,350.156C513.143,350.156 512.841,350.458 512.841,350.831ZM512.841,354.885C512.841,355.257 513.143,355.56 513.516,355.56C513.888,355.56 514.19,355.257 514.19,354.885C514.19,354.512 513.888,354.21 513.516,354.21C513.143,354.21 512.841,354.512 512.841,354.885ZM512.841,358.938C512.841,359.311 513.143,359.613 513.516,359.613C513.888,359.613 514.19,359.311 514.19,358.938C514.19,358.565 513.888,358.263 513.516,358.263C513.143,358.263 512.841,358.565 512.841,358.938ZM512.841,362.992C512.841,363.364 513.143,363.667 513.516,363.667C513.888,363.667 514.19,363.364 514.19,362.992C514.19,362.619 513.888,362.317 513.516,362.317C513.143,362.317 512.841,362.619 512.841,362.992ZM512.841,367.045C512.841,367.418 513.143,367.72 513.516,367.72C513.888,367.72 514.19,367.418 514.19,367.045C514.19,366.672 513.888,366.37 513.516,366.37C513.143,366.37 512.841,366.672 512.841,367.045ZM512.841,371.099C512.841,371.471 513.143,371.774 513.516,371.774C513.888,371.774 514.19,371.471 514.19,371.099C514.19,370.726 513.888,370.424 513.516,370.424C513.143,370.424 512.841,370.726 512.841,371.099ZM512.841,375.152C512.841,375.525 513.143,375.827 513.516,375.827C513.888,375.827 514.19,375.525 514.19,375.152C514.19,374.779 513.888,374.477 513.516,374.477C513.143,374.477 512.841,374.779 512.841,375.152ZM512.841,379.206C512.841,379.578 513.143,379.881 513.516,379.881C513.888,379.881 514.19,379.578 514.19,379.206C514.19,378.833 513.888,378.531 513.516,378.531C513.143,378.531 512.841,378.833 512.841,379.206ZM512.841,383.259C512.841,383.632 513.143,383.934 513.516,383.934C513.888,383.934 514.19,383.632 514.19,383.259C514.19,382.886 513.888,382.584 513.516,382.584C513.143,382.584 512.841,382.886 512.841,383.259ZM512.841,387.313C512.841,387.685 513.143,387.988 513.516,387.988C513.888,387.988 514.19,387.685 514.19,387.313C514.19,386.94 513.888,386.638 513.516,386.638C513.143,386.638 512.841,386.94 512.841,387.313ZM512.841,391.366C512.841,391.739 513.143,392.041 513.516,392.041C513.888,392.041 514.19,391.739 514.19,391.366C514.19,390.993 513.888,390.691 513.516,390.691C513.143,390.691 512.841,390.993 512.841,391.366ZM512.841,395.42C512.841,395.792 513.143,396.095 513.516,396.095C513.888,396.095 514.19,395.792 514.19,395.42C514.19,395.047 513.888,394.745 513.516,394.745C513.143,394.745 512.841,395.047 512.841,395.42ZM512.841,399.473C512.841,399.846 513.143,400.148 513.516,400.148C513.888,400.148 514.19,399.846 514.19,399.473C514.19,399.1 513.888,398.798 513.516,398.798C513.143,398.798 512.841,399.1 512.841,399.473ZM512.841,403.527C512.841,403.899 513.143,404.202 513.516,404.202C513.888,404.202 514.19,403.899 514.19,403.527C514.19,403.154 513.888,402.852 513.516,402.852C513.143,402.852 512.841,403.154 512.841,403.527ZM512.841,407.58C512.841,407.953 513.143,408.255 513.516,408.255C513.888,408.255 514.19,407.953 514.19,407.58C514.19,407.207 513.888,406.905 513.516,406.905C513.143,406.905 512.841,407.207 512.841,407.58ZM512.841,411.634C512.841,412.006 513.143,412.309 513.516,412.309C513.888,412.309 514.19,412.006 514.19,411.634C514.19,411.261 513.888,410.959 513.516,410.959C513.143,410.959 512.841,411.261 512.841,411.634ZM512.841,415.687C512.841,416.06 513.143,416.362 513.516,416.362C513.888,416.362 514.19,416.06 514.19,415.687C514.19,415.314 513.888,415.012 513.516,415.012C513.143,415.012 512.841,415.314 512.841,415.687ZM512.841,419.741C512.841,420.114 513.143,420.416 513.516,420.416C513.888,420.416 514.19,420.114 514.19,419.741C514.19,419.368 513.888,419.066 513.516,419.066C513.143,419.066 512.841,419.368 512.841,419.741Z" style="fill:rgb(150,150,152);fill-rule:nonzero;"/>
    </g>
    <g transform="matrix(4.16667,0,0,4.16667,-1166.87,-1041.05)">
        <path d="M513.516,290.703C513.693,290.703 513.867,290.631 513.994,290.506C514.119,290.38 514.19,290.206 514.19,290.028C514.19,289.851 514.119,289.677 513.994,289.551C513.867,289.425 513.693,289.353 513.516,289.353C513.339,289.353 513.164,289.425 513.039,289.551C512.913,289.677 512.841,289.851 512.841,290.028C512.841,290.206 512.913,290.38 513.039,290.506C513.164,290.631 513.339,290.703 513.516,290.703ZM513.516,424.469C513.693,424.469 513.867,424.397 513.994,424.272C514.119,424.146 514.19,423.972 514.19,423.794C514.19,423.616 514.119,423.443 513.994,423.317C513.867,423.191 513.693,423.119 513.516,423.119C513.339,423.119 513.164,423.191 513.039,423.317C512.913,423.443 512.841,423.616 512.841,423.794C512.841,423.972 512.913,424.146 513.039,424.272C513.164,424.397 513.339,424.469 513.516,424.469Z" style="fill:rgb(150,150,152);fill-rule:nonzero;"/>
    </g>
    <g transform="matrix(4.16667,0,0,4.16667,-1166.87,-1041.05)">
        <path d="M327.358,325.731C327.73,325.731 328.033,325.429 328.033,325.056C328.033,324.683 327.73,324.381 327.358,324.381C326.985,324.381 326.683,324.683 326.683,325.056C326.683,325.429 326.985,325.731 327.358,325.731ZM331.405,325.731C331.777,325.731 332.08,325.429 332.08,325.056C332.08,324.683 331.777,324.381 331.405,324.381C331.032,324.381 330.73,324.683 330.73,325.056C330.73,325.429 331.032,325.731 331.405,325.731ZM335.452,325.731C335.825,325.731 336.127,325.429 336.127,325.056C336.127,324.683 335.825,324.381 335.452,324.381C335.079,324.381 334.777,324.683 334.777,325.056C334.777,325.429 335.079,325.731 335.452,325.731ZM339.499,325.731C339.872,325.731 340.174,325.429 340.174,325.056C340.174,324.683 339.872,324.381 339.499,324.381C339.126,324.381 338.824,324.683 338.824,325.056C338.824,325.429 339.126,325.731 339.499,325.731ZM343.546,325.731C343.919,325.731 344.221,325.429 344.221,325.056C344.221,324.683 343.919,324.381 343.546,324.381C343.173,324.381 342.871,324.683 342.871,325.056C342.871,325.429 343.173,325.731 343.546,325.731ZM347.593,325.731C347.966,325.731 348.268,325.429 348.268,325.056C348.268,324.683 347.966,324.381 347.593,324.381C347.22,324.381 346.918,324.683 346.918,325.056C346.918,325.429 347.22,325.731 347.593,325.731ZM351.64,325.731C352.013,325.731 352.315,325.429 352.315,325.056C352.315,324.683 352.013,324.381 351.64,324.381C351.268,324.381 350.965,324.683 350.965,325.056C350.965,325.429 351.268,325.731 351.64,325.731ZM355.687,325.731C356.06,325.731 356.362,325.429 356.362,325.056C356.362,324.683 356.06,324.381 355.687,324.381C355.315,324.381 355.012,324.683 355.012,325.056C355.012,325.429 355.315,325.731 355.687,325.731ZM359.735,325.731C360.107,325.731 360.41,325.429 360.41,325.056C360.41,324.683 360.107,324.381 359.735,324.381C359.362,324.381 359.06,324.683 359.06,325.056C359.06,325.429 359.362,325.731 359.735,325.731ZM363.782,325.731C364.155,325.731 364.457,325.429 364.457,325.056C364.457,324.683 364.155,324.381 363.782,324.381C363.409,324.381 363.107,324.683 363.107,325.056C363.107,325.429 363.409,325.731 363.782,325.731ZM367.829,325.731C368.202,325.731 368.504,325.429 368.504,325.056C368.504,324.683 368.202,324.381 367.829,324.381C367.456,324.381 367.154,324.683 367.154,325.056C367.154,325.429 367.456,325.731 367.829,325.731ZM371.876,325.731C372.249,325.731 372.551,325.429 372.551,325.056C372.551,324.683 372.249,324.381 371.876,324.381C371.503,324.381 371.201,324.683 371.201,325.056C371.201,325.429 371.503,325.731 371.876,325.731ZM375.923,325.731C376.296,325.731 376.598,325.429 376.598,325.056C376.598,324.683 376.296,324.381 375.923,324.381C375.55,324.381 375.248,324.683 375.248,325.056C375.248,325.429 375.55,325.731 375.923,325.731ZM379.97,325.731C380.343,325.731 380.645,325.429 380.645,325.056C380.645,324.683 380.343,324.381 379.97,324.381C379.597,324.381 379.295,324.683 379.295,325.056C379.295,325.429 379.597,325.731 379.97,325.731ZM384.017,325.731C384.39,325.731 384.692,325.429 384.692,325.056C384.692,324.683 384.39,324.381 384.017,324.381C383.645,324.381 383.342,324.683 383.342,325.056C383.342,325.429 383.645,325.731 384.017,325.731ZM388.065,325.731C388.437,325.731 388.74,325.429 388.74,325.056C388.74,324.683 388.437,324.381 388.065,324.381C387.692,324.381 387.389,324.683 387.389,325.056C387.389,325.429 387.692,325.731 388.065,325.731ZM392.112,325.731C392.484,325.731 392.787,325.429 392.787,325.056C392.787,324.683 392.484,324.381 392.112,324.381C391.739,324.381 391.437,324.683 391.437,325.056C391.437,325.429 391.739,325.731 392.112,325.731ZM396.159,325.731C396.532,325.731 396.834,325.429 396.834,325.056C396.834,324.683 396.532,324.381 396.159,324.381C395.786,324.381 395.484,324.683 395.484,325.056C395.484,325.429 395.786,325.731 396.159,325.731ZM400.206,325.731C400.579,325.731 400.881,325.429 400.881,325.056C400.881,324.683 400.579,324.381 400.206,324.381C399.833,324.381 399.531,324.683 399.531,325.056C399.531,325.429 399.833,325.731 400.206,325.731ZM404.253,325.731C404.626,325.731 404.928,325.429 404.928,325.056C404.928,324.683 404.626,324.381 404.253,324.381C403.88,324.381 403.578,324.683 403.578,325.056C403.578,325.429 403.88,325.731 404.253,325.731ZM408.3,325.731C408.673,325.731 408.975,325.429 408.975,325.056C408.975,324.683 408.673,324.381 408.3,324.381C407.927,324.381 407.625,324.683 407.625,325.056C407.625,325.429 407.927,325.731 408.3,325.731ZM412.347,325.731C412.72,325.731 413.022,325.429 413.022,325.056C413.022,324.683 412.72,324.381 412.347,324.381C411.974,324.381 411.672,324.683 411.672,325.056C411.672,325.429 411.974,325.731 412.347,325.731ZM416.394,325.731C416.767,325.731 417.069,325.429 417.069,325.056C417.069,324.683 416.767,324.381 416.394,324.381C416.022,324.381 415.719,324.683 415.719,325.056C415.719,325.429 416.022,325.731 416.394,325.731ZM420.442,325.731C420.814,325.731 421.117,325.429 421.117,325.056C421.117,324.683 420.814,324.381 420.442,324.381C420.069,324.381 419.767,324.683 419.767,325.056C419.767,325.429 420.069,325.731 420.442,325.731ZM424.489,325.731C424.861,325.731 425.164,325.429 425.164,325.056C425.164,324.683 424.861,324.381 424.489,324.381C424.116,324.381 423.814,324.683 423.814,325.056C423.814,325.429 424.116,325.731 424.489,325.731ZM428.536,325.731C428.909,325.731 429.211,325.429 429.211,325.056C429.211,324.683 428.909,324.381 428.536,324.381C428.163,324.381 427.861,324.683 427.861,325.056C427.861,325.429 428.163,325.731 428.536,325.731ZM432.583,325.731C432.956,325.731 433.258,325.429 433.258,325.056C433.258,324.683 432.956,324.381 432.583,324.381C432.21,324.381 431.908,324.683 431.908,325.056C431.908,325.429 432.21,325.731 432.583,325.731ZM436.63,325.731C437.003,325.731 437.305,325.429 437.305,325.056C437.305,324.683 437.003,324.381 436.63,324.381C436.257,324.381 435.955,324.683 435.955,325.056C435.955,325.429 436.257,325.731 436.63,325.731ZM440.677,325.731C441.05,325.731 441.352,325.429 441.352,325.056C441.352,324.683 441.05,324.381 440.677,324.381C440.304,324.381 440.002,324.683 440.002,325.056C440.002,325.429 440.304,325.731 440.677,325.731ZM444.724,325.731C445.097,325.731 445.399,325.429 445.399,325.056C445.399,324.683 445.097,324.381 444.724,324.381C444.352,324.381 444.049,324.683 444.049,325.056C444.049,325.429 444.352,325.731 444.724,325.731ZM448.771,325.731C449.144,325.731 449.446,325.429 449.446,325.056C449.446,324.683 449.144,324.381 448.771,324.381C448.399,324.381 448.096,324.683 448.096,325.056C448.096,325.429 448.399,325.731 448.771,325.731ZM452.819,325.731C453.191,325.731 453.494,325.429 453.494,325.056C453.494,324.683 453.191,324.381 452.819,324.381C452.446,324.381 452.144,324.683 452.144,325.056C452.144,325.429 452.446,325.731 452.819,325.731ZM456.866,325.731C457.238,325.731 457.541,325.429 457.541,325.056C457.541,324.683 457.238,324.381 456.866,324.381C456.493,324.381 456.191,324.683 456.191,325.056C456.191,325.429 456.493,325.731 456.866,325.731ZM460.913,325.731C461.286,325.731 461.588,325.429 461.588,325.056C461.588,324.683 461.286,324.381 460.913,324.381C460.54,324.381 460.238,324.683 460.238,325.056C460.238,325.429 460.54,325.731 460.913,325.731ZM464.96,325.731C465.333,325.731 465.635,325.429 465.635,325.056C465.635,324.683 465.333,324.381 464.96,324.381C464.587,324.381 464.285,324.683 464.285,325.056C464.285,325.429 464.587,325.731 464.96,325.731ZM469.007,325.731C469.38,325.731 469.682,325.429 469.682,325.056C469.682,324.683 469.38,324.381 469.007,324.381C468.634,324.381 468.332,324.683 468.332,325.056C468.332,325.429 468.634,325.731 469.007,325.731ZM473.054,325.731C473.427,325.731 473.729,325.429 473.729,325.056C473.729,324.683 473.427,324.381 473.054,324.381C472.681,324.381 472.379,324.683 472.379,325.056C472.379,325.429 472.681,325.731 473.054,325.731ZM477.101,325.731C477.474,325.731 477.776,325.429 477.776,325.056C477.776,324.683 477.474,324.381 477.101,324.381C476.729,324.381 476.426,324.683 476.426,325.056C476.426,325.429 476.729,325.731 477.101,325.731ZM481.148,325.731C481.521,325.731 481.823,325.429 481.823,325.056C481.823,324.683 481.521,324.381 481.148,324.381C480.776,324.381 480.473,324.683 480.473,325.056C480.473,325.429 480.776,325.731 481.148,325.731ZM485.196,325.731C485.568,325.731 485.871,325.429 485.871,325.056C485.871,324.683 485.568,324.381 485.196,324.381C484.823,324.381 484.521,324.683 484.521,325.056C484.521,325.429 484.823,325.731 485.196,325.731ZM489.243,325.731C489.616,325.731 489.918,325.429 489.918,325.056C489.918,324.683 489.616,324.381 489.243,324.381C488.87,324.381 488.568,324.683 488.568,325.056C488.568,325.429 488.87,325.731 489.243,325.731ZM493.29,325.731C493.663,325.731 493.965,325.429 493.965,325.056C493.965,324.683 493.663,324.381 493.29,324.381C492.917,324.381 492.615,324.683 492.615,325.056C492.615,325.429 492.917,325.731 493.29,325.731ZM497.337,325.731C497.71,325.731 498.012,325.429 498.012,325.056C498.012,324.683 497.71,324.381 497.337,324.381C496.964,324.381 496.662,324.683 496.662,325.056C496.662,325.429 496.964,325.731 497.337,325.731ZM501.384,325.731C501.757,325.731 502.059,325.429 502.059,325.056C502.059,324.683 501.757,324.381 501.384,324.381C501.011,324.381 500.709,324.683 500.709,325.056C500.709,325.429 501.011,325.731 501.384,325.731ZM505.431,325.731C505.804,325.731 506.106,325.429 506.106,325.056C506.106,324.683 505.804,324.381 505.431,324.381C505.058,324.381 504.756,324.683 504.756,325.056C504.756,325.429 505.058,325.731 505.431,325.731ZM509.478,325.731C509.851,325.731 510.153,325.429 510.153,325.056C510.153,324.683 509.851,324.381 509.478,324.381C509.106,324.381 508.803,324.683 508.803,325.056C508.803,325.429 509.106,325.731 509.478,325.731ZM513.526,325.731C513.898,325.731 514.201,325.429 514.201,325.056C514.201,324.683 513.898,324.381 513.526,324.381C513.153,324.381 512.849,324.683 512.849,325.056C512.849,325.429 513.153,325.731 513.526,325.731ZM517.573,325.731C517.945,325.731 518.248,325.429 518.248,325.056C518.248,324.683 517.945,324.381 517.573,324.381C517.2,324.381 516.898,324.683 516.898,325.056C516.898,325.429 517.2,325.731 517.573,325.731ZM521.62,325.731C521.992,325.731 522.294,325.429 522.294,325.056C522.294,324.683 521.992,324.381 521.62,324.381C521.247,324.381 520.945,324.683 520.945,325.056C520.945,325.429 521.247,325.731 521.62,325.731ZM525.667,325.731C526.04,325.731 526.342,325.429 526.342,325.056C526.342,324.683 526.04,324.381 525.667,324.381C525.294,324.381 524.992,324.683 524.992,325.056C524.992,325.429 525.294,325.731 525.667,325.731ZM529.714,325.731C530.087,325.731 530.389,325.429 530.389,325.056C530.389,324.683 530.087,324.381 529.714,324.381C529.341,324.381 529.039,324.683 529.039,325.056C529.039,325.429 529.341,325.731 529.714,325.731ZM533.761,325.731C534.134,325.731 534.436,325.429 534.436,325.056C534.436,324.683 534.134,324.381 533.761,324.381C533.388,324.381 533.086,324.683 533.086,325.056C533.086,325.429 533.388,325.731 533.761,325.731ZM537.808,325.731C538.181,325.731 538.483,325.429 538.483,325.056C538.483,324.683 538.181,324.381 537.808,324.381C537.435,324.381 537.133,324.683 537.133,325.056C537.133,325.429 537.435,325.731 537.808,325.731ZM541.855,325.731C542.228,325.731 542.53,325.429 542.53,325.056C542.53,324.683 542.228,324.381 541.855,324.381C541.483,324.381 541.18,324.683 541.18,325.056C541.18,325.429 541.483,325.731 541.855,325.731ZM545.903,325.731C546.275,325.731 546.578,325.429 546.578,325.056C546.578,324.683 546.275,324.381 545.903,324.381C545.53,324.381 545.228,324.683 545.228,325.056C545.228,325.429 545.53,325.731 545.903,325.731ZM549.95,325.731C550.322,325.731 550.625,325.429 550.625,325.056C550.625,324.683 550.322,324.381 549.95,324.381C549.577,324.381 549.275,324.683 549.275,325.056C549.275,325.429 549.577,325.731 549.95,325.731ZM553.997,325.731C554.37,325.731 554.672,325.429 554.672,325.056C554.672,324.683 554.37,324.381 553.997,324.381C553.624,324.381 553.322,324.683 553.322,325.056C553.322,325.429 553.624,325.731 553.997,325.731ZM558.044,325.731C558.417,325.731 558.719,325.429 558.719,325.056C558.719,324.683 558.417,324.381 558.044,324.381C557.671,324.381 557.369,324.683 557.369,325.056C557.369,325.429 557.671,325.731 558.044,325.731ZM562.091,325.731C562.464,325.731 562.766,325.429 562.766,325.056C562.766,324.683 562.464,324.381 562.091,324.381C561.718,324.381 561.416,324.683 561.416,325.056C561.416,325.429 561.718,325.731 562.091,325.731ZM566.138,325.731C566.511,325.731 566.813,325.429 566.813,325.056C566.813,324.683 566.511,324.381 566.138,324.381C565.765,324.381 565.463,324.683 565.463,325.056C565.463,325.429 565.765,325.731 566.138,325.731ZM570.185,325.731C570.558,325.731 570.86,325.429 570.86,325.056C570.86,324.683 570.558,324.381 570.185,324.381C569.813,324.381 569.51,324.683 569.51,325.056C569.51,325.429 569.813,325.731 570.185,325.731ZM574.232,325.731C574.605,325.731 574.907,325.429 574.907,325.056C574.907,324.683 574.605,324.381 574.232,324.381C573.86,324.381 573.557,324.683 573.557,325.056C573.557,325.429 573.86,325.731 574.232,325.731ZM578.28,325.731C578.652,325.731 578.955,325.429 578.955,325.056C578.955,324.683 578.652,324.381 578.28,324.381C577.907,324.381 577.605,324.683 577.605,325.056C577.605,325.429 577.907,325.731 578.28,325.731Z" style="fill:rgb(150,150,152);fill-rule:nonzero;"/>
    </g>
    <g transform="matrix(4.16667,0,0,4.16667,-1166.87,-1041.05)">
        <path d="M323.985,325.056C323.985,324.878 323.913,324.704 323.788,324.579C323.662,324.453 323.488,324.381 323.31,324.381C323.133,324.381 322.959,324.453 322.833,324.579C322.707,324.704 322.635,324.878 322.635,325.056C322.635,325.234 322.707,325.408 322.833,325.533C322.959,325.659 323.133,325.731 323.31,325.731C323.488,325.731 323.662,325.659 323.788,325.533C323.913,325.408 323.985,325.234 323.985,325.056ZM583.002,325.056C583.002,324.878 582.93,324.704 582.804,324.579C582.679,324.453 582.505,324.381 582.327,324.381C582.149,324.381 581.975,324.453 581.85,324.579C581.724,324.704 581.652,324.878 581.652,325.056C581.652,325.234 581.724,325.408 581.85,325.533C581.975,325.659 582.149,325.731 582.327,325.731C582.505,325.731 582.679,325.659 582.804,325.533C582.93,325.408 583.002,325.234 583.002,325.056Z" style="fill:rgb(150,150,152);fill-rule:nonzero;"/>
    </g>
</svg>
