<?xml version="1.0" encoding="UTF-8" standalone="no"?>
<!DOCTYPE svg PUBLIC "-//W3C//DTD SVG 1.1//EN" "http://www.w3.org/Graphics/SVG/1.1/DTD/svg11.dtd">
<svg width="100%" height="100%" viewBox="0 0 780 170" version="1.1" xmlns="http://www.w3.org/2000/svg" xmlns:xlink="http://www.w3.org/1999/xlink" xml:space="preserve" xmlns:serif="http://www.serif.com/" style="fill-rule:evenodd;clip-rule:evenodd;stroke-linejoin:round;stroke-miterlimit:2;">
    <g transform="matrix(4.16667,0,0,4.16667,-3235.37,-4631.21)">
        <path d="M810.685,1121.43L793.517,1121.43C793.099,1121.43 792.723,1121.5 792.391,1121.65C792.058,1121.81 791.773,1122.01 791.536,1122.27C791.298,1122.52 791.112,1122.82 790.979,1123.15C790.846,1123.48 790.78,1123.83 790.78,1124.19L790.78,1128.27C790.78,1129.09 790.894,1129.79 791.122,1130.38C791.35,1130.97 791.664,1131.45 792.063,1131.81C792.462,1132.17 792.928,1132.43 793.46,1132.6C793.992,1132.78 794.563,1132.86 795.171,1132.86C795.552,1132.86 795.922,1132.83 796.284,1132.78L808.09,1131.01L790.78,1135.43L790.78,1141.39L805.409,1141.39C806.131,1141.39 806.816,1141.25 807.462,1140.97C808.108,1140.7 808.669,1140.33 809.145,1139.86C809.62,1139.4 809.995,1138.85 810.271,1138.21C810.547,1137.57 810.685,1136.89 810.685,1136.17L810.685,1130.52C810.685,1129.84 810.471,1129.24 810.043,1128.73C809.615,1128.21 809.069,1127.87 808.403,1127.7L793.004,1123.56L806.835,1126.07C807.063,1126.11 807.281,1126.13 807.491,1126.13C807.757,1126.13 808.071,1126.09 808.432,1126C808.793,1125.92 809.154,1125.74 809.516,1125.48C809.877,1125.21 810.162,1124.87 810.371,1124.46C810.58,1124.05 810.685,1123.59 810.685,1123.08L810.685,1121.43ZM813.822,1121.43L813.822,1128.53C813.822,1128.72 813.864,1128.89 813.95,1129.04C814.035,1129.19 814.145,1129.32 814.278,1129.41C814.411,1129.51 814.53,1129.56 814.634,1129.58C814.739,1129.6 814.82,1129.61 814.877,1129.61C814.991,1129.61 815.114,1129.58 815.247,1129.52L831.445,1122.82L815.789,1130.95C815.181,1131.27 814.701,1131.73 814.349,1132.31C813.997,1132.89 813.822,1133.51 813.822,1134.17L813.822,1139.36C813.822,1139.93 814.021,1140.41 814.42,1140.8C814.82,1141.19 815.295,1141.39 815.846,1141.39L833.955,1141.39L833.955,1121.43L813.822,1121.43ZM821.322,1138.28C821.169,1138.47 821.008,1138.64 820.837,1138.79C820.666,1138.95 820.485,1139.02 820.295,1139.02C820.143,1139.02 819.971,1138.95 819.782,1138.79C819.572,1138.6 819.468,1138.41 819.468,1138.22C819.468,1138.15 819.506,1138.02 819.582,1137.84C819.658,1137.66 819.848,1137.4 820.152,1137.05L833.242,1122.42L821.322,1138.28ZM837.091,1141.39L845.589,1141.39L845.589,1140.96C845.589,1140.1 845.537,1139.29 845.433,1138.52C845.328,1137.75 845.143,1136.89 844.877,1135.94L841.483,1123.85L845.39,1134.2C845.599,1134.79 845.889,1135.28 846.26,1135.67C846.63,1136.06 847.034,1136.25 847.472,1136.25C847.757,1136.25 848.051,1136.15 848.356,1135.94C848.659,1135.73 848.964,1135.4 849.268,1134.94L855.513,1125.45L849.382,1136.94C849.211,1137.28 849.064,1137.65 848.94,1138.05C848.816,1138.45 848.721,1138.85 848.655,1139.25C848.588,1139.65 848.541,1140.03 848.512,1140.4C848.484,1140.77 848.47,1141.1 848.47,1141.39L857.196,1141.39L857.196,1121.43L851.977,1121.43C851.426,1121.43 850.96,1121.59 850.58,1121.92C850.199,1122.26 849.953,1122.7 849.839,1123.25L848.156,1131.69L848.641,1123.65L848.641,1123.51C848.641,1123.26 848.593,1123.01 848.498,1122.75C848.403,1122.5 848.256,1122.27 848.056,1122.07C847.857,1121.87 847.624,1121.71 847.358,1121.6C847.091,1121.48 846.806,1121.43 846.502,1121.43L837.091,1121.43L837.091,1141.39ZM880.152,1121.43L860.333,1121.43L860.333,1141.39L868.974,1141.39C869.182,1141.39 869.373,1141.34 869.544,1141.23C869.715,1141.13 869.848,1140.99 869.943,1140.82C870.038,1140.65 870.095,1140.5 870.114,1140.38C870.133,1140.25 870.143,1140.16 870.143,1140.1C870.143,1139.95 870.114,1139.81 870.057,1139.68L864.24,1123.45L868.717,1132.98C869.211,1134.04 869.933,1134.86 870.884,1135.43C871.835,1136 872.852,1136.28 873.936,1136.28C874.943,1136.28 875.903,1136.03 876.816,1135.51L877.015,1135.4C878.023,1134.81 878.798,1134.02 879.34,1133.02C879.881,1132.02 880.152,1130.95 880.152,1129.81L880.152,1121.43ZM876.645,1132.98C876.492,1132.98 876.335,1132.93 876.174,1132.83C876.012,1132.74 875.865,1132.61 875.732,1132.46L866.15,1122.74L876.958,1131.41C877.167,1131.58 877.301,1131.73 877.358,1131.88C877.415,1132.02 877.443,1132.13 877.443,1132.21C877.443,1132.36 877.367,1132.52 877.215,1132.69C877.044,1132.88 876.854,1132.98 876.645,1132.98ZM903.137,1121.43L883.289,1121.43L883.289,1141.39L903.137,1141.39L903.137,1132.72C903.137,1132.22 902.966,1131.81 902.623,1131.46C902.281,1131.12 901.863,1130.95 901.369,1130.95L900.171,1130.95C899.505,1130.95 898.906,1131.16 898.374,1131.58L889.277,1139.05L903.137,1124.28L903.137,1121.43ZM906.274,1121.43L906.274,1141.39L926.179,1141.39L926.179,1132.32C926.179,1132.02 926.069,1131.76 925.851,1131.55C925.632,1131.34 925.38,1131.24 925.095,1131.24C924.943,1131.24 924.8,1131.27 924.667,1131.35L908.612,1139.14L917.338,1133.72C918.878,1132.77 919.648,1131.84 919.648,1130.95C919.648,1130.91 919.634,1130.66 919.605,1130.18C919.577,1129.71 918.821,1129.07 917.338,1128.27L907.985,1123.34L922.956,1129.33C923.355,1129.48 923.764,1129.55 924.182,1129.55C924.696,1129.55 925.156,1129.42 925.565,1129.17C925.974,1128.91 926.179,1128.48 926.179,1127.87L926.179,1121.43L906.274,1121.43ZM949.22,1124.42C949.22,1124 949.144,1123.61 948.992,1123.25C948.84,1122.89 948.626,1122.57 948.351,1122.3C948.075,1122.02 947.756,1121.81 947.395,1121.65C947.034,1121.5 946.644,1121.43 946.226,1121.43L929.315,1121.43L929.315,1141.36L934.363,1141.36C934.743,1141.36 935.009,1141.24 935.161,1140.99C935.313,1140.74 935.39,1140.52 935.39,1140.33C935.39,1140.18 935.342,1140.02 935.247,1139.85L932.68,1135L936.587,1140.3C936.815,1140.63 937.086,1140.88 937.4,1141.07C937.714,1141.26 938.06,1141.36 938.441,1141.36L949.22,1141.36L949.22,1139.25C949.22,1138.98 949.139,1138.74 948.978,1138.51C948.816,1138.28 948.612,1138.1 948.365,1137.97L935.931,1130.98L945.171,1134.89C945.456,1135 945.798,1135.06 946.198,1135.06C946.54,1135.06 946.886,1135 947.238,1134.9C947.59,1134.8 947.913,1134.63 948.208,1134.42C948.503,1134.2 948.745,1133.91 948.935,1133.56C949.125,1133.21 949.22,1132.79 949.22,1132.32L949.22,1124.42ZM932.737,1124.31L946.568,1129.98C946.777,1130.08 946.934,1130.19 947.039,1130.34C947.143,1130.48 947.196,1130.61 947.196,1130.72C947.196,1130.84 947.167,1130.95 947.11,1131.06C946.958,1131.35 946.73,1131.49 946.426,1131.49C946.235,1131.49 946.007,1131.43 945.741,1131.29L932.737,1124.31Z" style="fill:white;fill-rule:nonzero;"/>
    </g>
</svg>
