<?xml version="1.0" encoding="UTF-8" standalone="no"?>
<!DOCTYPE svg PUBLIC "-//W3C//DTD SVG 1.1//EN" "http://www.w3.org/Graphics/SVG/1.1/DTD/svg11.dtd">
<svg width="100%" height="100%" viewBox="0 0 800 600" version="1.1" xmlns="http://www.w3.org/2000/svg" xmlns:xlink="http://www.w3.org/1999/xlink" xml:space="preserve" xmlns:serif="http://www.serif.com/" style="fill-rule:evenodd;clip-rule:evenodd;stroke-linecap:round;stroke-linejoin:round;stroke-miterlimit:1.5;">
    <path d="M0,300L800,300" style="fill:none;stroke:white;stroke-width:3px;"/>
    <g transform="matrix(1,0,0,1,0,-100)">
        <path d="M0,300L800,300" style="fill:none;stroke:white;stroke-width:3px;"/>
    </g>
    <g transform="matrix(1,0,0,1,0,200)">
        <path d="M0,300L800,300" style="fill:none;stroke:white;stroke-width:3px;"/>
    </g>
    <g transform="matrix(1,0,0,1,0,-250)">
        <path d="M0,300L800,300" style="fill:none;stroke:white;stroke-width:3px;"/>
    </g>
    <g transform="matrix(1,0,0,1,0,50)">
        <path d="M0,300L800,300" style="fill:none;stroke:white;stroke-width:3px;"/>
    </g>
    <g transform="matrix(1,0,0,1,-0.148928,-50)">
        <path d="M0,300L800,300" style="fill:none;stroke:white;stroke-width:3px;"/>
    </g>
    <g transform="matrix(1,0,0,1,-0.148928,250)">
        <path d="M0,300L800,300" style="fill:none;stroke:white;stroke-width:3px;"/>
    </g>
    <g transform="matrix(1,0,0,1,-0.148928,-200)">
        <path d="M0,300L800,300" style="fill:none;stroke:white;stroke-width:3px;"/>
    </g>
    <g transform="matrix(1,0,0,1,-0.148928,100)">
        <path d="M0,300L800,300" style="fill:none;stroke:white;stroke-width:3px;"/>
    </g>
    <g transform="matrix(1,0,0,1,-0.148928,-150)">
        <path d="M0,300L800,300" style="fill:none;stroke:white;stroke-width:3px;"/>
    </g>
    <g transform="matrix(1,0,0,1,-0.148928,150)">
        <path d="M0,300L800,300" style="fill:none;stroke:white;stroke-width:3px;"/>
    </g>
</svg>
