<?xml version="1.0" encoding="UTF-8" standalone="no"?>
<!DOCTYPE svg PUBLIC "-//W3C//DTD SVG 1.1//EN" "http://www.w3.org/Graphics/SVG/1.1/DTD/svg11.dtd">
<svg width="100%" height="100%" viewBox="0 0 150 72" version="1.1" xmlns="http://www.w3.org/2000/svg" xmlns:xlink="http://www.w3.org/1999/xlink" xml:space="preserve" xmlns:serif="http://www.serif.com/" style="fill-rule:evenodd;clip-rule:evenodd;stroke-linejoin:round;stroke-miterlimit:2;">
    <g transform="matrix(4.16667,0,0,4.16667,-1912.27,-525.371)">
        <rect x="458.944" y="126.089" width="17.192" height="17.192" style="fill:white;"/>
        <g transform="matrix(1,0,0,1,95.8891,-0.663033)">
            <g transform="matrix(0.242543,0,0,0.249605,370.141,126.752)">
                <rect x="49.889" y="0" width="21.111" height="21.111" style="fill:white;"/>
            </g>
            <g transform="matrix(0.242543,0,0,0.249605,370.141,132.827)">
                <rect x="49.889" y="0" width="21.111" height="21.111" style="fill:white;"/>
            </g>
            <g transform="matrix(0.242543,0,0,0.249605,370.141,138.858)">
                <rect x="49.889" y="0" width="21.111" height="21.111" style="fill:white;"/>
            </g>
            <g transform="matrix(0.242543,0,0,0.249605,375.987,126.752)">
                <rect x="49.889" y="0" width="21.111" height="21.111" style="fill:white;"/>
            </g>
            <g transform="matrix(0.242543,0,0,0.249605,375.987,132.827)">
                <rect x="49.889" y="0" width="21.111" height="21.111" style="fill:white;"/>
            </g>
            <g transform="matrix(0.242543,0,0,0.249605,375.987,138.858)">
                <rect x="49.889" y="0" width="21.111" height="21.111" style="fill:white;"/>
            </g>
            <g transform="matrix(0.242543,0,0,0.249605,381.835,126.752)">
                <rect x="49.889" y="0" width="21.111" height="21.111" style="fill:white;"/>
            </g>
            <g transform="matrix(0.242543,0,0,0.249605,381.835,132.827)">
                <rect x="49.889" y="0" width="21.111" height="21.111" style="fill:white;"/>
            </g>
            <g transform="matrix(0.242543,0,0,0.249605,381.835,138.858)">
                <rect x="49.889" y="0" width="21.111" height="21.111" style="fill:white;"/>
            </g>
        </g>
    </g>
</svg>
