<?xml version="1.0" encoding="UTF-8" standalone="no"?>
<!DOCTYPE svg PUBLIC "-//W3C//DTD SVG 1.1//EN" "http://www.w3.org/Graphics/SVG/1.1/DTD/svg11.dtd">
<svg width="100%" height="100%" viewBox="0 0 567 170" version="1.1" xmlns="http://www.w3.org/2000/svg" xmlns:xlink="http://www.w3.org/1999/xlink" xml:space="preserve" xmlns:serif="http://www.serif.com/" style="fill-rule:evenodd;clip-rule:evenodd;stroke-linejoin:round;stroke-miterlimit:2;">
    <g transform="matrix(4.16667,0,0,4.16667,-3341.67,-4622.46)">
        <path d="M818.875,1109.39C818.819,1109.39 814.686,1109.38 810.473,1111.49C808.369,1112.54 806.241,1114.13 804.645,1116.52C803.047,1118.92 801.998,1122.1 802,1126.26L802,1133.13C802.004,1133.18 801.996,1137.32 804.096,1141.53C805.148,1143.63 806.74,1145.76 809.135,1147.36C811.529,1148.95 814.714,1150 818.875,1150L921.125,1150C921.181,1150 925.314,1150.01 929.527,1147.91C931.631,1146.85 933.759,1145.26 935.355,1142.87C936.953,1140.47 938.002,1137.29 938,1133.13L938,1126.26C937.996,1126.21 938.004,1122.07 935.904,1117.86C934.852,1115.76 933.26,1113.63 930.865,1112.03C928.471,1110.44 925.286,1109.39 921.125,1109.39L818.875,1109.39L818.875,1110.74L921.125,1110.74C925.064,1110.74 927.954,1111.72 930.116,1113.16C933.355,1115.31 934.997,1118.57 935.824,1121.33C936.237,1122.71 936.445,1123.95 936.548,1124.85C936.599,1125.29 936.625,1125.65 936.638,1125.9C936.644,1126.02 936.647,1126.12 936.649,1126.18L936.65,1126.26L936.65,1133.13C936.648,1137.07 935.672,1139.96 934.232,1142.12C932.075,1145.36 928.815,1147 926.057,1147.83C924.68,1148.24 923.437,1148.45 922.543,1148.55C922.096,1148.6 921.736,1148.63 921.491,1148.64C921.368,1148.65 921.274,1148.65 921.212,1148.65L818.875,1148.65C814.936,1148.65 812.046,1147.67 809.884,1146.23C806.645,1144.08 805.004,1140.82 804.176,1138.06C803.763,1136.68 803.555,1135.44 803.452,1134.54C803.401,1134.1 803.375,1133.74 803.362,1133.49C803.356,1133.37 803.353,1133.28 803.352,1133.21L803.35,1133.13L803.35,1126.26C803.352,1122.33 804.328,1119.44 805.768,1117.27C807.925,1114.03 811.185,1112.39 813.943,1111.56C815.32,1111.15 816.563,1110.94 817.457,1110.84C817.904,1110.79 818.264,1110.76 818.509,1110.75C818.632,1110.75 818.726,1110.74 818.788,1110.74L818.875,1110.74L818.875,1109.39Z" style="fill:white;fill-rule:nonzero;"/>
    </g>
    <g transform="matrix(4.16667,0,0,4.16667,-3341.67,-4622.46)">
        <path d="M827.203,1140.22L834.483,1140.22C834.679,1140.22 834.819,1140.16 834.959,1140.02L839.103,1135.88C839.243,1135.74 839.327,1135.6 839.327,1135.4L839.327,1132.99C839.327,1132.8 839.271,1132.66 839.103,1132.49L836.051,1129.44C835.911,1129.3 835.799,1129.24 835.575,1129.24L826.671,1129.24C826.027,1129.24 825.635,1128.85 825.635,1128.18L825.635,1126.02L828.855,1122.8L836.079,1122.8C836.751,1122.8 837.143,1123.19 837.143,1123.84L837.143,1126.72C837.143,1126.92 837.283,1127.03 837.451,1127.03L839.019,1127.03C839.187,1127.03 839.327,1126.92 839.327,1126.72L839.327,1124.37C839.327,1124.17 839.271,1124.01 839.131,1123.87L836.079,1120.81C835.939,1120.67 835.771,1120.62 835.575,1120.62L828.323,1120.62C828.127,1120.62 827.959,1120.67 827.819,1120.81L823.675,1124.96C823.535,1125.1 823.451,1125.24 823.451,1125.46L823.451,1127.67C823.451,1127.87 823.507,1128.01 823.675,1128.18L826.727,1131.23C826.867,1131.37 827.007,1131.43 827.231,1131.43L836.107,1131.43C836.751,1131.43 837.143,1131.82 837.143,1132.49L837.143,1134.81L833.923,1138.03L826.699,1138.03C826.055,1138.03 825.635,1137.64 825.635,1137L825.635,1134.11C825.635,1133.92 825.523,1133.81 825.327,1133.81L823.759,1133.81C823.591,1133.81 823.451,1133.92 823.451,1134.11L823.451,1136.47C823.451,1136.66 823.507,1136.83 823.647,1136.97L826.699,1140.02C826.839,1140.16 827.007,1140.22 827.203,1140.22ZM846.635,1140.33L854.335,1140.33C854.559,1140.33 854.699,1140.27 854.839,1140.11L857.891,1137.08C858.059,1136.91 858.115,1136.77 858.115,1136.58L858.115,1120.93C858.115,1120.73 857.975,1120.62 857.807,1120.62L856.239,1120.62C856.043,1120.62 855.931,1120.73 855.931,1120.93L855.931,1137.08C855.931,1137.73 855.511,1138.15 854.867,1138.15L846.103,1138.15C845.431,1138.15 845.039,1137.73 845.039,1137.08L845.039,1135.68C845.039,1135.51 844.899,1135.37 844.731,1135.37L843.163,1135.37C842.995,1135.37 842.855,1135.51 842.855,1135.68L842.855,1136.58C842.855,1136.77 842.911,1136.91 843.079,1137.08L846.131,1140.11C846.271,1140.27 846.411,1140.33 846.635,1140.33ZM846.607,1132.32L853.019,1132.32C853.215,1132.32 853.355,1132.27 853.523,1132.13L855.063,1130.75C855.371,1130.5 855.203,1130.14 854.839,1130.14L846.103,1130.14C845.431,1130.14 845.039,1129.75 845.039,1129.07L845.039,1120.93C845.039,1120.73 844.899,1120.62 844.731,1120.62L843.163,1120.62C842.995,1120.62 842.855,1120.73 842.855,1120.93L842.855,1128.57C842.855,1128.77 842.911,1128.93 843.051,1129.07L846.103,1132.13C846.243,1132.27 846.411,1132.32 846.607,1132.32ZM863.238,1140.22L864.806,1140.22C864.974,1140.22 865.114,1140.11 865.114,1139.91L865.114,1123.84C865.114,1123.19 865.506,1122.8 866.178,1122.8L872.898,1122.8L876.622,1126.5L876.622,1139.91C876.622,1140.11 876.734,1140.22 876.93,1140.22L878.47,1140.22C878.666,1140.22 878.778,1140.11 878.778,1139.91L878.778,1125.94C878.778,1125.71 878.722,1125.57 878.554,1125.43L873.962,1120.81C873.822,1120.67 873.654,1120.62 873.458,1120.62L866.654,1120.62C866.43,1120.62 866.318,1120.67 866.178,1120.81L863.126,1123.87C862.986,1124.01 862.93,1124.17 862.93,1124.37L862.93,1139.91C862.93,1140.11 863.07,1140.22 863.238,1140.22ZM890.034,1122.77L896.67,1122.77C896.838,1122.77 896.978,1122.63 896.978,1122.47L896.978,1120.9C896.978,1120.73 896.838,1120.59 896.67,1120.59L890.034,1120.59C889.866,1120.59 889.754,1120.73 889.754,1120.9L889.754,1122.47C889.754,1122.63 889.866,1122.77 890.034,1122.77ZM888.074,1140.22L889.642,1140.22C889.81,1140.22 889.922,1140.11 889.922,1139.91L889.922,1124.37C889.922,1124.17 889.866,1124.01 889.726,1123.87L886.702,1120.81C886.534,1120.67 886.394,1120.62 886.198,1120.62L881.018,1120.62C880.85,1120.62 880.738,1120.73 880.738,1120.93L880.738,1122.49C880.738,1122.66 880.85,1122.8 881.018,1122.8L886.702,1122.8C887.346,1122.8 887.766,1123.19 887.766,1123.84L887.766,1139.91C887.766,1140.11 887.878,1140.22 888.074,1140.22ZM900.198,1140.22L901.766,1140.22C901.934,1140.22 902.074,1140.08 902.074,1139.91L902.074,1132.6C902.074,1131.96 902.466,1131.54 903.138,1131.54L912.042,1131.54C912.238,1131.54 912.406,1131.48 912.546,1131.34L915.598,1128.32C915.738,1128.15 915.794,1128.01 915.794,1127.81L915.794,1120.93C915.794,1120.73 915.654,1120.62 915.486,1120.62L913.918,1120.62C913.75,1120.62 913.61,1120.73 913.61,1120.93L913.61,1128.32C913.61,1128.96 913.218,1129.38 912.546,1129.38L903.642,1129.38C903.446,1129.38 903.278,1129.44 903.138,1129.58L900.086,1132.63C899.946,1132.77 899.89,1132.91 899.89,1133.11L899.89,1139.91C899.89,1140.08 900.03,1140.22 900.198,1140.22ZM900.198,1129.19L901.766,1129.19C901.934,1129.19 902.074,1129.07 902.074,1128.88L902.074,1120.93C902.074,1120.73 901.934,1120.62 901.766,1120.62L900.198,1120.62C900.03,1120.62 899.89,1120.73 899.89,1120.93L899.89,1128.88C899.89,1129.07 900.03,1129.19 900.198,1129.19ZM913.918,1140.22L915.486,1140.22C915.654,1140.22 915.794,1140.11 915.794,1139.91L915.794,1132.04C915.794,1131.87 915.654,1131.73 915.486,1131.73L913.918,1131.73C913.75,1131.73 913.61,1131.87 913.61,1132.04L913.61,1139.91C913.61,1140.11 913.75,1140.22 913.918,1140.22Z" style="fill:white;fill-rule:nonzero;"/>
    </g>
</svg>
