<?xml version="1.0" encoding="UTF-8" standalone="no"?>
<!DOCTYPE svg PUBLIC "-//W3C//DTD SVG 1.1//EN" "http://www.w3.org/Graphics/SVG/1.1/DTD/svg11.dtd">
<svg width="100%" height="100%" viewBox="0 0 884 170" version="1.1" xmlns="http://www.w3.org/2000/svg" xmlns:xlink="http://www.w3.org/1999/xlink" xml:space="preserve" xmlns:serif="http://www.serif.com/" style="fill-rule:evenodd;clip-rule:evenodd;stroke-linejoin:round;stroke-miterlimit:2;">
    <g transform="matrix(4.16667,0,0,4.16667,-3183.33,-4628.21)">
        <path d="M781.927,1141.6L789.207,1141.6C789.403,1141.6 789.543,1141.54 789.683,1141.4L793.827,1137.26C793.967,1137.12 794.051,1136.98 794.051,1136.78L794.051,1134.37C794.051,1134.18 793.995,1134.04 793.827,1133.87L790.775,1130.82C790.635,1130.68 790.523,1130.62 790.299,1130.62L781.395,1130.62C780.751,1130.62 780.359,1130.23 780.359,1129.56L780.359,1127.4L783.579,1124.18L790.803,1124.18C791.475,1124.18 791.867,1124.57 791.867,1125.22L791.867,1128.1C791.867,1128.3 792.007,1128.41 792.175,1128.41L793.743,1128.41C793.911,1128.41 794.051,1128.3 794.051,1128.1L794.051,1125.75C794.051,1125.55 793.995,1125.38 793.855,1125.24L790.803,1122.19C790.663,1122.05 790.495,1122 790.299,1122L783.047,1122C782.851,1122 782.683,1122.05 782.543,1122.19L778.399,1126.34C778.259,1126.48 778.175,1126.62 778.175,1126.84L778.175,1129.05C778.175,1129.25 778.231,1129.39 778.399,1129.56L781.451,1132.61C781.591,1132.75 781.731,1132.8 781.955,1132.8L790.831,1132.8C791.475,1132.8 791.867,1133.2 791.867,1133.87L791.867,1136.19L788.647,1139.41L781.423,1139.41C780.779,1139.41 780.359,1139.02 780.359,1138.38L780.359,1135.49C780.359,1135.3 780.247,1135.18 780.051,1135.18L778.483,1135.18C778.315,1135.18 778.175,1135.3 778.175,1135.49L778.175,1137.84C778.175,1138.04 778.231,1138.21 778.371,1138.35L781.423,1141.4C781.563,1141.54 781.731,1141.6 781.927,1141.6ZM801.359,1141.71L809.059,1141.71C809.283,1141.71 809.423,1141.65 809.563,1141.48L812.615,1138.46C812.783,1138.29 812.839,1138.15 812.839,1137.96L812.839,1122.3C812.839,1122.11 812.699,1122 812.531,1122L810.963,1122C810.767,1122 810.655,1122.11 810.655,1122.3L810.655,1138.46C810.655,1139.1 810.235,1139.52 809.591,1139.52L800.827,1139.52C800.155,1139.52 799.763,1139.1 799.763,1138.46L799.763,1137.06C799.763,1136.89 799.623,1136.75 799.455,1136.75L797.887,1136.75C797.719,1136.75 797.579,1136.89 797.579,1137.06L797.579,1137.96C797.579,1138.15 797.635,1138.29 797.803,1138.46L800.855,1141.48C800.995,1141.65 801.135,1141.71 801.359,1141.71ZM801.331,1133.7L807.743,1133.7C807.939,1133.7 808.079,1133.64 808.247,1133.5L809.787,1132.13C810.095,1131.88 809.927,1131.52 809.563,1131.52L800.827,1131.52C800.155,1131.52 799.763,1131.12 799.763,1130.45L799.763,1122.3C799.763,1122.11 799.623,1122 799.455,1122L797.887,1122C797.719,1122 797.579,1122.11 797.579,1122.3L797.579,1129.95C797.579,1130.14 797.635,1130.31 797.775,1130.45L800.827,1133.5C800.967,1133.64 801.135,1133.7 801.331,1133.7ZM817.963,1141.6L819.531,1141.6C819.699,1141.6 819.839,1141.48 819.839,1141.29L819.839,1125.22C819.839,1124.57 820.231,1124.18 820.903,1124.18L827.623,1124.18L831.347,1127.88L831.347,1141.29C831.347,1141.48 831.459,1141.6 831.655,1141.6L833.195,1141.6C833.391,1141.6 833.503,1141.48 833.503,1141.29L833.503,1127.32C833.503,1127.09 833.447,1126.95 833.279,1126.81L828.687,1122.19C828.547,1122.05 828.379,1122 828.183,1122L821.379,1122C821.155,1122 821.043,1122.05 820.903,1122.19L817.851,1125.24C817.711,1125.38 817.655,1125.55 817.655,1125.75L817.655,1141.29C817.655,1141.48 817.795,1141.6 817.963,1141.6ZM844.758,1124.15L851.394,1124.15C851.562,1124.15 851.702,1124.01 851.702,1123.84L851.702,1122.28C851.702,1122.11 851.562,1121.97 851.394,1121.97L844.758,1121.97C844.59,1121.97 844.478,1122.11 844.478,1122.28L844.478,1123.84C844.478,1124.01 844.59,1124.15 844.758,1124.15ZM842.798,1141.6L844.366,1141.6C844.534,1141.6 844.646,1141.48 844.646,1141.29L844.646,1125.75C844.646,1125.55 844.59,1125.38 844.45,1125.24L841.426,1122.19C841.258,1122.05 841.118,1122 840.922,1122L835.742,1122C835.574,1122 835.462,1122.11 835.462,1122.3L835.462,1123.87C835.462,1124.04 835.574,1124.18 835.742,1124.18L841.426,1124.18C842.07,1124.18 842.49,1124.57 842.49,1125.22L842.49,1141.29C842.49,1141.48 842.602,1141.6 842.798,1141.6ZM854.922,1141.6L856.49,1141.6C856.658,1141.6 856.798,1141.46 856.798,1141.29L856.798,1133.98C856.798,1133.34 857.19,1132.92 857.862,1132.92L866.766,1132.92C866.962,1132.92 867.13,1132.86 867.27,1132.72L870.322,1129.7C870.462,1129.53 870.518,1129.39 870.518,1129.19L870.518,1122.3C870.518,1122.11 870.378,1122 870.21,1122L868.642,1122C868.474,1122 868.334,1122.11 868.334,1122.3L868.334,1129.7C868.334,1130.34 867.942,1130.76 867.27,1130.76L858.366,1130.76C858.17,1130.76 858.002,1130.82 857.862,1130.96L854.81,1134.01C854.67,1134.15 854.614,1134.29 854.614,1134.48L854.614,1141.29C854.614,1141.46 854.754,1141.6 854.922,1141.6ZM854.922,1130.56L856.49,1130.56C856.658,1130.56 856.798,1130.45 856.798,1130.26L856.798,1122.3C856.798,1122.11 856.658,1122 856.49,1122L854.922,1122C854.754,1122 854.614,1122.11 854.614,1122.3L854.614,1130.26C854.614,1130.45 854.754,1130.56 854.922,1130.56ZM868.642,1141.6L870.21,1141.6C870.378,1141.6 870.518,1141.48 870.518,1141.29L870.518,1133.42C870.518,1133.25 870.378,1133.11 870.21,1133.11L868.642,1133.11C868.474,1133.11 868.334,1133.25 868.334,1133.42L868.334,1141.29C868.334,1141.48 868.474,1141.6 868.642,1141.6ZM874.662,1132.1L883.118,1132.1C883.286,1132.1 883.426,1132.22 883.426,1132.41L883.426,1133.98C883.426,1134.15 883.286,1134.29 883.118,1134.29L874.662,1134.29C874.494,1134.29 874.354,1134.15 874.354,1133.98L874.354,1132.41C874.354,1132.22 874.494,1132.1 874.662,1132.1ZM887.57,1141.6L899.162,1141.6C899.386,1141.6 899.526,1141.54 899.666,1141.4L902.718,1138.38C902.858,1138.24 902.914,1138.07 902.914,1137.87L902.914,1134.37C902.914,1134.18 902.886,1134.04 902.718,1133.87L901.066,1132.22C900.87,1132.02 900.73,1132.1 900.73,1132.33L900.73,1138.35C900.73,1139.02 900.338,1139.41 899.694,1139.41L889.446,1139.41L889.446,1125.22C889.446,1124.57 889.838,1124.18 890.51,1124.18L899.694,1124.18C900.338,1124.18 900.73,1124.57 900.73,1125.22L900.73,1126.98L895.41,1132.27C895.27,1132.41 895.27,1132.61 895.41,1132.75L896.446,1133.81C896.558,1133.92 896.782,1133.92 896.894,1133.78L902.718,1127.99C902.858,1127.85 902.914,1127.71 902.914,1127.48L902.914,1125.75C902.914,1125.55 902.858,1125.41 902.718,1125.27L899.666,1122.22C899.526,1122.08 899.386,1122 899.162,1122L891.014,1122C890.818,1122 890.65,1122.05 890.51,1122.19L887.458,1125.24C887.318,1125.38 887.262,1125.55 887.262,1125.75L887.262,1141.29C887.262,1141.48 887.402,1141.6 887.57,1141.6ZM920.918,1130.34L922.486,1130.34C922.682,1130.34 922.794,1130.2 922.794,1130.03L922.794,1125.75C922.794,1125.55 922.738,1125.38 922.598,1125.24L919.546,1122.19C919.406,1122.05 919.238,1122 919.042,1122L913.218,1122C913.022,1122 912.854,1122.05 912.714,1122.19L906.89,1128.02C906.778,1128.13 906.75,1128.32 906.918,1128.49L907.982,1129.53C908.094,1129.64 908.29,1129.64 908.43,1129.5L913.722,1124.18L919.574,1124.18C920.218,1124.18 920.61,1124.57 920.61,1125.22L920.61,1130.03C920.61,1130.2 920.75,1130.34 920.918,1130.34ZM907.31,1141.6L908.878,1141.6C909.046,1141.6 909.186,1141.48 909.186,1141.29L909.186,1133.9C909.186,1133.22 909.578,1132.83 910.222,1132.83L919.63,1132.83C920.274,1132.83 920.694,1133.22 920.694,1133.9L920.694,1141.29C920.694,1141.48 920.806,1141.6 920.974,1141.6L922.542,1141.6C922.738,1141.6 922.85,1141.48 922.85,1141.29L922.85,1134.4C922.85,1134.2 922.794,1134.04 922.654,1133.9L919.602,1130.84C919.462,1130.7 919.322,1130.65 919.098,1130.65L910.754,1130.65C910.558,1130.65 910.39,1130.7 910.25,1130.84L907.198,1133.9C907.058,1134.04 907.002,1134.2 907.002,1134.4L907.002,1141.29C907.002,1141.48 907.114,1141.6 907.31,1141.6ZM930.521,1141.6L937.801,1141.6C937.997,1141.6 938.137,1141.54 938.277,1141.4L942.421,1137.26C942.561,1137.12 942.645,1136.98 942.645,1136.78L942.645,1134.37C942.645,1134.18 942.589,1134.04 942.421,1133.87L939.369,1130.82C939.229,1130.68 939.117,1130.62 938.893,1130.62L929.989,1130.62C929.345,1130.62 928.953,1130.23 928.953,1129.56L928.953,1127.4L932.173,1124.18L939.397,1124.18C940.069,1124.18 940.461,1124.57 940.461,1125.22L940.461,1128.1C940.461,1128.3 940.601,1128.41 940.769,1128.41L942.337,1128.41C942.505,1128.41 942.645,1128.3 942.645,1128.1L942.645,1125.75C942.645,1125.55 942.589,1125.38 942.449,1125.24L939.397,1122.19C939.257,1122.05 939.089,1122 938.893,1122L931.641,1122C931.445,1122 931.277,1122.05 931.137,1122.19L926.993,1126.34C926.853,1126.48 926.769,1126.62 926.769,1126.84L926.769,1129.05C926.769,1129.25 926.825,1129.39 926.993,1129.56L930.045,1132.61C930.185,1132.75 930.325,1132.8 930.549,1132.8L939.425,1132.8C940.069,1132.8 940.461,1133.2 940.461,1133.87L940.461,1136.19L937.241,1139.41L930.017,1139.41C929.373,1139.41 928.953,1139.02 928.953,1138.38L928.953,1135.49C928.953,1135.3 928.841,1135.18 928.645,1135.18L927.077,1135.18C926.909,1135.18 926.769,1135.3 926.769,1135.49L926.769,1137.84C926.769,1138.04 926.825,1138.21 926.965,1138.35L930.017,1141.4C930.157,1141.54 930.325,1141.6 930.521,1141.6ZM949.701,1141.6L956.981,1141.6C957.177,1141.6 957.317,1141.54 957.457,1141.4L961.601,1137.26C961.741,1137.12 961.825,1136.98 961.825,1136.78L961.825,1134.37C961.825,1134.18 961.769,1134.04 961.601,1133.87L958.549,1130.82C958.409,1130.68 958.297,1130.62 958.073,1130.62L949.169,1130.62C948.525,1130.62 948.133,1130.23 948.133,1129.56L948.133,1127.4L951.353,1124.18L958.577,1124.18C959.249,1124.18 959.641,1124.57 959.641,1125.22L959.641,1128.1C959.641,1128.3 959.781,1128.41 959.949,1128.41L961.517,1128.41C961.685,1128.41 961.825,1128.3 961.825,1128.1L961.825,1125.75C961.825,1125.55 961.769,1125.38 961.629,1125.24L958.577,1122.19C958.437,1122.05 958.269,1122 958.073,1122L950.821,1122C950.625,1122 950.457,1122.05 950.317,1122.19L946.173,1126.34C946.033,1126.48 945.949,1126.62 945.949,1126.84L945.949,1129.05C945.949,1129.25 946.005,1129.39 946.173,1129.56L949.225,1132.61C949.365,1132.75 949.505,1132.8 949.729,1132.8L958.605,1132.8C959.249,1132.8 959.641,1133.2 959.641,1133.87L959.641,1136.19L956.421,1139.41L949.197,1139.41C948.553,1139.41 948.133,1139.02 948.133,1138.38L948.133,1135.49C948.133,1135.3 948.021,1135.18 947.825,1135.18L946.257,1135.18C946.089,1135.18 945.949,1135.3 945.949,1135.49L945.949,1137.84C945.949,1138.04 946.005,1138.21 946.145,1138.35L949.197,1141.4C949.337,1141.54 949.505,1141.6 949.701,1141.6Z" style="fill:white;fill-rule:nonzero;"/>
    </g>
</svg>
