<?xml version="1.0" encoding="UTF-8"?><svg id="uuid-90918bd5-b21d-49a2-8e56-e70a914416eb" xmlns="http://www.w3.org/2000/svg" xmlns:xlink="http://www.w3.org/1999/xlink" viewBox="0 0 3376.22976 1137.24972"><defs><clipPath id="uuid-658963df-d6e4-4d78-a86c-4e2c9d29b60f"><rect x="557.93045" width="2256.72433" height="1137.24972" style="fill:none;"/></clipPath></defs><g style="clip-path:url(#uuid-658963df-d6e4-4d78-a86c-4e2c9d29b60f);"><rect x="557.93045" width="2256.72433" height="1137.24972" style="fill:#ffd1ab;"/><path d="M562.17899,994.91231c-234.30103,0-424.23999-189.94104-424.23999-424.24194" style="fill:none; stroke:#00e2d4; stroke-width:275.87799px;"/><path d="M562.17899,994.91231c234.30103,0,424.23999-189.94104,424.23999-424.24194" style="fill:none; stroke:#d98bdc; stroke-width:275.87799px;"/><path d="M1125.82943,993.78566c-234.30096,0-424.23997-189.94104-424.23997-424.24194" style="fill:none; stroke:#d94368; stroke-width:275.87799px;"/><path d="M1125.82961,993.78566c234.30103,0,424.23999-189.94104,424.23999-424.24194" style="fill:none; stroke:#ff8638; stroke-width:275.87799px;"/><path d="M1689.48007,993.78566c-234.30103,0-424.23999-189.94104-424.23999-424.24194" style="fill:none; stroke:#00e2d4; stroke-width:275.87799px;"/><path d="M1689.48007,993.78566c234.30103,0,424.23999-189.94104,424.23999-424.24194" style="fill:none; stroke:#f3c871; stroke-width:275.87799px;"/><path d="M2253.13053,993.78566c-234.30103,0-424.23999-189.94104-424.23999-424.24194" style="fill:none; stroke:#d98bdc; stroke-width:275.87799px;"/><path d="M2250.40043,993.78566c234.30103,0,424.23987-189.94104,424.23987-424.24194" style="fill:none; stroke:#d94368; stroke-width:275.87799px;"/><path d="M2814.05077,993.58403c-234.30103,0-424.23999-189.94104-424.23999-424.24194" style="fill:none; stroke:#ff8638; stroke-width:275.87799px;"/><path d="M2814.05077,993.58403c234.30103,0,424.23999-189.94104,424.23999-424.24194" style="fill:none; stroke:#f3c871; stroke-width:275.87799px;"/><path d="M2814.05077,143.77187c234.30103,0,424.23999,189.94104,424.23999,424.24194" style="fill:none; stroke:#00e2d4; stroke-width:275.87799px;"/><path d="M2814.05077,143.77187c-234.30103,0-424.23999,189.94104-424.23999,424.24194" style="fill:none; stroke:#d98bdc; stroke-width:275.87799px;"/><path d="M2250.40032,144.89852c234.30096,0,424.23997,189.94104,424.23997,424.24194" style="fill:none; stroke:#d94368; stroke-width:275.87799px;"/><path d="M2250.40014,144.89852c-234.30103,0-424.23999,189.94104-424.23999,424.24194" style="fill:none; stroke:#ff8638; stroke-width:275.87799px;"/><path d="M1686.74968,144.89852c234.30103,0,424.23999,189.94104,424.23999,424.24194" style="fill:none; stroke:#00e2d4; stroke-width:275.87799px;"/><path d="M1686.74968,144.89852c-234.30103,0-424.23999,189.94104-424.23999,424.24194" style="fill:none; stroke:#f3c871; stroke-width:275.87799px;"/><path d="M1123.09922,144.89852c234.30103,0,424.23999,189.94104,424.23999,424.24194" style="fill:none; stroke:#d98bdc; stroke-width:275.87799px;"/><path d="M1125.82932,144.89852c-234.30103,0-424.23987,189.94104-424.23987,424.24194" style="fill:none; stroke:#d94368; stroke-width:275.87799px;"/><path d="M562.17899,145.10015c234.30103,0,424.23999,189.94104,424.23999,424.24194" style="fill:none; stroke:#ff8638; stroke-width:275.87799px;"/><path d="M562.17899,145.10015c-234.30103,0-424.23999,189.94104-424.23999,424.24194" style="fill:none; stroke:#f3c871; stroke-width:275.87799px;"/></g></svg>