<?xml version="1.0" encoding="UTF-8"?><svg id="uuid-b44a31a6-c641-48cc-b150-b8e60c94d949" xmlns="http://www.w3.org/2000/svg" viewBox="0 0 198.3047 23.45477"><path d="M1.21546.67047c.13672.15825.12642.20976.17698.42232-.06648.01873-.16668.08896-.21444.15451L.23972.23879c.34834-.03371.7613.16949.97574.43168M1.79603,1.35124c.11705.11705.11705.30808-.00094.42419-.11705.11612-.30714.11612-.42419-.00187-.11611-.11518-.11611-.30714.00187-.42232.11705-.11892.30621-.11705.42326,0M1.93743.25377c.03652.09364.05525.31651.19196.4682-.18447.15732-.2238.24159-.28467.39516-.06274-.03746-.12735-.05712-.19103-.0618l.28373-.80156h.00001ZM5.96585.21257l-.76879.23972c-1.21546.43543-1.6537,1.34281-2.56763,1.29131-.19571-.01966-.35958-.05899-.52064-.15076.00655-.05899-.01311-.12829-.02997-.18635.77722-.46165,2.44964-.98885,3.88703-1.19392M2.50489,2.4768l-.60305-.50098c.41764-.00843.60773-.0103.60773-.0103-.07398.31557-.00468.51128-.00468.51128M.72759,4.97326c-.52158,1.34936-.42981,1.39338-.5787,1.95522.15076-1.8878.71635-3.44598,1.26134-4.87307,0,0,.12642.03746.19009.02622.11331.13016.13859.31744.13859.31744.28092.92049-.60024,1.51136-1.01132,2.57418M.25845,1.89904c.12829-.05337.80437-.27811.80437-.27811l.0515.15919c-.23785.14046-.35677.32774-.36052.35771-.04682-.00375-.31276-.20133-.49536-.23878M.42794,1.22857c-.06087.265-.28186.52064-.42794.73883.18822.09083.42794.21725.59087.35958C.23036,2.87009.103,3.14259.04307,3.79714l.04963,3.38605c.34273-1.01975.73789-2.1425,1.30254-2.97309.16106-.23598.19196-.29684.2828-.43543.11143-.17323.35115-.52345.34179-1.12275.20414-.0412.44948.0103.68639.02903-.02997-.25564-.06274-.3062.00468-.72478.97948-.03839,1.16676-.63676,2.2221-1.18268.48319-.25096.68732-.35396,1.32502-.59087-1.98144.00749-2.85698-.31651-3.96194.427-.12829-.1723-.19571-.40827-.28092-.60866-.15638.12267-.49255.3446-.74632.41015C.97574.12267.54312-.03745.04214.00749-.02903.41202.11143.95514.42794,1.22857M1.21546,20.91841c.13672-.15825.12642-.20882.17698-.42138-.06648-.01966-.16668-.09083-.21444-.15544l-.93828,1.00945c.34834.03184.7613-.16949.97574-.43262M1.79603,20.23764c.11705-.11705.11705-.30808-.00094-.42419-.11705-.11611-.30714-.11518-.42419.00094-.11611.11705-.11611.30714.00187.42326.11705.11892.30621.11799.42326,0M1.93743,21.33511c.03652-.09364.05525-.31744.19196-.46914-.18447-.15544-.2238-.24066-.28467-.39423-.06274.03652-.12735.05618-.19103.0618l.28373.80156h.00001ZM5.96585,21.37632l-.76879-.23972c-1.21546-.43543-1.6537-1.34281-2.56763-1.29131-.19571.0206-.35958.05899-.52064.14983.00655.05899-.01311.12829-.02997.18728.77722.46165,2.44964.98885,3.88703,1.19392M2.50489,19.11302l-.60305.50004c.41764.00936.60773.0103.60773.0103-.07398-.31557-.00468-.51034-.00468-.51034M.72759,16.61656c-.52158-1.3503-.42981-1.39431-.5787-1.95616.15076,1.88873.71635,3.44598,1.26134,4.87307,0,0,.12642-.03933.19009-.02622.11331-.13016.13859-.31744.13859-.31744.28092-.92049-.60024-1.51136-1.01132-2.57325M.25845,19.68985c.12829.05431.80437.27999.80437.27999l.0515-.16013c-.23785-.1414-.35677-.32868-.36052-.35864-.04682.00375-.31276.20133-.49536.23878M.42794,20.36125c-.06087-.26594-.28186-.52064-.42794-.73883.18822-.0927.42794-.21912.59087-.36052-.36052-.54405-.48787-.81467-.5478-1.46922l.04963-3.38792c.34273,1.01975.73789,2.14437,1.30254,2.97403.16106.23597.19196.29684.2828.4373.11143.17043.35115.52252.34179,1.12088.20414.0412.44948-.01217.68639-.02809-.02997.25564-.06274.30527.00468.72478.97948.03652,1.16676.63582,2.2221,1.18268.48319.25002.68732.35209,1.32502.58806-1.98144-.00468-2.85698.31838-3.96194-.42513-.12829.1723-.19571.40827-.28092.6096-.15638-.12361-.49255-.3446-.74632-.41202-.2931.28935-.72572.44948-1.22669.40453-.07117-.40453.06929-.94764.3858-1.22014M17.48273.68826c-.13484.15825-.12548.20882-.17604.42326.06648.01873.16762.08896.21444.15451l.93828-1.00945c-.34835-.03277-.76036.16855-.97667.43168M16.90216,1.36903c-.11612.11705-.11612.30714.00187.42419.11612.11705.3062.11612.42326-.00187.11705-.11705.11705-.3062,0-.42419-.11892-.11518-.30808-.11518-.42513.00187M16.76263.27156c-.03652.09458-.05525.31744-.19384.4682.18447.15732.2238.24253.28467.39516.06367-.03652.12735-.05618.1929-.06274,0,0-.28373-.80063-.28373-.80062ZM12.73327.23129l.76879.23878c1.21639.43637,1.65276,1.34375,2.56763,1.29224.19477-.0206.35864-.05993.52064-.14889-.00655-.0618.01405-.13016.02996-.18822-.77722-.46446-2.44964-.98978-3.88703-1.19392M16.19517,2.49459l.60117-.50098c-.4167-.00749-.60679-.0103-.60679-.0103.07304.31557.00562.51128.00562.51128M17.97153,4.99012c.52158,1.3503.42981,1.39618.5787,1.95616-.1517-1.88686-.71635-3.44504-1.26228-4.87306,0,0-.12548.03746-.19009.02622-.11237.1311-.13859.31651-.13859.31651-.28092.92236.60024,1.5123,1.01226,2.57419M18.44161,1.91589c-.12922-.05244-.80625-.27811-.80625-.27811l-.04963.15919c.23597.1414.35583.32868.35864.36052.04776-.00468.3137-.2032.49723-.24159M18.27025,1.24542c.0618.26594.2828.52252.42794.7407-.18634.09177-.42794.21818-.59087.35864.36052.54405.48881.81655.5478,1.46922l-.04869,3.38699c-.34273-1.01787-.73883-2.14156-1.30348-2.97216-.16013-.23598-.19196-.29871-.2828-.4373-.1105-.17043-.35022-.52158-.34179-1.12088-.20414-.0412-.44948.0103-.68545.02903.02996-.25751.0618-.30527-.00468-.72572-.97948-.03746-1.16676-.63582-2.2221-1.18268-.48319-.25096-.68826-.35209-1.32689-.58994,1.98331.00843,2.85792-.31744,3.96381.42607.12829-.17136.19571-.40734.27999-.60773.15732.12173.49349.3446.74725.41015.2931-.28841.72478-.44948,1.22669-.40266.07117.40266-.07023.94577-.38674,1.21827M17.48273,20.9362c-.13484-.15732-.12548-.20882-.17604-.42138.06648-.01966.16762-.0899.21444-.15638l.93828,1.01038c-.34835.03184-.76036-.16949-.97667-.43262M16.90216,20.25544c-.11612-.11705-.11612-.30714.00187-.42419.11612-.11611.3062-.11518.42326.00094.11705.11892.11705.30808,0,.42513-.11892.11611-.30808.11518-.42513-.00187M16.76263,21.35478c-.03652-.09645-.05525-.31838-.19384-.47008.18447-.15544.2238-.24159.28467-.39329.06367.03465.12735.05431.1929.05993,0,0-.28373.80344-.28373.80344ZM12.73327,21.39504l.76879-.23972c1.21639-.4373,1.65276-1.34468,2.56763-1.29224.19477.0206.35864.05806.52064.14983-.00655.05993.01405.12922.02996.18728-.77722.46259-2.44964.98978-3.88703,1.19486M16.19517,19.13081l.60117.50098c-.4167.00749-.60679.01124-.60679.01124.07304-.31651.00562-.51221.00562-.51221M17.97153,16.63622c.52158-1.35217.42981-1.39525.5787-1.95709-.1517,1.88873-.71635,3.44411-1.26228,4.87307,0,0-.12548-.03933-.19009-.02622-.11237-.1311-.13859-.31744-.13859-.31744-.28092-.92143.60024-1.5123,1.01226-2.57231M18.44161,19.70951c-.12922.05338-.80625.27811-.80625.27811l-.04963-.16013c.23597-.14046.35583-.32774.35864-.35864.04776.00375.3137.20133.49723.24066M18.27025,20.37998c.0618-.26688.2828-.52252.42794-.73883-.18634-.0927-.42794-.22099-.59087-.35958.36052-.54405.48881-.81655.5478-1.47016l-.04869-3.38699c-.34273,1.01694-.73883,2.14344-1.30348,2.97216-.16013.23597-.19196.29778-.2828.4373-.1105.17043-.35022.52158-.34179,1.12088-.20414.04214-.44948-.01124-.68545-.02903.02996.25658.0618.30621-.00468.72665-.97948.03652-1.16676.63488-2.2221,1.18175-.48319.25096-.68826.35209-1.32689.589,1.98331-.00655,2.85792.31744,3.96381-.42513.12829.1723.19571.40734.27999.60866.15732-.12267.49349-.3446.74725-.41108.2931.28841.72478.4476,1.22669.40359.07117-.40359-.07023-.94577-.38674-1.2192M15.74195,16.50419c1.00758-1.59002,1.60594-3.56865,1.60594-5.71302s-.59836-4.12207-1.60594-5.71209v-.72103c1.25291,1.73142,2.0086,3.97692,2.0086,6.43312s-.75568,4.7017-2.0086,6.43406v-.72103h0ZM12.13022,20.14962v-.44573c.59087-.25938,1.14804-.60024,1.66306-1.00945v.51222c-.51971.38299-1.07593.70043-1.66306.94296M9.34909,20.70585c-.27905,0-.55529-.01686-.82872-.04776v-.41389c.27343.03465.54967.0515.82872.0515.28092,0,.55904-.01873.8334-.0515v.41389c-.27437.0309-.55248.04776-.8334.04776M4.90959,19.2104v-.51222c.51502.40921,1.07312.74913,1.664,1.00851v.44479c-.58713-.24253-1.14429-.55997-1.664-.94109M.94671,10.79116c0-2.45901.75849-4.70826,2.01609-6.44249v.72197c-1.01226,1.59189-1.61062,3.5724-1.61062,5.72052s.59836,4.13049,1.61062,5.72145v.72103c-1.2576-1.73329-2.01609-3.98441-2.01609-6.44248M6.57358,1.43177v.44479c-.59087.25751-1.14897.5993-1.664,1.00851v-.51221c.51971-.38206,1.07687-.6995,1.664-.94109M9.34909.87742c.28092,0,.55904.01592.8334.04682v.41389c-.27437-.03277-.55248-.05057-.8334-.05057-.27905,0-.55529.01779-.82872.05057v-.41389c.27343-.0309.54967-.04682.82872-.04682M13.79328,2.37754v.51128c-.51502-.40921-1.07219-.751-1.66306-1.01038v-.44479c.58713.24253,1.14335.56091,1.66306.9439M15.74195,5.69055c.81655,1.45892,1.29318,3.21281,1.29318,5.10061,0,1.88686-.47663,3.64075-1.29318,5.10061,0,0,0-10.20122,0-10.20122ZM12.13022,2.22865c.59368.2753,1.15178.63582,1.66306,1.07032v14.98533c-.51128.43356-1.06938.79501-1.66306,1.07031V2.22865ZM8.52037,1.66119c.27249-.03465.54967-.05431.82872-.05431.28092,0,.55904.01966.8334.05431v18.25995c-.27437.03558-.55248.05431-.8334.05431-.27905,0-.55623-.01779-.82872-.05431V1.66119ZM4.90959,3.29428c.51222-.43449,1.06938-.79407,1.664-1.06938v17.13251c-.59462-.27437-1.15178-.63488-1.664-1.0675V3.29428ZM2.96279,15.90301c-.82123-1.4608-1.29973-3.21937-1.29973-5.11185,0-1.89061.4785-3.64918,1.29973-5.11091,0,0,0,10.22276,0,10.22276ZM9.34909.1105C4.28875.1105.18822,4.89273.18822,10.79116c0,5.89937,4.10053,10.6816,9.16088,10.6816,5.05941,0,9.16088-4.78223,9.16088-10.6816,0-5.89843-4.10148-10.68066-9.16089-10.68066" style="fill:#fff;"/><path d="M31.24191,10.17447h-.55061l-.10113-1.45986h-.02247c-.53937,1.14523-1.61718,1.62841-2.77364,1.62841-2.52736,0-3.78496-1.98799-3.78496-4.17825,0-2.18932,1.2576-4.17731,3.78496-4.17731,1.6846,0,3.05456.90925,3.34672,2.66127h-.76411c-.10113-.92049-1.05533-2.00953-2.58261-2.00953-2.12284,0-3.02085,1.77356-3.02085,3.52557s.89802,3.52651,3.02085,3.52651c1.77449,0,2.80735-1.24636,2.77364-2.94219h-2.72869v-.65174h3.40291v4.07712h-.00001Z" style="fill:#fff;"/><path d="M32.99846,7.4675c.01124,1.03379.54967,2.28015,1.90934,2.28015,1.03286,0,1.5947-.60679,1.8185-1.48233h.70792c-.30246,1.31378-1.06657,2.07695-2.52643,2.07695-1.84191,0-2.61726-1.41398-2.61726-3.0658,0-1.52728.77535-3.0658,2.61726-3.0658,1.86439,0,2.60509,1.62841,2.5489,3.25683,0,0-4.45824,0-4.45823,0ZM36.74877,6.87288c-.03277-1.0675-.69575-2.06665-1.84098-2.06665-1.1574,0-1.79697,1.01038-1.90934,2.06665h3.75032Z" style="fill:#fff;"/><path d="M38.4034,4.37941h.70792v.99915h.02247c.25845-.69575,1.03286-1.1677,1.85315-1.1677,1.62841,0,2.1219.85307,2.1219,2.23427v3.72971h-.70699v-3.61641c0-1.00008-.32587-1.75202-1.4711-1.75202-1.12275,0-1.79697.85307-1.81944,1.98799v3.38043h-.70792v-5.79543h.00001Z" style="fill:#fff;"/><path d="M44.86438,7.4675c.01124,1.03379.54967,2.28015,1.90934,2.28015,1.03286,0,1.5947-.60679,1.81944-1.48233h.70699c-.30246,1.31378-1.06657,2.07695-2.52643,2.07695-1.84191,0-2.61726-1.41398-2.61726-3.0658,0-1.52728.77535-3.0658,2.61726-3.0658,1.86439,0,2.60509,1.62841,2.5489,3.25683,0,0-4.45824,0-4.45824,0ZM48.61469,6.87288c-.03277-1.0675-.69575-2.06665-1.84098-2.06665-1.1574,0-1.79697,1.01038-1.90934,2.06665h3.75032Z" style="fill:#fff;"/><path d="M50.28078,4.37942h.6508v1.35873h.02341c.35958-.93173,1.14523-1.48233,2.18932-1.43739v.70699c-1.28007-.06648-2.15655.87648-2.15655,2.07789v3.08921h-.70699v-5.79543h.00001Z" style="fill:#fff;"/><path d="M53.75253,6.154c.06742-1.35873,1.02256-1.94305,2.34757-1.94305,1.02162,0,2.13407.31463,2.13407,1.86439v3.07704c0,.26969.13484.427.41483.427.07866,0,.16855-.02247.22474-.04495v.59556c-.15732.03277-.26969.04495-.46071.04495-.71822,0-.83059-.40453-.83059-1.01132h-.02247c-.49442.75287-.99915,1.17894-2.1116,1.17894-1.06657,0-1.94305-.5272-1.94305-1.6949,0-1.62935,1.58347-1.68553,3.11168-1.86532.58338-.06648.90925-.14514.90925-.78565,0-.9542-.68545-1.19017-1.51604-1.19017-.87554,0-1.52728.40359-1.54975,1.34749,0,0-.70792,0-.70793,0ZM57.52625,7.00707h-.02247c-.0899.16855-.40453.22474-.59556.25845-1.20141.2135-2.69498.20226-2.69498,1.33625,0,.70792.62927,1.14616,1.29131,1.14616,1.07781,0,2.03294-.68545,2.0217-1.81944,0,0,0-.92143,0-.92142Z" style="fill:#fff;"/><rect x="59.66391" y="2.15551" width=".70791" height="8.01939" style="fill:#fff;"/><path d="M61.74271,2.15551h.70791v1.13399h-.70791v-1.13399ZM61.74271,4.37948h.70791v5.79543h-.70791s0-5.79543,0-5.79543Z" style="fill:#fff;"/><path d="M64.93232,4.37941h1.17894v.59556h-1.17894v3.90763c0,.46071.06742.7304.57308.76411.20226,0,.40359-.01124.60586-.03371v.60586c-.2135,0-.41576.02247-.62833.02247-.9439,0-1.26977-.3137-1.2576-1.30254v-3.96381h-1.01132v-.59556h1.01132v-1.74078h.70699v1.74078h0Z" style="fill:#fff;"/><path d="M67.06733,6.154c.06742-1.35873,1.02256-1.94305,2.34757-1.94305,1.02162,0,2.13407.31463,2.13407,1.86439v3.07704c0,.26969.13484.427.41577.427.07866,0,.16762-.02247.2238-.04495v.59556c-.15732.03277-.26969.04495-.45978.04495-.71916,0-.83153-.40453-.83153-1.01132h-.02247c-.49442.75287-.99915,1.17894-2.1116,1.17894-1.06657,0-1.94305-.5272-1.94305-1.6949,0-1.62935,1.58347-1.68553,3.11168-1.86532.58338-.06648.90925-.14514.90925-.78565,0-.9542-.68545-1.19017-1.51604-1.19017-.87554,0-1.52728.40359-1.54975,1.34749h-.70793ZM70.84105,7.00707h-.02247c-.0899.16855-.40453.22474-.59556.25845-1.20141.2135-2.69498.20226-2.69498,1.33625,0,.70792.62927,1.14616,1.29131,1.14616,1.07874,0,2.03294-.68545,2.0217-1.81944,0,0,0-.92143,0-.92142Z" style="fill:#fff;"/><path d="M74.09016,4.37941h1.17894v.59556h-1.17894v3.90763c0,.46071.06742.7304.57308.76411.20226,0,.40359-.01124.60586-.03371v.60586c-.2135,0-.41576.02247-.62833.02247-.9439,0-1.26977-.3137-1.2576-1.30254v-3.96381h-1.01132v-.59556h1.01132v-1.74078h.70699v1.74078h0Z" style="fill:#fff;"/><path d="M84.5153,10.17447h-.6508v-1.10028h-.02341c-.30246.75194-1.22388,1.26883-2.06572,1.26883-1.76326,0-2.60602-1.42615-2.60602-3.0658s.84277-3.06673,2.60602-3.06673c.8643,0,1.70613.43824,2.01047,1.26977h.02247v-3.32518h.70699s0,8.01939,0,8.01939ZM81.77537,9.74747c1.50481,0,2.03294-1.26883,2.03294-2.47024,0-1.20235-.52813-2.47118-2.03294-2.47118-1.34843,0-1.8981,1.26883-1.8981,2.47118,0,1.20141.54967,2.47024,1.8981,2.47024" style="fill:#fff;"/><path d="M86.28218,7.4675c.01124,1.03379.54967,2.28015,1.90934,2.28015,1.03286,0,1.5947-.60679,1.8185-1.48233h.70792c-.30246,1.31378-1.06657,2.07695-2.52643,2.07695-1.84191,0-2.61726-1.41398-2.61726-3.0658,0-1.52728.77535-3.0658,2.61726-3.0658,1.86439,0,2.60509,1.62841,2.5489,3.25683,0,0-4.45824,0-4.45823,0ZM90.03249,6.87288c-.03277-1.0675-.69575-2.06665-1.84098-2.06665-1.1574,0-1.79697,1.01038-1.90934,2.06665h3.75032Z" style="fill:#fff;"/><path d="M100.81934,4.58159c-.26969-1.23512-1.29131-1.94305-2.45901-1.94305-2.12284,0-3.02179,1.77449-3.02179,3.52651s.89895,3.52651,3.02179,3.52651c1.48233,0,2.4253-1.14616,2.57138-2.57138h.76411c-.2135,1.96458-1.4608,3.22218-3.33548,3.22218-2.52736,0-3.78496-1.98706-3.78496-4.17731s1.2576-4.17825,3.78496-4.17825c1.51604,0,3.02085.91019,3.22218,2.59479h-.76318Z" style="fill:#fff;"/><path d="M102.6651,6.154c.06742-1.35873,1.02256-1.94305,2.34757-1.94305,1.02162,0,2.13407.31463,2.13407,1.86439v3.07704c0,.26969.13484.427.41483.427.07866,0,.16855-.02247.22474-.04495v.59556c-.15732.03277-.26969.04495-.45978.04495-.71916,0-.83153-.40453-.83153-1.01132h-.02247c-.49442.75287-.99915,1.17894-2.1116,1.17894-1.06657,0-1.94305-.5272-1.94305-1.6949,0-1.62935,1.58347-1.68553,3.11168-1.86532.58338-.06648.90925-.14514.90925-.78565,0-.9542-.68545-1.19017-1.51604-1.19017-.87554,0-1.52728.40359-1.54975,1.34749h-.70793ZM106.43883,7.00707h-.02247c-.0899.16855-.40453.22474-.59556.25845-1.20141.2135-2.69498.20226-2.69498,1.33625,0,.70792.62927,1.14616,1.29131,1.14616,1.07781,0,2.03294-.68545,2.0217-1.81944,0,0,0-.92143,0-.92142Z" style="fill:#fff;"/><path d="M109.68771,4.37941h1.17894v.59556h-1.17894v3.90763c0,.46071.06742.7304.57308.76411.20226,0,.40453-.01124.60586-.03371v.60586c-.2135,0-.41576.02247-.62833.02247-.9439,0-1.26977-.3137-1.2576-1.30254v-3.96381h-1.01132v-.59556h1.01132v-1.74078h.70699v1.74078h0Z" style="fill:#fff;"/><path d="M111.82294,6.154c.06742-1.35873,1.02256-1.94305,2.34757-1.94305,1.02162,0,2.13407.31463,2.13407,1.86439v3.07704c0,.26969.13484.427.41483.427.07866,0,.16855-.02247.22474-.04495v.59556c-.15732.03277-.26969.04495-.45978.04495-.71916,0-.83153-.40453-.83153-1.01132h-.02247c-.49442.75287-.99915,1.17894-2.1116,1.17894-1.06657,0-1.94305-.5272-1.94305-1.6949,0-1.62935,1.58347-1.68553,3.11168-1.86532.58338-.06648.90925-.14514.90925-.78565,0-.9542-.68545-1.19017-1.51604-1.19017-.87554,0-1.52728.40359-1.54975,1.34749h-.70793ZM115.59667,7.00707h-.02247c-.0899.16855-.40453.22474-.59556.25845-1.20141.2135-2.69498.20226-2.69498,1.33625,0,.70792.62927,1.14616,1.29131,1.14616,1.07781,0,2.03294-.68545,2.0217-1.81944,0,0,0-.92143,0-.92142Z" style="fill:#fff;"/><rect x="117.73336" y="2.15551" width=".70791" height="8.01939" style="fill:#fff;"/><path d="M124.49611,10.17446h-.65174v-1.04409h-.02247c-.36988.77441-1.13399,1.21265-1.99829,1.21265-1.4608,0-2.03294-.854-2.03294-2.20149v-3.76249h.70699v3.77372c.03371,1.04409.427,1.5947,1.54975,1.5947,1.21358,0,1.74078-1.14523,1.74078-2.3251v-3.04332h.70792v5.79543h0Z" style="fill:#fff;"/><path d="M125.82432,4.37941h.70792v.99915h.02247c.25845-.69575,1.03286-1.1677,1.85315-1.1677,1.6284,0,2.1219.85307,2.1219,2.23427v3.72971h-.70699v-3.61641c0-1.00008-.32587-1.75202-1.4711-1.75202-1.12369,0-1.79697.85307-1.81944,1.98799v3.38043h-.70792v-5.79543h0Z" style="fill:#fff;"/><path d="M131.21825,4.3794h.75287l1.9084,4.94142,1.78667-4.94142h.70699l-2.51613,6.6822c-.40359.97667-.63957,1.2576-1.52728,1.2576-.27998-.01124-.427-.01124-.53844-.05618v-.59462c.16855.03277.32494.05618.48225.05618.62927,0,.77534-.37082,1.01132-.91019l.24721-.66298s-2.31386-5.77202-2.31386-5.77201Z" style="fill:#fff;"/><path d="M137.005,6.154c.06741-1.35873,1.02255-1.94305,2.34756-1.94305,1.02162,0,2.13406.31463,2.13406,1.86439v3.07704c0,.26969.13484.427.41483.427.07866,0,.16855-.02247.22475-.04495v.59556c-.15732.03277-.26968.04495-.45978.04495-.71916,0-.83153-.40453-.83153-1.01132h-.02248c-.49442.75287-.99915,1.17894-2.1116,1.17894-1.06657,0-1.94305-.5272-1.94305-1.6949,0-1.62935,1.58347-1.68553,3.11168-1.86532.58337-.06648.90926-.14514.90926-.78565,0-.9542-.68546-1.19017-1.51604-1.19017-.87553,0-1.52728.40359-1.54974,1.34749,0,0-.70792,0-.70792,0ZM140.77875,7.00707h-.02248c-.0899.16855-.40453.22474-.59557.25845-1.20142.2135-2.69498.20226-2.69498,1.33625,0,.70792.62927,1.14616,1.29131,1.14616,1.0778,0,2.03294-.68545,2.0217-1.81944v-.92143h.00002Z" style="fill:#fff;"/><path d="M24.35729,13.39233h3.45909c2.07789,0,3.63888,1.30348,3.63888,3.96475,0,2.32416-1.19017,4.05464-3.63888,4.05464h-3.45909v-8.01939ZM26.12055,19.92939h1.57223c1.02162,0,1.99923-.62927,1.99923-2.40376,0-1.61718-.56184-2.65097-2.31386-2.65097h-1.2576s0,5.05473,0,5.05473Z" style="fill:#fff;"/><path d="M33.82908,18.8955c.04495,1.01132.53937,1.4711,1.42615,1.4711.6405,0,1.1574-.39329,1.25853-.75194h1.40368c-.44948,1.36996-1.40368,1.95335-2.71839,1.95335-1.83068,0-2.96467-1.2576-2.96467-3.05456,0-1.74078,1.20235-3.0658,2.96467-3.0658,1.97676,0,2.93189,1.66212,2.81952,3.44785,0,0-4.18949,0-4.18949,0ZM36.42293,17.88511c-.14514-.80906-.49349-1.23512-1.2679-1.23512-1.01132,0-1.30348.78565-1.32595,1.23512h2.59385Z" style="fill:#fff;"/><path d="M38.96479,15.60486h1.51604v.74164h.02247c.38205-.61803,1.01132-.89895,1.72954-.89895,1.81944,0,2.63973,1.4711,2.63973,3.12292,0,1.54882-.854,2.99838-2.54984,2.99838-.69575,0-1.35873-.3034-1.74078-.87648h-.02247v2.7624h-1.5947s0-7.84991,0-7.84991ZM43.27695,18.52458c0-.92049-.36988-1.87469-1.3915-1.87469-1.04503,0-1.38214.93173-1.38214,1.87469,0,.9439.35958,1.84191,1.39244,1.84191,1.04503,0,1.3812-.89802,1.3812-1.84191" style="fill:#fff;"/><path d="M45.76333,17.39088c.0899-1.49357,1.42615-1.94305,2.72963-1.94305,1.15646,0,2.5489.25845,2.5489,1.65089v3.02085c0,.52813.05618,1.05627.20226,1.29224h-1.61718c-.05618-.17979-.10113-.37175-.11237-.56184-.50566.5272-1.24729.71822-1.95428.71822-1.10028,0-1.97676-.55061-1.97676-1.74078,0-1.31378.98791-1.62841,1.97676-1.76326.97667-.14608,1.88686-.11143,1.88686-.76317,0-.68545-.47195-.78565-1.03286-.78565-.60679,0-1.00008.24628-1.05627.87554h-1.5947.00001ZM49.44716,18.56981c-.26969.23597-.83153.24721-1.32502.33711-.49442.10113-.9439.26969-.9439.85307,0,.59556.46071.74163.97761.74163,1.24636,0,1.29131-.98791,1.29131-1.33625v-.59556Z" style="fill:#fff;"/><path d="M52.28027,15.60486h1.51604v1.07781h.02247c.29216-.72946,1.07781-1.23512,1.85315-1.23512.11237,0,.24721.02247.34834.05618v1.48233c-.14608-.03371-.38205-.05525-.57308-.05525-1.1677,0-1.57223.84183-1.57223,1.86345v2.61726h-1.5947v-5.80666h.00001Z" style="fill:#fff;"/><path d="M58.67316,15.60486h1.1677v1.0675h-1.1677v2.87477c0,.53937.13391.67328.67328.67328.16855,0,.32587-.0103.49442-.04495v1.24729c-.26969.04495-.61803.05525-.93173.05525-.97761,0-1.83068-.2238-1.83068-1.3812v-3.42444h-.96637v-1.0675h.96637v-1.74078h1.5947v1.74078h.00001Z" style="fill:#fff;"/><path d="M60.53983,17.39088c.0899-1.49357,1.42615-1.94305,2.72869-1.94305,1.1574,0,2.54984.25845,2.54984,1.65089v3.02085c0,.52813.05618,1.05627.20226,1.29224h-1.61811c-.05525-.17979-.1002-.37175-.11143-.56184-.50566.5272-1.24729.71822-1.95428.71822-1.10028,0-1.97676-.55061-1.97676-1.74078,0-1.31378.98885-1.62841,1.97676-1.76326.97667-.14608,1.88686-.11143,1.88686-.76317,0-.68545-.47195-.78565-1.03286-.78565-.60679,0-1.00008.24628-1.05627.87554h-1.5947ZM64.22366,18.56981c-.26969.23597-.83153.24721-1.32595.33711-.49349.10113-.94296.26969-.94296.85307,0,.59556.46071.74163.97761.74163,1.24636,0,1.29131-.98791,1.29131-1.33625v-.59556h-.00002Z" style="fill:#fff;"/><path d="M67.10172,15.60486h1.50481v.78658h.02247c.41576-.59556,1.02162-.9439,1.77449-.9439.7304,0,1.3812.26969,1.69583.96637.33711-.50566.94296-.96637,1.75202-.96637,1.23512,0,2.12284.57308,2.12284,2.07789v3.88609h-1.5947v-3.29054c0-.77535-.06742-1.41585-.97761-1.41585-.89802,0-1.06657.74163-1.06657,1.47203v3.23435h-1.5947v-3.25683c0-.67421.04495-1.44956-.96637-1.44956-.3137,0-1.07781.20226-1.07781,1.33719v3.36919h-1.5947v-5.80666.00002Z" style="fill:#fff;"/><path d="M78.55143,18.8955c.04495,1.01132.53937,1.4711,1.42615,1.4711.6405,0,1.1574-.39329,1.25853-.75194h1.40368c-.44948,1.36996-1.40368,1.95335-2.71839,1.95335-1.83068,0-2.96467-1.2576-2.96467-3.05456,0-1.74078,1.20141-3.0658,2.96467-3.0658,1.97676,0,2.93189,1.66212,2.81952,3.44785,0,0-4.18949,0-4.18948,0ZM81.14621,17.88511c-.14608-.80906-.49442-1.23512-1.26977-1.23512-1.01038,0-1.30254.78565-1.32502,1.23512h2.59479Z" style="fill:#fff;"/><path d="M83.68691,15.60486h1.51604v.80906h.03371c.40453-.65174,1.10122-.96637,1.77449-.96637,1.69583,0,2.12284.95514,2.12284,2.39252v3.57146h-1.5947v-3.2793c0-.95514-.28092-1.42708-1.02256-1.42708-.8643,0-1.23512.48319-1.23512,1.66306v3.04332h-1.5947v-5.80666h.00002Z" style="fill:#fff;"/><path d="M92.37189,15.60486h1.1677v1.0675h-1.1677v2.87477c0,.53937.13484.67328.67328.67328.16855,0,.32587-.0103.49442-.04495v1.24729c-.26969.04495-.61803.05525-.93266.05525-.97667,0-1.82974-.2238-1.82974-1.3812v-3.42444h-.96637v-1.0675h.96637v-1.74078h1.5947v1.74078Z" style="fill:#fff;"/><path d="M101.57378,20.67018h-.02247c-.37082.62833-1.02162.89801-1.76326.89801-1.75202,0-2.60509-1.50481-2.60509-3.11075,0-1.56099.8643-3.00961,2.57138-3.00961.68545,0,1.35873.29216,1.71831.86524h.02247v-2.92066h1.5947v8.01939h-1.51604v-.74163h0ZM100.18134,16.64925c-1.04503,0-1.40368.89801-1.40368,1.85315,0,.91019.41576,1.86439,1.40368,1.86439,1.05533,0,1.36996-.92049,1.36996-1.87562,0-.9439-.33711-1.84191-1.36996-1.84191" style="fill:#fff;"/><path d="M104.45245,13.39233h1.5947v1.71831c.03371.99915-.66204,1.76326-1.5947,1.88686v-.7407c.57308-.19196.74163-.58432.74163-1.13493h-.74163v-1.72954Z" style="fill:#fff;"/><path d="M107.58776,13.39233h5.99675v1.48233h-4.2335v1.71831h3.88609v1.36996h-3.88609v1.96646h4.32339v1.48233h-6.08665s0-8.01939,0-8.01939Z" style="fill:#fff;"/><path d="M114.74565,15.60486h1.50481v.78658h.02247c.41576-.59556,1.02162-.9439,1.77449-.9439.7304,0,1.3812.26969,1.69583.96637.33711-.50566.94296-.96637,1.75202-.96637,1.23512,0,2.12284.57308,2.12284,2.07789v3.88609h-1.59564v-3.29054c0-.77535-.06649-1.41585-.97667-1.41585-.89802,0-1.06657.74163-1.06657,1.47203v3.23435h-1.5947v-3.25683c0-.67421.04495-1.44956-.96544-1.44956-.31463,0-1.07874.20226-1.07874,1.33719v3.36919h-1.5947v-5.80666.00002Z" style="fill:#fff;"/><path d="M124.88109,15.60486h1.51604v.74164h.02247c.38205-.61803,1.01132-.89895,1.72955-.89895,1.81944,0,2.63972,1.4711,2.63972,3.12292,0,1.54882-.854,2.99838-2.54984,2.99838-.69575,0-1.35873-.3034-1.74078-.87648h-.02247v2.7624h-1.5947v-7.84991h.00002ZM129.19325,18.52458c0-.92049-.36987-1.87469-1.3915-1.87469-1.04503,0-1.38214.93173-1.38214,1.87469,0,.9439.35958,1.84191,1.39244,1.84191,1.04504,0,1.3812-.89802,1.3812-1.84191" style="fill:#fff;"/><path d="M131.74683,15.60486h1.51604v1.07781h.02248c.29216-.72946,1.0778-1.23512,1.85315-1.23512.11237,0,.24721.02247.34834.05618v1.48233c-.14607-.03371-.38205-.05525-.57307-.05525-1.16769,0-1.57224.84183-1.57224,1.86345v2.61726h-1.5947v-5.80666Z" style="fill:#fff;"/><path d="M137.22975,18.8955c.04495,1.01132.53937,1.4711,1.42615,1.4711.6405,0,1.15739-.39329,1.25853-.75194h1.40369c-.44948,1.36996-1.40369,1.95335-2.71838,1.95335-1.83067,0-2.96468-1.2576-2.96468-3.05456,0-1.74078,1.20235-3.0658,2.96468-3.0658,1.97676,0,2.93188,1.66212,2.81952,3.44785h-4.1895ZM139.82454,17.88511c-.14607-.80906-.49442-1.23512-1.26883-1.23512-1.01132,0-1.30348.78565-1.32594,1.23512h2.59479-.00002Z" style="fill:#fff;"/><path d="M143.60085,19.52477c.01125.69575.59557.97667,1.22482.97667.45978,0,1.04408-.17979,1.04408-.74163,0-.48225-.66298-.6508-1.8082-.89801-.92143-.20226-1.8419-.52813-1.8419-1.54975,0-1.48233,1.28008-1.86439,2.52736-1.86439,1.26883,0,2.43652.427,2.56013,1.85315h-1.51604c-.04495-.61803-.51691-.78565-1.08998-.78565-.35864,0-.88678.06648-.88678.53843,0,.57308.89801.65174,1.8082.86524.93173.2135,1.8419.55061,1.8419,1.62841,0,1.52728-1.32594,2.0217-2.65097,2.0217-1.34749,0-2.66127-.50566-2.72868-2.04418h1.51605Z" style="fill:#fff;"/><path d="M148.33247,17.39088c.0899-1.49357,1.42615-1.94305,2.72963-1.94305,1.15646,0,2.5489.25845,2.5489,1.65089v3.02085c0,.52813.05618,1.05627.20226,1.29224h-1.6181c-.05525-.17979-.1002-.37175-.11143-.56184-.50566.5272-1.24728.71822-1.95428.71822-1.10028,0-1.97676-.55061-1.97676-1.74078,0-1.31378.98885-1.62841,1.97676-1.76326.97667-.14608,1.88686-.11143,1.88686-.76317,0-.68545-.47195-.78565-1.03287-.78565-.6068,0-1.00008.24628-1.05627.87554h-1.5947.00002ZM152.01631,18.56981c-.26968.23597-.83153.24721-1.32503.33711-.49442.10113-.94389.26969-.94389.85307,0,.59556.46071.74163.97762.74163,1.24635,0,1.29131-.98791,1.29131-1.33625v-.59556Z" style="fill:#fff;"/><path d="M159.60953,14.70623h-1.59196v-1.31378h1.59196v1.31378ZM158.01756,15.60518h1.59196v5.80666h-1.59196v-5.80666Z" style="fill:#fff;"/><path d="M165.93887,14.87514h-2.40376v-1.48233h6.56984v1.48233h-2.40282v6.53612h-1.76326v-6.53612Z" style="fill:#fff;"/><path d="M169.82773,15.60486h1.51604v1.07781h.02248c.29216-.72946,1.0778-1.23512,1.85315-1.23512.11237,0,.24721.02247.34834.05618v1.48233c-.14607-.03371-.38205-.05525-.57307-.05525-1.16769,0-1.57224.84183-1.57224,1.86345v2.61726h-1.5947v-5.80666Z" style="fill:#fff;"/><path d="M175.31065,18.8955c.04495,1.01132.53937,1.4711,1.42615,1.4711.6405,0,1.15739-.39329,1.25853-.75194h1.40369c-.44948,1.36996-1.40369,1.95335-2.71838,1.95335-1.83067,0-2.96468-1.2576-2.96468-3.05456,0-1.74078,1.20235-3.0658,2.96468-3.0658,1.97676,0,2.93188,1.66212,2.81952,3.44785h-4.1895ZM177.90544,17.88511c-.14607-.80906-.49442-1.23512-1.26883-1.23512-1.01132,0-1.30348.78565-1.32594,1.23512h2.59479-.00002Z" style="fill:#fff;"/><path d="M180.44635,13.39232h1.5947v2.92066h.02248c.3933-.59556,1.11246-.86524,1.83067-.86524,1.15646,0,2.40376.93173,2.40376,3.05456,0,2.13407-1.2473,3.0658-2.40376,3.0658-.85307,0-1.56099-.25751-1.90935-.89801h-.02248v.74163h-1.51604v-8.01939h.00002ZM183.3436,16.65008c-.94296,0-1.35873.88678-1.35873,1.86345,0,.96544.41576,1.85315,1.35873,1.85315.94389,0,1.35966-.88771,1.35966-1.85315,0-.97667-.41576-1.86345-1.35966-1.86345" style="fill:#fff;"/><path d="M187.2449,17.39088c.0899-1.49357,1.42615-1.94305,2.72963-1.94305,1.15646,0,2.5489.25845,2.5489,1.65089v3.02085c0,.52813.05618,1.05627.20226,1.29224h-1.61719c-.05618-.17979-.10114-.37175-.11237-.56184-.50566.5272-1.24728.71822-1.95428.71822-1.10028,0-1.97676-.55061-1.97676-1.74078,0-1.31378.98792-1.62841,1.97676-1.76326.97667-.14608,1.88686-.11143,1.88686-.76317,0-.68545-.47195-.78565-1.03287-.78565-.6068,0-1.00008.24628-1.05627.87554h-1.5947.00003ZM190.92873,18.56981c-.26968.23597-.83153.24721-1.32503.33711-.49442.10113-.94389.26969-.94389.85307,0,.59556.46071.74163.97762.74163,1.24635,0,1.29131-.98791,1.29131-1.33625v-.59556Z" style="fill:#fff;"/><rect x="193.80704" y="13.39245" width="1.5947" height="8.01939" style="fill:#fff;"/><rect x="196.71001" y="13.39245" width="1.5947" height="8.01939" style="fill:#fff;"/></svg>