<?xml version="1.0" encoding="UTF-8"?><svg id="uuid-c996af31-5251-4ee2-8deb-950f48fac83e" xmlns="http://www.w3.org/2000/svg" viewBox="0 0 199.56769 43.95327"><polygon points="66.44276 .51608 69.92105 11.0452 73.21803 .51608 78.80305 .51608 72.71808 18.4677 66.7302 18.44866 60.9493 .51608 66.44276 .51608"/><path d="M118.63975.10813l-.00965,3.7952c-1.0512-.47136-4.26094-.65618-4.62576.73003-.40388,1.53461.90296,1.96711,2.0629,2.33734.83165.26545,1.70522.43877,2.56342.59533v4.1201c-2.40251-.66105-4.90112-1.01364-7.20421-1.99734-1.25513-.64796-2.27202-1.70881-2.40788-3.17714-.29848-3.22614,1.4874-5.20093,4.48485-5.99556h0c2.30315-.61627,3.64591-.57794,5.13632-.40795h0Z"/><path d="M96.29058,27.89184c1.03664-1.20719,2.35351-2.25451,3.95101-2.59536,2.38326-.50851,5.65659.2631,6.57923,2.77826,1.7846-2.26105,3.88596-3.24699,6.80888-2.827,3.40197.48882,4.90381,2.67189,5.09634,5.98214.22631,3.89103-.18093,7.99693.00084,11.91099l-.142.31579h-4.80678v-11.49049c0-.43807-.3387-1.49871-.60096-1.8711-.90412-1.28381-3.44838-1.29266-4.5252-.23365-.52889.52014-1.00821,1.93194-1.00821,2.6541v10.94115h-4.94412v-11.39894c0-.30593-.17495-1.13556-.29561-1.44399-.83403-2.132-4.07772-1.85812-5.21582-.13045-.20056.30446-.62294,1.33485-.62294,1.666v11.17004l-.13734.13734h-4.80678v-17.7622h4.66944v2.19739Z"/><path d="M126.04684,18.91918v8.78954c2.79543-3.4097,8.10918-3.40586,10.89287.04828,3.42771,4.25327,2.76981,13.61484-2.92849,15.74428-2.17694.81352-5.91959.46854-7.5533-1.32551-.25741-.28267-.40989-.66426-.68575-.91651v2.19739h-4.66944v-24.53747h4.94412ZM132.58512,39.09956c2.28401-2.31476,2.04563-9.59397-1.83083-10.10126-6.46904-.84656-6.16731,10.51044-1.52504,11.13859,1.35877.18386,2.39586-.0644,3.35587-1.03733Z"/><path d="M169.17053,43.45665h-5.03567l-.32-1.64758c-3.26845,3.25894-11.54053,3.11434-11.95226-2.60631-.40579-5.6382,4.17553-5.63157,8.27843-6.28632,1.03673-.16544,3.29667-.4074,3.44444-1.68287.27821-2.40137-1.61311-2.8815-3.60468-2.68902-1.54599.14942-2.63056,1.01277-2.62119,2.64337h-4.94412c-.01854-2.86019,2.00954-4.74372,4.59921-5.51792,3.31221-.99021,11.02047-.88497,11.50369,3.74381.41718,3.99622-.43226,8.58919.20689,12.61119.0786.49459.20994.98864.44528,1.43165ZM163.58551,34.85023c-2.02803,1.34877-7.2731.1634-6.76745,3.97496.31644,2.3853,4.4054,2.17745,5.81042.79037.40369-.39853.95703-1.50811.95703-2.06438v-2.70095Z"/><path d="M89.9731,35.7658h-12.72652c.1293,2.0367.67876,3.71768,2.83763,4.2581,2.1044.52678,4.37029-.12501,5.35679-2.15227h4.25743c-1.11978,4.45947-4.8964,6.34643-9.29216,6.04186-11.48553-.7958-10.5355-19.37661,1.46777-18.77226,5.61614.28277,8.60891,5.39761,8.09906,10.62457ZM85.02898,32.56128c-.34274-1.80847-1.10924-3.41943-3.15481-3.57468-2.64221-.20053-4.26262.90852-4.62759,3.57468h7.78241Z"/><path d="M95.93593,10.8622h-12.72652c.1293,2.0367.67876,3.71768,2.83763,4.2581,2.1044.52678,4.37029-.12501,5.35679-2.15227h4.25743c-1.11978,4.45947-4.8964,6.34643-9.29216,6.04186-11.48553-.7958-10.5355-19.37661,1.46777-18.77226,5.61614.28277,8.60891,5.39761,8.09906,10.62457ZM90.99181,7.65768c-.34274-1.80847-1.10924-3.41943-3.15481-3.57468-2.64221-.20053-4.26262.90852-4.62759,3.57468h7.78241Z"/><path d="M187.57363,43.45665h-4.94412v-10.94115c0-.66846-.41237-2.09624-.86645-2.61275-1.00584-1.14415-3.77962-.9875-4.81385.04542-.54805.54735-1.09498,2.0852-1.09498,2.842v10.52914l-.13734.13734h-4.80678v-17.7622h4.66944v2.3805c1.59205-2.35656,4.20868-3.22971,6.99243-2.82656,3.02746.43845,4.52914,2.31562,4.89875,5.26415.22777,4.30153.04362,8.63263.10287,12.9441Z"/><path d="M195.99694,20.38411v5.17301l.13734.13734h3.43341v3.29608h-3.57075c.12906,2.81014-.17124,5.77121-.00382,8.56446.02904.4845.1242,1.51852.48977,1.84455.55528.49523,2.36362.29063,3.08479.21168v3.93698c-2.65686.1163-7.36198.69723-8.28769-2.65346-.26236-.94963-.10834-1.71712-.1319-2.60729-.07231-2.73206-.07972-5.42681-.10317-8.15208-.0031-.35994.28846-.84677-.03789-1.14484h-2.79251v-3.06718c0-.03206-.16243-.10155.04578-.22889h2.79251v-5.31035h4.94412Z"/><path d="M152.14079,29.90611c-2.27077-.28795-4.74786-.18433-5.89375,2.11755-.22249.44694-.60684,1.66958-.60684,2.13989v9.15577l-.13734.13734h-4.80678v-17.7622h4.66944v3.11296l1.09631-1.60465c.74162-.82324,1.95579-1.53487,3.02476-1.8278.80973-.22189,1.93358-.42044,2.6542.09059v4.44055Z"/><path d="M62.13955,43.82288v-3.2503c0-.04311-.24519-.15777.04618-.13897.29466.01901.6146.16086.91673.18327,1.58897.11787,4.22714-.53718,3.66398-2.65677-.36903-1.38894-3.4619-1.67687-4.62688-2.10276v-4.02854c1.87496.46754,3.81918.73306,5.65496,1.34921,1.8611.62465,3.75676,1.7434,3.95713,3.91683.51666,5.60424-5.01983,7.33275-9.61209,6.72802Z"/><path d="M113.18298,12.6017l.12228.1524c.03697,2.70121,3.2226,3.33032,5.32541,2.59434v3.47919c-3.91118.50937-9.2959-.55649-9.955-5.19786-.03964-.27915-.15069-.84507.02099-1.02807h4.48633Z"/><path d="M71.29532,30.91324h-4.66944c-.2126-2.24678-2.14854-2.40243-3.98671-2.38466-.24618.00238-.45787.18861-.57995-.04163-.00205-.03534.08033-.06706.08033-.09155v-3.15874c4.01151-.48135,8.91457.93981,9.15577,5.67658Z"/><path d="M108.9151,4.93748c-2.27077-.28795-4.74786-.18433-5.89375,2.11755-.22249.44694-.60684,1.66958-.60684,2.13989v9.15577l-.13734.13734h-4.80678V.72582h4.66944v3.11296l1.09631-1.60465c.74162-.82324,1.95579-1.53487,3.02476-1.8278.80973-.22189,1.93358-.42044,2.6542.09059v4.44055Z"/><path d="M37.22341.59867c1.3371.60913,2.66575,1.24892,3.90408,2.04582,14.58852,9.38821,14.51358,30.84025-.11545,40.14672-.58774.3739-1.2348.66182-1.79146,1.07948h-6.07473l-.00474-8.8577c-.28609-.97641-1.54228-.84032-1.66153.15973l.00196,8.69797h-1.99717l-.00536-8.94029c-.37646-1.3269-2.09438-1.26357-2.40281.08293l-.00508,8.85737h-1.99717l.00191-8.69793c-.13475-1.11766-1.56669-1.09974-1.66616.00198l-.00007,8.69595h-6.07473l-2.77241-1.76283C5.2179,35.44983,1.86373,23.09995,6.75191,12.60863,9.27826,7.18641,13.83696,2.92799,19.3321.59867h17.89131ZM35.22624,43.28818c7.64366-2.38797,13.5609-9.59052,14.63521-17.52754C52.39806,7.02024,31.53179-6.09954,15.89396,4.77474c-12.84861,8.9347-12.37816,28.06998.86541,36.38449,1.42914.89724,3.0242,1.71251,4.65269,2.12882l-.00253-8.44919.10939-.55634,6.75885-13.12803c1.75284,3.33992,3.55384,6.687,5.24433,10.06566.32862.65679,1.70414,3.17251,1.70414,3.70487v8.36315ZM28.65222,26.22817l-.37447-.66323-.37245.62304c.00571.18375.64638.01282.74692.0402ZM31.81434,32.38584l-2.07929-4.03586-2.79138-.04697-2.2025,4.08283,1.20788.50179c1.45264-1.19657,3.20732-1.20266,4.65742,0l1.20788-.50179Z"/><path d="M46.04424.59867c1.72687,1.44574,3.31892,3.04506,4.69305,4.83512,7.01004,9.13192,7.78778,21.62884,1.97852,31.58596-1.49551,2.56332-3.47995,4.79473-5.58976,6.85094h-3.16219c3.48537-2.73954,6.37502-6.14982,8.22659-10.20563,3.04437-6.6686,3.19073-14.30284.38356-21.08072-2.02205-4.88222-5.54289-9.07671-9.94159-11.98567h3.41183Z"/><path d="M13.92309.59867c-3.65372,2.48734-6.75148,5.76329-8.83516,9.68027-5.71501,10.74331-3.35319,23.82915,5.58858,31.97022.61529.5602,1.33135,1.02406,1.91513,1.62152h-3.16219c-1.30055-1.35581-2.64755-2.65924-3.77908-4.16799C-1.43042,30.26135-1.89857,17.28221,4.48516,7.34613c1.64237-2.5563,3.73971-4.7646,6.0261-6.74746h3.41183Z"/><path d="M16.08612,17.07504l-2.32906-.33171,1.77537,1.17749.13793.23514c-2.31931,1.10476-5.23011.04453-6.14691-2.38131-.31368-.83-.13827-.90912.65663-1.23572,2.37685-.97656,5.0889.0752,5.90605,2.53611Z"/><path d="M42.79819,16.8246c.01902-.14892-.18673-.0805-.2796-.07181-.63821.05969-1.31101.19025-1.94316.30594-.12398.02269-.12195.03686-.10954-.11013.03784-.44812.85504-1.40392,1.20761-1.70596,1.56444-1.34025,3.88108-1.45307,5.52743-.19206-.47974,2.57918-3.16745,4.13126-5.68717,3.35144-.21177-.06554-.78493-.18987-.5417-.449.35491-.37812,1.36276-.81628,1.82614-1.12842Z"/><path d="M16.16929,27.39508l-1.82974,1.4556,2.2474-.33231c-.79521,2.71715-4.12962,4.0186-6.53853,2.45401.2349-2.96442,3.40727-4.67968,6.12087-3.5773Z"/><path d="M28.81921,8.91994l-.50079-2.24604-.62319,2.24464c-2.1814-1.88423-1.83941-5.48628.5982-6.97761.54036.30822,1.04175.81905,1.37353,1.34608.83153,1.32089.93851,2.95291.24812,4.358-.07412.15085-.9065,1.45442-1.09588,1.27493Z"/><path d="M39.96994,28.47627l2.24639.41479-1.83053-1.49603c2.73097-1.08978,5.77888.58597,6.14893,3.52303-2.35668,1.67669-5.84849.29755-6.56478-2.44179Z"/><path d="M23.6584,9.83549c-.09929.10301-1.35994-1.7226-1.41484-1.91322-.15447-.018-.06911.17528-.05855.26633.08014.69098.29366,1.37414.3922,2.06248-2.75299-.77807-3.95222-4.28344-2.3146-6.64255,2.98565.34665,4.4799,3.53473,3.39579,6.22696Z"/><path d="M41.46779,23.31732l2.3292-.41779-2.32923-.7061c1.91235-1.8444,4.82414-1.78624,6.57589.24705.26607.30884.53244.4914.28404.87172-1.35562,2.07552-5.22524,2.21881-6.73598.25446-.06401-.08323-.16134-.10554-.12392-.24934Z"/><path d="M15.08791,22.23367l-2.3294.58437,2.16285.45981c.41753.05394-.11114.44433-.25772.57113-1.68854,1.46062-4.02958,1.54365-5.77262.13076-.15719-.12742-.78425-.73-.79719-.87546-.02731-.30698.90577-1.2078,1.17615-1.40368,1.76316-1.27735,4.33263-1.06767,5.81793.53307Z"/><path d="M42.96527,9.71075c-.24371,2.16394-2.56194,4.04763-4.74286,3.78586l1.16417-1.91309-1.832,1.04062-.16506-.08578c.08342-1.90848,1.13909-3.52302,2.93944-4.21569.7624-.29333,1.9268-.46877,2.63631-.02658-.03637.45383.04996.97109,0,1.41466Z"/><path d="M36.29612,3.60685c1.58854,2.37972.44999,5.85887-2.31782,6.64423l.37457-2.32907-1.45575,1.91348c-1.08324-2.67738.41455-5.92133,3.39901-6.22864Z"/><path d="M13.59023,8.29609c.10707-.35301,1.62408-.24722,1.93433-.18681,1.5256.29705,3.0464,1.62275,3.43489,3.13914.11382.44427.0846.86509.20355,1.29299l-.16207.08274-1.91482-1.12423,1.247,1.9967c-1.74343.17796-3.57923-.89721-4.31487-2.46633-.11988-.25571-.42799-1.08296-.42799-1.31953v-1.41466Z"/><path d="M35.3097,19.98689l.58224-.66392-.83157-.04189c.57946-1.28287,1.96547-1.90857,3.30077-1.38793.75921.29602.56909.66232.14686,1.25731-.72761,1.02534-2.06011,1.31934-3.1983.83643Z"/><path d="M25.07479,14.74531l-.00125.74861c-1.52482-.3278-2.29985-2.50055-1.25146-3.70481,1.5949.22974,2.56466,2.03785,1.79278,3.45382l-.54007-.49762Z"/><path d="M21.41205,19.32172l-.74849.00125.50237.46025-.05448.21128c-1.41192.67928-3.17274-.2505-3.4355-1.78293,1.2115-.99566,3.32302-.431,3.7361,1.11015Z"/><path d="M34.81052,25.73023l.74856-.00134-.49769-.54007c1.36115-.83945,3.29669.35341,3.40171,1.8996-1.26457.92672-3.30113.18824-3.65258-1.35819Z"/><path d="M20.83003,22.31721l-.66591.16799c-.02552.20306.00039.13197.11604.17404.18962.06898.43409.0985.63284.15895-.70993,1.07349-2.13696,1.20548-3.2175.59538-.98575-.55658-.8139-.99517.06284-1.54602.61097-.38386,1.35061-.51599,2.05834-.3255.13675.03681,1.19672.58298,1.01334.77516Z"/><path d="M23.15959,16.82562l-.8317-.24878.3309.6258c.05542.18655-.16669.12451-.29206.12568-1.45445.01356-2.69398-1.59047-2.27327-2.98689,1.59245-.35145,3.06311.87626,3.06614,2.48419Z"/><path d="M35.64227,22.8184l.74925-.16812c.25044-.20637-.7467-.24479-.66525-.45605.09481-.2459,1.01287-.677,1.28697-.7107.75786-.09317,1.5547.10348,2.12595.62449.65521.59758.39878.91474-.27924,1.30551-1.07698.62069-2.50632.45914-3.21768-.59513Z"/><path d="M20.914,25.8129c.20881-.09901.48391-.11481.70827-.08309.09437.01335.16799-.03459.12113.12223-.41926,1.40325-2.48088,2.1686-3.64921,1.23626.05362-1.55665,2.07599-2.7131,3.39989-1.89951-.06299.15086-.7074.46289-.58008.6241Z"/><path d="M36.47486,14.32896c.25546,1.68068-.93187,3.14502-2.66326,2.99517l.41602-.74729-.83173.24899c-.04754-1.64269,1.49377-2.81754,3.07897-2.49687Z"/><path d="M32.79623,11.85067c.1114.06425.33134.76751.35014.93851.13006,1.1831-.43699,2.44057-1.6644,2.70473l-.00125-.74861-.54006.49762c-.56376-.93719-.21289-2.27504.63146-2.94515.23907-.18973.93724-.61257,1.22412-.44711Z"/><path d="M28.31832,13.99696l-.2492.74818c-.19463.17211-.71137-.78098-.7658-.93937-.37733-1.09809-.00222-2.42116,1.04581-2.96286,1.28669.91177,1.45364,2.70619.38874,3.8634-.28149.15645-.3514-.55727-.41955-.70935Z"/><path d="M28.21201,17.00377c.3805-.09626.65871.58818.68602.87214.02026.21058-.18956.99861-.37556,1.02974-.10665.01785-.20872-.23859-.45342-.03444-.51716-.33954-.40518-1.72878.14296-1.86745Z"/><path d="M25.24094,23.48384l-.08416.33151.24881.12358c-.37536.67689-1.10144,1.02895-1.8184.61482-.02148-.84826.89278-1.34568,1.65375-1.06991Z"/><path d="M23.71851,20.17212c.63818-.14357,1.14454.10921,1.51287.61764-.1378.47991-.19347.65825-.78021.61798-.54428-.03736-1.61494-1.03713-.73265-1.23562Z"/><path d="M32.97596,24.55954c-.45935.1804-.82289.25902-1.27371-.00743-.17086-.10099-.89285-.84157-.30347-.73676l-.08404-.33176c.78527-.25126,1.63147.20804,1.66122,1.07595Z"/><path d="M24.98172,22.31113l-.15334.00922.00029.1613.16438.04403c-.44233.74805-1.5229.57464-1.9971-.08296.51254-.6429,1.35145-.80789,1.99427-.24858l-.0085.11699Z"/><path d="M25.98861,19.90467l-.24844-.08367-.00451.24341c-.77957.0948-1.42398-.67604-1.29175-1.41367.80011-.34341,1.65491.43545,1.5447,1.25392Z"/><path d="M27.15345,19.15561l-.24797-.16677-.00103.25061c-.38662.03283-.82376-.46128-.8958-.80996-.41407-2.00405,1.77018-.52958,1.1448.72612Z"/><path d="M31.46172,21.00778c-.01506-.026-.1433-.02307-.15081-.06646-.04339-.25042.51823-.68606.75048-.74762,1.8984-.50319.88148,1.55276-.39959,1.15333-.40014-.12476-.138-.23211-.20007-.33926Z"/><path d="M29.64323,18.99548l-.24117.0779c-.29874-.68913.17265-1.61408.94164-1.65635.52557.58798.16212,1.49779-.49465,1.81441l-.20582-.23595Z"/><path d="M31.7308,22.31889l-.1611-.00426c-.17706-.20983.70099-.48064.86883-.48063.27021.00003,1.0424.30005,1.04263.60869-.35606.7388-1.38545.71128-1.91701.16326l.16665-.28706Z"/><path d="M30.82239,20.05998l-.02165-.22348-.23973-.05841c-.0907-.4345.41906-1.055.83464-1.16548,1.55432-.41322.36538,1.70735-.57327,1.44737Z"/></svg>